<svg xmlns="http://www.w3.org/2000/svg" width="125" height="101" viewBox="0 0 125 101" fill="none"><path d="M38.6703 84.8077C61.2123 84.8077 79.4862 67.4981 79.4862 46.1456C79.4862 24.793 61.2123 7.4834 38.6703 7.4834C16.1284 7.4834 -2.14551 24.793 -2.14551 46.1456C-2.14551 67.4981 16.1284 84.8077 38.6703 84.8077Z" fill="#14C3BF"></path><path d="M72.6021 53.6201C76.9864 35.888 65.3612 18.1625 46.6365 14.0292C27.9118 9.89585 9.17821 20.9198 4.79393 38.652C0.409637 56.3841 12.0348 74.1095 30.7596 78.2428C49.4843 82.3762 68.2178 71.3522 72.6021 53.6201Z" fill="#3D5276"></path><path d="M38.698 46.9726C38.3135 46.9726 38.0029 46.6784 38.0029 46.3282V19.867C38.0029 19.5168 38.3135 19.2227 38.6832 19.2227H38.698C39.0677 19.2227 39.3782 19.5168 39.3782 19.867V46.3422C39.3782 46.6784 39.0677 46.9726 38.698 46.9726Z" fill="#FEFEFE"></path><path d="M39.3185 46.6755C39.1411 46.9977 38.727 47.1098 38.3869 46.9417L21.8239 38.495C21.4986 38.3269 21.3655 37.9347 21.5429 37.6265V37.6125C21.7204 37.3044 22.1345 37.1783 22.4598 37.3464L39.0228 45.7931C39.3777 45.9752 39.496 46.3674 39.3185 46.6755Z" fill="#FEFEFE"></path><path d="M124.855 47.5205H50.5439V91.0855H124.855V47.5205Z" fill="#E9EAF4"></path><path d="M87.7071 71.2361L124.855 49.4536V47.5205H50.5439V49.4536L87.7071 71.2361Z" fill="#3D5276"></path><path d="M87.7071 69.303L50.5439 47.5205H124.855L87.7071 69.303Z" fill="#E9EAF4"></path><path opacity="0.32" d="M50.5439 91.1005H115.598V56.2905V54.3574H50.5439V91.1005Z" fill="#BFC2D9"></path><path d="M112.029 57.3955H37.7178V100.96H112.029V57.3955Z" fill="#E9EAF4"></path><path d="M74.8661 81.1111L112.029 59.3286V57.3955H37.7178V59.3286L74.8661 81.1111Z" fill="#3D5276"></path><path d="M74.8661 79.192L37.7178 57.3955H112.029L74.8661 79.192Z" fill="#E9EAF4"></path><path d="M91.2188 9.27241L93.8807 9.09031L96.5426 8.9082C96.5426 8.9082 97.8144 15.7301 99.2637 16.4585C99.2637 16.4585 101.585 24.4571 95.049 24.8914C87.1372 25.4237 89.6217 17.0889 89.6217 17.0889C90.9674 16.1924 91.2188 9.27241 91.2188 9.27241Z" fill="#D9A69D"></path><path d="M106.823 47.5418L109.706 32.7073C109.307 26.0115 108.346 19.4137 108.346 19.4137C104.649 17.4106 99.2659 16.458 99.2659 16.458L99.2215 16.5C96.5152 18.6293 92.6851 18.8954 89.683 17.1444L89.6239 17.1164C89.6239 17.1164 83.9452 18.7833 80.5882 21.2628C80.5882 21.2628 80.1741 25.073 81.0318 29.7236C81.7417 33.5758 82.6881 37.386 84.0043 41.0981L86.2965 47.5699H106.823V47.5418Z" fill="#F77021"></path><path d="M106.824 47.5502L109.708 32.7157C109.619 31.3149 109.604 29.9561 109.619 28.6534C105.537 34.4807 100.731 40.168 92.9821 38.3189C88.2054 37.1703 84.9668 31.6371 81.4915 28.7654C81.2401 28.5553 80.9887 28.3592 80.7373 28.1631C80.8556 28.7514 80.9739 29.3678 81.0922 29.9981C81.7577 33.7663 82.7337 37.4924 84.0203 41.1065L86.2977 47.5502H106.824Z" fill="#DB6723"></path><path d="M87.0231 10.8936C87.7033 10.0391 88.6794 11.2018 88.6794 11.2018C88.6794 11.2018 87.1266 6.7332 88.1914 4.66001C89.2561 2.58682 93.2933 3.37127 93.2933 3.37127C93.2933 3.37127 97.1679 2.05452 98.5284 3.97362C99.8889 5.89272 99.0164 10.5154 99.0164 10.5154C99.0164 10.5154 99.815 9.22663 100.614 9.98306C101.412 10.7395 99.608 12.8967 99.1791 13.1769C99.1791 13.1769 96.7094 18.4019 94.4173 18.556C92.1251 18.7101 88.9012 13.8633 88.9012 13.8633C88.4428 13.6532 86.3428 11.7481 87.0231 10.8936Z" fill="#ECB7AE"></path><path d="M94.4626 5.11116C94.4626 5.11116 97.4942 5.40533 97.9379 6.90416C98.1597 7.63256 98.0414 8.44501 97.9527 9.18742C97.9083 9.57964 97.7752 11.6668 97.8787 11.7088C97.9822 11.7508 98.1893 11.6808 98.2632 11.6248C98.6477 11.2886 98.9287 10.8263 99.1801 10.4061C99.6829 9.57964 100.511 9.66369 100.792 10.14C100.792 10.14 100.896 2.63179 97.583 2.58977C94.2852 2.53374 94.4626 5.11116 94.4626 5.11116Z" fill="#3D5276"></path><path d="M92.5174 5.23711C92.5174 5.23711 89.5597 5.93749 89.3526 7.47835C89.2491 8.23477 89.4857 9.0192 89.678 9.7336C89.7815 10.1118 90.2252 12.1709 90.1216 12.227C90.0181 12.283 89.8111 12.241 89.7223 12.185C89.2935 11.9048 88.9386 11.4706 88.628 11.0923C88.0069 10.3499 87.1935 10.532 87.0013 11.0363C87.0013 11.0363 85.7886 3.62621 89.0569 3.13594C92.3251 2.64567 92.5174 5.23711 92.5174 5.23711Z" fill="#3D5276"></path><path d="M101.323 60.3815C101.086 60.8017 99.9623 61.39 100.288 62.0204C100.45 62.3285 101.456 61.7822 101.693 61.5301C102.018 61.1939 104.34 58.3223 104.739 57.4819C105.049 56.8235 105.345 56.1651 105.685 55.5628C104.976 55.0865 104.34 54.4842 103.763 53.8398C102.669 54.2181 101.5 54.7644 100.421 55.1145C99.844 55.2967 99.2229 55.4087 98.6461 55.5628C98.2764 55.6609 97.5074 55.7869 97.4335 56.2352C97.3595 56.7254 98.1285 56.6414 98.4391 56.6134C98.8827 56.5714 99.7109 56.2352 99.9771 56.7254C100.362 57.4398 98.9419 58.1402 98.4391 58.5745C97.9806 58.9807 96.3096 60.1854 97.4335 60.3815C97.6701 60.4235 99.3855 59.2328 99.6517 59.0787C99.5926 59.1348 98.4835 60.0033 98.4243 60.0593C98.1285 60.3815 97.3004 61.0258 97.4926 61.39C97.9215 62.1745 99.7848 60.3394 100.066 60.0873L99.356 60.8157C98.7496 61.362 98.3651 61.8383 98.8088 62.0624C99.4151 62.3566 100.776 60.8297 101.323 60.3815Z" fill="#ECB7AE"></path><path d="M101.618 54.2583L105.345 56.9479C105.345 56.9479 118.329 43.7803 117.383 38.5834C115.83 30.0525 111.231 20.3169 108.495 19.4904C107.356 19.1402 106.069 23.4967 107.578 29.6602C107.578 29.6602 110.255 38.7374 110.077 39.676C109.914 40.6285 101.618 54.2583 101.618 54.2583Z" fill="#F77021"></path><path d="M87.5491 67.6101C87.7561 68.0584 88.8209 68.7307 88.4364 69.3191C88.2441 69.6132 87.2829 68.9829 87.0758 68.7307C86.7801 68.3665 84.7097 65.3268 84.3844 64.4584C84.133 63.772 83.8964 63.0996 83.6006 62.4693C84.3548 62.049 85.0351 61.5027 85.671 60.9004C86.7209 61.3626 87.8448 61.993 88.88 62.4272C89.442 62.6514 90.0483 62.8195 90.6103 63.0156C90.9652 63.1416 91.7342 63.3237 91.7637 63.772C91.7933 64.2763 91.0391 64.1222 90.7286 64.0661C90.2849 63.9821 89.4863 63.5899 89.1758 64.0661C88.7321 64.7525 90.0927 65.551 90.5363 66.0272C90.9652 66.4615 92.518 67.8062 91.3793 67.9183C91.1426 67.9463 89.5307 66.6296 89.2793 66.4475C89.3237 66.5035 90.3589 67.456 90.418 67.5261C90.6842 67.8622 91.4532 68.5766 91.2314 68.9268C90.7434 69.6833 89.0279 67.6942 88.7765 67.428L89.4272 68.2124C89.9744 68.8008 90.3293 69.305 89.856 69.4871C89.2793 69.7253 88.0519 68.1004 87.5491 67.6101Z" fill="#ECB7AE"></path><path d="M87.3139 61.5263L83.7795 63.7536C83.7795 63.7536 71.5939 49.5355 72.8065 44.3805C74.7882 35.9337 78.1599 23.0042 80.8958 21.0291C81.8422 20.3427 84.8738 25.7638 84.652 29.1538C84.652 29.1538 80.1416 46.0335 80.2599 46.986C80.3782 47.9385 87.3139 61.5263 87.3139 61.5263Z" fill="#F77021"></path><path d="M98.7455 3.4794C98.7455 3.4794 98.8046 2.33077 97.4293 1.61637C96.054 0.901974 93.3181 0.593803 91.1443 1.61637C88.9704 2.63894 88.3197 2.87707 87.6838 2.54088C87.0479 2.2047 87.4472 1.8545 87.4472 1.8545C87.4472 1.8545 86.0275 1.84049 86.1014 3.92765C86.1754 6.01481 88.8816 8.60624 92.4161 8.60624C97.8286 8.62025 99.5736 5.03426 98.7455 3.4794Z" fill="#3D5276"></path></svg>