<svg xmlns="http://www.w3.org/2000/svg" width="128" height="100" viewBox="0 0 128 100" fill="none"><path d="M23.9683 99.9999C17.6457 99.9999 12.9864 98.3086 9.99035 94.926C6.99427 91.5434 5.41079 85.9017 5.22852 78.001L18.4888 76.1647C18.4888 78.3996 18.6027 80.2842 18.8305 81.8064C19.0584 83.3285 19.4001 84.5004 19.833 85.2977C20.2659 86.1071 20.7444 86.6628 21.2456 86.989C21.7469 87.3152 22.3278 87.4843 23 87.4843C24.7429 87.4843 25.6201 86.1433 25.6201 83.4735C25.6201 80.852 25.0619 78.605 23.9455 76.7325C22.8291 74.8479 21.0292 72.7942 18.5685 70.5592L14.5244 66.9229C13.0548 65.582 11.8586 64.3981 10.9245 63.3712C9.99035 62.3323 9.03343 61.0638 8.0765 59.5537C7.10819 58.0436 6.40189 56.3765 5.93482 54.5402C5.46775 52.716 5.23991 50.6865 5.23991 48.4515C5.23991 42.5924 6.90313 38.0742 10.2296 34.897C13.556 31.7198 18.147 30.1251 24.0139 30.0889C34.5058 30.0889 39.7803 36.6849 39.8601 49.8771L26.2922 51.3026C26.2922 49.5267 26.2695 48.1978 26.2353 47.316C26.2011 46.4341 26.0872 45.5159 25.9049 44.5736C25.7226 43.6313 25.4378 42.979 25.0391 42.6166C24.6404 42.2541 24.105 42.0609 23.4443 42.0609C22.4873 42.085 21.7696 42.6166 21.2798 43.6555C20.7899 44.6944 20.5507 45.7455 20.5507 46.8086C20.5507 47.3764 20.5963 47.9442 20.6874 48.4878C20.7785 49.0314 20.8583 49.5146 20.938 49.9375C21.0178 50.3603 21.1773 50.8194 21.4393 51.3268C21.7013 51.8341 21.8836 52.2328 22.0203 52.5348C22.1456 52.8368 22.4076 53.2355 22.7949 53.7187C23.1822 54.214 23.4329 54.5523 23.5696 54.7456C23.6949 54.9389 24.0025 55.2771 24.4923 55.7725C24.9822 56.2678 25.2784 56.5577 25.3809 56.6543C25.4834 56.751 25.8138 57.0651 26.3834 57.5966C26.953 58.1282 27.2606 58.4181 27.3061 58.4785L31.0085 61.9578C32.5806 63.4558 33.9021 64.8571 34.9957 66.1739C36.0893 67.4787 37.1374 68.9888 38.1399 70.6921C39.1424 72.3955 39.8942 74.2439 40.3955 76.2493C40.8967 78.2547 41.1474 80.4171 41.1474 82.7245C41.1474 87.6051 39.5753 91.7005 36.4197 95.0348C33.2527 98.3328 29.1061 99.9999 23.9683 99.9999Z" fill="#D0D1DE"></path><path d="M47.9482 98.9307V31.1338H77.8635V42.2601H63.6008V57.3852H74.2409V68.9102H63.6008V87.8406H78.023V98.9187H47.9482V98.9307Z" fill="#D0D1DE"></path><path d="M112.552 98.4958C109.966 99.4864 106.856 99.9938 103.199 99.9938C99.5539 99.9938 96.4439 99.4985 93.8693 98.4958C91.2947 97.5052 89.2555 96.0193 87.7404 94.038C86.2253 92.0568 85.1316 89.7373 84.4595 87.0433C83.7874 84.3614 83.457 81.1962 83.457 77.5358V52.5166C83.457 48.8683 83.7874 45.691 84.4595 43.0091C85.1316 40.3272 86.2253 37.9956 87.7404 36.0144C89.2555 34.0331 91.2947 32.5472 93.8693 31.5566C96.4439 30.566 99.5539 30.0586 103.199 30.0586C106.856 30.0586 109.966 30.5539 112.552 31.5566C115.138 32.5472 117.189 34.0331 118.715 36.0144C120.242 37.9956 121.347 40.3272 122.03 43.0091C122.714 45.691 123.055 48.8683 123.055 52.5166V77.5358C123.055 81.1842 122.714 84.3614 122.03 87.0433C121.347 89.7252 120.242 92.0568 118.715 94.038C117.189 96.0193 115.127 97.5052 112.552 98.4958ZM103.199 88.493C104.054 88.493 104.737 88.2997 105.284 87.901C105.819 87.5024 106.207 86.9225 106.446 86.1614C106.674 85.4003 106.822 84.6996 106.89 84.0714C106.947 83.4432 106.981 82.6701 106.981 81.7399V48.2642C106.981 47.334 106.947 46.5608 106.89 45.9326C106.822 45.3044 106.674 44.6159 106.446 43.8668C106.218 43.1178 105.831 42.55 105.284 42.1514C104.749 41.7527 104.054 41.5594 103.199 41.5594C102.504 41.5594 101.912 41.7044 101.422 42.0064C100.932 42.3084 100.568 42.6588 100.317 43.0454C100.078 43.444 99.8842 43.9877 99.7589 44.6763C99.6336 45.3649 99.5539 45.9447 99.5425 46.3917C99.5311 46.8387 99.5197 47.4669 99.5197 48.2521V81.7399C99.5197 82.501 99.5197 83.1171 99.5425 83.5761C99.5539 84.0352 99.6222 84.6151 99.7589 85.3158C99.8842 86.0044 100.078 86.5601 100.317 86.9467C100.568 87.3453 100.932 87.6957 101.422 88.0098C101.912 88.3239 102.504 88.493 103.199 88.493Z" fill="#D0D1DE"></path><path d="M66.6311 11.529C66.6311 11.529 68.431 18.415 69.3196 19.5385C70.2081 20.6621 73.1017 22.3292 73.1017 22.3292L72.3384 23.7668C72.3384 23.7668 67.0867 20.9278 66.1754 18.6083C65.64 17.2553 65.2868 16.0835 65.1159 15.0445C64.9678 14.1868 64.3754 12.0727 64.6716 11.227C64.8425 10.6713 66.2096 10.3814 66.6311 11.529Z" fill="#00BAD1"></path><path opacity="0.65" d="M66.6311 11.529C66.6311 11.529 68.431 18.415 69.3196 19.5385C70.2081 20.6621 73.1017 22.3292 73.1017 22.3292L72.3384 23.7668C72.3384 23.7668 67.0867 20.9278 66.1754 18.6083C65.64 17.2553 65.2868 16.0835 65.1159 15.0445C64.9678 14.1868 64.3754 12.0727 64.6716 11.227C64.8425 10.6713 66.2096 10.3814 66.6311 11.529Z" fill="#00A1CC"></path><path d="M84.666 44.3898L85.9875 43.073C85.9875 43.073 91.2961 42.6622 91.6037 43.1575C91.9113 43.6529 86.5685 46.3228 85.885 46.2745C85.2014 46.2262 84.7572 44.9335 84.666 44.3898Z" fill="#3D5276"></path><path d="M74.9361 25.3569C74.9361 25.3569 79.9485 24.0039 80.37 24.8737C80.7801 25.7556 85.9862 43.0672 85.9862 43.0672L84.6648 44.384C84.6648 44.384 79.0827 29.7663 77.4651 28.2442C75.8474 26.7099 74.1956 25.9609 74.9361 25.3569Z" fill="#ECB7AE"></path><path d="M74.9361 25.3569C74.9361 25.3569 79.9485 24.0039 80.37 24.8737C80.7801 25.7556 85.9862 43.0672 85.9862 43.0672L84.6648 44.384C84.6648 44.384 79.0827 29.7663 77.4651 28.2442C75.8474 26.7099 74.1956 25.9609 74.9361 25.3569Z" fill="#D9A69D"></path><path d="M72.3502 22.1641C72.7261 22.0553 73.0451 21.9224 73.3983 21.7171C73.6831 21.56 73.9451 21.403 74.2868 21.4513C74.5261 21.4875 76.4513 22.3332 75.9387 22.7198C75.7678 22.8406 75.3577 22.6232 75.1868 22.5628C74.9476 22.4782 74.7083 22.3453 74.4805 22.2486C74.6856 22.2366 75.7336 22.7077 75.6197 22.9614C75.426 23.4205 74.3666 22.8044 74.1274 22.6594C74.3096 22.6957 74.9704 22.9494 74.9704 23.2031C74.9704 23.6017 74.1957 23.2635 74.0248 23.1789C73.8995 23.1064 73.8084 23.0218 73.6717 22.9977C73.5122 22.9735 73.3527 23.046 73.2046 23.0823C72.9426 23.1427 72.6578 23.1306 72.3844 23.0943C72.2249 23.0823 71.849 23.1185 71.7692 22.9735C71.6895 22.8165 71.7464 22.4661 71.8718 22.3574C71.9971 22.2366 72.1793 22.2124 72.3502 22.1641Z" fill="#ECB7AE"></path><path d="M72.3502 22.1641C72.7261 22.0553 73.0451 21.9224 73.3983 21.7171C73.6831 21.56 73.9451 21.403 74.2868 21.4513C74.5261 21.4875 76.4513 22.3332 75.9387 22.7198C75.7678 22.8406 75.3577 22.6232 75.1868 22.5628C74.9476 22.4782 74.7083 22.3453 74.4805 22.2486C74.6856 22.2366 75.7336 22.7077 75.6197 22.9614C75.426 23.4205 74.3666 22.8044 74.1274 22.6594C74.3096 22.6957 74.9704 22.9494 74.9704 23.2031C74.9704 23.6017 74.1957 23.2635 74.0248 23.1789C73.8995 23.1064 73.8084 23.0218 73.6717 22.9977C73.5122 22.9735 73.3527 23.046 73.2046 23.0823C72.9426 23.1427 72.6578 23.1306 72.3844 23.0943C72.2249 23.0823 71.849 23.1185 71.7692 22.9735C71.6895 22.8165 71.7464 22.4661 71.8718 22.3574C71.9971 22.2366 72.1793 22.2124 72.3502 22.1641Z" fill="#D9A69D"></path><path d="M81.0425 12.9775L82.2273 13.4849L78.1717 23.8623L76.9756 23.1737L81.0425 12.9775Z" fill="#3D5276"></path><path d="M77.4086 22.9941H69.6963V24.2627H77.4086V22.9941Z" fill="#3D5276"></path><path d="M56.0487 17.087C57.0853 16.4588 57.2562 15.7702 56.6866 13.4749C56.117 11.1795 57.6094 8.81171 59.0447 8.18351C60.1042 7.72444 61.0269 7.51907 61.6763 6.32308C62.3142 5.12709 61.0953 2.57806 63.1344 0.693473C64.6154 -0.683728 66.7457 0.415617 66.7457 0.415617C67.2014 0.149841 67.395 2.97673 67.4292 5.10293C64.8546 9.28286 65.5837 14.7554 66.5293 19.4427C66.552 19.5635 66.5862 19.6602 66.6204 19.7568C66.4153 23.381 66.2558 26.3891 66.2558 26.3891C66.2558 26.3891 60.0586 30.11 55.8436 26.9207C51.6172 23.7435 53.9753 18.3434 56.0487 17.087Z" fill="#3D5276"></path><path d="M74.2768 43.5273L75.8489 44.4818C75.8489 44.4818 77.7741 49.7371 77.421 50.1962C77.0678 50.6553 73.092 46.0282 72.9325 45.3154C72.773 44.6147 73.8097 43.7811 74.2768 43.5273Z" fill="#3D5276"></path><path d="M72.262 25.0585C72.262 25.0585 82.3781 25.8076 83.3122 26.774C84.2578 27.7284 75.6682 44.3998 75.6682 44.3998L74.2556 43.542C74.2556 43.542 76.3745 35.6171 76.9327 33.7808C77.4796 31.9446 78.5504 29.7338 78.3453 29.4438C78.1517 29.1539 67.9559 30.7848 68.0356 27.7284C68.1381 24.684 72.262 25.0585 72.262 25.0585Z" fill="#ECB7AE"></path><path d="M67.2811 6.97416C67.2811 6.97416 66.2217 10.0427 66.871 12.3259L63.3281 11.4199C63.3281 11.4199 64.7749 6.28556 65.4015 5.41575C66.0166 4.53386 67.2811 6.97416 67.2811 6.97416Z" fill="#ECB7AE"></path><path d="M65.8002 9.72803C64.6382 9.72803 64.0344 10.6341 63.9889 11.5885L63.3281 11.4194C63.3281 11.4194 64.7749 6.28486 65.4015 5.415C66.0166 4.53307 67.2925 6.98557 67.2925 6.98557C67.2925 6.98557 66.8141 8.36284 66.7001 9.95757C66.4381 9.81259 66.1419 9.72803 65.8002 9.72803Z" fill="#D9A69D"></path><path d="M67.645 2.97371C67.645 2.97371 69.0235 3.67442 69.3538 4.25432C69.6842 4.83423 69.3994 5.65576 69.4222 6.18733C69.445 6.71891 69.5931 7.52836 69.5133 7.64917C69.4336 7.78206 68.9323 7.64917 68.8526 7.76998C68.7728 7.8908 68.1121 8.32572 67.907 8.82105C67.702 9.31639 67.4286 9.35263 66.9501 9.11101C66.4717 8.86938 64.6375 6.29606 64.6148 5.08793C64.5806 3.89189 66.278 2.47837 67.645 2.97371Z" fill="#ECB7AE"></path><path d="M66.4833 1.32422C66.4833 1.32422 67.1213 2.68941 67.1896 3.22098C67.258 3.76464 66.7681 5.35937 66.4833 5.56475C66.1985 5.77014 66.4377 3.77672 65.7087 4.39287C64.9796 5.00901 65.7542 6.15674 65.7087 6.38628C65.6631 6.61583 65.3327 7.37695 64.5809 7.43735C63.829 7.50984 62.5873 3.5351 63.4075 2.55651C64.2163 1.57793 65.6175 1.32422 66.4833 1.32422Z" fill="#3D5276"></path><path d="M66.358 0.545294C66.358 0.545294 67.5655 -0.42121 68.83 0.666107C70.0945 1.74134 70.049 3.36024 71.0856 3.22734C71.0856 3.22734 70.4021 5.09994 68.8984 4.66502C67.3832 4.20593 65.8339 1.66885 66.358 0.545294Z" fill="#3D5276"></path><path d="M62.236 21.7475L66.9294 21.373C66.9294 21.373 69.3673 24.2603 71.7824 24.2603C74.1633 24.2603 80.0302 24.2603 80.0302 24.2603C80.0302 24.2603 79.5859 28.247 77.6037 31.1343C77.6037 31.1343 69.7774 31.4 65.9611 31.0618C62.122 30.7356 58.4994 26.2778 62.236 21.7475Z" fill="#F77021"></path><path d="M61.791 22.3441C61.9277 22.1508 62.0644 21.9575 62.2239 21.7642L66.9174 21.3896C66.9174 21.3896 69.2983 24.1925 71.6678 24.2771C68.8085 24.5791 63.3175 25.2436 61.791 22.3441Z" fill="#DB6723"></path><path d="M77.845 24.8446C76.6488 24.7237 75.4868 24.4217 74.3135 24.2646H79.4854C78.9728 24.5425 78.7222 24.9291 77.845 24.8446Z" fill="#DB6723"></path><path d="M63.773 9.68555C63.773 9.68555 65.9261 10.5795 66.6552 10.6641C66.6552 10.6641 68.1703 14.2158 68.7627 15.1702C69.3551 16.1246 67.2704 19.7971 67.1451 21.3918C67.1451 21.3918 65.892 22.6602 62.087 21.875C62.0984 21.875 61.1073 11.9084 63.773 9.68555Z" fill="#00BAD1"></path><path opacity="0.65" d="M63.2045 11.7929C63.8653 11.4668 65.0045 11.805 65.3348 12.5057C65.7336 13.3755 65.3234 14.9098 65.369 15.8521C65.4146 16.8427 65.4829 18.1474 65.7108 19.1139C65.893 19.8629 66.3601 20.7931 66.9525 21.5421C66.4626 21.8562 65.05 22.4844 62.1109 21.8803C62.1109 21.8803 61.5071 15.8037 62.5096 12.0829C62.7716 11.9742 63.0223 11.8775 63.2045 11.7929Z" fill="#00A1CC"></path><path d="M71.61 22.1641C71.9859 22.0553 72.3049 21.9224 72.658 21.7171C72.9428 21.56 73.2049 21.403 73.5466 21.4513C73.7858 21.4875 75.7111 22.3332 75.1985 22.7198C75.0276 22.8406 74.6175 22.6232 74.4466 22.5628C74.2073 22.4782 73.9681 22.3453 73.7403 22.2486C73.9453 22.2366 74.9934 22.7077 74.8795 22.9614C74.6858 23.4205 73.6264 22.8044 73.3871 22.6594C73.5694 22.6957 74.2301 22.9494 74.2301 23.2031C74.2301 23.6017 73.4555 23.2635 73.2846 23.1789C73.1593 23.1064 73.0682 23.0218 72.9314 22.9977C72.772 22.9735 72.6125 23.046 72.4644 23.0823C72.2024 23.1427 71.9176 23.1306 71.6442 23.0943C71.4847 23.0823 71.1087 23.1185 71.029 22.9735C70.9492 22.8165 71.0062 22.4661 71.1315 22.3574C71.2568 22.2366 71.4391 22.2124 71.61 22.1641Z" fill="#ECB7AE"></path><path d="M71.9406 22.131L71.5305 23.774C71.5305 23.774 61.3802 22.5176 61.141 20.6088C60.9018 18.7001 61.5511 9.80866 64.0004 10.7389C66.4497 11.657 64.0346 18.1081 64.4105 18.6034C64.7978 19.1108 71.9406 22.131 71.9406 22.131Z" fill="#00BAD1"></path><path d="M122.463 63.7465H106.195C103.153 63.7465 100.989 61.0283 101.946 58.3827C101.957 58.3344 101.98 58.2981 101.991 58.2498C103.518 54.686 108.04 55.6162 109.237 57.2833C109.237 57.2833 106.183 51.4121 112.711 51.4121C118.179 51.4121 116.493 57.1142 116.493 57.1142C116.493 57.1142 117.518 52.7168 120.731 53.043C125.937 53.5866 122.839 59.0834 122.839 59.0834C122.839 59.0834 128.056 57.839 127.999 60.8109C127.965 63.7948 122.463 63.7465 122.463 63.7465Z" fill="#14C3BF"></path><path d="M21.3832 65.6206H10.2191C8.13439 65.6206 6.64204 63.748 7.30277 61.9359C7.31417 61.9118 7.32556 61.8755 7.33695 61.8514C8.38501 59.399 11.4836 60.0513 12.3152 61.1869C12.3152 61.1869 10.2191 57.1641 14.6962 57.1641C18.4555 57.1641 17.2935 61.0782 17.2935 61.0782C17.2935 61.0782 17.9998 58.058 20.2099 58.2876C23.7755 58.6621 21.6566 62.4312 21.6566 62.4312C21.6566 62.4312 25.2337 61.5735 25.1995 63.6152C25.154 65.6568 21.3832 65.6206 21.3832 65.6206Z" fill="#14C3BF"></path><path d="M63.2597 86.1501H40.6352C36.4088 86.1501 33.39 82.3567 34.7228 78.6842C34.7456 78.6238 34.7684 78.5634 34.7912 78.503C36.9215 73.5378 43.2098 74.8425 44.8731 77.15C44.8731 77.15 40.6239 68.9834 49.7032 68.9834C57.3131 68.9834 54.9663 76.9204 54.9663 76.9204C54.9663 76.9204 56.4017 70.7955 60.8674 71.2667C68.1127 72.0157 63.8065 79.6627 63.8065 79.6627C63.8065 79.6627 71.0632 77.9352 70.9948 82.0789C70.9151 86.2226 63.2597 86.1501 63.2597 86.1501Z" fill="#14C3BF"></path><path d="M28.5257 32.6317C28.5713 32.233 28.6055 31.8344 28.6055 31.4236C28.6055 31.0129 28.5713 30.6142 28.5257 30.2156L26.7714 29.9256C26.7144 29.6357 26.6461 29.3699 26.5549 29.0921L27.9448 27.8961C27.6486 27.1471 27.2612 26.4464 26.8056 25.8061L25.1423 26.4826C24.9601 26.2652 24.7778 26.0719 24.5727 25.8786L25.2107 24.1148C24.6069 23.6195 23.9576 23.2088 23.2399 22.9067L22.1121 24.3806C21.8614 24.296 21.5994 24.2115 21.326 24.151L21.0526 22.2906C20.6767 22.2423 20.3007 22.2061 19.9134 22.2061C19.5261 22.2061 19.1502 22.2423 18.7742 22.2906L18.5008 24.151C18.2274 24.2115 17.9768 24.2839 17.7148 24.3806L16.587 22.9067C15.8807 23.2208 15.2199 23.6316 14.6162 24.1148L15.2541 25.8786C15.0491 26.0719 14.8668 26.2652 14.6845 26.4826L13.0213 25.8061C12.5542 26.4464 12.1669 27.135 11.8821 27.8961L13.2719 29.0921C13.1922 29.3578 13.1124 29.6357 13.0555 29.9256L11.3239 30.2156C11.2783 30.6142 11.2441 31.0129 11.2441 31.4236C11.2441 31.8344 11.2783 32.233 11.3239 32.6317L13.0782 32.9216C13.1352 33.2116 13.2036 33.4774 13.2947 33.7552L11.9049 34.9512C12.2011 35.7002 12.5884 36.4009 13.0441 37.0412L14.7073 36.3646C14.8896 36.5821 15.0718 36.7754 15.2769 36.9687L14.6389 38.7325C15.2427 39.2278 15.8921 39.6385 16.6098 39.9405L17.7376 38.4667C17.9882 38.5512 18.2502 38.6358 18.5236 38.6962L18.797 40.5566C19.1729 40.605 19.5489 40.6412 19.9362 40.6412C20.3235 40.6412 20.6995 40.605 21.0754 40.5566L21.3488 38.6962C21.6222 38.6358 21.8728 38.5633 22.1349 38.4667L23.2627 39.9405C23.969 39.6264 24.6297 39.2157 25.2335 38.7325L24.5955 36.9687C24.8006 36.7754 24.9828 36.5821 25.1651 36.3646L26.8283 37.0412C27.2954 36.4009 27.6827 35.7123 27.9675 34.9512L26.5777 33.7552C26.6575 33.4894 26.7372 33.2116 26.7942 32.9216L28.5257 32.6317ZM19.9248 36.2438C17.4186 36.2438 15.3794 34.0814 15.3794 31.4236C15.3794 28.7659 17.4186 26.6034 19.9248 26.6034C22.431 26.6034 24.4702 28.7659 24.4702 31.4236C24.4702 34.0935 22.4424 36.2438 19.9248 36.2438Z" fill="#F77021"></path><path d="M19.9285 25.9961C17.1033 25.9961 14.8135 28.4243 14.8135 31.4203C14.8135 34.4163 17.1033 36.8446 19.9285 36.8446C22.7537 36.8446 25.0435 34.4163 25.0435 31.4203C25.0435 28.4243 22.7537 25.9961 19.9285 25.9961ZM19.9285 34.7908C18.1741 34.7908 16.7501 33.2808 16.7501 31.4203C16.7501 29.5599 18.1741 28.0498 19.9285 28.0498C21.6828 28.0498 23.1068 29.5599 23.1068 31.4203C23.1068 33.2808 21.6828 34.7908 19.9285 34.7908Z" fill="#3D5276"></path><path d="M104.281 80.0051C104.475 79.6064 104.646 79.1957 104.794 78.7729C104.942 78.338 105.044 77.9031 105.136 77.4682L103.393 76.4655C103.438 76.1393 103.45 75.8252 103.461 75.5111L105.341 74.8104C105.295 73.9043 105.136 73.0104 104.874 72.1647L102.88 72.213C102.766 71.9231 102.641 71.6332 102.493 71.3432L103.791 69.7486C103.336 68.9996 102.789 68.2989 102.151 67.6828L100.442 68.7821C100.203 68.5888 99.9636 68.3955 99.7016 68.2264L100.078 66.1606C99.7016 65.9552 99.3143 65.774 98.9155 65.617C98.5054 65.4599 98.0953 65.3512 97.6852 65.2546L96.7397 67.1029C96.4321 67.0546 96.1359 67.0425 95.8397 67.0304L95.179 65.0371C94.3246 65.0854 93.4816 65.2546 92.6841 65.5324L92.7297 67.6465C92.4563 67.7673 92.1829 67.9002 91.9095 68.0573L90.4058 66.6801C89.6995 67.1633 89.0387 67.7432 88.4577 68.4197L89.4944 70.2318C89.3121 70.4855 89.1299 70.7392 88.9704 71.0171L87.0223 70.6184C86.8287 71.0171 86.6578 71.4278 86.5097 71.8506C86.3616 72.2855 86.2591 72.7204 86.1679 73.1553L87.9109 74.158C87.8653 74.4842 87.854 74.7983 87.8426 75.1124L85.9629 75.8131C86.0085 76.7191 86.1679 77.6131 86.43 78.4588L88.4236 78.4104C88.5375 78.7004 88.6628 78.9903 88.8109 79.2803L87.5122 80.8749C87.9679 81.6239 88.5147 82.3246 89.1526 82.9407L90.8614 81.8414C91.1007 82.0347 91.3399 82.2279 91.6019 82.3971L91.226 84.4629C91.6019 84.6683 91.9892 84.8495 92.388 85.0065C92.7981 85.1636 93.2082 85.2723 93.6183 85.3689L94.5638 83.5206C94.8714 83.5689 95.1676 83.581 95.4638 83.5931L96.1245 85.5864C96.9789 85.5381 97.8219 85.3689 98.6194 85.0911L98.5738 82.977C98.8586 82.8561 99.1206 82.7233 99.394 82.5662L100.898 83.9434C101.604 83.4602 102.265 82.8803 102.846 82.2038L101.809 80.3917C101.991 80.138 102.174 79.8843 102.333 79.6064L104.281 80.0051ZM93.96 80.3675C91.3171 79.3648 89.9501 76.2842 90.8956 73.4815C91.8411 70.6788 94.7461 69.2291 97.389 70.2318C100.032 71.2345 101.399 74.3151 100.453 77.1178C99.5079 79.9205 96.603 81.3702 93.96 80.3675Z" fill="#14C3BF"></path><path d="M97.5943 69.6079C94.6324 68.4844 91.3629 70.1153 90.3035 73.2683C89.244 76.4093 90.7819 79.8765 93.7552 81C96.7171 82.1235 99.9866 80.4926 101.046 77.3395C102.106 74.1985 100.568 70.7314 97.5943 69.6079ZM94.4729 78.8496C92.6274 78.1489 91.6705 75.9986 92.3312 74.0415C92.992 72.0844 95.0197 71.0696 96.8652 71.7703C98.7107 72.471 99.6677 74.6214 99.0069 76.5784C98.3462 78.5355 96.3184 79.5503 94.4729 78.8496Z" fill="#3D5276"></path><path d="M10.3779 29.9307H9.125V30.7039H10.3779V29.9307Z" fill="#3D5276"></path><path d="M7.94856 30.7195H6.77519V29.9463H7.94856V30.7195V30.7195ZM5.60182 30.7195H4.42845V29.9463H5.60182V30.7195ZM3.25508 30.7195H2.07031V29.9463H3.24368V30.7195H3.25508Z" fill="#3D5276"></path><path d="M0.728958 30.8851H0V29.9307H0.888417V30.7159H0.728958V30.8851Z" fill="#3D5276"></path><path d="M0.728958 50.5828H0V49.4835H0.728958V50.5828ZM0.728958 48.3841H0V47.2848H0.728958V48.3841ZM0.728958 46.1975H0V45.0982H0.728958V46.1975ZM0.728958 44.0109H0V42.9116H0.728958V44.0109ZM0.728958 41.8243H0V40.7249H0.728958V41.8243ZM0.728958 39.6377H0V38.5383H0.728958V39.6377ZM0.728958 37.4511H0V36.3517H0.728958V37.4511ZM0.728958 35.2645H0V34.1651H0.728958V35.2645ZM0.728958 33.0779H0V31.9785H0.728958V33.0779Z" fill="#3D5276"></path><path d="M0.888417 52.622H0V51.6797H0.728958V51.8488H0.888417V52.622Z" fill="#3D5276"></path><path d="M17.4416 52.615H16.405V51.8418H17.4416V52.615ZM15.3797 52.615H14.343V51.8418H15.3797V52.615ZM13.3063 52.615H12.2697V51.8418H13.3063V52.615ZM11.233 52.615H10.2077V51.8418H11.2444V52.615H11.233ZM9.17107 52.615H8.1344V51.8418H9.17107V52.615V52.615ZM7.09773 52.615H6.06106V51.8418H7.09773V52.615ZM5.03579 52.615H3.99912V51.8418H5.03579V52.615ZM2.96245 52.615H1.92578V51.8418H2.96245V52.615Z" fill="#3D5276"></path><path d="M19.366 52.7841H18.637V52.615H18.4775V51.8418H19.366V52.7841Z" fill="#3D5276"></path><path d="M19.3657 61.243H18.6367V60.192H19.3657V61.243ZM19.3657 59.1289H18.6367V58.0779H19.3657V59.1289ZM19.3657 57.0148H18.6367V55.9637H19.3657V57.0148ZM19.3657 54.9006H18.6367V53.8496H19.3657V54.9006Z" fill="#3D5276"></path><path d="M19.5251 63.2343H18.6367V62.292H19.3657V62.4611H19.5251V63.2343Z" fill="#3D5276"></path><path d="M38.7669 63.2263H37.696V62.4531H38.7669V63.2263ZM36.6252 63.2263H35.5543V62.4531H36.6252V63.2263ZM34.4949 63.2263H33.424V62.4531H34.4949V63.2263ZM32.3532 63.2263H31.2823V62.4531H32.3532V63.2263ZM30.2115 63.2263H29.1406V62.4531H30.2115V63.2263ZM28.0812 63.2263H27.0104V62.4531H28.0812V63.2263ZM25.9395 63.2263H24.8687V62.4531H25.9395V63.2263ZM23.7978 63.2263H22.727V62.4531H23.7978V63.2263ZM21.6675 63.2263H20.5967V62.4531H21.6675V63.2263Z" fill="#3D5276"></path><path d="M40.7263 63.3955H39.986V63.2263H39.8379V62.4531H40.7263V63.3955Z" fill="#3D5276"></path><path d="M40.7257 79.696H39.9854V78.5362H40.7143V79.696H40.7257ZM40.7257 77.3765H39.9854V76.2167H40.7143V77.3765H40.7257ZM40.7257 75.0449H39.9854V73.8852H40.7143V75.0449H40.7257ZM40.7257 72.7254H39.9854V71.5657H40.7143V72.7254H40.7257ZM40.7257 70.3938H39.9854V69.2341H40.7143V70.3938H40.7257ZM40.7257 68.0623H39.9854V66.9025H40.7143V68.0623H40.7257ZM40.7257 65.7428H39.9854V64.583H40.7143V65.7428H40.7257Z" fill="#3D5276"></path><path d="M40.8852 81.8066H39.9854V80.8643H40.7257V81.0334H40.8852V81.8066Z" fill="#3D5276"></path><path d="M65.3896 81.7996H64.3644V81.0264H65.3896V81.7996ZM63.3505 81.7996H62.3252V81.0264H63.3505V81.7996ZM61.3113 81.7996H60.286V81.0264H61.3113V81.7996ZM59.2721 81.7996H58.2469V81.0264H59.2721V81.7996ZM57.2216 81.7996H56.1963V81.0264H57.2216V81.7996ZM55.1824 81.7996H54.1572V81.0264H55.1824V81.7996ZM53.1433 81.7996H52.118V81.0264H53.1433V81.7996ZM51.0927 81.7996H50.0674V81.0264H51.0927V81.7996ZM49.0536 81.7996H48.0283V81.0264H49.0536V81.7996ZM47.0144 81.7996H45.9891V81.0264H47.0144V81.7996ZM44.9639 81.7996H43.9386V81.0264H44.9639V81.7996ZM42.9247 81.7996H41.8994V81.0264H42.9247V81.7996Z" fill="#3D5276"></path><path d="M67.3044 81.8066H66.416V81.0334H66.5755V80.8643H67.3044V81.8066Z" fill="#3D5276"></path><path d="M67.3042 79.7571H66.5752V78.6456H67.3042V79.7571ZM67.3042 77.5463H66.5752V76.4349H67.3042V77.5463ZM67.3042 75.3234H66.5752V74.212H67.3042V75.3234ZM67.3042 73.1127H66.5752V72.0012H67.3042V73.1127ZM67.3042 70.8898H66.5752V69.7784H67.3042V70.8898ZM67.3042 68.6791H66.5752V67.5676H67.3042V68.6791ZM67.3042 66.4562H66.5752V65.3448H67.3042V66.4562ZM67.3042 64.2454H66.5752V63.134H67.3042V64.2454ZM67.3042 62.0226H66.5752V60.9112H67.3042V62.0226ZM67.3042 59.8118H66.5752V58.7004H67.3042V59.8118ZM67.3042 57.589H66.5752V56.4775H67.3042V57.589Z" fill="#3D5276"></path><path d="M67.3042 55.374H66.5752V54.4316H67.4636V55.2048H67.3042V55.374Z" fill="#3D5276"></path><path d="M94.5186 55.2048H93.4819V54.4316H94.5186V55.2048ZM92.4338 55.2048H91.3972V54.4316H92.4338V55.2048ZM90.3491 55.2048H89.3124V54.4316H90.3491V55.2048ZM88.2758 55.2048H87.2391V54.4316H88.2758V55.2048ZM86.1911 55.2048H85.1544V54.4316H86.1911V55.2048ZM84.1063 55.2048H83.0697V54.4316H84.1063V55.2048ZM82.033 55.2048H80.9963V54.4316H82.033V55.2048ZM79.9483 55.2048H78.9116V54.4316H79.9483V55.2048ZM77.8635 55.2048H76.8269V54.4316H77.8635V55.2048ZM75.7902 55.2048H74.7535V54.4316H75.7902V55.2048ZM73.7055 55.2048H72.6688V54.4316H73.7055V55.2048ZM71.6321 55.2048H70.5955V54.4316H71.6321V55.2048ZM69.5474 55.2048H68.5107V54.4316H69.5474V55.2048Z" fill="#3D5276"></path><path d="M96.446 55.374H95.7171V55.2048H95.5576V54.4316H96.446V55.374Z" fill="#3D5276"></path><path d="M96.4428 61.8521H95.7139V60.7769H96.4428V61.8521ZM96.4428 59.6896H95.7139V58.6143H96.4428V59.6896ZM96.4428 57.5391H95.7139V56.4639H96.4428V57.5391Z" fill="#3D5276"></path><path d="M96.4428 62.9248H95.7139V63.988H96.4428V62.9248Z" fill="#3D5276"></path></svg>