<svg xmlns="http://www.w3.org/2000/svg" width="500" height="500" viewBox="0 0 500 500" fill="none"><path d="M250.01 431.22C353.619 431.22 437.61 426.013 437.61 419.59C437.61 413.167 353.619 407.96 250.01 407.96C146.402 407.96 62.4102 413.167 62.4102 419.59C62.4102 426.013 146.402 431.22 250.01 431.22Z" fill="#F77021"></path><path opacity="0.7" d="M250.01 431.22C353.619 431.22 437.61 426.013 437.61 419.59C437.61 413.167 353.619 407.96 250.01 407.96C146.402 407.96 62.4102 413.167 62.4102 419.59C62.4102 426.013 146.402 431.22 250.01 431.22Z" fill="white"></path><path d="M291.08 113.24L290.54 117.82L293.02 118.7C293.056 120.27 293.274 121.83 293.67 123.35L291.52 124.91L293.33 129.16L295.94 128.67C296.753 130.011 297.72 131.252 298.82 132.37L297.73 134.81L301.43 137.57L303.43 135.87C304.805 136.627 306.265 137.218 307.78 137.63L308.06 140.28L312.63 140.83L313.52 138.34C315.09 138.304 316.65 138.086 318.17 137.69L319.74 139.83L324 138L323.53 135.4C324.867 134.586 326.106 133.619 327.22 132.52L329.66 133.61L332.42 129.91L330.71 127.91C331.469 126.539 332.06 125.082 332.47 123.57L335.12 123.29L335.67 118.71L333.18 117.82C333.149 116.253 332.931 114.695 332.53 113.18L334.69 111.61L332.87 107.36L330.27 107.84C329.453 106.502 328.483 105.264 327.38 104.15L328.46 101.72L324.73 98.9998L322.73 100.71C321.362 99.9608 319.912 99.3703 318.41 98.9498L318.13 96.2998L313.55 95.7598L312.66 98.2398C311.093 98.2784 309.536 98.4999 308.02 98.8998L306.45 96.7498L302.2 98.5598L302.68 101.16C301.348 101.962 300.113 102.915 299 104L296.57 102.92L293.8 106.62L295.51 108.62C294.753 109.995 294.162 111.455 293.75 112.97L291.08 113.24ZM301.71 116.91C301.978 114.658 302.908 112.536 304.382 110.813C305.856 109.09 307.808 107.843 309.992 107.23C312.175 106.617 314.491 106.665 316.647 107.369C318.803 108.073 320.701 109.401 322.102 111.184C323.503 112.967 324.343 115.126 324.516 117.387C324.69 119.648 324.188 121.91 323.076 123.886C321.963 125.862 320.289 127.463 318.266 128.488C316.243 129.512 313.961 129.913 311.71 129.64V129.64C308.697 129.274 305.953 127.729 304.078 125.342C302.203 122.956 301.352 119.923 301.71 116.91Z" stroke="#14C3BF" stroke-width="1.57112" stroke-linejoin="round"></path><path d="M171.61 225.94L171.12 230.09L173.37 230.89C173.402 232.311 173.6 233.724 173.96 235.1L171.96 236.52L173.6 240.37L175.96 239.92C176.699 241.133 177.574 242.257 178.57 243.27L177.57 245.48L181 248L182.81 246.45C184.054 247.139 185.377 247.676 186.75 248.05L187 250.45L191.15 250.95L191.95 248.69C193.372 248.66 194.785 248.462 196.16 248.1L197.58 250.05L201.42 248.4L201 246C202.213 245.261 203.337 244.385 204.35 243.39L206.56 244.39L209.06 241.05L207.51 239.22C208.197 237.978 208.734 236.658 209.11 235.29L211.51 235.03L212 230.88L209.75 230.08C209.719 228.658 209.521 227.245 209.16 225.87L211.16 224.45L209.51 220.6L207.16 221.03C206.414 219.822 205.532 218.705 204.53 217.7L205.53 215.49L202.1 213L200.28 214.55C199.041 213.866 197.725 213.332 196.36 212.96L196.11 210.56L191.96 210.06L191.16 212.32C189.738 212.35 188.325 212.548 186.95 212.91L185.53 211L181.68 212.64L182.11 215C180.896 215.737 179.772 216.613 178.76 217.61L176.55 216.61L174.05 219.96L175.6 221.78C174.915 223.026 174.378 224.348 174 225.72L171.61 225.94ZM181.24 229.26C181.484 227.221 182.327 225.301 183.661 223.742C184.996 222.183 186.764 221.054 188.74 220.499C190.716 219.944 192.813 219.987 194.764 220.624C196.716 221.26 198.435 222.46 199.704 224.074C200.974 225.687 201.736 227.64 201.895 229.687C202.055 231.733 201.604 233.781 200.599 235.571C199.595 237.361 198.082 238.814 196.253 239.744C194.423 240.675 192.358 241.042 190.32 240.8V240.8C187.587 240.472 185.095 239.072 183.392 236.908C181.69 234.745 180.916 231.994 181.24 229.26V229.26Z" fill="#14C3BF"></path><path d="M383.08 327.75V318.34L377.83 317.15C377.385 313.978 376.566 310.869 375.39 307.89L379.39 304.2L374.67 296L369.51 297.63C367.534 295.113 365.273 292.834 362.77 290.84L364.4 285.63L356.23 280.92L352.58 284.85C349.61 283.651 346.508 282.809 343.34 282.34L342.14 277.04H332.73L331.53 282.3C328.357 282.741 325.248 283.56 322.27 284.74L318.58 280.74L310.43 285.44L312.02 290.6C309.503 292.572 307.224 294.831 305.23 297.33L300.03 295.72L295.33 303.86L299.27 307.53C298.072 310.497 297.23 313.595 296.76 316.76L291.46 317.97V327.38L296.71 328.58C297.161 331.748 297.979 334.852 299.15 337.83L295.15 341.53L299.86 349.7L305.01 348.11C306.991 350.621 309.259 352.889 311.77 354.87L310.16 360.08L318.34 364.79L321.99 360.79C324.943 361.991 328.028 362.837 331.18 363.31L332.38 368.61H341.8L342.99 363.36C346.165 362.904 349.276 362.078 352.26 360.9L355.95 364.9L364.12 360.19L362.53 355.04C365.049 353.071 367.328 350.812 369.32 348.31L374.52 349.92L379.23 341.74L375.28 338.08C376.478 335.109 377.323 332.008 377.8 328.84L383.08 327.75ZM366.81 322.89C366.81 328.733 365.077 334.444 361.832 339.302C358.586 344.159 353.972 347.946 348.574 350.181C343.177 352.417 337.237 353.002 331.507 351.862C325.777 350.723 320.513 347.909 316.382 343.778C312.251 339.647 309.437 334.383 308.298 328.653C307.158 322.923 307.743 316.983 309.979 311.586C312.214 306.188 316.001 301.574 320.858 298.328C325.716 295.083 331.427 293.35 337.27 293.35V293.35C345.104 293.35 352.618 296.462 358.158 302.002C363.698 307.542 366.81 315.056 366.81 322.89V322.89Z" fill="white"></path><path d="M219.58 94.1504H195.34V99.7404H219.58V94.1504Z" fill="#F77021"></path><path d="M211.27 102.229H195.34V107.819H211.27V102.229Z" fill="#F77021"></path><path d="M204.51 110.31H195.34V115.9H204.51V110.31Z" fill="#F77021"></path><path opacity="0.2" d="M219.58 94.1504H195.34V99.7404H219.58V94.1504Z" fill="black"></path><path opacity="0.2" d="M211.27 102.229H195.34V107.819H211.27V102.229Z" fill="black"></path><path opacity="0.2" d="M204.51 110.31H195.34V115.9H204.51V110.31Z" fill="black"></path><path d="M161.47 156.07H153.25V172.91H161.47V156.07Z" fill="#F77021"></path><path d="M173.34 161.86H165.12V172.92H173.34V161.86Z" fill="#F77021"></path><path d="M185.22 166.55H177V172.92H185.22V166.55Z" fill="#F77021"></path><path opacity="0.2" d="M161.47 156.07H153.25V172.91H161.47V156.07Z" fill="black"></path><path opacity="0.2" d="M173.34 161.86H165.12V172.92H173.34V161.86Z" fill="black"></path><path opacity="0.2" d="M185.22 166.55H177V172.92H185.22V166.55Z" fill="black"></path><path d="M250.94 185.66H151.41C150.044 185.663 148.691 185.396 147.428 184.875C146.165 184.354 145.017 183.589 144.05 182.624C143.083 181.659 142.316 180.513 141.793 179.251C141.269 177.989 141 176.636 141 175.27V93.1C141.005 90.346 142.102 87.7063 144.049 85.759C145.996 83.8116 148.636 82.7153 151.39 82.71H250.92C252.286 82.7087 253.638 82.9764 254.901 83.4978C256.163 84.0192 257.31 84.7842 258.277 85.749C259.244 86.7138 260.011 87.8595 260.535 89.1208C261.058 90.3821 261.329 91.7342 261.33 93.1V175.27C261.33 178.026 260.235 180.668 258.287 182.617C256.338 184.565 253.696 185.66 250.94 185.66ZM151.41 83.66C148.897 83.6653 146.489 84.6657 144.712 86.4424C142.936 88.2191 141.935 90.6273 141.93 93.14V175.31C141.935 177.823 142.936 180.231 144.712 182.008C146.489 183.784 148.897 184.785 151.41 184.79H250.94C253.453 184.785 255.861 183.784 257.638 182.008C259.414 180.231 260.415 177.823 260.42 175.31V93.1C260.415 90.5873 259.414 88.1791 257.638 86.4024C255.861 84.6257 253.453 83.6253 250.94 83.62L151.41 83.66Z" fill="#14C3BF"></path><path d="M249.66 156.53H214.17V157.44H249.66V156.53Z" fill="#14C3BF"></path><path d="M249.66 160.34H214.17V161.25H249.66V160.34Z" fill="#14C3BF"></path><path d="M249.66 164.14H214.17V165.05H249.66V164.14Z" fill="#14C3BF"></path><path d="M249.66 167.94H214.17V168.85H249.66V167.94Z" fill="#14C3BF"></path><path d="M249.66 171.74H214.17V172.65H249.66V171.74Z" fill="#14C3BF"></path><path d="M187.65 94.5303H152.16V95.4403H187.65V94.5303Z" fill="#14C3BF"></path><path d="M187.65 98.3301H152.16V99.2401H187.65V98.3301Z" fill="#14C3BF"></path><path d="M187.65 102.13H152.16V103.04H187.65V102.13Z" fill="#14C3BF"></path><path d="M187.65 105.93H152.16V106.84H187.65V105.93Z" fill="#14C3BF"></path><path d="M187.65 109.729H152.16V110.639H187.65V109.729Z" fill="#14C3BF"></path><path d="M242.65 125.23L249.01 128.57L248.28 110.63L233.11 120.23L239.47 123.56L234.68 132.67C233.836 132.669 233.015 132.951 232.35 133.47L223.9 129.56V129.51C223.936 128.49 223.57 127.498 222.88 126.747C222.189 125.995 221.231 125.546 220.212 125.496C219.194 125.446 218.196 125.8 217.436 126.48C216.675 127.16 216.213 128.112 216.15 129.13C216.14 129.256 216.14 129.383 216.15 129.51C216.155 130.065 216.274 130.613 216.5 131.12L205.5 143.12C205.147 143.009 204.78 142.952 204.41 142.95C204.218 142.95 204.027 142.97 203.84 143.01L188 122.9C188.362 121.97 188.351 120.936 187.969 120.015C187.587 119.093 186.863 118.354 185.95 117.953C185.036 117.552 184.003 117.519 183.066 117.861C182.129 118.203 181.36 118.894 180.92 119.79C180.701 120.274 180.588 120.799 180.59 121.33C180.602 121.727 180.669 122.121 180.79 122.5L162.74 141C162.022 140.741 161.243 140.7 160.502 140.882C159.761 141.065 159.09 141.462 158.574 142.025C158.058 142.587 157.72 143.29 157.603 144.044C157.485 144.798 157.593 145.57 157.913 146.263C158.234 146.956 158.751 147.539 159.402 147.938C160.053 148.338 160.807 148.536 161.569 148.508C162.332 148.479 163.07 148.226 163.689 147.78C164.308 147.334 164.782 146.715 165.05 146V146C165.201 145.573 165.279 145.123 165.28 144.67C165.281 144.352 165.237 144.036 165.15 143.73L183.4 125C183.758 125.119 184.133 125.18 184.51 125.18C184.748 125.181 184.986 125.158 185.22 125.11L200.97 145.11C200.475 146.022 200.363 147.094 200.659 148.089C200.954 149.083 201.633 149.92 202.545 150.415C203.457 150.91 204.529 151.021 205.524 150.726C206.519 150.431 207.355 149.752 207.85 148.84C208.129 148.332 208.29 147.768 208.32 147.19C208.33 147.06 208.33 146.93 208.32 146.8C208.314 146.395 208.246 145.994 208.12 145.61L219.38 133.35C219.594 133.39 219.812 133.41 220.03 133.41C220.8 133.41 221.552 133.18 222.19 132.75L230.79 136.75C230.806 137.263 230.923 137.769 231.137 138.236C231.35 138.704 231.654 139.124 232.031 139.473C232.408 139.822 232.851 140.092 233.334 140.268C233.817 140.444 234.33 140.522 234.843 140.497C235.356 140.473 235.86 140.346 236.323 140.125C236.787 139.904 237.202 139.593 237.545 139.209C237.887 138.826 238.149 138.378 238.317 137.893C238.484 137.407 238.553 136.893 238.52 136.38C238.482 135.662 238.243 134.969 237.83 134.38L242.65 125.23Z" fill="#14C3BF"></path><path d="M251.17 196.27C249.604 196.273 248.103 196.896 246.997 198.005C245.891 199.113 245.27 200.614 245.27 202.18V253.39C245.27 254.955 245.891 256.455 246.998 257.562C248.104 258.668 249.605 259.29 251.17 259.29H313.17C314.735 259.29 316.237 258.669 317.345 257.563C318.453 256.456 319.077 254.956 319.08 253.39V202.15C319.077 200.584 318.453 199.084 317.345 197.977C316.237 196.871 314.735 196.25 313.17 196.25L251.17 196.27Z" stroke="#14C3BF" stroke-linejoin="round"></path><path d="M254.869 203.25H250.159V203.88H254.869V203.25Z" fill="#14C3BF"></path><path d="M254.869 208.39H250.159V209.02H254.869V208.39Z" fill="#14C3BF"></path><path d="M254.869 213.53H250.159V214.16H254.869V213.53Z" fill="#14C3BF"></path><path d="M254.869 218.68H250.159V219.31H254.869V218.68Z" fill="#14C3BF"></path><path d="M254.689 208.39H249.979V209.02H254.689V208.39Z" fill="#14C3BF"></path><path d="M254.869 223.82H250.159V224.45H254.869V223.82Z" fill="#14C3BF"></path><path d="M285.76 251.64C290.229 251.732 294.625 250.497 298.391 248.089C302.158 245.682 305.126 242.211 306.919 238.117C308.712 234.022 309.25 229.488 308.465 225.087C307.68 220.686 305.606 216.618 302.508 213.396C299.409 210.174 295.425 207.944 291.058 206.988C286.691 206.032 282.139 206.392 277.978 208.025C273.816 209.657 270.233 212.487 267.68 216.156C265.128 219.826 263.722 224.171 263.64 228.64C263.527 234.622 265.794 240.404 269.941 244.717C274.088 249.029 279.778 251.519 285.76 251.64V251.64ZM286.55 213.1C289.714 213.164 292.788 214.165 295.383 215.976C297.978 217.787 299.978 220.327 301.129 223.275C302.281 226.222 302.533 229.445 301.852 232.536C301.172 235.627 299.591 238.446 297.308 240.638C295.025 242.83 292.144 244.295 289.028 244.85C285.912 245.404 282.702 245.021 279.804 243.751C276.905 242.481 274.449 240.379 272.744 237.713C271.04 235.046 270.165 231.934 270.23 228.77C270.316 224.528 272.084 220.494 275.145 217.556C278.205 214.617 282.308 213.014 286.55 213.1Z" fill="#F77021"></path><path opacity="0.2" d="M285.76 251.64C290.229 251.732 294.625 250.497 298.391 248.089C302.158 245.682 305.126 242.211 306.919 238.117C308.712 234.022 309.25 229.488 308.465 225.087C307.68 220.686 305.606 216.618 302.508 213.396C299.409 210.174 295.425 207.944 291.058 206.988C286.691 206.032 282.139 206.392 277.978 208.025C273.816 209.657 270.233 212.487 267.68 216.156C265.128 219.826 263.722 224.171 263.64 228.64C263.527 234.622 265.794 240.404 269.941 244.717C274.088 249.029 279.778 251.519 285.76 251.64V251.64ZM286.55 213.1C289.714 213.164 292.788 214.165 295.383 215.976C297.978 217.787 299.978 220.327 301.129 223.275C302.281 226.222 302.533 229.445 301.852 232.536C301.172 235.627 299.591 238.446 297.308 240.638C295.025 242.83 292.144 244.295 289.028 244.85C285.912 245.404 282.702 245.021 279.804 243.751C276.905 242.481 274.449 240.379 272.744 237.713C271.04 235.046 270.165 231.934 270.23 228.77C270.316 224.528 272.084 220.494 275.145 217.556C278.205 214.617 282.308 213.014 286.55 213.1Z" fill="black"></path><path d="M270 245.22C272.127 247.365 274.655 249.07 277.441 250.239C280.227 251.407 283.216 252.015 286.236 252.028C289.257 252.041 292.251 251.459 295.047 250.314C297.842 249.17 300.385 247.487 302.53 245.36C302.609 245.272 302.653 245.158 302.653 245.04C302.653 244.921 302.609 244.808 302.53 244.72L297.84 240C297.799 239.956 297.749 239.921 297.694 239.897C297.64 239.873 297.58 239.86 297.52 239.86C297.399 239.867 297.284 239.912 297.19 239.99C295.716 241.469 293.955 242.632 292.015 243.407C290.076 244.183 287.998 244.554 285.91 244.5H284.8C281.406 244.31 278.169 243.006 275.59 240.79C275.36 240.58 275.12 240.37 274.9 240.15C272.266 237.519 270.646 234.043 270.326 230.334C270.005 226.625 271.006 222.922 273.15 219.88C273.171 219.852 273.188 219.822 273.2 219.79C273.3 219.65 273.41 219.53 273.53 219.39C275.068 217.442 277.052 215.892 279.315 214.872C281.578 213.852 284.052 213.392 286.53 213.53C286.589 213.531 286.648 213.521 286.703 213.499C286.758 213.478 286.809 213.446 286.852 213.405C286.894 213.364 286.928 213.315 286.952 213.261C286.976 213.207 286.989 213.149 286.99 213.09L287.12 206.46C287.123 206.339 287.079 206.223 286.996 206.135C286.914 206.047 286.801 205.995 286.68 205.99V205.99C282.103 205.913 277.606 207.204 273.767 209.697C269.927 212.191 266.919 215.774 265.128 219.987C263.336 224.2 262.843 228.852 263.711 233.347C264.579 237.842 266.769 241.976 270 245.22V245.22Z" fill="#14C3BF"></path><path d="M286.69 206C292.923 206.007 298.899 208.488 303.303 212.899C307.707 217.31 310.179 223.289 310.175 229.522C310.172 235.756 307.694 241.732 303.285 246.138C298.876 250.545 292.898 253.02 286.665 253.02C280.432 253.02 274.454 250.545 270.046 246.138C265.637 241.732 263.159 235.756 263.155 229.522C263.152 223.289 265.624 217.31 270.028 212.899C274.432 208.488 280.407 206.007 286.64 206H286.69ZM285.77 251.17C290.149 251.26 294.455 250.05 298.146 247.692C301.836 245.334 304.745 241.935 306.503 237.924C308.261 233.913 308.791 229.471 308.024 225.159C307.257 220.847 305.229 216.86 302.196 213.701C299.163 210.542 295.261 208.353 290.984 207.412C286.707 206.471 282.247 206.819 278.168 208.413C274.089 210.007 270.575 212.774 268.069 216.366C265.563 219.958 264.178 224.212 264.09 228.59C263.972 234.46 266.19 240.136 270.255 244.372C274.32 248.608 279.901 251.057 285.77 251.18V251.17ZM286.56 212.63C289.807 212.696 292.962 213.723 295.625 215.582C298.288 217.441 300.34 220.048 301.522 223.073C302.703 226.098 302.961 229.406 302.263 232.578C301.564 235.749 299.941 238.643 297.598 240.892C295.255 243.141 292.298 244.645 289.101 245.213C285.903 245.782 282.609 245.389 279.634 244.085C276.66 242.781 274.139 240.624 272.39 237.888C270.642 235.151 269.744 231.957 269.81 228.71C269.9 224.357 271.714 220.217 274.855 217.201C277.997 214.186 282.207 212.542 286.56 212.63ZM285.91 244.54C288.977 244.603 291.994 243.754 294.579 242.102C297.164 240.45 299.201 238.069 300.433 235.259C301.664 232.45 302.035 229.338 301.498 226.317C300.96 223.297 299.54 220.504 297.415 218.291C295.29 216.078 292.557 214.545 289.561 213.886C286.565 213.226 283.441 213.47 280.583 214.587C277.726 215.703 275.264 217.642 273.508 220.157C271.752 222.673 270.782 225.653 270.72 228.72C270.64 232.83 272.195 236.804 275.043 239.769C277.891 242.734 281.8 244.446 285.91 244.53V244.54Z" fill="#14C3BF"></path><path d="M169.67 278.13V338.79" stroke="#14C3BF" stroke-width="0.879169" stroke-linecap="round" stroke-linejoin="round"></path><path d="M179.42 301.02H174.27V335.75H179.42V301.02Z" fill="#14C3BF"></path><path d="M186.78 315.19H181.63V335.74H186.78V315.19Z" fill="#F77021"></path><path d="M195.43 289.79H190.28V335.75H195.43V289.79Z" fill="white" stroke="#14C3BF" stroke-width="0.879169" stroke-linejoin="round"></path><path d="M209.79 283.16H204.64V335.74H209.79V283.16Z" fill="#14C3BF"></path><path d="M217.16 322.74H212.01V335.75H217.16V322.74Z" fill="#F77021"></path><path d="M225.81 304.7H220.66V335.75H225.81V304.7Z" fill="white" stroke="#14C3BF" stroke-width="0.879169" stroke-linejoin="round"></path><path d="M246.79 309.45H241.64V335.74H246.79V309.45Z" fill="#14C3BF"></path><path d="M254.16 289.05H249.01V335.74H254.16V289.05Z" fill="#F77021"></path><path d="M262.81 299.36H257.66V335.74H262.81V299.36Z" fill="white" stroke="#14C3BF" stroke-width="0.879169" stroke-linejoin="round"></path><path d="M164.14 327.71H167.02" stroke="#14C3BF" stroke-width="0.879169" stroke-linecap="round" stroke-linejoin="round"></path><path d="M164.14 320.22H167.02" stroke="#14C3BF" stroke-width="0.879169" stroke-linecap="round" stroke-linejoin="round"></path><path d="M164.14 312.74H167.02" stroke="#14C3BF" stroke-width="0.879169" stroke-linecap="round" stroke-linejoin="round"></path><path d="M164.14 305.25H167.02" stroke="#14C3BF" stroke-width="0.879169" stroke-linecap="round" stroke-linejoin="round"></path><path d="M164.14 297.76H167.02" stroke="#14C3BF" stroke-width="0.879169" stroke-linecap="round" stroke-linejoin="round"></path><path d="M164.14 290.27H167.02" stroke="#14C3BF" stroke-width="0.879169" stroke-linecap="round" stroke-linejoin="round"></path><path d="M164.14 282.78H167.02" stroke="#14C3BF" stroke-width="0.879169" stroke-linecap="round" stroke-linejoin="round"></path><path d="M166.26 335.75H266.42" stroke="#14C3BF" stroke-width="0.879169" stroke-linecap="round" stroke-linejoin="round"></path><path opacity="0.3" d="M186.78 315.19H181.63V335.74H186.78V315.19Z" fill="black"></path><path opacity="0.3" d="M217.16 322.74H212.01V335.75H217.16V322.74Z" fill="black"></path><path opacity="0.3" d="M254.16 289.05H249.01V335.74H254.16V289.05Z" fill="black"></path><path d="M160.05 269.71C158.324 269.712 156.67 270.399 155.45 271.619C154.229 272.84 153.543 274.494 153.54 276.22V335.73C153.543 337.456 154.229 339.112 155.449 340.334C156.669 341.555 158.323 342.244 160.05 342.25H270.5C272.228 342.244 273.883 341.556 275.105 340.334C276.326 339.113 277.015 337.457 277.02 335.73V276.2C277.017 274.471 276.33 272.814 275.107 271.592C273.885 270.37 272.228 269.682 270.5 269.68L160.05 269.71Z" stroke="#14C3BF" stroke-linejoin="round"></path><path d="M72.6496 402.74C72.6496 402.74 74.9597 418.16 69.3697 419.74C63.7797 421.32 59.8996 419.24 59.1996 416.93C58.4996 414.62 63.4496 398.12 63.4496 398.12L72.6496 402.74Z" fill="white"></path><path d="M169.88 406.15L194.18 411.91C194.18 411.91 196.02 412.91 195.82 414.56C195.62 416.21 184.53 420.44 181.42 420.97C178.31 421.5 160.36 423.84 157.81 421.65C155.26 419.46 160.65 402 160.65 402L169.88 406.15Z" fill="white"></path><path d="M125.88 124.92C125.88 124.92 129.3 130.08 129.35 132.69C129.4 135.3 129.08 138.28 130.68 139.82C132.28 141.36 133.51 143.04 132.85 143.82C132.19 144.6 130.92 146.12 130.92 146.12C130.92 146.12 132.57 154.91 130.43 156.5C128.29 158.09 121.86 156.5 121.86 156.5V162.18C121.86 162.18 112.72 159.18 106.41 159.74L105.29 147.57C105.29 147.57 119 121.21 125.88 124.92Z" fill="white"></path><path d="M182.1 160.88C182.1 160.88 181.28 154.64 184.32 150.88C184.32 150.88 180.68 150.26 181.12 148.94C181.56 147.62 187.12 149.35 187.12 149.35L185.62 146.35C185.62 146.35 180.37 144.61 181.02 142.98C181.67 141.35 189.37 145.36 189.37 145.36C189.37 145.36 184.8 141.54 185.44 139.95C186.08 138.36 190.73 138.39 193.21 146.63L194.47 145.06C194.47 145.06 194.92 135.68 196.21 135.17C196.21 135.17 198.21 136.27 198.21 141.66C198.21 141.66 200.21 144.07 198.94 146.11C197.67 148.15 194.68 152.74 192.14 154.46C189.6 156.18 189.61 162.89 189.61 162.89L182.1 160.88Z" fill="white"></path><path d="M101.62 109.59L102.77 108.05C102.77 108.05 115.64 102.31 115.32 100.52C115 98.7296 107.71 101.2 106.32 100.25C106.32 100.25 107.65 83.3097 106.32 82.7597C104.99 82.2097 103.51 90.7097 103.51 90.7097C103.51 90.7097 101.64 81.9896 100.2 82.2396C98.7595 82.4896 99.3595 91.2396 99.3595 91.2396C99.3595 91.2396 96.6095 85.6297 95.5395 86.1497C94.4695 86.6697 96.0695 93.5097 96.0695 93.5097C96.0695 93.5097 94.0695 91.1597 93.2695 91.8697C93.5331 95.4028 94.5022 98.8474 96.1195 102L93.3395 106.7L101.62 109.59Z" fill="white"></path><path d="M180.71 160.92L189.58 162.16C189.58 162.16 183.09 217.16 181.18 223.95C179.27 230.74 177.55 235.62 171.03 235.95C164.51 236.28 141.28 216.75 141.28 216.75L140.2 243.75L141.71 254.95C141.71 254.95 113.3 269.88 84.41 256.89L85.06 243.75L74.65 183.65L66.46 155.11L92.89 105L102.47 110L85.57 155.61L90.3 170.84L95.59 168.72L101.44 161.26C101.44 161.26 111.36 156.11 123.91 163.26L125.91 169.52C125.91 169.52 140.63 170.63 165.48 205.08L180.71 160.92Z" fill="#F77021"></path><path opacity="0.2" d="M117.3 160.92L118.42 168.62C118.42 168.62 126.68 174.1 130 176C130 176 138.12 227.28 132.11 237.37L125.78 247.28C125.78 247.28 132.25 247.28 135.23 242.75C135.23 242.75 131.52 255.13 121.9 258.46C121.9 258.46 136.67 256.92 141.75 254.96L140.24 243.76L142.67 181.31C142.67 181.31 144.96 177.13 125.92 169.64L123.11 162.89L117.3 160.92Z" fill="black"></path><path d="M125.879 125.62C125.879 125.62 128.979 130.16 129.349 132.69C129.719 135.22 128.619 138.01 130.679 139.82C132.739 141.63 133.679 142.82 132.849 143.82C132.019 144.82 130.919 146.12 130.919 146.12C130.919 146.12 131.759 154.69 130.429 156.5C129.099 158.31 121.859 156.5 121.859 156.5V162.18" stroke="#3D5276" stroke-linecap="round" stroke-linejoin="round"></path><path d="M121.859 145.74C121.859 145.74 118.959 138.25 116.789 140.06C114.619 141.87 116.549 151.77 121.859 149.6" stroke="#3D5276" stroke-linecap="round" stroke-linejoin="round"></path><path d="M121.07 144C121.07 144 124.52 143.72 122.34 135.63C120.16 127.54 124.88 128.63 129.95 126.33C135.02 124.03 136.23 119.81 135.14 117.28C134.05 114.75 132.24 113.41 125.84 114.62C125.84 114.62 118.84 106.53 112.08 115.47C112.08 115.47 96.8598 115.23 92.7598 122.47C88.6598 129.71 94.0898 148.19 102.06 154.35C110.03 160.51 117.82 155.58 119.44 149.79C119.44 149.79 114.01 146.86 116.79 140.1C116.79 140.06 119.32 139.16 121.07 144Z" fill="#3D5276"></path><path d="M73.8594 179.09C73.8594 179.09 110.689 152.38 142.789 179.09L140.199 243.71L141.709 254.91C141.709 254.91 114.569 267.62 84.4094 256.85L85.0594 243.71L73.8594 179.09Z" stroke="#3D5276" stroke-linecap="round" stroke-linejoin="round"></path><path d="M95.0996 169.38L101.44 161.3C101.44 161.3 113.87 157 123.91 163.3L125.91 169.56" stroke="#3D5276" stroke-linecap="round" stroke-linejoin="round"></path><path d="M142.79 179.09L174.86 215.97" stroke="#3D5276" stroke-linecap="round" stroke-linejoin="round"></path><path d="M141.31 216C141.31 216 162.56 235.77 171.03 236C179.5 236.23 180.91 226 180.91 226L189.58 162.2L180.71 160.96L165.45 205.19" stroke="#3D5276" stroke-linecap="round" stroke-linejoin="round"></path><path d="M189.43 162C189.43 162 190.54 154.79 193.43 153.15C196.32 151.51 199.75 145.15 198.65 143.32C197.55 141.49 194.19 147.44 191.16 148.58C188.13 149.72 185.67 155.32 185.25 157.75" stroke="#3D5276" stroke-linecap="round" stroke-linejoin="round"></path><path d="M197.719 143.06C197.719 143.06 197.719 134.73 196.189 135.12C194.659 135.51 194.449 146.06 194.449 146.06" stroke="#3D5276" stroke-linecap="round" stroke-linejoin="round"></path><path d="M193.33 147.13C193.33 147.13 192.33 142.46 189.58 140.18C186.83 137.9 185.11 139.13 185.42 139.9C185.73 140.67 190.42 146.9 190.31 149.02" stroke="#3D5276" stroke-linecap="round" stroke-linejoin="round"></path><path d="M188.57 144.82C188.57 144.82 181.02 141.36 181 143.43C180.98 145.5 185.6 146.3 185.6 146.3L187.1 149.3C187.1 149.3 180.74 147.3 181.1 148.89C181.46 150.48 184.3 150.83 184.3 150.83C184.3 150.83 181.21 153.89 182.08 160.83" stroke="#3D5276" stroke-linecap="round" stroke-linejoin="round"></path><path d="M137.34 255.66L139.27 269.18C139.27 269.18 157.04 322.49 159.74 332.91C162.44 343.33 163.99 366.91 164.74 377.72C165.49 388.53 171.74 406.72 171.74 406.72C171.74 406.72 170.97 414.06 157.84 412.9C157.84 412.9 152.43 391.27 146.64 378.52C140.85 365.77 140 346.43 140 346.43L111.8 294.67C111.8 294.67 106.03 324.81 102.15 336C98.15 347.54 70.88 411.57 72.79 407.08C72.79 407.08 68.93 409.4 60.79 403.6C60.79 403.6 66.58 384.29 68.12 373.86C69.66 363.43 77.78 339.48 77.78 339.48C77.78 339.48 79.71 294.29 82.78 280.38C82.78 280.38 80.78 265.06 85.05 254.24C101.975 259.768 120.14 260.261 137.34 255.66V255.66Z" fill="#3D5276"></path><path d="M96.3496 285.59L109.01 289.27L110.85 293.76" stroke="white" stroke-linecap="round" stroke-linejoin="round"></path><path d="M158.12 411.32C158.12 411.32 156.41 419.89 157.81 421.65C158.55 422.57 160.75 422.4 161.81 422.42C164.25 422.47 166.7 422.31 169.14 422.15C174.02 421.83 179.02 421.88 183.73 420.37C187.698 419.178 191.488 417.459 195 415.26C196.92 413.98 195 411.91 195 411.91L171.75 406.69" stroke="#3D5276" stroke-linecap="round" stroke-linejoin="round"></path><path d="M158 418.63C158 418.63 184.13 422.92 195 411.91" stroke="#3D5276" stroke-linecap="round" stroke-linejoin="round"></path><path d="M61.7994 402.74C61.7994 402.74 58.7994 413.03 59.2394 416.27C59.6794 419.51 62.9294 420.27 66.7294 420.18C70.5294 420.09 72.0894 418.39 72.6494 415.82C73.2094 413.25 72.6494 404.94 72.6494 404.94" stroke="#3D5276" stroke-linecap="round" stroke-linejoin="round"></path><path d="M59.1992 414.7L72.6492 415.82" stroke="#3D5276" stroke-linecap="round" stroke-linejoin="round"></path><path d="M94.31 105.32C95.45 103.24 96.12 101.97 96.12 101.97C96.12 101.97 92.41 93 93.34 91.9C94.27 90.8 96.42 93.9 96.42 93.9C96.42 93.9 94.22 86.77 95.61 86.16C97 85.55 99.48 92.16 99.48 92.16C99.48 92.16 98.83 82.61 100.27 82.16C101.71 81.71 103.44 91.24 103.44 91.24C103.44 91.24 105.3 82.76 106.44 82.68C107.58 82.6 106.44 100.17 106.44 100.17C108.74 101.3 115.5 98.54 115.44 100.77C115.38 103 102.44 108.13 102.44 108.13C102.214 108.424 102.016 108.738 101.85 109.07" stroke="#3D5276" stroke-linecap="round" stroke-linejoin="round"></path><path d="M73.86 179.09L66.46 155.11L92.89 105.03L102.47 110.04L85.57 155.65L90.3 170.88" stroke="#3D5276" stroke-linecap="round" stroke-linejoin="round"></path><path d="M74.7194 151.32C74.7194 151.32 84.1994 151.24 85.5694 155.65C81.4166 155.42 77.3029 156.558 73.8594 158.89" stroke="#3D5276" stroke-linecap="round" stroke-linejoin="round"></path><path d="M106.04 160.26V153.31" stroke="#3D5276" stroke-linecap="round" stroke-linejoin="round"></path><path opacity="0.2" d="M142.63 198.43L145 214.2C145 214.2 146.94 203.91 148.15 203.91C149.36 203.91 148.15 215.97 148.15 215.97C148.15 215.97 168.03 233.97 176.63 234.07C176.63 234.07 171.85 237.43 167.06 234.93C162.27 232.43 141.27 215.93 141.27 215.93L142.63 198.43Z" fill="black"></path><path opacity="0.2" d="M100.769 109.15L82.5894 153.31C82.5894 153.31 76.2594 153.21 73.8594 158.89L83.5794 157.15L86.8494 172.15L90.2994 170.84L85.5694 155.61L102.469 110L100.769 109.15Z" fill="black"></path><path d="M351.31 186.811L344.15 171.521L316.01 190.111L339.23 231.251L357.34 220.971L351.31 186.811Z" fill="white"></path><path d="M374.5 319.06C374.5 319.06 379.05 331.69 379.72 337.84C380.39 343.99 378.34 369.89 378.78 377.03C379.22 384.17 383.08 405.48 383.08 405.48C383.08 405.48 364.15 419.24 358.14 414.81C358.14 414.81 371.48 404.01 372.83 399.71L368.51 370.52L364.22 336C364.22 336 363.13 328.79 361.61 325.08C360.09 321.37 360.32 313.5 360.32 313.5L374.5 319.06Z" fill="white"></path><path d="M374.099 317.941C374.099 317.941 379.019 331.241 380.169 340.791C381.319 350.341 377.859 372.001 378.999 382.431C380.139 392.861 381.309 398.631 383.329 404.121L382.329 420.231H379.739L378.739 411.091C378.739 411.091 374.679 409.401 372.219 415.251C369.759 421.101 360.669 421.871 356.359 418.481C356.359 418.481 356.359 415.861 359.599 413.551C362.839 411.241 371.299 404.021 372.839 399.711C372.839 399.711 368.219 369.711 367.139 359.991C366.059 350.271 364.369 332.601 362.209 326.901C360.049 321.201 360.059 313.051 360.059 313.051" stroke="#3D5276" stroke-linecap="round" stroke-linejoin="round"></path><path d="M382.34 401.101C382.34 401.101 369.65 414.901 359 414.811" stroke="#3D5276" stroke-linecap="round" stroke-linejoin="round"></path><path d="M358.14 414.811C359.9 415.006 361.682 414.783 363.34 414.161C366.21 413.161 376.54 408.161 381.62 401.851L383.18 403.621L382.36 419.861L379.75 420.231L378.75 411.091C378.75 411.091 375.41 409.561 373.26 413.321C371.11 417.081 369.56 419.661 365.8 420.491C362.04 421.321 356.37 418.491 356.37 418.491C356.37 418.491 355.38 417.001 358.14 414.811Z" fill="#3D5276"></path><path d="M383.35 319.49C384.542 323.875 385.991 328.186 387.69 332.4C389.96 337.61 409.57 390.3 409.57 390.3C409.57 390.3 411.06 418.82 419.41 418.73C427.76 418.64 419.08 398.8 419.08 398.8L414 387.93C414 387.93 412.06 356 409.66 344.26L399.44 316.73L383.35 319.49Z" fill="white"></path><path d="M399.55 317.65C399.55 317.65 407.94 336.74 409.67 344.26C411.4 351.78 413.14 385.61 414.01 387.93C414.88 390.25 428.76 414.82 420.37 419.74C411.98 424.66 410 391.4 410 391.4C410 391.4 390.63 337.6 387.73 332.4C384.83 327.2 381.66 312.15 381.66 312.15L399.55 317.65Z" stroke="#3D5276" stroke-linecap="round" stroke-linejoin="round"></path><path d="M422 407.131C422 407.131 421.42 413.791 419.22 414.731C417.02 415.671 412.16 408.161 412.16 408.161" stroke="#3D5276" stroke-linecap="round" stroke-linejoin="round"></path><path d="M412.18 409.31C412.18 409.31 415.18 420.67 419.18 420.19C423.18 419.71 423.9 413.4 422.01 408.53C422.01 408.53 421.34 413.53 419.23 414.73C417.1 414.76 412.18 409.31 412.18 409.31Z" fill="#3D5276"></path><path d="M376.77 218.351C376.77 218.351 386.88 232.151 393.89 254.351C400.9 276.551 400.18 319.071 400.18 319.071C400.18 319.071 374.09 327.461 348.8 316.801L353.43 221.001C353.43 221.001 369.7 221.301 376.77 218.351Z" fill="#3D5276"></path><path d="M363.71 118.271C363.71 118.271 355.85 125.631 354.93 130.451C354.171 133.824 352.953 137.078 351.31 140.121C352.155 141.4 353.394 142.369 354.84 142.881C354.84 142.881 355.35 152.751 358.22 153.511L365.08 151.711L365.81 155.941L375.65 152.201V146.501L383.15 141.601L380.48 128.791L368.28 123.091L363.71 118.271Z" fill="white"></path><path d="M353.38 220.23L352.51 206.39C352.51 206.39 346.11 194.39 348.14 190.03C350.38 185.24 363.84 167.5 363.84 167.5L362.52 157.82L381.38 149.74L382.28 157.82L380 159.51L382.53 164.93C382.53 164.93 382.69 163.32 387.07 171.49C391.45 179.66 407.95 208.73 409.25 214.31C410.55 219.89 383.59 239.55 374.49 244.19C374.49 244.19 373.44 241.94 362.63 250.19C359.88 249.71 356.08 247.24 355.27 245.71C354.46 244.18 358.38 240.54 358.38 240.54C358.38 240.54 360.74 236.08 364.91 239.65H369.35L394.76 216L381.88 197.15L376.77 218.32C376.77 218.32 360.24 223.34 353.38 220.23Z" fill="white"></path><path d="M362.52 157.82L363.87 167.71L382.28 157.82L381.38 149.74L362.52 157.82Z" stroke="#3D5276" stroke-linecap="round" stroke-linejoin="round"></path><path d="M363.869 167.71C363.869 167.71 347.119 188.2 347.569 192.24C348.019 196.28 352.509 206.39 352.509 206.39L353.429 220.99C353.429 220.99 366.979 221.36 376.769 218.35L381.879 197.18" stroke="#3D5276" stroke-linecap="round" stroke-linejoin="round"></path><path d="M394.76 216L368.81 176.88C368.81 176.88 366.26 167.88 372.4 164.67C378.54 161.46 383.88 165.53 385.79 167.67C387.7 169.81 408.3 209.5 409.26 214.27C410.22 219.04 388.46 238.12 375.87 243.27C375.87 243.27 370.14 246.71 370.14 239.65L394.76 216Z" stroke="#3D5276" stroke-linecap="round" stroke-linejoin="round"></path><path d="M382.28 164.931L379.85 159.131" stroke="#3D5276" stroke-linecap="round" stroke-linejoin="round"></path><path d="M370.14 239.69H364.92C364.92 239.69 360.85 236.05 358.92 239.69C356.99 243.33 354.55 244.05 355.28 245.75C356.01 247.45 360.19 250.84 362.64 250.23C365.09 249.62 372 244 372 244" stroke="#3D5276" stroke-linecap="round" stroke-linejoin="round"></path><path d="M361.83 120.86C361.83 120.86 355.7 126.22 355.02 129.19C354.34 132.16 354.63 137.19 351.31 140.12C351.31 140.12 351.48 142.52 354.84 142.88C354.84 142.88 356.56 152.35 358.22 153.51C359.88 154.67 370.04 149.43 374.02 147.27C375.035 146.574 375.774 145.545 376.11 144.36" stroke="#3D5276" stroke-linecap="round" stroke-linejoin="round"></path><path d="M357.069 145.77C358.948 145.453 360.644 144.452 361.829 142.96" stroke="#3D5276" stroke-linecap="round" stroke-linejoin="round"></path><path d="M357.069 132.071C357.069 132.071 359.489 130.661 360.819 133.001" stroke="#3D5276" stroke-linecap="round" stroke-linejoin="round"></path><path d="M358.73 137.1C358.73 137.91 358.5 138.57 358.13 138.59C357.76 138.61 357.42 137.97 357.38 137.17C357.34 136.37 357.61 135.69 357.98 135.67C358.35 135.65 358.69 136.29 358.73 137.1Z" fill="#3D5276"></path><path d="M365.08 151.71L365.89 156.38" stroke="#3D5276" stroke-linecap="round" stroke-linejoin="round"></path><path d="M372.94 136.48C372.94 136.48 374.44 133.57 376.11 135.27C377.78 136.97 380.95 144.83 372.4 142.96C372.4 142.96 371.83 147.76 376.11 148.96C380.39 150.16 388.52 143.54 388.79 132.25C389.06 120.96 378.16 113.34 372.4 115.52C372.4 115.52 364.05 102.43 355.77 108.01C347.49 113.59 353.07 122.18 351.31 124.12C349.55 126.06 345.79 124.24 345.67 129.45C345.55 134.66 354.26 134.13 354.26 134.13L355.31 128.39L362.52 120.86C362.52 120.86 360.82 126.3 363.71 131.03C366.32 135.29 372.94 136.48 372.94 136.48Z" fill="#3D5276"></path><path d="M388.789 132.251C388.789 132.251 392.789 133.151 392.349 138.561C391.909 143.971 382.879 157.271 383.559 164.931L406.869 208.371C406.869 208.371 417.359 206.371 416.869 195.571C416.379 184.771 403.579 175.671 406.049 167.711C408.519 159.751 418.219 139.481 404.479 127.861C390.739 116.241 369.319 134.051 369.319 134.051L379.809 130.671L388.789 132.251Z" fill="#3D5276"></path><path d="M350.41 185.921L344.15 171.521L316.01 190.111L339.23 231.251L353.31 223.501" stroke="#3D5276" stroke-linecap="round" stroke-linejoin="round"></path><path d="M324.77 210.46C324.77 210.46 323.25 207.32 325.28 205.59C327.31 203.86 334.28 198.73 334.28 199.99C334.326 200.296 334.307 200.608 334.225 200.906C334.142 201.204 333.997 201.482 333.8 201.72C331.8 204.4 327.01 208.72 327.32 209.07C327.32 209.07 336.06 203.27 336.9 203.82C337.11 203.96 336.99 204.71 336.26 205.44C333.865 207.572 331.336 209.549 328.69 211.36C328.69 211.36 337.91 207.79 339.1 208.36C339.44 208.52 339.37 209.04 338.3 209.69C335.623 211.145 332.869 212.454 330.05 213.61L332.36 217.47C332.36 217.47 328 218.23 324.77 210.46Z" fill="white" stroke="#3D5276" stroke-linecap="round" stroke-linejoin="round"></path><path d="M375.01 145.771L375.65 152.201" stroke="#3D5276" stroke-linejoin="round"></path></svg>