<svg xmlns="http://www.w3.org/2000/svg" width="173" height="48" viewBox="0 0 173 48" fill="none"><path fill-rule="evenodd" clip-rule="evenodd" d="M72.5671 6.46646V39.2544H83.1984C87.187 39.2544 90.3515 38.6804 92.6426 37.4824L92.6437 37.4818C94.9412 36.2734 96.7942 34.4056 98.2071 31.9039C99.6418 29.3891 100.351 26.501 100.351 23.256C100.351 19.491 99.4602 16.2202 97.6553 13.4679C95.8644 10.7008 93.3727 8.75957 90.1992 7.652C87.9541 6.84954 84.426 6.46646 79.6702 6.46646H72.5671ZM93.9359 15.7532L93.9373 15.7552C95.3489 17.8183 96.0671 20.3237 96.0671 23.2988C96.0671 26.1348 95.4042 28.4976 94.1071 30.4165C92.8084 32.3236 91.0344 33.6413 88.7652 34.3755C87.1422 34.8891 84.1752 35.1625 79.7985 35.1625H76.6804V10.6225H78.3872C82.9289 10.6225 86.1308 10.9306 88.0439 11.5182L88.0453 11.5187L88.0468 11.5191C90.5872 12.2839 92.5413 13.6951 93.9359 15.7532Z" fill="url(#paint0_linear)"></path><path fill-rule="evenodd" clip-rule="evenodd" d="M72.5671 6.46646V39.2544H83.1984C87.187 39.2544 90.3515 38.6804 92.6426 37.4824L92.6437 37.4818C94.9412 36.2734 96.7942 34.4056 98.2071 31.9039C99.6418 29.3891 100.351 26.501 100.351 23.256C100.351 19.491 99.4602 16.2202 97.6553 13.4679C95.8644 10.7008 93.3727 8.75957 90.1992 7.652C87.9541 6.84954 84.426 6.46646 79.6702 6.46646H72.5671ZM93.9359 15.7532L93.9373 15.7552C95.3489 17.8183 96.0671 20.3237 96.0671 23.2988C96.0671 26.1348 95.4042 28.4976 94.1071 30.4165C92.8084 32.3236 91.0344 33.6413 88.7652 34.3755C87.1422 34.8891 84.1752 35.1625 79.7985 35.1625H76.6804V10.6225H78.3872C82.9289 10.6225 86.1308 10.9306 88.0439 11.5182L88.0453 11.5187L88.0468 11.5191C90.5872 12.2839 92.5413 13.6951 93.9359 15.7532Z" fill="#444444"></path><path d="M106.534 10.3737L106.537 10.3765L106.54 10.3792C107.125 10.9647 107.847 11.264 108.674 11.264C109.501 11.264 110.223 10.9647 110.808 10.3792C111.405 9.78286 111.714 9.05569 111.714 8.22373C111.714 7.39255 111.405 6.67051 110.805 6.08681C110.22 5.50318 109.5 5.20486 108.674 5.20486C107.847 5.20486 107.125 5.50413 106.54 6.08959C105.955 6.67505 105.655 7.39639 105.655 8.22373C105.655 9.05066 105.954 9.77612 106.534 10.3737Z" fill="url(#paint1_linear)"></path><path d="M106.534 10.3737L106.537 10.3765L106.54 10.3792C107.125 10.9647 107.847 11.264 108.674 11.264C109.501 11.264 110.223 10.9647 110.808 10.3792C111.405 9.78286 111.714 9.05569 111.714 8.22373C111.714 7.39255 111.405 6.67051 110.805 6.08681C110.22 5.50318 109.5 5.20486 108.674 5.20486C107.847 5.20486 107.125 5.50413 106.54 6.08959C105.955 6.67505 105.655 7.39639 105.655 8.22373C105.655 9.05066 105.954 9.77612 106.534 10.3737Z" fill="#444444"></path><path d="M110.731 14.8486H106.639V39.3827H110.731V14.8486Z" fill="url(#paint2_linear)"></path><path d="M110.731 14.8486H106.639V39.3827H110.731V14.8486Z" fill="#444444"></path><path fill-rule="evenodd" clip-rule="evenodd" d="M121.289 39.5888H116.868L117.217 40.3512C118.075 42.227 119.037 43.6907 120.117 44.7099C121.193 45.726 122.566 46.5234 124.218 47.1133C125.883 47.7079 127.756 48 129.83 48C132.644 48 135.088 47.3988 137.14 46.1715C139.213 44.9539 140.67 43.2027 141.497 40.9357C142.117 39.3135 142.408 36.8227 142.408 33.5199C142.408 27.7146 142.422 24.6367 142.449 24.2327V24.1506L142.435 24.0684C141.629 20.7884 140.497 18.4431 138.962 17.1745L138.953 17.1673L138.944 17.1605C137.272 15.8916 135.791 15.0083 134.508 14.54C133 13.973 131.332 13.6939 129.51 13.6939C127.316 13.6939 125.221 14.2697 123.234 15.4114C121.242 16.5416 119.676 18.0924 118.544 20.0579L118.543 20.059C117.427 22.0085 116.869 24.1179 116.869 26.3779C116.869 28.6338 117.404 30.721 118.477 32.6291L118.478 32.6313L118.48 32.6335C119.571 34.5314 121.11 36.039 123.087 37.1535L123.088 37.1544C125.078 38.2677 127.199 38.8267 129.446 38.8267C131.349 38.8267 133.159 38.4247 134.87 37.6211C136.156 37.0224 137.291 36.2291 138.272 35.2431C138.255 37.698 137.956 39.3892 137.435 40.3926C136.897 41.4301 135.975 42.3222 134.621 43.0533L134.619 43.0544C133.306 43.7707 131.668 44.1434 129.681 44.1434C127.647 44.1434 125.986 43.7834 124.672 43.0938C123.376 42.406 122.298 41.336 121.444 39.8578L121.289 39.5888ZM137.315 21.8928L137.316 21.8946L137.317 21.8965C138.05 23.1895 138.423 24.6713 138.423 26.3565C138.423 28.959 137.623 31.0087 136.059 32.5602C134.495 34.1103 132.403 34.9059 129.724 34.9059C127.106 34.9059 125.017 34.1061 123.407 32.5357C121.794 30.9626 120.982 28.9741 120.982 26.5276C120.982 24.9238 121.371 23.441 122.151 22.0697C122.944 20.6992 124.022 19.6282 125.391 18.8492C126.778 18.0689 128.275 17.6789 129.895 17.6789C131.455 17.6789 132.895 18.0612 134.223 18.8259L134.226 18.8275L134.229 18.8291C135.57 19.5803 136.595 20.6001 137.315 21.8928Z" fill="url(#paint3_linear)"></path><path fill-rule="evenodd" clip-rule="evenodd" d="M121.289 39.5888H116.868L117.217 40.3512C118.075 42.227 119.037 43.6907 120.117 44.7099C121.193 45.726 122.566 46.5234 124.218 47.1133C125.883 47.7079 127.756 48 129.83 48C132.644 48 135.088 47.3988 137.14 46.1715C139.213 44.9539 140.67 43.2027 141.497 40.9357C142.117 39.3135 142.408 36.8227 142.408 33.5199C142.408 27.7146 142.422 24.6367 142.449 24.2327V24.1506L142.435 24.0684C141.629 20.7884 140.497 18.4431 138.962 17.1745L138.953 17.1673L138.944 17.1605C137.272 15.8916 135.791 15.0083 134.508 14.54C133 13.973 131.332 13.6939 129.51 13.6939C127.316 13.6939 125.221 14.2697 123.234 15.4114C121.242 16.5416 119.676 18.0924 118.544 20.0579L118.543 20.059C117.427 22.0085 116.869 24.1179 116.869 26.3779C116.869 28.6338 117.404 30.721 118.477 32.6291L118.478 32.6313L118.48 32.6335C119.571 34.5314 121.11 36.039 123.087 37.1535L123.088 37.1544C125.078 38.2677 127.199 38.8267 129.446 38.8267C131.349 38.8267 133.159 38.4247 134.87 37.6211C136.156 37.0224 137.291 36.2291 138.272 35.2431C138.255 37.698 137.956 39.3892 137.435 40.3926C136.897 41.4301 135.975 42.3222 134.621 43.0533L134.619 43.0544C133.306 43.7707 131.668 44.1434 129.681 44.1434C127.647 44.1434 125.986 43.7834 124.672 43.0938C123.376 42.406 122.298 41.336 121.444 39.8578L121.289 39.5888ZM137.315 21.8928L137.316 21.8946L137.317 21.8965C138.05 23.1895 138.423 24.6713 138.423 26.3565C138.423 28.959 137.623 31.0087 136.059 32.5602C134.495 34.1103 132.403 34.9059 129.724 34.9059C127.106 34.9059 125.017 34.1061 123.407 32.5357C121.794 30.9626 120.982 28.9741 120.982 26.5276C120.982 24.9238 121.371 23.441 122.151 22.0697C122.944 20.6992 124.022 19.6282 125.391 18.8492C126.778 18.0689 128.275 17.6789 129.895 17.6789C131.455 17.6789 132.895 18.0612 134.223 18.8259L134.226 18.8275L134.229 18.8291C135.57 19.5803 136.595 20.6001 137.315 21.8928Z" fill="#444444"></path><path fill-rule="evenodd" clip-rule="evenodd" d="M169.201 17.7855L169.2 17.784L169.198 17.7825C166.713 15.0593 163.574 13.6939 159.82 13.6939C156.064 13.6939 152.925 15.0672 150.44 17.805L150.439 17.8059L150.438 17.8069C148.196 20.3017 147.072 23.2528 147.072 26.6345C147.072 30.0379 148.258 33.0257 150.615 35.5746L150.616 35.5758L150.617 35.577C153.008 38.1324 156.091 39.404 159.82 39.404C163.535 39.404 166.611 38.1319 169.001 35.577L169.002 35.5758C171.373 33.0271 172.568 30.0389 172.568 26.6345C172.568 23.2392 171.444 20.2808 169.201 17.7855ZM153.77 20.3377C155.469 18.5851 157.476 17.7216 159.82 17.7216C162.163 17.7216 164.171 18.5851 165.869 20.3377C167.566 22.0887 168.412 24.1916 168.412 26.6773C168.412 28.2832 168.028 29.7834 167.26 31.1861C166.493 32.5712 165.457 33.6308 164.15 34.3778C162.854 35.1129 161.414 35.4832 159.82 35.4832C158.256 35.4832 156.822 35.1138 155.509 34.377C154.202 33.6298 153.16 32.5698 152.379 31.1841C151.611 29.7819 151.228 28.2824 151.228 26.6773C151.228 24.1916 152.073 22.0887 153.77 20.3377Z" fill="url(#paint4_linear)"></path><path fill-rule="evenodd" clip-rule="evenodd" d="M169.201 17.7855L169.2 17.784L169.198 17.7825C166.713 15.0593 163.574 13.6939 159.82 13.6939C156.064 13.6939 152.925 15.0672 150.44 17.805L150.439 17.8059L150.438 17.8069C148.196 20.3017 147.072 23.2528 147.072 26.6345C147.072 30.0379 148.258 33.0257 150.615 35.5746L150.616 35.5758L150.617 35.577C153.008 38.1324 156.091 39.404 159.82 39.404C163.535 39.404 166.611 38.1319 169.001 35.577L169.002 35.5758C171.373 33.0271 172.568 30.0389 172.568 26.6345C172.568 23.2392 171.444 20.2808 169.201 17.7855ZM153.77 20.3377C155.469 18.5851 157.476 17.7216 159.82 17.7216C162.163 17.7216 164.171 18.5851 165.869 20.3377C167.566 22.0887 168.412 24.1916 168.412 26.6773C168.412 28.2832 168.028 29.7834 167.26 31.1861C166.493 32.5712 165.457 33.6308 164.15 34.3778C162.854 35.1129 161.414 35.4832 159.82 35.4832C158.256 35.4832 156.822 35.1138 155.509 34.377C154.202 33.6298 153.16 32.5698 152.379 31.1841C151.611 29.7819 151.228 28.2824 151.228 26.6773C151.228 24.1916 152.073 22.0887 153.77 20.3377Z" fill="#444444"></path><path d="M61.7402 23.0628C61.7402 35.8001 51.3905 46.1257 38.6235 46.1257C25.8565 46.1257 15.5069 35.8001 15.5069 23.0628C15.5069 20.1196 16.0595 17.3052 17.0668 14.7171H32.1888C29.6841 16.6422 28.0703 19.6645 28.0703 23.0628C28.0703 28.8777 32.7951 33.5915 38.6235 33.5915C44.4519 33.5915 49.1768 28.8777 49.1768 23.0628C49.1768 17.3038 44.5422 12.6247 38.791 12.5354V12.5341H0C0 12.5341 2.42892 5.47721e-06 13.401 5.47721e-06L38.6235 0C51.3905 0 61.7402 10.3256 61.7402 23.0628Z" fill="url(#paint5_linear)"></path><circle opacity="0.5" cx="38.6775" cy="23.0628" r="7.26883" fill="#444444"></circle><defs><linearGradient id="paint0_linear" x1="122.583" y1="10.5892" x2="122.583" y2="39.485" gradientUnits="userSpaceOnUse"><stop stop-color="#8660F2"></stop><stop offset="0.484375" stop-color="#A175FF"></stop><stop offset="1" stop-color="#8660F2"></stop></linearGradient><linearGradient id="paint1_linear" x1="122.583" y1="10.5892" x2="122.583" y2="39.485" gradientUnits="userSpaceOnUse"><stop stop-color="#8660F2"></stop><stop offset="0.484375" stop-color="#A175FF"></stop><stop offset="1" stop-color="#8660F2"></stop></linearGradient><linearGradient id="paint2_linear" x1="122.583" y1="10.5892" x2="122.583" y2="39.485" gradientUnits="userSpaceOnUse"><stop stop-color="#8660F2"></stop><stop offset="0.484375" stop-color="#A175FF"></stop><stop offset="1" stop-color="#8660F2"></stop></linearGradient><linearGradient id="paint3_linear" x1="122.583" y1="10.5892" x2="122.583" y2="39.485" gradientUnits="userSpaceOnUse"><stop stop-color="#8660F2"></stop><stop offset="0.484375" stop-color="#A175FF"></stop><stop offset="1" stop-color="#8660F2"></stop></linearGradient><linearGradient id="paint4_linear" x1="122.583" y1="10.5892" x2="122.583" y2="39.485" gradientUnits="userSpaceOnUse"><stop stop-color="#8660F2"></stop><stop offset="0.484375" stop-color="#A175FF"></stop><stop offset="1" stop-color="#8660F2"></stop></linearGradient><linearGradient id="paint5_linear" x1="11.1276" y1="-2.87164" x2="49.6968" y2="43.5234" gradientUnits="userSpaceOnUse"><stop stop-color="#FF8024"></stop><stop offset="0.4375" stop-color="#FF9452"></stop><stop offset="0.828125" stop-color="#F3600D"></stop></linearGradient></defs></svg>