<svg xmlns="http://www.w3.org/2000/svg" width="500" height="500" viewBox="0 0 500 500" fill="none"><path d="M90.7196 374.39C174.51 418.16 310.35 418.16 394.13 374.39C477.91 330.62 477.92 259.65 394.13 215.88C310.34 172.11 174.5 172.11 90.7196 215.88C6.93961 259.65 6.92961 330.62 90.7196 374.39Z" fill="#C1EEE6"></path><path d="M291.829 315.13C272.119 326.5 272.119 344.95 291.829 356.33C311.539 367.71 343.479 367.71 363.189 356.33C382.899 344.95 382.889 326.5 363.189 315.13C343.489 303.76 311.529 303.75 291.829 315.13Z" fill="#EBEBEB"></path><path d="M84.3105 152.029L137.111 135.609L96.4905 163.749L84.3105 152.029Z" fill="#F77021"></path><path d="M137.111 135.61L80.2405 144.99L68.0605 133.26L137.111 135.61Z" fill="#F77021"></path><path d="M80.2402 144.989V159.059L84.3102 152.029L137.11 135.609L80.2402 144.989Z" fill="#3D5276"></path><path d="M80.2402 159.059L88.3702 155.939L84.3102 152.029L80.2402 159.059Z" fill="#F77021"></path><path d="M84.3105 152.029L88.3706 155.939L87.0705 156.429L84.3105 152.029Z" fill="#3D5276"></path><path d="M71.4906 156.94C71.3224 156.943 71.1581 156.89 71.024 156.788C70.8899 156.687 70.7938 156.543 70.7511 156.381C70.7084 156.218 70.7217 156.046 70.7887 155.891C70.8557 155.737 70.9726 155.61 71.1206 155.53C72.0206 155.03 72.9306 154.53 73.8306 154.14C73.9198 154.092 74.0179 154.062 74.119 154.053C74.22 154.044 74.3219 154.055 74.4184 154.086C74.515 154.118 74.6042 154.168 74.6806 154.235C74.7571 154.301 74.8192 154.383 74.8632 154.474C74.9072 154.566 74.9322 154.665 74.9367 154.767C74.9412 154.868 74.9251 154.969 74.8893 155.064C74.8535 155.159 74.7989 155.246 74.7286 155.319C74.6584 155.392 74.574 155.45 74.4806 155.49C73.6106 155.91 72.7206 156.36 71.8506 156.85C71.7393 156.908 71.616 156.939 71.4906 156.94V156.94Z" fill="#E0E0E0"></path><path d="M62.2599 237.7C62.1066 237.701 61.9566 237.656 61.8299 237.57C60.2035 236.423 58.6628 235.16 57.2199 233.79C57.1284 233.73 57.051 233.652 56.9931 233.559C56.9351 233.467 56.8979 233.363 56.8842 233.255C56.8705 233.147 56.8805 233.037 56.9135 232.933C56.9466 232.829 57.0019 232.734 57.0756 232.654C57.1493 232.573 57.2396 232.51 57.3402 232.468C57.4409 232.426 57.5495 232.407 57.6584 232.411C57.7673 232.416 57.874 232.444 57.971 232.494C58.0679 232.543 58.1529 232.614 58.2199 232.7C59.6116 234.021 61.099 235.237 62.6699 236.34C62.7993 236.432 62.896 236.564 62.9458 236.715C62.9957 236.866 62.9961 237.029 62.9471 237.181C62.8981 237.332 62.8022 237.464 62.6733 237.557C62.5443 237.651 62.3891 237.7 62.2299 237.7H62.2599ZM54.4199 230.42C54.3092 230.421 54.1996 230.397 54.0992 230.351C53.9988 230.304 53.9102 230.235 53.8399 230.15C52.5798 228.612 51.4334 226.984 50.4099 225.28C50.3064 225.109 50.2752 224.903 50.323 224.709C50.3708 224.515 50.4938 224.348 50.6649 224.245C50.8359 224.141 51.0411 224.11 51.2352 224.158C51.4293 224.206 51.5964 224.329 51.6999 224.5C52.6859 226.143 53.7887 227.714 54.9999 229.2C55.1248 229.353 55.1844 229.549 55.1656 229.745C55.1469 229.942 55.0514 230.123 54.8999 230.25C54.7659 230.363 54.5952 230.423 54.4199 230.42V230.42ZM48.7899 221.32C48.6446 221.321 48.5021 221.28 48.3796 221.202C48.2571 221.124 48.1599 221.012 48.0999 220.88C47.2827 219.069 46.5813 217.209 45.9999 215.31C45.9572 215.125 45.9861 214.931 46.0808 214.767C46.1754 214.602 46.3288 214.48 46.5101 214.424C46.6913 214.368 46.887 214.383 47.0576 214.466C47.2283 214.549 47.3613 214.693 47.4299 214.87C47.9827 216.707 48.6507 218.507 49.4299 220.26C49.4718 220.35 49.4955 220.447 49.4995 220.546C49.5036 220.645 49.4879 220.744 49.4535 220.837C49.4191 220.93 49.3666 221.015 49.299 221.088C49.2315 221.16 49.1502 221.219 49.0599 221.26C48.9748 221.297 48.883 221.318 48.7899 221.32ZM45.5399 211.11C45.3664 211.108 45.1989 211.046 45.0658 210.935C44.9327 210.824 44.8423 210.67 44.8099 210.5C44.4281 208.557 44.1577 206.594 43.9999 204.62C43.984 204.421 44.0477 204.224 44.1771 204.072C44.3065 203.92 44.491 203.826 44.6899 203.81C44.8888 203.794 45.0859 203.858 45.2378 203.987C45.3897 204.116 45.484 204.301 45.4999 204.5C45.647 206.417 45.9074 208.323 46.2799 210.21C46.3002 210.306 46.301 210.406 46.2822 210.503C46.2634 210.6 46.2253 210.692 46.1704 210.774C46.1154 210.856 46.0445 210.926 45.962 210.98C45.8795 211.035 45.787 211.072 45.6899 211.09L45.5399 211.11ZM44.5899 200.43C44.491 200.43 44.3931 200.41 44.302 200.372C44.2109 200.333 44.1284 200.277 44.0594 200.206C43.9904 200.135 43.9364 200.051 43.9004 199.959C43.8644 199.867 43.8472 199.769 43.8499 199.67C43.8733 197.69 44.0068 195.714 44.2499 193.75C44.251 193.644 44.2744 193.54 44.3185 193.444C44.3625 193.349 44.4263 193.263 44.5056 193.194C44.5849 193.124 44.678 193.072 44.7788 193.041C44.8795 193.01 44.9857 193.001 45.0904 193.013C45.1951 193.026 45.2959 193.061 45.3863 193.115C45.4766 193.169 45.5545 193.242 45.6149 193.329C45.6752 193.415 45.7167 193.513 45.7365 193.617C45.7563 193.72 45.754 193.827 45.7299 193.93C45.4987 195.841 45.3718 197.764 45.3499 199.69C45.3486 199.788 45.3279 199.885 45.289 199.976C45.2501 200.066 45.1937 200.148 45.1232 200.217C45.0526 200.286 44.9692 200.34 44.8777 200.376C44.7862 200.413 44.6884 200.431 44.5899 200.43V200.43ZM45.8099 189.78C45.7536 189.789 45.6961 189.789 45.6399 189.78C45.4466 189.737 45.2783 189.619 45.1715 189.452C45.0647 189.285 45.0282 189.083 45.0699 188.89C45.5081 186.953 46.0692 185.045 46.7499 183.18C46.783 183.082 46.8358 182.993 46.905 182.917C46.9742 182.841 47.0583 182.78 47.1521 182.737C47.2459 182.695 47.3474 182.673 47.4502 182.671C47.553 182.67 47.655 182.69 47.7499 182.73C47.8464 182.764 47.9349 182.818 48.0102 182.887C48.0855 182.956 48.146 183.04 48.188 183.134C48.23 183.227 48.2528 183.328 48.2548 183.431C48.2568 183.533 48.2382 183.635 48.1999 183.73C47.5437 185.534 47.0026 187.377 46.5799 189.25C46.5305 189.412 46.4274 189.553 46.2876 189.649C46.1477 189.746 45.9793 189.792 45.8099 189.78V189.78ZM49.3699 179.68C49.2546 179.684 49.1403 179.657 49.0399 179.6C48.9504 179.558 48.8702 179.499 48.8039 179.426C48.7377 179.352 48.6867 179.267 48.6541 179.173C48.6215 179.08 48.6079 178.982 48.614 178.883C48.6201 178.784 48.6459 178.688 48.6899 178.6C49.5627 176.818 50.5446 175.091 51.6299 173.43C51.7392 173.275 51.9031 173.167 52.0886 173.128C52.2741 173.089 52.4675 173.122 52.6299 173.22C52.7884 173.326 52.8998 173.489 52.9408 173.676C52.9817 173.862 52.9492 174.057 52.8499 174.22C51.795 175.824 50.8431 177.494 49.9999 179.22C49.9481 179.347 49.8617 179.458 49.7504 179.539C49.6391 179.621 49.5073 179.669 49.3699 179.68V179.68ZM55.1199 170.68C54.9526 170.681 54.79 170.625 54.6599 170.52C54.5819 170.458 54.5169 170.382 54.4686 170.295C54.4203 170.209 54.3897 170.113 54.3786 170.015C54.3674 169.916 54.3759 169.816 54.4036 169.721C54.4313 169.626 54.4776 169.537 54.5399 169.46C55.7895 167.916 57.125 166.444 58.5399 165.05C58.6805 164.909 58.8711 164.83 59.0699 164.83C59.2686 164.83 59.4593 164.909 59.5999 165.05C59.7403 165.19 59.8192 165.381 59.8192 165.58C59.8192 165.778 59.7403 165.969 59.5999 166.11C58.2371 167.469 56.9485 168.901 55.7399 170.4C55.6624 170.485 55.566 170.552 55.4584 170.593C55.3507 170.635 55.2348 170.651 55.1199 170.64V170.68ZM62.6399 163C62.5308 162.999 62.4232 162.975 62.3247 162.928C62.2261 162.882 62.1391 162.814 62.0699 162.73C61.9432 162.576 61.8817 162.38 61.8985 162.181C61.9153 161.983 62.0092 161.799 62.1599 161.67C63.6822 160.404 65.2676 159.216 66.9099 158.11C67.0711 158.011 67.2637 157.977 67.4491 158.014C67.6345 158.051 67.7991 158.156 67.9099 158.31C68.0215 158.476 68.0631 158.679 68.0257 158.876C67.9882 159.072 67.8747 159.246 67.7099 159.36C66.1076 160.436 64.5622 161.594 63.0799 162.83C62.9543 162.93 62.8006 162.99 62.6399 163V163Z" fill="#E0E0E0"></path><path d="M69.1405 241.61C69.0332 241.611 68.9271 241.587 68.8305 241.54C67.9005 241.12 66.9805 240.67 66.1005 240.19C66.0144 240.145 65.9382 240.083 65.876 240.008C65.8139 239.933 65.767 239.847 65.7383 239.754C65.7095 239.661 65.6993 239.564 65.7082 239.467C65.7172 239.37 65.7451 239.276 65.7905 239.19C65.8838 239.018 66.0406 238.889 66.2274 238.831C66.4143 238.774 66.6163 238.791 66.7905 238.88C67.6505 239.34 68.5405 239.78 69.4405 240.19C69.5948 240.262 69.7202 240.384 69.7959 240.536C69.8716 240.689 69.8932 240.862 69.8571 241.029C69.8211 241.195 69.7295 241.344 69.5974 241.452C69.4654 241.559 69.3007 241.618 69.1305 241.62L69.1405 241.61Z" fill="#E0E0E0"></path><path d="M411.189 205.319L453.489 178.239L472.119 184.219L411.189 205.319Z" fill="#F77021"></path><path d="M411.189 205.32L447.749 174.84L439.619 165.46L411.189 205.32Z" fill="#F77021"></path><path d="M447.749 174.84V181.91L411.189 205.32L447.749 174.84Z" fill="#3D5276"></path><path d="M456 171.89C455.818 171.89 455.643 171.822 455.51 171.7C455.362 171.567 455.272 171.382 455.259 171.184C455.246 170.986 455.311 170.791 455.44 170.64C456.742 169.187 457.898 167.609 458.89 165.93C458.99 165.757 459.156 165.632 459.349 165.581C459.542 165.531 459.747 165.559 459.92 165.66C460.092 165.76 460.217 165.926 460.268 166.119C460.319 166.312 460.29 166.517 460.19 166.69C459.142 168.451 457.93 170.108 456.57 171.64C456.498 171.72 456.41 171.783 456.312 171.827C456.213 171.87 456.107 171.891 456 171.89ZM461.72 162.57C461.63 162.584 461.539 162.584 461.45 162.57C461.355 162.534 461.269 162.478 461.196 162.408C461.123 162.337 461.065 162.253 461.026 162.159C460.987 162.066 460.967 161.966 460.967 161.864C460.968 161.763 460.989 161.663 461.03 161.57C461.736 159.748 462.265 157.863 462.61 155.94C462.645 155.743 462.758 155.569 462.922 155.456C463.086 155.343 463.288 155.299 463.485 155.335C463.681 155.37 463.855 155.483 463.968 155.647C464.082 155.811 464.125 156.013 464.09 156.21C463.721 158.225 463.162 160.2 462.42 162.11C462.363 162.248 462.266 162.366 462.141 162.448C462.016 162.53 461.869 162.573 461.72 162.57V162.57ZM463.86 151.84C463.762 151.838 463.665 151.818 463.575 151.779C463.485 151.74 463.404 151.683 463.336 151.612C463.268 151.542 463.215 151.458 463.179 151.367C463.144 151.275 463.127 151.178 463.13 151.08C463.13 150.82 463.13 150.56 463.13 150.3C463.125 148.602 462.992 146.907 462.73 145.23C462.701 145.032 462.751 144.832 462.869 144.671C462.986 144.51 463.163 144.402 463.36 144.37C463.557 144.343 463.756 144.394 463.916 144.512C464.077 144.629 464.185 144.804 464.22 145C464.49 146.753 464.627 148.525 464.63 150.3C464.63 150.57 464.63 150.84 464.63 151.11C464.622 151.308 464.537 151.495 464.393 151.631C464.249 151.768 464.058 151.842 463.86 151.84V151.84ZM462.35 141C462.189 140.999 462.032 140.946 461.904 140.849C461.776 140.751 461.683 140.615 461.64 140.46C461.066 138.583 460.347 136.755 459.49 134.99C459.446 134.901 459.42 134.805 459.414 134.706C459.408 134.608 459.421 134.509 459.454 134.416C459.486 134.323 459.537 134.237 459.604 134.164C459.67 134.091 459.75 134.031 459.84 133.99C460.019 133.904 460.225 133.892 460.412 133.958C460.599 134.024 460.753 134.161 460.84 134.34C461.734 136.174 462.48 138.076 463.07 140.03C463.099 140.124 463.109 140.222 463.1 140.32C463.09 140.418 463.061 140.513 463.015 140.6C462.968 140.686 462.905 140.763 462.828 140.824C462.752 140.886 462.664 140.932 462.57 140.96C462.5 140.987 462.425 141.001 462.35 141V141ZM457.71 131.07C457.583 131.071 457.459 131.039 457.348 130.978C457.238 130.916 457.145 130.828 457.08 130.72C456.007 129.074 454.828 127.501 453.55 126.01C453.485 125.935 453.436 125.848 453.405 125.754C453.374 125.661 453.362 125.562 453.369 125.463C453.377 125.365 453.404 125.269 453.448 125.18C453.493 125.092 453.555 125.014 453.63 124.95C453.704 124.885 453.79 124.836 453.883 124.806C453.976 124.775 454.074 124.763 454.171 124.77C454.269 124.778 454.364 124.804 454.452 124.849C454.539 124.894 454.616 124.955 454.68 125.03C456.007 126.573 457.23 128.203 458.34 129.91C458.432 130.074 458.46 130.267 458.42 130.452C458.379 130.636 458.273 130.799 458.12 130.91C458 130.998 457.858 131.05 457.71 131.06V131.07ZM450.71 122.66C450.519 122.659 450.336 122.584 450.2 122.45C448.76 121.102 447.247 119.833 445.67 118.65C445.591 118.591 445.524 118.517 445.474 118.432C445.424 118.347 445.391 118.253 445.377 118.156C445.363 118.058 445.369 117.959 445.393 117.864C445.418 117.768 445.461 117.678 445.52 117.6C445.579 117.521 445.653 117.455 445.738 117.404C445.822 117.354 445.916 117.321 446.014 117.307C446.111 117.293 446.21 117.299 446.306 117.323C446.401 117.348 446.491 117.391 446.57 117.45C448.195 118.665 449.751 119.97 451.23 121.36C451.341 121.463 451.418 121.597 451.452 121.745C451.485 121.893 451.472 122.048 451.416 122.188C451.36 122.329 451.262 122.449 451.136 122.534C451.01 122.618 450.861 122.662 450.71 122.66V122.66ZM441.94 116C441.798 115.998 441.659 115.957 441.54 115.88C440.86 115.46 440.15 115.04 439.43 114.63C438.43 114.07 437.43 113.51 436.37 112.98C436.273 112.941 436.185 112.882 436.112 112.808C436.04 112.733 435.983 112.644 435.946 112.547C435.91 112.449 435.894 112.345 435.9 112.241C435.906 112.137 435.934 112.035 435.981 111.942C436.028 111.849 436.095 111.767 436.176 111.702C436.257 111.636 436.35 111.588 436.451 111.56C436.551 111.533 436.657 111.526 436.76 111.542C436.863 111.557 436.962 111.594 437.05 111.65C438.1 112.19 439.15 112.75 440.17 113.33C440.91 113.74 441.63 114.17 442.33 114.61C442.491 114.713 442.607 114.874 442.654 115.06C442.7 115.246 442.674 115.443 442.58 115.61C442.515 115.724 442.422 115.82 442.31 115.888C442.198 115.956 442.071 115.995 441.94 116V116ZM352.29 115.49C352.158 115.488 352.028 115.452 351.914 115.386C351.8 115.319 351.706 115.224 351.64 115.11C351.545 114.941 351.52 114.742 351.571 114.555C351.621 114.368 351.743 114.208 351.91 114.11C353.65 113.11 355.44 112.11 357.25 111.27C357.427 111.183 357.632 111.17 357.82 111.234C358.007 111.297 358.161 111.433 358.25 111.61C358.333 111.789 358.343 111.994 358.278 112.181C358.212 112.367 358.077 112.521 357.9 112.61C356.12 113.48 354.36 114.41 352.65 115.4C352.538 115.454 352.414 115.478 352.29 115.47V115.49ZM432.19 110.92C432.086 110.92 431.983 110.896 431.89 110.85C430.09 110.06 428.23 109.32 426.37 108.66C426.181 108.592 426.028 108.452 425.942 108.271C425.857 108.09 425.847 107.883 425.915 107.695C425.982 107.506 426.122 107.353 426.303 107.267C426.484 107.182 426.691 107.172 426.88 107.24C428.77 107.92 430.66 108.67 432.5 109.48C432.66 109.548 432.792 109.67 432.872 109.825C432.952 109.979 432.976 110.157 432.939 110.328C432.903 110.498 432.808 110.65 432.671 110.758C432.534 110.867 432.364 110.924 432.19 110.92V110.92ZM362.14 110.61C361.992 110.611 361.847 110.567 361.724 110.485C361.601 110.403 361.506 110.286 361.45 110.15C361.409 110.058 361.386 109.959 361.384 109.859C361.382 109.758 361.401 109.658 361.438 109.565C361.475 109.472 361.531 109.387 361.602 109.316C361.672 109.244 361.757 109.188 361.85 109.15C363.7 108.37 365.6 107.65 367.5 107C367.595 106.96 367.698 106.941 367.801 106.943C367.904 106.945 368.006 106.968 368.1 107.011C368.194 107.054 368.278 107.117 368.347 107.194C368.415 107.271 368.468 107.361 368.5 107.46C368.536 107.556 368.553 107.659 368.549 107.762C368.545 107.865 368.52 107.966 368.476 108.059C368.432 108.152 368.37 108.236 368.293 108.305C368.217 108.373 368.127 108.426 368.03 108.46C366.16 109.1 364.28 109.81 362.47 110.57C362.362 110.6 362.25 110.606 362.14 110.59V110.61ZM421.87 107.15C421.8 107.159 421.729 107.159 421.66 107.15C419.77 106.6 417.83 106.15 415.9 105.68C415.803 105.659 415.712 105.619 415.631 105.563C415.549 105.506 415.48 105.434 415.427 105.351C415.373 105.268 415.337 105.175 415.319 105.078C415.302 104.981 415.304 104.881 415.325 104.785C415.346 104.688 415.385 104.597 415.442 104.516C415.498 104.434 415.57 104.365 415.653 104.312C415.736 104.258 415.829 104.222 415.926 104.204C416.023 104.187 416.123 104.189 416.22 104.21C418.22 104.64 420.16 105.15 422.08 105.71C422.253 105.76 422.402 105.872 422.5 106.023C422.598 106.175 422.638 106.357 422.612 106.536C422.587 106.714 422.497 106.878 422.361 106.996C422.225 107.115 422.05 107.18 421.87 107.18V107.15ZM372.52 107C372.356 106.999 372.197 106.945 372.067 106.846C371.937 106.746 371.843 106.607 371.8 106.45C371.772 106.356 371.764 106.257 371.774 106.16C371.785 106.063 371.815 105.969 371.863 105.883C371.91 105.798 371.974 105.722 372.051 105.662C372.127 105.601 372.215 105.556 372.31 105.53C374.24 104.99 376.22 104.53 378.19 104.09C378.289 104.058 378.395 104.047 378.499 104.059C378.603 104.07 378.704 104.103 378.794 104.156C378.885 104.208 378.964 104.279 379.025 104.364C379.087 104.449 379.13 104.546 379.151 104.648C379.173 104.751 379.173 104.857 379.151 104.959C379.13 105.062 379.087 105.159 379.025 105.244C378.964 105.329 378.886 105.4 378.795 105.452C378.704 105.505 378.604 105.538 378.5 105.55C376.56 105.96 374.62 106.44 372.72 106.97L372.52 107ZM411.15 104.74H411C409.05 104.43 407.06 104.18 405.1 104C404.996 103.999 404.894 103.976 404.8 103.934C404.706 103.891 404.622 103.83 404.552 103.753C404.483 103.677 404.43 103.587 404.397 103.489C404.364 103.391 404.352 103.287 404.361 103.185C404.37 103.082 404.4 102.982 404.449 102.891C404.499 102.8 404.566 102.721 404.648 102.657C404.729 102.594 404.823 102.548 404.923 102.523C405.023 102.497 405.128 102.493 405.23 102.51C407.23 102.69 409.23 102.94 411.23 103.26C411.425 103.294 411.599 103.403 411.714 103.564C411.83 103.724 411.879 103.924 411.85 104.12C411.814 104.282 411.727 104.427 411.6 104.534C411.473 104.641 411.315 104.702 411.15 104.71V104.74ZM383.26 104.67C383.082 104.67 382.909 104.606 382.774 104.491C382.638 104.375 382.548 104.215 382.52 104.04C382.491 103.842 382.541 103.642 382.659 103.481C382.776 103.32 382.953 103.212 383.15 103.18C385.15 102.88 387.15 102.63 389.15 102.46C389.248 102.451 389.347 102.462 389.442 102.492C389.536 102.522 389.623 102.57 389.699 102.633C389.775 102.697 389.837 102.775 389.883 102.863C389.928 102.95 389.956 103.046 389.965 103.145C389.973 103.243 389.962 103.342 389.932 103.437C389.903 103.531 389.855 103.618 389.791 103.694C389.727 103.77 389.649 103.832 389.562 103.878C389.474 103.923 389.378 103.951 389.28 103.96C387.28 104.13 385.33 104.36 383.38 104.67H383.26ZM400.21 103.67C398.21 103.6 396.21 103.59 394.26 103.67C394.161 103.675 394.063 103.661 393.97 103.627C393.878 103.593 393.793 103.541 393.721 103.474C393.649 103.407 393.591 103.326 393.552 103.235C393.512 103.145 393.491 103.048 393.49 102.95C393.486 102.851 393.501 102.752 393.536 102.66C393.571 102.567 393.624 102.482 393.692 102.41C393.76 102.339 393.842 102.281 393.932 102.242C394.023 102.202 394.121 102.181 394.22 102.18C396.22 102.11 398.22 102.12 400.22 102.18C400.318 102.182 400.415 102.204 400.505 102.244C400.595 102.284 400.676 102.342 400.744 102.413C400.812 102.485 400.865 102.569 400.9 102.661C400.936 102.753 400.952 102.851 400.95 102.95C400.935 103.137 400.851 103.313 400.714 103.442C400.578 103.571 400.398 103.645 400.21 103.65V103.67Z" fill="#E0E0E0"></path><path d="M396.44 219.94V218.34H396.05C395.456 217.257 394.555 216.373 393.46 215.8C391.225 214.666 388.755 214.075 386.25 214.075C383.744 214.075 381.274 214.666 379.04 215.8C377.944 216.373 377.043 217.257 376.45 218.34H376.06V219.89C376.06 221.42 377.06 222.96 379.06 224.13C381.295 225.259 383.765 225.847 386.27 225.847C388.774 225.847 391.244 225.259 393.48 224.13C395.46 223 396.45 221.46 396.44 219.94Z" fill="#3D5276"></path><path d="M386.25 224.23C391.877 224.23 396.44 221.593 396.44 218.34C396.44 215.087 391.877 212.45 386.25 212.45C380.622 212.45 376.06 215.087 376.06 218.34C376.06 221.593 380.622 224.23 386.25 224.23Z" fill="#3D5276"></path><path d="M383.63 169.301V217.651C383.651 217.88 383.733 218.1 383.866 218.288C384 218.476 384.18 218.625 384.39 218.721C384.965 219.012 385.6 219.163 386.245 219.163C386.889 219.163 387.525 219.012 388.1 218.721C388.312 218.627 388.495 218.479 388.631 218.291C388.766 218.102 388.849 217.882 388.87 217.651V169.301H383.63Z" fill="#3D5276"></path><path d="M398 133.11C395.45 131.64 393.13 131.52 391.39 132.49L359 151.21L375.25 183.8L407.75 165V150.74C407.75 144.11 403.38 136.22 398 133.11Z" fill="#3D5276"></path><path d="M375.25 169.53V183.8L355.76 172.54V158.28C355.76 151.65 360.12 148.8 365.5 151.91C368.95 153.91 371.98 157.85 373.71 162.17C374.678 164.506 375.2 167.002 375.25 169.53Z" fill="#3D5276"></path><path d="M375.25 169.53V183.8L355.76 172.54L373.71 162.17C374.678 164.506 375.2 167.002 375.25 169.53Z" fill="#2F3F5C"></path><path d="M372 174.421C370.21 169.241 364.39 162.521 359 159.421C353.61 156.321 350.71 157.991 352.5 163.171L355.75 172.551L375.25 183.811C375.25 183.811 373.8 179.601 372 174.421Z" fill="#3D5276"></path><path d="M385.409 170.07L384.319 169.44C384.085 169.332 383.827 169.289 383.57 169.313C383.314 169.338 383.069 169.43 382.859 169.58C382.257 169.974 381.756 170.504 381.396 171.128C381.036 171.752 380.829 172.451 380.789 173.17C380.762 173.427 380.804 173.687 380.912 173.923C381.019 174.159 381.187 174.361 381.399 174.51V174.51L382.399 175.09L382.589 174.78C382.797 174.735 382.996 174.657 383.179 174.55C383.781 174.158 384.283 173.63 384.642 173.007C385.002 172.385 385.21 171.687 385.249 170.97C385.248 170.791 385.225 170.613 385.179 170.44L385.409 170.07Z" fill="#2F3F5C"></path><path d="M383.899 170.19C383.297 170.582 382.796 171.11 382.436 171.732C382.076 172.354 381.868 173.053 381.829 173.77C381.829 175.09 382.759 175.62 383.899 174.96C384.502 174.569 385.004 174.04 385.363 173.418C385.723 172.796 385.931 172.098 385.969 171.38C385.999 170.06 384.999 169.53 383.899 170.19Z" fill="#3D5276"></path><path d="M383.9 173.141C383.821 173.141 383.743 173.125 383.67 173.095C383.597 173.065 383.531 173.021 383.476 172.965C383.42 172.909 383.376 172.843 383.345 172.77C383.315 172.697 383.3 172.619 383.3 172.541V151.911C383.3 151.751 383.363 151.599 383.476 151.486C383.588 151.374 383.741 151.311 383.9 151.311C384.059 151.311 384.212 151.374 384.324 151.486C384.437 151.599 384.5 151.751 384.5 151.911V172.541C384.5 172.7 384.437 172.852 384.324 172.965C384.212 173.077 384.059 173.141 383.9 173.141V173.141Z" fill="#2F3F5C"></path><path d="M384.439 152.45V157.83L390.209 151.91L384.439 152.45Z" fill="#3D5276"></path><path d="M81.0808 330.91C80.5808 331.18 71.4008 333.78 68.0008 329.29C64.6008 324.8 70.2507 317.8 67.0607 315.22C63.8707 312.64 54.9307 315.22 52.7807 309.8C50.6307 304.38 57.0007 302.04 53.4207 296.57C51.1607 293.12 44.8408 291.22 45.1308 288.01C45.5508 283.32 54.1908 282.01 61.7308 287.08C69.2708 292.15 72.7908 287.99 75.1808 287.65C77.5708 287.31 82.7308 288.06 82.5708 296.46C82.4108 304.86 81.0808 330.91 81.0808 330.91Z" fill="#F77021"></path><path d="M81.6899 319C81.5706 318.999 81.4552 318.957 81.3638 318.88C81.2725 318.803 81.2109 318.697 81.1899 318.58C78.5599 302.58 60.0299 289.65 50.3899 286.87C50.3261 286.852 50.2665 286.823 50.2145 286.782C50.1626 286.741 50.1195 286.69 50.0877 286.632C50.0559 286.574 50.0362 286.51 50.0297 286.445C50.0232 286.379 50.0301 286.313 50.0499 286.25C50.087 286.122 50.1732 286.015 50.2895 285.951C50.4057 285.887 50.5426 285.873 50.6699 285.91C60.5199 288.76 79.4799 302.05 82.1799 318.42C82.2001 318.549 82.1685 318.682 82.0918 318.789C82.015 318.895 81.8994 318.968 81.7699 318.99L81.6899 319Z" fill="white"></path><path d="M59.8311 305.61C59.7211 305.611 59.6138 305.576 59.5259 305.51C59.438 305.444 59.3742 305.35 59.3446 305.244C59.315 305.139 59.3212 305.026 59.3621 304.924C59.403 304.822 59.4765 304.736 59.5711 304.68C59.8711 304.5 67.0111 300.33 74.0311 302.28C74.1637 302.314 74.2772 302.4 74.3465 302.518C74.4159 302.636 74.4355 302.777 74.4011 302.91C74.3666 303.042 74.2808 303.156 74.1627 303.225C74.0445 303.295 73.9037 303.314 73.7711 303.28C67.1511 301.44 60.1511 305.53 60.0811 305.57C60.0033 305.607 59.9165 305.621 59.8311 305.61V305.61Z" fill="white"></path><path d="M342.5 246.42C346.44 246.96 353.15 244.68 353.63 238.12C354.11 231.56 356.82 229.78 361.79 228.71C366.76 227.64 368.22 225.91 368.79 222.79C369.36 219.67 365.58 215.94 366.64 211.24C367.7 206.54 371.24 206.55 374.72 201.24C376.95 197.82 372.38 192.6 364.77 194.84C357.16 197.08 357.77 201.99 350.16 202.62C342.55 203.25 337.78 207.87 337.63 213.62C337.48 219.37 342.5 246.42 342.5 246.42Z" fill="#F77021"></path><path opacity="0.2" d="M342.5 246.42C346.44 246.96 353.15 244.68 353.63 238.12C354.11 231.56 356.82 229.78 361.79 228.71C366.76 227.64 368.22 225.91 368.79 222.79C369.36 219.67 365.58 215.94 366.64 211.24C367.7 206.54 371.24 206.55 374.72 201.24C376.95 197.82 372.38 192.6 364.77 194.84C357.16 197.08 357.77 201.99 350.16 202.62C342.55 203.25 337.78 207.87 337.63 213.62C337.48 219.37 342.5 246.42 342.5 246.42Z" fill="#2F3F5C"></path><path d="M341.062 233.84H341.002C340.937 233.827 340.876 233.801 340.822 233.765C340.767 233.728 340.721 233.681 340.684 233.626C340.648 233.571 340.623 233.51 340.611 233.445C340.598 233.381 340.599 233.314 340.612 233.25C344.292 215.06 364.362 198.41 369.252 196.71C369.384 196.666 369.529 196.677 369.654 196.74C369.778 196.803 369.873 196.913 369.917 197.045C369.96 197.178 369.95 197.322 369.887 197.447C369.824 197.572 369.714 197.666 369.582 197.71C364.802 199.37 345.192 215.71 341.582 233.5C341.545 233.606 341.473 233.697 341.379 233.758C341.285 233.82 341.174 233.849 341.062 233.84V233.84Z" fill="white"></path><path d="M76.8809 227.389C76.9297 226.488 77.1906 225.61 77.6424 224.828C78.0942 224.046 78.7241 223.382 79.4809 222.889L212.391 146.149C213.196 145.745 214.085 145.534 214.986 145.534C215.887 145.534 216.776 145.745 217.581 146.149L220.511 147.849C221.269 148.34 221.901 149.004 222.353 149.786C222.804 150.569 223.064 151.447 223.111 152.349V254.229C223.06 255.131 222.798 256.007 222.346 256.789C221.895 257.57 221.266 258.235 220.511 258.729L87.6009 335.459C86.7953 335.869 85.9045 336.082 85.0009 336.082C84.0973 336.082 83.2064 335.869 82.4009 335.459L79.4809 333.769C78.7252 333.276 78.0961 332.611 77.6445 331.829C77.1929 331.048 76.9313 330.171 76.8809 329.269V227.389Z" fill="#F77021"></path><path opacity="0.3" d="M76.8809 227.389C76.9297 226.488 77.1906 225.61 77.6424 224.828C78.0942 224.046 78.7241 223.382 79.4809 222.889L212.391 146.149C213.196 145.745 214.085 145.534 214.986 145.534C215.887 145.534 216.776 145.745 217.581 146.149L220.511 147.849C221.269 148.34 221.901 149.004 222.353 149.786C222.804 150.569 223.064 151.447 223.111 152.349V254.229C223.06 255.131 222.798 256.007 222.346 256.789C221.895 257.57 221.266 258.235 220.511 258.729L87.6009 335.459C86.7953 335.869 85.9045 336.082 85.0009 336.082C84.0973 336.082 83.2064 335.869 82.4009 335.459L79.4809 333.769C78.7252 333.276 78.0961 332.611 77.6445 331.829C77.1929 331.048 76.9313 330.171 76.8809 329.269V227.389Z" fill="#2F3F5C"></path><path d="M89.0609 231.43L77.6409 224.83C77.174 225.605 76.9124 226.486 76.8809 227.39V329.27C76.9313 330.171 77.1929 331.048 77.6445 331.83C78.0961 332.612 78.7252 333.276 79.4809 333.77L82.4009 335.46C83.2064 335.869 84.0973 336.083 85.0009 336.083C85.9045 336.083 86.7953 335.869 87.6009 335.46L89.0609 334.62V231.43Z" fill="#F77021"></path><path opacity="0.5" d="M89.0609 231.43L77.6409 224.83C77.174 225.605 76.9124 226.486 76.8809 227.39V329.27C76.9313 330.171 77.1929 331.048 77.6445 331.83C78.0961 332.612 78.7252 333.276 79.4809 333.77L82.4009 335.46C83.2064 335.869 84.0973 336.083 85.0009 336.083C85.9045 336.083 86.7953 335.869 87.6009 335.46L89.0609 334.62V231.43Z" fill="#2F3F5C"></path><path d="M223.11 152.35V254.23C223.076 255.163 222.797 256.07 222.3 256.86C221.916 257.525 221.399 258.104 220.78 258.56L220.68 258.62L220.51 258.73L87.6001 335.46C87.3457 335.639 87.0501 335.752 86.7407 335.787C86.4313 335.822 86.1181 335.778 85.8301 335.66C85.5532 335.485 85.3294 335.239 85.1831 334.946C85.0368 334.653 84.9735 334.326 85.0001 334V232.08C84.9774 231.715 85.0436 231.35 85.1929 231.017C85.3422 230.683 85.5702 230.391 85.8573 230.165C86.1444 229.939 86.4821 229.785 86.8413 229.718C87.2006 229.651 87.5707 229.672 87.9201 229.78L143.81 243.07L151.13 244.81C151.994 244.972 152.886 244.894 153.709 244.586C154.532 244.277 155.255 243.75 155.8 243.06L164.28 231.25L221.36 151.78C222.32 150.44 223.11 150.69 223.11 152.35Z" fill="#F77021"></path><path opacity="0.2" d="M223.11 152.35V254.23C223.076 255.163 222.797 256.07 222.3 256.86C221.916 257.525 221.399 258.104 220.78 258.56L220.68 258.62L220.51 258.73L87.6001 335.46C87.3457 335.639 87.0501 335.752 86.7407 335.787C86.4313 335.822 86.1181 335.778 85.8301 335.66C85.5532 335.485 85.3294 335.239 85.1831 334.946C85.0368 334.653 84.9735 334.326 85.0001 334V232.08C84.9774 231.715 85.0436 231.35 85.1929 231.017C85.3422 230.683 85.5702 230.391 85.8573 230.165C86.1444 229.939 86.4821 229.785 86.8413 229.718C87.2006 229.651 87.5707 229.672 87.9201 229.78L143.81 243.07L151.13 244.81C151.994 244.972 152.886 244.894 153.709 244.586C154.532 244.277 155.255 243.75 155.8 243.06L164.28 231.25L221.36 151.78C222.32 150.44 223.11 150.69 223.11 152.35Z" fill="#2F3F5C"></path><path d="M220.511 258.73L220.681 258.62L220.781 258.56C221.4 258.104 221.917 257.525 222.301 256.86C222.793 256.082 223.072 255.189 223.111 254.27L164.281 231.27L203.681 268.47L220.511 258.73Z" fill="#F77021"></path><path opacity="0.6" d="M220.511 258.73L220.681 258.62L220.781 258.56C221.4 258.104 221.917 257.525 222.301 256.86C222.793 256.082 223.072 255.189 223.111 254.27L164.281 231.27L203.681 268.47L220.511 258.73Z" fill="#2F3F5C"></path><path d="M85 334C84.9618 334.332 85.0174 334.669 85.1606 334.971C85.3038 335.273 85.5287 335.529 85.81 335.71C86.098 335.828 86.4113 335.872 86.7207 335.837C87.0301 335.802 87.3256 335.69 87.58 335.51L133.36 309L143.81 243L85 332.27V334Z" fill="#F77021"></path><path opacity="0.6" d="M85 334C84.9618 334.332 85.0174 334.669 85.1606 334.971C85.3038 335.273 85.5287 335.529 85.81 335.71C86.098 335.828 86.4113 335.872 86.7207 335.837C87.0301 335.802 87.3256 335.69 87.58 335.51L133.36 309L143.81 243L85 332.27V334Z" fill="#2F3F5C"></path><path d="M222.3 256.859C221.916 257.525 221.399 258.104 220.78 258.56L220.68 258.62L87.6001 335.46C87.3457 335.639 87.0501 335.752 86.7407 335.787C86.4313 335.822 86.1181 335.778 85.8301 335.66L149.48 234.05C150.759 232.014 152.729 230.508 155.028 229.806C157.327 229.105 159.803 229.255 162 230.23L222.3 256.859Z" fill="#F77021"></path><path opacity="0.2" d="M222.3 256.859C221.916 257.525 221.399 258.104 220.78 258.56L220.68 258.62L87.6001 335.46C87.3457 335.639 87.0501 335.752 86.7407 335.787C86.4313 335.822 86.1181 335.778 85.8301 335.66L149.48 234.05C150.759 232.014 152.729 230.508 155.028 229.806C157.327 229.105 159.803 229.255 162 230.23L222.3 256.859Z" fill="#2F3F5C"></path><path d="M85 229.08L146.13 256.08C148.331 257.052 150.808 257.197 153.108 256.49C155.408 255.783 157.375 254.27 158.65 252.23L222.84 149.5L85 229.08Z" fill="#F77021"></path><path opacity="0.6" d="M85 229.08L146.13 256.08C148.331 257.052 150.808 257.197 153.108 256.49C155.408 255.783 157.375 254.27 158.65 252.23L222.84 149.5L85 229.08Z" fill="#2F3F5C"></path><path d="M85 229.08L146.56 252.08C148.687 252.874 151.022 252.921 153.179 252.212C155.336 251.503 157.188 250.081 158.43 248.18L222.84 149.5L85 229.08Z" fill="#F77021"></path><path opacity="0.2" d="M85 229.08L146.56 252.08C148.687 252.874 151.022 252.921 153.179 252.212C155.336 251.503 157.188 250.081 158.43 248.18L222.84 149.5L85 229.08Z" fill="#2F3F5C"></path><path d="M99.5801 239.94C99.6265 239.037 99.8864 238.159 100.338 237.377C100.79 236.595 101.422 235.931 102.18 235.44L235.09 158.7C235.896 158.29 236.786 158.077 237.69 158.077C238.594 158.077 239.484 158.29 240.29 158.7L243.22 160.39C243.975 160.884 244.603 161.548 245.053 162.33C245.503 163.112 245.762 163.989 245.81 164.89V266.77C245.761 267.67 245.501 268.547 245.051 269.328C244.601 270.11 243.974 270.775 243.22 271.27L110.3 348C109.495 348.404 108.606 348.615 107.705 348.615C106.804 348.615 105.915 348.404 105.11 348L102.18 346.31C101.425 345.815 100.796 345.151 100.345 344.369C99.8932 343.588 99.6313 342.711 99.5801 341.81V239.94Z" fill="#455A64"></path><path d="M99.5801 239.94C99.6265 239.037 99.8864 238.159 100.338 237.377C100.79 236.595 101.422 235.931 102.18 235.44L235.09 158.7C235.896 158.29 236.786 158.077 237.69 158.077C238.594 158.077 239.484 158.29 240.29 158.7L243.22 160.39C243.975 160.884 244.603 161.548 245.053 162.33C245.503 163.112 245.762 163.989 245.81 164.89V266.77C245.761 267.67 245.501 268.547 245.051 269.328C244.601 270.11 243.974 270.775 243.22 271.27L110.3 348C109.495 348.404 108.606 348.615 107.705 348.615C106.804 348.615 105.915 348.404 105.11 348L102.18 346.31C101.425 345.815 100.796 345.151 100.345 344.369C99.8932 343.588 99.6313 342.711 99.5801 341.81V239.94Z" fill="#455A64"></path><path d="M111.77 244L100.34 237.41C99.872 238.184 99.6103 239.066 99.5801 239.97V341.82C99.6313 342.721 99.8932 343.598 100.345 344.379C100.796 345.161 101.425 345.826 102.18 346.32L105.11 348.01C105.915 348.415 106.804 348.625 107.705 348.625C108.606 348.625 109.495 348.415 110.3 348.01L111.77 347.16V244Z" fill="#2F3F5C"></path><path d="M245.82 164.889V266.769C245.787 267.702 245.507 268.609 245.01 269.399C244.626 270.065 244.109 270.644 243.49 271.099L243.39 271.159L243.22 271.269L110.31 347.999C110.056 348.179 109.761 348.291 109.451 348.326C109.142 348.361 108.828 348.318 108.54 348.199C108.259 348.018 108.034 347.762 107.891 347.46C107.748 347.158 107.692 346.822 107.73 346.489V244.619C107.708 244.255 107.774 243.89 107.923 243.556C108.073 243.223 108.301 242.93 108.588 242.704C108.875 242.478 109.212 242.325 109.572 242.258C109.931 242.191 110.301 242.212 110.65 242.319L166.54 255.609L173.86 257.349C174.724 257.511 175.616 257.434 176.439 257.125C177.263 256.817 177.986 256.289 178.53 255.599L187 243.789L244.08 164.319C245 162.999 245.82 163.229 245.82 164.889Z" fill="#3D5276"></path><path d="M243.22 271.269L243.39 271.159L243.49 271.099C244.109 270.644 244.626 270.065 245.01 269.399C245.496 268.623 245.771 267.734 245.81 266.819L186.99 243.819L226.38 280.999L243.22 271.269Z" fill="#2F3F5C"></path><path d="M107.711 346.5C107.673 346.832 107.729 347.168 107.872 347.471C108.015 347.773 108.24 348.029 108.521 348.21C108.809 348.328 109.123 348.372 109.432 348.337C109.741 348.302 110.037 348.189 110.291 348.01V348.01L156.051 321.59L166.501 255.59L107.691 344.79L107.711 346.5Z" fill="#2F3F5C"></path><path d="M245.001 269.399C244.617 270.065 244.1 270.644 243.481 271.099L243.381 271.159L110.311 347.999C110.057 348.179 109.761 348.291 109.452 348.326C109.142 348.361 108.829 348.318 108.541 348.199L172.181 246.599C173.457 244.561 175.425 243.05 177.725 242.345C180.025 241.64 182.501 241.787 184.701 242.759L245.001 269.399Z" fill="#3D5276"></path><path d="M107.711 241.63L168.841 268.63C171.041 269.599 173.516 269.743 175.813 269.036C178.111 268.329 180.077 266.818 181.351 264.78L245.541 162L107.711 241.63Z" fill="#2F3F5C"></path><path d="M107.711 241.63L169.261 264.63C171.39 265.427 173.726 265.475 175.886 264.766C178.045 264.057 179.899 262.633 181.141 260.73L245.541 162L107.711 241.63Z" fill="#3D5276"></path><path d="M197.07 320.81V218.93C197.163 216.997 197.767 215.123 198.82 213.5L262.21 125.23C263.367 123.617 264.977 122.385 266.837 121.691C268.696 120.996 270.72 120.871 272.65 121.33L332.26 135.5C334.181 136.011 336.034 136.75 337.78 137.7L340.71 139.39C341.464 139.886 342.09 140.551 342.54 141.332C342.99 142.114 343.25 142.99 343.3 143.89V245.77C343.249 246.67 342.988 247.545 342.538 248.327C342.088 249.108 341.462 249.773 340.71 250.27L207.79 327C206.986 327.407 206.097 327.619 205.195 327.619C204.294 327.619 203.405 327.407 202.6 327L199.67 325.31C198.915 324.816 198.286 324.152 197.834 323.37C197.382 322.588 197.121 321.711 197.07 320.81V320.81Z" fill="#F77021"></path><path opacity="0.3" d="M197.07 320.81V218.93C197.163 216.997 197.767 215.123 198.82 213.5L262.21 125.23C263.367 123.617 264.977 122.385 266.837 121.691C268.696 120.996 270.72 120.871 272.65 121.33L332.26 135.5C334.181 136.011 336.034 136.75 337.78 137.7L340.71 139.39C341.464 139.886 342.09 140.551 342.54 141.332C342.99 142.114 343.25 142.99 343.3 143.89V245.77C343.249 246.67 342.988 247.545 342.538 248.327C342.088 249.108 341.462 249.773 340.71 250.27L207.79 327C206.986 327.407 206.097 327.619 205.195 327.619C204.294 327.619 203.405 327.407 202.6 327L199.67 325.31C198.915 324.816 198.286 324.152 197.834 323.37C197.382 322.588 197.121 321.711 197.07 320.81V320.81Z" fill="white"></path><path d="M209.25 169.69V299.69C209.25 301.34 210.42 302.02 211.85 301.19L336.64 229.19C337.397 228.698 338.028 228.034 338.48 227.252C338.931 226.47 339.192 225.592 339.24 224.69V94.6901C339.24 93.0301 338.08 92.3601 336.64 93.1901L211.85 165.19C211.093 165.683 210.463 166.347 210.012 167.129C209.56 167.911 209.299 168.788 209.25 169.69V169.69Z" fill="#FAFAFA"></path><path d="M210.691 302.06C210.368 302.062 210.051 301.979 209.771 301.82C209.428 301.592 209.155 301.275 208.978 300.903C208.802 300.532 208.73 300.119 208.771 299.71V169.71C208.818 168.719 209.101 167.754 209.597 166.894C210.093 166.035 210.787 165.307 211.621 164.77L336.411 92.7697C336.736 92.5044 337.135 92.3445 337.554 92.3112C337.973 92.2779 338.392 92.3728 338.755 92.5834C339.119 92.7939 339.41 93.1101 339.589 93.4899C339.769 93.8697 339.829 94.2952 339.761 94.7097V224.71C339.714 225.699 339.431 226.664 338.935 227.521C338.439 228.379 337.745 229.105 336.911 229.64L212.121 301.64C211.69 301.904 211.196 302.049 210.691 302.06V302.06ZM337.801 93.2797C337.478 93.2982 337.165 93.398 336.891 93.5697L212.101 165.62C211.421 166.071 210.855 166.673 210.448 167.379C210.04 168.085 209.801 168.876 209.751 169.69V299.69C209.691 299.924 209.709 300.172 209.803 300.395C209.897 300.618 210.061 300.804 210.27 300.926C210.48 301.047 210.723 301.096 210.963 301.066C211.203 301.036 211.427 300.929 211.601 300.76L336.391 228.76C337.07 228.309 337.637 227.707 338.044 227.001C338.452 226.295 338.69 225.504 338.741 224.69V94.6897C338.769 94.4552 338.737 94.2174 338.648 93.9987C338.558 93.7799 338.415 93.5876 338.231 93.4397C338.104 93.3484 337.956 93.2931 337.801 93.2797V93.2797Z" fill="#E0E0E0"></path><path d="M206.56 221.41L197.56 216.21C197.269 217.088 197.107 218.005 197.08 218.93V320.81C197.13 321.711 197.392 322.588 197.844 323.37C198.295 324.152 198.924 324.816 199.68 325.31L202.6 327C203.404 327.409 204.293 327.622 205.195 327.622C206.097 327.622 206.986 327.409 207.79 327L209.04 326.29L206.56 221.41Z" fill="#F77021"></path><g opacity="0.1"><path opacity="0.1" d="M206.56 221.41L197.56 216.21C197.269 217.088 197.107 218.005 197.08 218.93V320.81C197.13 321.711 197.392 322.588 197.844 323.37C198.295 324.152 198.924 324.816 199.68 325.31L202.6 327C203.404 327.409 204.293 327.622 205.195 327.622C206.097 327.622 206.986 327.409 207.79 327L209.04 326.29L206.56 221.41Z" fill="#2F3F5C"></path></g><path d="M343.311 143.889V245.769C343.277 246.702 342.998 247.609 342.501 248.399C342.117 249.065 341.599 249.644 340.981 250.099L340.881 250.159L340.711 250.269L207.801 326.999C207.546 327.179 207.251 327.291 206.941 327.326C206.632 327.361 206.319 327.318 206.031 327.199C205.749 327.018 205.524 326.762 205.381 326.46C205.238 326.158 205.182 325.822 205.221 325.489V223.619C205.198 223.255 205.264 222.89 205.414 222.556C205.563 222.223 205.791 221.93 206.078 221.704C206.365 221.478 206.703 221.325 207.062 221.258C207.421 221.191 207.791 221.212 208.141 221.319L264.001 234.609L271.321 236.349C272.186 236.513 273.08 236.437 273.905 236.128C274.73 235.82 275.455 235.291 276.001 234.599L284.481 222.789L341.561 143.319C342.521 141.999 343.311 142.229 343.311 143.889Z" fill="#F77021"></path><path opacity="0.3" d="M343.311 143.889V245.769C343.277 246.702 342.998 247.609 342.501 248.399C342.117 249.065 341.599 249.644 340.981 250.099L340.881 250.159L340.711 250.269L207.801 326.999C207.546 327.179 207.251 327.291 206.941 327.326C206.632 327.361 206.319 327.318 206.031 327.199C205.749 327.018 205.524 326.762 205.381 326.46C205.238 326.158 205.182 325.822 205.221 325.489V223.619C205.198 223.255 205.264 222.89 205.414 222.556C205.563 222.223 205.791 221.93 206.078 221.704C206.365 221.478 206.703 221.325 207.062 221.258C207.421 221.191 207.791 221.212 208.141 221.319L264.001 234.609L271.321 236.349C272.186 236.513 273.08 236.437 273.905 236.128C274.73 235.82 275.455 235.291 276.001 234.599L284.481 222.789L341.561 143.319C342.521 141.999 343.311 142.229 343.311 143.889Z" fill="white"></path><path d="M340.71 250.27L340.88 250.16L340.98 250.1C341.599 249.644 342.116 249.065 342.5 248.4C342.986 247.62 343.262 246.727 343.3 245.81L284.48 222.81L323.87 260L340.71 250.27Z" fill="#F77021"></path><path d="M205.202 325.5C205.163 325.832 205.219 326.168 205.362 326.471C205.505 326.773 205.73 327.029 206.012 327.21C206.3 327.328 206.613 327.372 206.922 327.337C207.232 327.302 207.527 327.189 207.782 327.01V327.01L253.542 300.59L263.992 234.59L205.182 323.79L205.202 325.5Z" fill="#F77021"></path><path d="M342.501 248.4C342.117 249.065 341.6 249.644 340.981 250.1L340.881 250.16L207.801 327C207.547 327.179 207.251 327.292 206.942 327.327C206.633 327.362 206.319 327.318 206.031 327.2L269.671 225.6C270.947 223.563 272.914 222.055 275.211 221.349C277.508 220.644 279.983 220.79 282.181 221.76L342.501 248.4Z" fill="#F77021"></path><path opacity="0.3" d="M342.501 248.4C342.117 249.065 341.6 249.644 340.981 250.1L340.881 250.16L207.801 327C207.547 327.179 207.251 327.292 206.942 327.327C206.633 327.362 206.319 327.318 206.031 327.2L269.671 225.6C270.947 223.563 272.914 222.055 275.211 221.349C277.508 220.644 279.983 220.79 282.181 221.76L342.501 248.4Z" fill="white"></path><path d="M264.202 199.63C263.035 199.81 261.842 199.704 260.725 199.321C259.608 198.938 258.602 198.289 257.792 197.43C256.272 195.74 255.512 193.13 255.512 189.62C255.514 185.659 256.363 181.745 258.002 178.14C259.684 174.43 262.006 171.045 264.862 168.14C267.933 164.955 271.433 162.216 275.262 160C279.015 157.84 282.218 156.643 284.872 156.41C287.542 156.17 289.552 156.86 290.932 158.46C292.312 160.06 292.992 162.51 292.992 165.79C293.05 169.043 292.279 172.257 290.752 175.13C289.406 177.731 287.354 179.901 284.832 181.39C283.961 182.008 282.893 182.286 281.832 182.17C281.454 182.095 281.106 181.913 280.829 181.645C280.552 181.377 280.359 181.035 280.272 180.66C279.439 182.235 278.381 183.68 277.132 184.95C275.867 186.254 274.427 187.375 272.852 188.28C270.132 189.82 267.962 190.28 266.362 189.75C264.762 189.22 264.002 187.6 264.002 184.9C264.025 181.507 265.07 178.199 267.002 175.41C269.105 172.317 271.898 169.756 275.162 167.93C276.524 167.118 278.006 166.524 279.552 166.17C280.701 165.858 281.912 165.858 283.062 166.17V176.7C283.062 177.55 283.212 178.07 283.502 178.27C283.792 178.47 284.272 178.37 284.952 177.98C286.218 177.156 287.156 175.914 287.602 174.47C288.278 172.519 288.6 170.464 288.552 168.4C288.552 165.773 287.978 163.863 286.832 162.67C286.219 162.071 285.471 161.627 284.652 161.377C283.832 161.126 282.965 161.076 282.122 161.23C279.68 161.603 277.342 162.474 275.252 163.79C270.83 166.242 267.019 169.66 264.102 173.79C261.406 177.665 259.973 182.279 260.002 187C260.002 189.873 260.592 191.97 261.772 193.29C262.384 193.95 263.149 194.45 264.001 194.743C264.852 195.036 265.763 195.114 266.652 194.97C269.14 194.617 271.526 193.741 273.652 192.4C275.119 191.551 276.508 190.574 277.802 189.48C279.007 188.485 280.103 187.365 281.072 186.14C281.172 186.011 281.29 185.896 281.422 185.8C281.512 185.75 281.602 185.8 281.682 185.92L282.782 187.92C282.822 187.999 282.852 188.083 282.872 188.17C282.837 188.393 282.727 188.597 282.562 188.75C281.353 190.203 280.014 191.541 278.562 192.75C277.032 194.033 275.396 195.184 273.672 196.19C270.799 198.004 267.569 199.177 264.202 199.63V199.63ZM277.202 180.83C278.154 179.706 278.709 178.301 278.782 176.83V170.73C277.354 170.85 275.98 171.325 274.782 172.11C272.874 173.183 271.249 174.694 270.042 176.52C268.909 178.194 268.3 180.168 268.292 182.19C268.292 183.88 268.712 184.89 269.562 185.19C270.412 185.49 271.722 185.19 273.512 184.12C274.961 183.281 276.229 182.163 277.242 180.83H277.202Z" fill="#E0E0E0"></path><path d="M291.001 352.87C288.281 349.71 290.701 344.46 293.341 337.65C296.241 330.16 300.721 317.43 300.721 317.43L332.531 310.86C332.531 310.86 366.421 310.21 369.531 316.69C372.051 321.88 349.731 329.69 346.531 329.97L326.941 331L324.881 332L311.121 349.41L291.001 352.87Z" fill="#F77021"></path><path d="M349.61 322C347.14 324.512 344.838 327.185 342.72 330C336.99 338 327.92 352.53 327.92 352.53C327.92 352.53 329.33 357.13 333.66 356.93C333.66 356.93 363.46 329.1 365.9 326.53C369.59 322.63 372.55 316.2 366.17 315.67C359.79 315.14 352.09 319.32 349.61 322Z" fill="#F77021"></path><path d="M342.561 330.16C342.561 330.16 347.881 322.38 353.391 319.16C353.391 319.16 347.911 320.24 339.611 330.34L342.561 330.16Z" fill="#F77021"></path><path opacity="0.1" d="M342.561 330.16C342.561 330.16 347.881 322.38 353.391 319.16C353.391 319.16 347.911 320.24 339.611 330.34L342.561 330.16Z" fill="#2F3F5C"></path><path d="M346.18 340L344.09 340.4L346.03 347.57C346.03 347.57 347.91 347.39 348.56 347.43C349.507 347.205 350.419 346.852 351.27 346.38L350.77 342L348.47 339.6L346.18 340Z" fill="#FFA8A7"></path><path d="M362.682 341.689C363.679 342.092 364.583 342.695 365.337 343.463C366.09 344.23 366.678 345.145 367.062 346.149C367.507 347.2 367.871 348.283 368.152 349.389C368.482 350.549 368.322 352.519 366.852 352.839C366.374 352.895 365.89 352.808 365.462 352.589C362.512 351.449 359.632 350.129 356.612 349.169C354.024 348.211 351.314 347.622 348.562 347.419C349.187 346.456 349.5 345.324 349.457 344.176C349.414 343.029 349.017 341.923 348.322 341.009C347.73 340.462 346.982 340.112 346.182 340.009C346.942 339.669 347.652 339.229 348.382 338.819C349.741 337.869 351.406 337.459 353.052 337.669C354.312 337.939 355.272 338.939 356.342 339.669C358.382 340.999 360.352 340.909 362.682 341.689Z" fill="#2F3F5C"></path><path d="M295.292 346C297.922 345.19 302.122 344.47 314.582 343.83C327.042 343.19 344.092 340.39 344.092 340.39C346.992 343.18 346.032 347.56 346.032 347.56C346.032 347.56 323.902 354.56 316.692 355.49C305.212 356.97 301.252 356.86 296.072 355.75C290.252 354.5 286.582 348.67 295.292 346Z" fill="#F77021"></path><path d="M340.831 286.649L350.191 309.019L343.491 313.139L330.611 291.329L340.831 286.649Z" fill="#F28F8F"></path><path d="M321.471 265.569C326.591 265.629 332.221 267.489 334.161 271.499L342.161 287.999C342.161 287.999 337.641 294.619 330.461 294.149L321.471 265.569Z" fill="#E0E0E0"></path><path d="M287.431 300.34C287.491 299.47 288.741 295.22 290.081 290.64L299.801 294L297.191 302.23L289.001 310C287.227 307.112 286.663 303.641 287.431 300.34Z" fill="#FFA8A7"></path><path d="M311 265.879C304.9 267.349 296.59 269.259 294.18 275.879C291.77 282.499 288.32 294.189 288.32 294.189C289.66 296.509 297.01 298.429 299.56 297.089L300.76 293.089V317.409C305.53 322.599 329.06 321.269 332.57 310.839V277.709C332.57 272.409 329.63 266.039 321.5 265.569L311 265.879Z" fill="#FAFAFA"></path><path d="M300.73 293.109L303.79 283.479L300.73 297.419V293.109Z" fill="#E0E0E0"></path><path d="M308.681 238.769C308.137 238.699 307.585 238.752 307.066 238.926C306.546 239.099 306.073 239.387 305.681 239.769C304.391 241.089 304.681 243.529 305.681 249.129L309.681 249.579L308.681 238.769Z" fill="#2F3F5C"></path><path d="M331.89 237.15C332.747 237.153 333.594 236.98 334.38 236.64C335.6 235.94 335.92 237.33 335.25 238.53C334.807 239.395 334.15 240.132 333.341 240.671C332.533 241.211 331.599 241.534 330.63 241.61C330.63 241.44 329.49 238.5 329.49 238.5L331.89 237.15Z" fill="#2F3F5C"></path><path d="M310.55 249.64C309.96 249.99 309.11 248.86 308.38 248.09C308.094 247.763 307.728 247.513 307.319 247.366C306.91 247.219 306.47 247.179 306.04 247.249C305.611 247.319 305.207 247.497 304.865 247.767C304.524 248.036 304.257 248.389 304.09 248.79C302.88 251.34 305.63 254.73 307.24 255.85C307.692 256.24 308.255 256.476 308.849 256.527C309.444 256.577 310.039 256.438 310.55 256.13L310.97 265.88C311.683 267.443 312.772 268.804 314.141 269.842C315.509 270.881 317.113 271.564 318.81 271.83C324.53 272.6 323.35 267.88 321.47 265.57V262C322.902 262.306 324.374 262.38 325.83 262.22C326.57 262.02 328.35 259.87 329.5 257.46C330.79 254.76 332.94 249.96 331.03 241.83C328.97 233.11 319.6 232.83 314.03 236.36C308.46 239.89 310.55 249.64 310.55 249.64Z" fill="#FFA8A7"></path><path d="M310.55 250.63C310.25 250.63 309.12 248.76 308.38 248.09C307.38 247.16 308.68 238.77 308.68 238.77C308.68 238.77 307.68 235.58 309.68 233.47C311.68 231.36 315.6 231.71 318.46 231.61C321.964 231.629 325.435 230.931 328.66 229.56C332.72 227.8 333.02 227.56 333.52 229.37C334.02 231.18 334.22 235.23 331.8 237.96L330.48 240.11C330.48 240.11 329.25 241.11 325.48 241.61C321.71 242.11 315.25 240.04 314.48 239.93C313.38 239.78 313.15 240.84 312.56 243.74C312 246.29 311.55 250.61 310.55 250.63Z" fill="#2F3F5C"></path><path d="M308.691 239.42L305.111 237.5C305.229 237.262 305.393 237.049 305.594 236.876C305.794 236.702 306.028 236.569 306.28 236.487C306.532 236.404 306.798 236.372 307.063 236.393C307.328 236.414 307.585 236.488 307.821 236.61C308.298 236.878 308.654 237.319 308.816 237.841C308.977 238.364 308.933 238.929 308.691 239.42V239.42Z" fill="#2F3F5C"></path><path d="M321.46 262C321.46 262 316.16 260.93 314.31 260C313.221 259.429 312.329 258.544 311.75 257.46C312.031 258.548 312.528 259.568 313.21 260.46C314.56 262.19 321.46 263.46 321.46 263.46V262Z" fill="#F28F8F"></path><path d="M321.631 249.44C321.623 249.648 321.554 249.848 321.433 250.017C321.312 250.186 321.144 250.316 320.95 250.39C320.755 250.464 320.544 250.48 320.341 250.434C320.138 250.389 319.953 250.285 319.808 250.135C319.664 249.986 319.567 249.797 319.529 249.592C319.492 249.388 319.515 249.177 319.596 248.986C319.677 248.794 319.813 248.631 319.986 248.516C320.16 248.401 320.363 248.34 320.571 248.34C320.713 248.342 320.853 248.373 320.983 248.43C321.113 248.486 321.23 248.568 321.329 248.67C321.427 248.772 321.505 248.893 321.556 249.025C321.608 249.157 321.634 249.298 321.631 249.44Z" fill="#2F3F5C"></path><path d="M320.51 245.439L318.23 246.689C318.072 246.377 318.039 246.016 318.138 245.68C318.236 245.344 318.459 245.058 318.76 244.879C318.911 244.797 319.077 244.747 319.248 244.73C319.419 244.714 319.591 244.733 319.755 244.785C319.919 244.837 320.07 244.922 320.2 245.035C320.329 245.147 320.435 245.285 320.51 245.439V245.439Z" fill="#2F3F5C"></path><path d="M321.001 256.54L323.431 257.46C323.377 257.622 323.291 257.772 323.178 257.9C323.065 258.029 322.928 258.134 322.774 258.208C322.621 258.283 322.453 258.326 322.283 258.335C322.112 258.344 321.941 258.318 321.781 258.26C321.453 258.13 321.189 257.878 321.043 257.557C320.898 257.237 320.882 256.872 321.001 256.54Z" fill="#F28F8F"></path><path d="M331.101 246.32L329.031 244.72C329.129 244.581 329.255 244.463 329.399 244.374C329.544 244.285 329.705 244.226 329.874 244.2C330.042 244.175 330.213 244.184 330.378 244.227C330.543 244.27 330.697 244.346 330.831 244.45C331.108 244.667 331.29 244.983 331.34 245.331C331.39 245.679 331.305 246.033 331.101 246.32Z" fill="#2F3F5C"></path><path d="M330.461 249.14C330.453 249.348 330.384 249.549 330.263 249.718C330.142 249.887 329.974 250.016 329.78 250.09C329.585 250.165 329.374 250.18 329.171 250.135C328.968 250.089 328.783 249.985 328.639 249.836C328.494 249.686 328.397 249.497 328.359 249.293C328.322 249.088 328.345 248.877 328.426 248.686C328.507 248.494 328.643 248.331 328.816 248.216C328.99 248.101 329.193 248.04 329.401 248.04C329.543 248.043 329.683 248.073 329.813 248.13C329.943 248.187 330.06 248.268 330.159 248.37C330.257 248.473 330.335 248.593 330.387 248.725C330.438 248.857 330.464 248.998 330.461 249.14V249.14Z" fill="#2F3F5C"></path><path d="M325.461 249.01L324.461 255.33L327.961 254.92L325.461 249.01Z" fill="#F28F8F"></path><path d="M361.941 320.779L340.391 308.339C340.203 308.232 339.989 308.175 339.771 308.175C339.554 308.175 339.34 308.232 339.151 308.339L301.361 330.159L323.521 342.999L361.941 320.779Z" fill="#37474F"></path><path d="M323.321 341.13L311.701 334.43L345.681 314.81L357.361 321.48L323.321 341.13Z" fill="#2F3F5C"></path><path d="M317.611 322.49L317.831 322.61L323.521 325.9L333.651 320.05L333.861 319.93L327.951 316.52L317.611 322.49Z" fill="#2F3F5C"></path><path d="M317.83 322.61L323.52 325.9L333.65 320.05L327.95 316.76L317.83 322.61Z" fill="#2F3F5C"></path><path d="M301.361 330.16V330.67C301.359 331.031 301.449 331.386 301.624 331.702C301.8 332.017 302.054 332.282 302.361 332.47L322.441 344.06C322.757 344.244 323.116 344.34 323.481 344.34C323.847 344.34 324.206 344.244 324.521 344.06L360.861 323.06C361.169 322.871 361.422 322.606 361.597 322.291C361.772 321.976 361.863 321.621 361.861 321.26V320.75L323.521 343L301.361 330.16Z" fill="#2F3F5C"></path><path d="M323.521 343V344.38C323.874 344.376 324.219 344.28 324.521 344.1L360.861 323.1C361.169 322.911 361.422 322.646 361.597 322.331C361.772 322.016 361.863 321.661 361.861 321.3V320.79L323.521 343Z" fill="#2F3F5C"></path><path d="M324.111 343.27C324.455 343.401 324.824 343.454 325.191 343.425C325.557 343.395 325.913 343.284 326.231 343.1L362.411 322.21C362.725 322.03 362.995 321.782 363.201 321.484C363.407 321.187 363.544 320.847 363.601 320.49L367.601 296.88C367.611 296.743 367.611 296.606 367.601 296.47C367.599 295.813 367.337 295.183 366.871 294.72L329.271 316.43C329.04 316.563 328.841 316.747 328.689 316.966C328.537 317.186 328.435 317.436 328.391 317.7L324.111 343.27Z" fill="#2F3F5C"></path><path d="M323.521 343L323.771 343.14C323.882 343.203 323.995 343.259 324.111 343.31L328.392 317.74C328.435 317.476 328.537 317.226 328.689 317.006C328.841 316.787 329.04 316.604 329.271 316.47L366.871 294.76C366.718 294.617 366.55 294.49 366.371 294.38L328.702 316.09C328.469 316.223 328.269 316.406 328.115 316.626C327.962 316.845 327.858 317.096 327.811 317.36L323.521 343Z" fill="#455A64"></path><path d="M344.481 321.46C345.05 319.486 346.357 317.807 348.131 316.77C349.881 315.77 351.081 316.22 350.821 317.77C350.251 319.744 348.944 321.423 347.171 322.46C345.421 323.51 344.221 323 344.481 321.46Z" fill="#37474F"></path><path d="M297.19 302.21C297.19 302.21 303.68 327.21 306.42 329C309.16 330.79 314.26 332.1 316.7 333C319.14 333.9 320.25 335.13 319.83 335.47C319.41 335.81 315.89 336.18 314.67 336.61C313.45 337.04 315.03 339.01 317.73 341.1C320.43 343.19 322.73 343 322.43 344.39C322.13 345.78 316.11 347.17 311.03 344.19C305.95 341.21 304.41 337.19 301.38 333.78C298.35 330.37 291.43 316.2 289 310C289 310 289.23 298.48 293 299.21C296.77 299.94 297.19 302.21 297.19 302.21Z" fill="#FFA8A7"></path><path d="M328.07 352.869C328.53 353.979 330.12 357.039 333.66 356.869L342.36 348.729L328.07 352.869Z" fill="#F77021"></path><path opacity="0.1" d="M328.07 352.869C328.53 353.979 330.12 357.039 333.66 356.869L342.36 348.729L328.07 352.869Z" fill="#2F3F5C"></path><path d="M333.32 357.84C333.324 357.876 333.324 357.913 333.32 357.95C333.324 357.913 333.324 357.876 333.32 357.84V357.84Z" fill="#2F3F5C"></path><path d="M330.701 367.19C330.618 364.572 331.049 361.962 331.971 359.51V359.51C331.552 359.803 331.069 359.99 330.563 360.056C330.056 360.122 329.541 360.065 329.061 359.89C326.151 359.02 325.421 354.96 325.881 354.08C325.461 354.45 325.021 354.8 324.591 355.16C323.212 356.086 322.231 357.495 321.841 359.11C321.641 360.38 322.231 361.63 322.521 362.89C323.081 365.29 322.521 367.79 322.431 370.25C322.452 371.324 322.692 372.382 323.137 373.359C323.583 374.336 324.224 375.211 325.021 375.93C325.841 376.73 326.724 377.462 327.661 378.12C328.002 378.504 328.454 378.772 328.954 378.888C329.454 379.004 329.978 378.962 330.453 378.767C330.928 378.573 331.331 378.236 331.606 377.803C331.882 377.371 332.017 376.863 331.991 376.35C331.611 373.23 330.881 370.44 330.701 367.19Z" fill="#2F3F5C"></path><path d="M334.001 356.35C333.731 356.86 333.491 357.35 333.281 357.84C333.531 357.36 333.771 356.86 334.001 356.35Z" fill="#37474F"></path><path d="M325.861 354.08L326.051 353.91L325.861 354.08Z" fill="#37474F"></path></svg>