<svg xmlns="http://www.w3.org/2000/svg" width="500" height="500" viewBox="0 0 500 500" fill="none"><path d="M440.299 102.52C416.679 67.2899 376.6 42.2399 334.2 41.5899C291.8 40.9399 248.92 67.1999 234.64 107.14C227.64 126.6 227.45 147.76 223.36 168.02C219.27 188.28 209.79 209.37 191.25 218.52C166.13 230.9 136.35 216.75 108.39 218.09C76.7395 219.6 47.9995 242.74 36.8795 272.39C25.7595 302.04 31.1495 336.64 48.1295 363.39C65.1095 390.14 92.7095 409.25 122.82 419.12C152.93 428.99 223.89 434.73 255.29 430.51C270.1 429.901 284.78 427.476 299 423.29C342.18 410.46 377.33 388.9 406.549 358.59C441.38 322.44 463.1 274.12 467.97 224.16C472 181.94 463.91 137.75 440.299 102.52Z" fill="#C1EEE6"></path><path d="M470.77 463.77C470.77 463.92 371.92 464.03 250.01 464.03C128.1 464.03 29.2305 463.92 29.2305 463.77C29.2305 463.62 128.06 463.51 250.01 463.51C371.96 463.51 470.77 463.63 470.77 463.77Z" fill="#263238"></path><path d="M92.6407 437.801C93.6407 434.121 91.1707 430.431 88.4707 427.801C85.7707 425.171 82.5407 422.751 81.1307 419.221C78.8507 413.501 81.9107 406.101 78.0307 401.331C75.7407 398.531 71.6407 397.591 69.6107 394.591C68.6721 392.937 68.0514 391.123 67.7807 389.241C65.6229 379.74 60.9497 370.995 54.2507 363.921C53.7991 372.383 55.6332 380.811 59.5607 388.321C61.1307 391.321 63.0707 394.241 63.5607 397.591C64.4107 403.021 61.3707 408.591 62.7107 413.951C64.2407 420.051 71.0907 424.141 71.4107 430.421C71.6907 435.731 67.0607 440.421 67.4107 445.701C67.6911 447.962 68.5108 450.123 69.8007 452.001C73.9007 458.831 79.9407 463.531 89.0807 463.381L100.281 463.771L92.6407 437.801Z" fill="#F77021"></path><g opacity="0.3"><path opacity="0.3" d="M92.6407 437.801C93.6407 434.121 91.1707 430.431 88.4707 427.801C85.7707 425.171 82.5407 422.751 81.1307 419.221C78.8507 413.501 81.9107 406.101 78.0307 401.331C75.7407 398.531 71.6407 397.591 69.6107 394.591C68.6721 392.937 68.0514 391.123 67.7807 389.241C65.6229 379.74 60.9497 370.995 54.2507 363.921C53.7991 372.383 55.6332 380.811 59.5607 388.321C61.1307 391.321 63.0707 394.241 63.5607 397.591C64.4107 403.021 61.3707 408.591 62.7107 413.951C64.2407 420.051 71.0907 424.141 71.4107 430.421C71.6907 435.731 67.0607 440.421 67.4107 445.701C67.6911 447.962 68.5108 450.123 69.8007 452.001C73.9007 458.831 79.9407 463.531 89.0807 463.381L100.281 463.771L92.6407 437.801Z" fill="black"></path></g><path d="M102.541 464C103.567 464.158 104.612 464.138 105.631 463.94C106.868 463.752 108.084 463.444 109.261 463.02C110.887 462.455 112.408 461.624 113.761 460.56C114.576 459.905 115.212 459.056 115.611 458.09C115.946 457.008 116.121 455.883 116.131 454.75C116.154 453.539 116.244 452.331 116.401 451.13C116.612 449.852 117.074 448.628 117.761 447.53C119.081 445.21 121.281 443.01 121.981 439.86C122.681 436.71 122.201 433.41 121.681 430.05C121.161 426.69 120.681 423.05 121.941 419.53C123.201 416.01 125.601 412.86 126.831 408.92C128.061 404.98 127.481 400.64 127.741 396.41C127.818 394.262 128.314 392.149 129.201 390.19C130.101 388.19 131.361 386.34 132.341 384.26C134.341 380.04 134.681 375.26 135.221 370.57C135.491 368.21 135.751 365.82 136.021 363.42C136.191 360.994 136.61 358.591 137.271 356.25C138.03 353.89 138.925 351.576 139.951 349.32C140.48 348.153 140.914 346.946 141.251 345.71C141.44 344.431 141.56 343.142 141.611 341.85C141.73 339.263 141.63 336.67 141.311 334.1C141.011 331.52 140.541 328.96 140.261 326.37C140.261 326.21 140.261 326.06 140.261 325.92L140.201 325.41L139.751 325.63C137.387 326.843 135.334 328.585 133.751 330.72C132.199 332.811 130.95 335.11 130.041 337.55C128.171 342.36 127.501 347.4 126.561 352.21C125.621 357.02 124.421 361.75 121.961 365.75C120.731 367.75 119.241 369.57 117.961 371.51C116.571 373.403 115.621 375.583 115.181 377.89C114.511 382.63 117.121 386.79 116.581 390.99C116.338 393.048 115.656 395.029 114.581 396.8C113.581 398.59 112.371 400.25 111.231 401.91C110.076 403.538 109.072 405.269 108.231 407.08C107.44 408.853 106.973 410.753 106.851 412.69C106.581 416.47 107.111 420.05 106.851 423.43C106.539 426.652 105.598 429.781 104.081 432.64C102.731 435.39 101.221 437.88 99.9612 440.3C99.3312 441.5 98.7412 442.68 98.2612 443.87C97.8069 445.013 97.4718 446.199 97.2612 447.41C96.9265 449.525 96.8995 451.677 97.1812 453.8C97.475 456.76 98.5825 459.581 100.381 461.95C100.656 462.308 100.961 462.643 101.291 462.95C101.512 463.182 101.757 463.39 102.021 463.57C102.441 463.88 102.661 464.02 102.661 464.02C101.862 463.388 101.134 462.671 100.491 461.88C98.7743 459.503 97.7372 456.702 97.4911 453.78C97.2365 451.684 97.2837 449.563 97.6311 447.48C97.8417 446.298 98.1769 445.142 98.6311 444.03C99.1378 442.827 99.7087 441.652 100.341 440.51C101.611 438.11 103.131 435.63 104.511 432.86C106.073 429.956 107.045 426.772 107.371 423.49C107.671 420.04 107.151 416.44 107.431 412.76C107.56 410.885 108.017 409.047 108.781 407.33C109.627 405.557 110.631 403.863 111.781 402.27C112.921 400.61 114.131 398.95 115.171 397.12C116.313 395.281 117.043 393.218 117.311 391.07C117.851 386.6 115.261 382.42 115.931 378.01C116.369 375.804 117.288 373.722 118.621 371.91C119.891 370 121.391 368.18 122.621 366.13C125.171 362.02 126.401 357.2 127.331 352.37C128.261 347.54 128.951 342.54 130.791 337.82C131.676 335.448 132.891 333.213 134.401 331.18C135.923 329.131 137.898 327.461 140.171 326.3L139.661 326.01C139.661 326.16 139.661 326.31 139.711 326.47C139.991 329.09 140.461 331.65 140.711 334.21C141.027 336.74 141.124 339.293 141.001 341.84C140.951 343.092 140.837 344.34 140.661 345.58C140.338 346.776 139.917 347.944 139.401 349.07C138.369 351.35 137.468 353.688 136.701 356.07C136.035 358.448 135.612 360.887 135.441 363.35C135.181 365.76 134.911 368.15 134.651 370.51C134.111 375.22 133.761 379.92 131.851 383.99C130.851 385.99 129.651 387.9 128.721 389.94C127.806 391.972 127.296 394.163 127.221 396.39C126.971 400.71 127.531 404.94 126.361 408.76C125.191 412.58 122.761 415.76 121.531 419.37C120.301 422.98 120.751 426.8 121.291 430.15C121.831 433.5 122.371 436.8 121.651 439.77C120.931 442.74 118.871 444.96 117.531 447.34C116.825 448.486 116.352 449.761 116.141 451.09C115.99 452.304 115.91 453.527 115.901 454.75C115.903 455.855 115.741 456.953 115.421 458.01C115.051 458.926 114.456 459.734 113.691 460.36C112.374 461.422 110.891 462.26 109.301 462.84C108.139 463.288 106.937 463.623 105.711 463.84C104.962 463.976 104.203 464.05 103.441 464.06C102.811 464 102.541 464 102.541 464Z" fill="#263238"></path><path d="M137.92 332.101C137.867 332.208 137.83 332.322 137.81 332.441L137.57 333.441C137.35 334.331 137.08 335.661 136.66 337.321C136.24 338.981 135.21 340.861 134.34 343.171C133.321 345.771 132.434 348.421 131.68 351.111C130.82 354.111 130.07 357.411 129.27 360.971C128.59 364.763 127.386 368.441 125.69 371.901C124.77 373.721 123.69 375.561 122.92 377.581C122.113 379.643 121.572 381.801 121.31 384.001C120.742 388.557 119.934 393.079 118.89 397.551C116.65 406.721 114.51 415.461 112.56 423.421C110.61 431.381 108.77 438.501 107.25 444.521C105.73 450.541 104.58 455.341 103.74 458.771C103.35 460.411 103.04 461.701 102.82 462.651C102.73 463.061 102.65 463.391 102.59 463.651C102.579 463.767 102.579 463.884 102.59 464.001C102.648 463.897 102.692 463.786 102.72 463.671C102.79 463.401 102.89 463.081 103.01 462.671C103.26 461.741 103.61 460.451 104.06 458.821C104.96 455.421 106.23 450.591 107.8 444.641C109.37 438.691 111.2 431.491 113.25 423.581C115.3 415.671 117.38 406.871 119.64 397.691C120.677 393.208 121.465 388.671 122 384.101C122.256 381.954 122.78 379.847 123.56 377.831C124.35 375.831 125.36 374.041 126.28 372.201C128.28 368.551 129.07 364.631 129.86 361.101C130.65 357.571 131.35 354.231 132.17 351.251C132.99 348.271 133.85 345.611 134.71 343.311C135.57 341.011 136.52 339.111 136.93 337.391C137.34 335.671 137.53 334.391 137.71 333.471C137.777 333.057 137.837 332.724 137.89 332.471C137.92 332.221 137.94 332.101 137.92 332.101Z" fill="#263238"></path><path d="M104.521 464.05C111.831 459.7 113.931 446.5 110.881 438.56C107.831 430.62 102.491 423.36 101.671 414.89C101.031 408.38 103.171 401.7 101.671 395.34C99.6211 386.75 91.2411 380.1 91.3411 371.27C91.3911 366.32 94.2111 361.66 93.9811 356.71C93.7111 350.65 89.0511 345.83 86.1711 340.49C81.7511 332.3 81.4611 322.63 79.9511 313.49C78.4411 304.35 74.9511 294.49 66.8111 289.98C65.6111 297.77 63.5611 303.11 64.2011 313.66C64.4411 317.45 68.8411 324.66 69.4411 333.01C69.8011 338.01 70.0411 342.95 70.3511 347.91C70.6611 352.87 70.9611 357.67 72.6911 362.19C74.0211 365.66 76.1511 368.81 77.1411 372.39C78.9911 379.12 76.5511 386.39 78.0511 393.23C79.3211 399.01 83.3211 403.98 84.1411 409.84C85.2811 418.07 79.9611 426.63 82.6811 434.48C84.0411 438.38 87.2411 441.48 88.1511 445.53C88.8611 448.65 88.0911 451.96 88.7311 455.09C89.7311 460.15 99.3911 464.09 104.541 463.76" fill="#F77021"></path><path d="M68.811 297.671C68.7974 297.817 68.7974 297.965 68.811 298.111C68.811 298.441 68.911 298.861 68.971 299.391C69.141 300.521 69.331 302.171 69.711 304.311C70.091 306.451 71.231 308.871 72.111 311.791C72.991 314.711 73.971 318.051 74.791 321.791C75.611 325.531 76.331 329.701 77.061 334.171C77.791 338.641 78.591 343.511 80.811 348.171C81.811 350.501 82.991 352.841 83.811 355.341C84.6512 357.9 85.1685 360.554 85.351 363.241C85.7598 368.942 86.4776 374.617 87.501 380.241C89.741 391.781 91.871 402.771 93.811 412.781C95.751 422.791 97.701 431.721 99.261 439.281C100.821 446.841 102.101 452.881 102.991 457.141L103.991 461.991C104.111 462.511 104.201 462.921 104.281 463.241C104.308 463.388 104.348 463.531 104.401 463.671C104.419 463.525 104.419 463.377 104.401 463.231C104.341 462.901 104.271 462.491 104.181 461.961C103.961 460.801 103.651 459.161 103.261 457.081C102.421 452.811 101.261 446.711 99.751 439.181C98.241 431.651 96.451 422.621 94.461 412.651C92.471 402.681 90.461 391.651 88.211 380.121C87.1869 374.497 86.4659 368.822 86.051 363.121C85.8607 360.378 85.3265 357.67 84.461 355.061C83.571 352.521 82.401 350.171 81.371 347.851C79.171 343.261 78.371 338.471 77.611 334.021C76.851 329.571 76.121 325.391 75.251 321.631C74.381 317.871 73.431 314.511 72.451 311.631C71.471 308.751 70.381 306.311 69.941 304.221C69.501 302.131 69.291 300.451 69.081 299.341C68.981 298.821 68.901 298.401 68.841 298.071C68.8389 297.937 68.8289 297.804 68.811 297.671V297.671Z" fill="#263238"></path><path d="M421.47 88.7693H417.47C417.473 89.2229 417.384 89.6726 417.21 90.0915C417.036 90.5104 416.779 90.8901 416.456 91.2081C416.132 91.5261 415.748 91.7759 415.326 91.9427C414.904 92.1095 414.453 92.19 414 92.1793C413.33 92.2033 412.669 92.0177 412.11 91.6485C411.551 91.2792 411.121 90.7446 410.88 90.1193C410.669 89.5985 410.585 89.0353 410.633 88.4757C410.682 87.916 410.862 87.3758 411.16 86.8993C411.84 85.7793 413.32 84.7693 416 85.2393V76.2393H412.07V81.4993C410.457 81.974 409.045 82.9648 408.049 84.3196C407.054 85.6744 406.531 87.3184 406.56 88.9993C406.56 94.8193 411.78 96.1693 414.02 96.1693C415.73 96.2093 421.55 95.7993 421.47 88.7693Z" fill="#F77021"></path><path d="M412.039 74.4199H416.029V70.6899H412.039V74.4199Z" fill="#F77021"></path><path d="M443.279 83.4497C443.293 83.28 443.293 83.1094 443.279 82.9397C443.279 82.5797 443.279 82.0897 443.279 81.4597C443.279 81.1397 443.279 80.7697 443.229 80.3697C443.179 79.9697 443.119 79.5297 443.049 79.0697C442.979 78.6097 442.909 78.0697 442.829 77.5397L442.409 75.8397C441.667 72.912 440.451 70.1254 438.809 67.5897C436.426 63.8345 433.214 60.6757 429.419 58.3562C425.624 56.0367 421.348 54.6182 416.919 54.2097C415.589 54.0922 414.253 54.0655 412.919 54.1297C412.249 54.1297 411.559 54.1297 410.919 54.2597L408.859 54.5697C406.033 55.095 403.298 56.0281 400.739 57.3397C398.069 58.753 395.614 60.5411 393.449 62.6497C391.233 64.8955 389.381 67.4732 387.959 70.2897C386.43 73.1934 385.427 76.3456 384.999 79.5997C384.874 80.4241 384.804 81.256 384.789 82.0897C384.723 82.9246 384.706 83.7628 384.739 84.5997C384.957 89.9642 386.634 95.1676 389.589 99.6497V99.3397C388.199 102.81 386.829 106.22 385.489 109.54L385.249 110.15L385.879 109.97L396.779 106.97L396.519 106.91C400.19 109.689 404.467 111.56 408.999 112.37C411.102 112.762 413.245 112.893 415.379 112.76C416.409 112.744 417.435 112.647 418.449 112.47L419.939 112.24C420.429 112.15 420.939 112 421.379 111.89C428.096 110.188 433.988 106.15 437.999 100.5C439.495 98.4182 440.697 96.14 441.569 93.7297C441.759 93.1997 441.939 92.7297 442.109 92.2097C442.279 91.6897 442.369 91.2097 442.479 90.7597C442.589 90.3097 442.709 89.8497 442.809 89.4297C442.909 89.0097 442.939 88.5997 442.999 88.2097C443.089 87.4397 443.229 86.7597 443.259 86.2097C443.289 85.6597 443.259 85.1297 443.259 84.7097C443.259 84.2897 443.259 84.0297 443.259 83.7997C443.259 83.5697 443.259 83.4897 443.259 83.4897C443.244 83.5925 443.244 83.6969 443.259 83.7997C443.259 84.0297 443.259 84.3297 443.189 84.7097C443.119 85.0897 443.129 85.6197 443.089 86.1997C443.049 86.7797 442.899 87.4597 442.779 88.1997C441.826 93.7343 439.285 98.8729 435.467 102.991C431.648 107.11 426.716 110.031 421.269 111.4C420.799 111.51 420.329 111.65 419.849 111.74L418.379 111.96C417.388 112.125 416.385 112.216 415.379 112.23C413.284 112.34 411.183 112.203 409.119 111.82C404.693 111.005 400.518 109.166 396.929 106.45L396.809 106.35H396.659L385.749 109.35L386.129 109.78L390.239 99.5897L390.299 99.4297L390.209 99.2797C388.24 96.3005 386.843 92.9805 386.089 89.4897C385.744 87.8702 385.537 86.2243 385.469 84.5697C385.436 83.7528 385.453 82.9346 385.519 82.1197C385.526 81.3059 385.592 80.4936 385.719 79.6897C386.103 76.5119 387.048 73.4275 388.509 70.5797C389.899 67.8271 391.704 65.3044 393.859 63.0997C395.977 61.0296 398.382 59.275 400.999 57.8897C403.5 56.5887 406.179 55.6622 408.949 55.1397L410.949 54.8297C411.619 54.7297 412.289 54.7397 412.949 54.6897C414.253 54.6277 415.559 54.6511 416.859 54.7597C421.215 55.141 425.427 56.5099 429.175 58.7625C432.923 61.015 436.108 64.092 438.489 67.7597C440.14 70.2511 441.376 72.9933 442.149 75.8797L442.599 77.5597C442.689 78.0897 442.769 78.5597 442.849 79.0597C442.929 79.5597 442.989 79.9597 443.059 80.3597C443.129 80.7597 443.109 81.1197 443.139 81.4397C443.139 82.0597 443.219 82.5497 443.249 82.9097C443.23 83.0901 443.24 83.2725 443.279 83.4497V83.4497Z" fill="#263238"></path><path d="M145.069 201.38H202.819C202.819 201.38 202.819 152.89 253.209 152.03C279.379 151.57 292.949 168.72 298.469 181.85C304.869 197.1 302.929 214.48 294.349 228.63C284.559 244.78 263.459 261.01 224.539 254.15L224.169 382.82H281.279V306.54C281.279 306.54 361.369 285.84 361.369 197.54C361.369 113.09 293.079 94.8497 256.369 93.6697C235.949 93.0197 228.549 92.1397 203.289 95.7297C171.099 100.33 144.389 137.71 145.069 201.38Z" fill="#F77021"></path><path d="M281.97 409.64H224.01V463.77H281.97V409.64Z" fill="#F77021"></path><path opacity="0.1" d="M281.97 409.64H224.01V463.77H281.97V409.64Z" fill="black"></path><path opacity="0.1" d="M145.069 201.38H202.819C202.819 201.38 202.819 152.89 253.209 152.03C279.379 151.57 292.949 168.72 298.469 181.85C304.869 197.1 302.929 214.48 294.349 228.63C284.559 244.78 263.459 261.01 224.539 254.15L224.169 382.82H281.279V306.54C281.279 306.54 361.369 285.84 361.369 197.54C361.369 113.09 293.079 94.8497 256.369 93.6697C235.949 93.0197 228.549 92.1397 203.289 95.7297C171.099 100.33 144.389 137.71 145.069 201.38Z" fill="black"></path><path d="M121.139 201.379H178.899C178.899 201.379 178.899 152.889 229.289 152.029C255.459 151.569 269.029 168.719 274.539 181.849C280.949 197.099 279.009 214.479 270.429 228.629C260.639 244.779 239.169 259.459 200.249 252.629V382.819H257.359V306.539C257.359 306.539 337.449 285.839 337.449 197.539C337.449 113.089 261.709 93.4795 229.299 93.4795C204.509 93.5095 120.049 99.4995 121.139 201.379Z" fill="#F77021"></path><path opacity="0.3" d="M121.139 201.379H178.899C178.899 201.379 178.899 152.889 229.289 152.029C255.459 151.569 269.029 168.719 274.539 181.849C280.949 197.099 279.009 214.479 270.429 228.629C260.639 244.779 239.169 259.459 200.249 252.629V382.819H257.359V306.539C257.359 306.539 337.449 285.839 337.449 197.539C337.449 113.089 261.709 93.4795 229.299 93.4795C204.509 93.5095 120.049 99.4995 121.139 201.379Z" fill="black"></path><path d="M258.05 409.64H200.09V463.77H258.05V409.64Z" fill="#F77021"></path><path opacity="0.3" d="M258.05 409.64H200.09V463.77H258.05V409.64Z" fill="black"></path><path d="M235.81 152.29C235.524 152.314 235.236 152.314 234.95 152.29C234.38 152.29 233.56 152.1 232.49 152.09C229.465 151.941 226.432 152.068 223.43 152.47C218.978 153.033 214.597 154.062 210.36 155.54C207.862 156.413 205.429 157.462 203.08 158.68C200.54 159.949 198.149 161.495 195.95 163.29C193.766 165.101 191.808 167.169 190.12 169.45C188.52 171.558 187.06 173.77 185.75 176.07C183.563 179.987 181.828 184.14 180.58 188.45C179.733 191.358 179.151 194.337 178.84 197.35C178.72 198.41 178.69 199.25 178.66 199.81C178.661 200.098 178.634 200.386 178.58 200.67C178.554 200.384 178.554 200.096 178.58 199.81C178.58 199.24 178.58 198.4 178.67 197.33C178.9 194.284 179.432 191.269 180.26 188.33C181.463 183.971 183.174 179.768 185.36 175.81C186.672 173.484 188.139 171.249 189.75 169.12C191.452 166.802 193.434 164.703 195.65 162.87C197.876 161.05 200.297 159.484 202.87 158.2C205.234 156.96 207.683 155.89 210.2 155C214.476 153.528 218.898 152.522 223.39 152C226.412 151.628 229.464 151.558 232.5 151.79C233.325 151.842 234.146 151.943 234.96 152.09C235.248 152.136 235.532 152.203 235.81 152.29Z" fill="#263238"></path><path d="M322.829 142C322.829 142 322.759 141.93 322.639 141.78C322.519 141.63 322.339 141.37 322.139 141.08L320.229 138.38C319.819 137.8 319.379 137.13 318.859 136.44L317.059 134.25L314.999 131.72C314.249 130.84 313.369 129.99 312.489 129.06C311.609 128.13 310.709 127.14 309.689 126.19C308.669 125.24 307.579 124.27 306.459 123.27C305.899 122.77 305.349 122.27 304.749 121.74L302.889 120.27C301.619 119.27 300.359 118.27 298.989 117.27C293.018 112.997 286.684 109.256 280.059 106.09L274.789 103.71L269.559 101.71C267.849 101 266.109 100.5 264.429 99.9397C262.749 99.3797 261.109 98.8097 259.429 98.4197L254.649 97.1697C253.099 96.7597 251.559 96.5097 250.089 96.1697C248.619 95.8297 247.199 95.5297 245.809 95.3597L241.809 94.7797C239.279 94.3497 236.959 94.2597 234.939 94.0597C233.939 93.9797 232.939 93.8697 232.109 93.8297L229.729 93.7697L226.429 93.6597H225.569H225.279C225.375 93.6447 225.473 93.6447 225.569 93.6597H226.429H229.729H232.119C232.989 93.6597 233.939 93.7797 234.959 93.8497C236.959 94.0197 239.319 94.0897 241.849 94.4997L245.849 95.0397C247.239 95.1997 248.659 95.5597 250.139 95.8297C251.619 96.0997 253.139 96.3797 254.729 96.8297L259.529 98.0697C261.189 98.4497 262.829 99.0697 264.529 99.5797C266.229 100.09 267.959 100.58 269.669 101.34L274.929 103.34L280.229 105.73C286.889 108.904 293.248 112.672 299.229 116.99C300.609 117.99 301.869 119.06 303.139 120.05L304.999 121.4C305.599 121.9 306.149 122.4 306.709 122.94L309.929 125.94C310.929 126.94 311.829 127.94 312.719 128.85C313.609 129.76 314.459 130.65 315.209 131.54L317.209 134.09L318.989 136.31C319.499 137.01 319.929 137.69 320.329 138.31C321.109 139.48 321.719 140.4 322.149 141.06L322.619 141.79C322.698 141.85 322.769 141.921 322.829 142V142Z" fill="#263238"></path><path d="M316.81 266C316.691 266.216 316.547 266.418 316.38 266.6L315 268.23C314.43 268.96 313.71 269.83 312.82 270.8C311.93 271.77 310.98 272.91 309.82 274.09C308.66 275.27 307.42 276.59 306.01 277.92C304.6 279.25 303.07 280.65 301.44 282.11C294.291 288.35 286.454 293.755 278.08 298.22C276.14 299.22 274.31 300.22 272.54 300.99C270.77 301.76 269.12 302.55 267.6 303.19C266.08 303.83 264.68 304.36 263.46 304.83C262.24 305.3 261.17 305.68 260.29 305.96L258.29 306.61C258.058 306.702 257.817 306.769 257.57 306.81C257.786 306.687 258.014 306.586 258.25 306.51L260.25 305.77C261.12 305.46 262.17 305.06 263.38 304.56C264.59 304.06 265.99 303.56 267.49 302.85C268.99 302.14 270.65 301.47 272.38 300.6C274.11 299.73 275.96 298.81 277.89 297.8C281.7 295.7 285.81 293.24 289.96 290.4C294.11 287.56 297.84 284.57 301.16 281.75C302.79 280.31 304.35 278.96 305.74 277.6C307.13 276.24 308.43 275.01 309.58 273.83C310.73 272.65 311.74 271.56 312.64 270.6C313.54 269.64 314.28 268.8 314.88 268.1L316.28 266.51C316.443 266.326 316.62 266.155 316.81 266V266Z" fill="#263238"></path><path d="M256.35 378.279C256.2 378.279 256.08 362.219 256.08 342.409C256.08 322.599 256.2 306.529 256.35 306.529C256.5 306.529 256.61 322.589 256.61 342.409C256.61 362.229 256.49 378.279 256.35 378.279Z" fill="#263238"></path><path d="M258.549 460.1C258.399 460.1 258.289 448.83 258.289 434.93C258.289 421.03 258.399 409.75 258.549 409.75C258.699 409.75 258.809 421.02 258.809 434.93C258.809 448.84 258.689 460.1 258.549 460.1Z" fill="#263238"></path><path d="M315.399 193.71C314.399 195.71 318.129 197.35 320.279 198C322.473 198.539 324.743 198.694 326.989 198.46C329.989 198.3 333.059 198.02 335.649 196.54C337.918 195.135 339.731 193.103 340.869 190.69C341.992 188.285 342.88 185.776 343.519 183.2C343.519 183.2 319.889 184.74 315.399 193.71Z" fill="#F77021"></path><g opacity="0.4"><path opacity="0.4" d="M315.399 193.71C314.399 195.71 318.129 197.35 320.279 198C322.473 198.539 324.743 198.694 326.989 198.46C329.989 198.3 333.059 198.02 335.649 196.54C337.918 195.135 339.731 193.103 340.869 190.69C341.992 188.285 342.88 185.776 343.519 183.2C343.519 183.2 319.889 184.74 315.399 193.71Z" fill="black"></path></g><path d="M382.14 187.31C386.035 190.074 390.704 191.536 395.48 191.49C397.769 191.618 400.026 190.907 401.83 189.49C402.6 188.78 403.18 187.88 403.97 187.2C404.51 186.74 405.14 186.39 405.65 185.9C405.919 185.669 406.126 185.374 406.254 185.042C406.381 184.711 406.424 184.353 406.38 184C406.182 183.132 405.696 182.356 405 181.8C402.29 180.26 399.05 180.32 395.93 180.39C392.807 180.526 389.723 181.129 386.78 182.18C384.36 183 381.83 184.18 380.6 186.38" fill="#F77021"></path><g opacity="0.4"><path opacity="0.4" d="M406.38 184C406.026 183.157 405.404 182.453 404.61 182C401.9 180.46 399.05 180.32 395.93 180.39C392.807 180.525 389.723 181.129 386.78 182.18C384.36 183 381.83 184.18 380.6 186.38L382.14 187.31C386.035 190.073 390.704 191.536 395.48 191.49C397.769 191.618 400.026 190.907 401.83 189.49C402.6 188.78 403.18 187.88 403.97 187.2C404.51 186.74 405.14 186.39 405.65 185.9C405.919 185.668 406.126 185.373 406.254 185.042C406.381 184.71 406.424 184.352 406.38 184V184Z" fill="black"></path></g><path d="M336 223.2L385.85 223.86C385.952 223.86 386.052 223.836 386.142 223.79C386.233 223.744 386.311 223.678 386.371 223.596C386.432 223.514 386.472 223.42 386.489 223.32C386.506 223.22 386.5 223.117 386.47 223.02L380.62 204.78C380.62 204.78 381.48 195.66 382.67 184.7C384.48 168.05 386.89 147.12 386.92 147.18C383.51 137.62 363.39 136 363.39 136L340.46 137.36L339.66 136.01L333.06 139.08C331.621 139.75 330.236 140.532 328.92 141.42C324.56 144.33 314.06 151.02 312.14 158.47C307.71 175.72 315.21 194.97 315.21 194.97L320.03 191.2C321.244 190.264 322.521 189.413 323.85 188.65L333.51 214.54C332.935 214.902 332.448 215.389 332.085 215.963C331.722 216.537 331.491 217.185 331.41 217.86C331.33 219.96 332.41 222.48 336 223.2" fill="#F77021"></path><g opacity="0.3"><path opacity="0.3" d="M357.39 192.68C358.97 184.18 358.14 175.44 357.29 166.84C354.53 173.84 354.63 181.84 351.7 188.78C351.341 189.513 351.079 190.289 350.92 191.09C350.844 191.492 350.864 191.906 350.979 192.299C351.094 192.692 351.3 193.052 351.58 193.35C352.38 194.08 353.58 193.68 354.64 193.56C355.589 193.379 356.513 193.083 357.39 192.68" fill="black"></path></g><g opacity="0.4"><path opacity="0.4" d="M339.001 212.36C343.001 213.75 347.261 211.16 351.491 210.7C354.291 210.4 357.091 211.04 359.871 211.49C365.493 212.399 371.212 212.541 376.871 211.91C377.739 211.862 378.589 211.641 379.371 211.26C379.775 210.985 380.105 210.615 380.334 210.182C380.562 209.75 380.681 209.269 380.681 208.78C371.261 207.78 361.851 207.24 352.431 206.27C350.086 205.87 347.685 205.948 345.371 206.5C342.531 207.38 340.371 209.61 338.371 211.82" fill="black"></path></g><path d="M404.94 180.72C400.87 171.55 386.52 146.19 386.52 146.19L375.41 160.12L378 187.47C378 187.47 383.87 180.92 400.28 180.79C401.473 180.838 402.64 181.152 403.695 181.709C404.751 182.266 405.668 183.053 406.38 184.01L404.94 180.72Z" fill="#F77021"></path><path d="M338.23 175.87C337.438 173.926 336.809 171.919 336.35 169.87C335.729 167.874 335.274 165.83 334.99 163.76C335.771 165.707 336.397 167.713 336.86 169.76C337.481 171.756 337.94 173.799 338.23 175.87V175.87Z" fill="#2F3F5C"></path><path d="M374.57 158.271C374.931 158.526 375.266 158.818 375.57 159.141C376.453 159.994 377.281 160.902 378.05 161.861C380.635 165.021 382.453 168.739 383.36 172.721C383.83 174.922 383.935 177.185 383.67 179.421C383.42 181.471 383.03 183.27 382.77 184.79C382.51 186.31 382.35 187.551 382.27 188.411C382.267 188.857 382.22 189.303 382.13 189.741C382.059 189.294 382.039 188.841 382.07 188.391C382.114 187.165 382.227 185.943 382.41 184.73C382.62 183.2 382.97 181.38 383.2 179.37C383.431 177.186 383.313 174.978 382.85 172.831C381.954 168.923 380.217 165.258 377.76 162.09C375.93 159.63 374.49 158.351 374.57 158.271Z" fill="#2F3F5C"></path><path d="M364.39 221C364.042 221.155 363.676 221.263 363.3 221.32C362.872 221.433 362.438 221.516 362 221.57C361.49 221.64 360.91 221.75 360.26 221.78C358.736 221.92 357.203 221.92 355.68 221.78C353.815 221.589 351.974 221.22 350.18 220.68C348.394 220.106 346.667 219.366 345.02 218.47C343.684 217.725 342.416 216.865 341.23 215.9C340.71 215.5 340.29 215.08 339.91 214.73C339.582 214.435 339.271 214.121 338.98 213.79C338.701 213.533 338.462 213.236 338.27 212.91C338.34 212.84 339.41 214.04 341.46 215.61C342.657 216.521 343.924 217.337 345.25 218.05C346.878 218.906 348.578 219.618 350.33 220.18C352.093 220.711 353.9 221.086 355.73 221.3C357.224 221.461 358.728 221.508 360.23 221.44C362.8 221.3 364.37 220.92 364.39 221Z" fill="#2F3F5C"></path><path d="M379.779 215.32C380.015 215.773 380.148 216.271 380.17 216.78C380.329 217.999 380.237 219.238 379.899 220.42C379.556 221.63 378.86 222.709 377.899 223.52C377.169 224.13 376.609 224.32 376.579 224.27C376.549 224.22 377.019 223.89 377.649 223.27C378.458 222.427 379.046 221.396 379.359 220.27C380.159 217.63 379.589 215.33 379.779 215.32Z" fill="#2F3F5C"></path><path d="M377.071 218.84C377.288 219.868 377.201 220.938 376.821 221.918C376.441 222.898 375.784 223.746 374.931 224.36C374.821 224.25 375.751 223.26 376.331 221.73C376.911 220.2 376.921 218.85 377.071 218.84Z" fill="#2F3F5C"></path><path d="M368.151 185.94C367.621 186.836 367.026 187.692 366.371 188.5C365.854 189.404 365.269 190.266 364.621 191.08C364.813 190.025 365.267 189.035 365.941 188.2C366.474 187.272 367.235 186.494 368.151 185.94V185.94Z" fill="#2F3F5C"></path><path d="M333.929 161.72C333.167 161.273 332.43 160.785 331.719 160.26C328.163 157.923 324.127 156.416 319.909 155.85C319.026 155.786 318.148 155.669 317.279 155.5C318.165 155.378 319.064 155.378 319.949 155.5C324.282 155.87 328.431 157.415 331.949 159.97C332.687 160.459 333.354 161.048 333.929 161.72Z" fill="#2F3F5C"></path><path d="M386.52 145.86C384.731 147.302 383.059 148.883 381.52 150.59C380.104 152.412 378.837 154.345 377.73 156.37C377.849 155.689 378.082 155.033 378.42 154.43C379.144 152.931 380.051 151.527 381.12 150.25C382.193 148.976 383.423 147.844 384.78 146.88C385.297 146.443 385.886 146.098 386.52 145.86Z" fill="#2F3F5C"></path><path d="M365.939 137.62C366.03 137.764 366.104 137.919 366.159 138.08C366.355 138.533 366.512 139.001 366.629 139.48C367.051 141.262 367.051 143.118 366.629 144.9C366.007 147.56 364.583 149.965 362.549 151.79C359.983 153.964 356.713 155.13 353.349 155.07C349.983 155.082 346.704 154.005 343.999 152C341.845 150.355 340.097 148.237 338.889 145.81C338.076 144.185 337.503 142.45 337.189 140.66C337.098 140.178 337.038 139.69 337.009 139.2C336.981 139.028 336.981 138.852 337.009 138.68C337.009 138.68 337.119 139.38 337.399 140.62C337.788 142.36 338.403 144.041 339.229 145.62C340.449 147.974 342.182 150.025 344.299 151.62C346.905 153.55 350.057 154.6 353.299 154.62C356.541 154.68 359.696 153.572 362.189 151.5C364.154 149.742 365.547 147.437 366.189 144.88C366.634 143.154 366.696 141.352 366.369 139.6C366.179 138.28 365.879 137.64 365.939 137.62Z" fill="#2F3F5C"></path><g opacity="0.3"><path opacity="0.3" d="M369.441 187.71C369.441 187.21 369.361 186.62 368.921 186.37C368.782 186.299 368.627 186.263 368.471 186.263C368.315 186.263 368.161 186.299 368.021 186.37C367.741 186.521 367.494 186.725 367.291 186.97C366.115 188.193 365.206 189.647 364.621 191.24L369.521 190.81C369.491 189.8 369.471 188.74 369.441 187.71Z" fill="black"></path></g><g opacity="0.3"><path opacity="0.3" d="M385.71 177.4C385.218 174.596 383.989 171.973 382.15 169.8C384.27 176.72 383.56 180.63 382.37 185.37L382.63 184.71C384 181.94 386.08 180.2 385.71 177.4Z" fill="black"></path></g><path d="M375.919 409.861L372.929 454.711L353.429 454.481L350.359 407.851L375.919 409.861Z" fill="#FFBE9D"></path><path d="M373.48 448.81V450.11C373.48 450.11 395.48 458.95 395.69 463.11L352 462.87L352.68 448.34C359.19 451.39 366 451.77 373.48 448.81Z" fill="#F77021"></path><path d="M357.111 453C356.696 453.125 356.341 453.398 356.113 453.766C355.885 454.134 355.798 454.573 355.871 455C355.977 455.426 356.246 455.795 356.619 456.028C356.991 456.261 357.44 456.341 357.871 456.25C358.315 456.117 358.695 455.823 358.935 455.426C359.176 455.028 359.26 454.556 359.171 454.1C359.012 453.668 358.692 453.315 358.277 453.115C357.863 452.915 357.387 452.885 356.951 453.03" fill="white"></path><path d="M352 462.87L352.16 459.38L394 460.9C394 460.9 395.94 461.76 395.71 463.12L352 462.87Z" fill="#2F3F5C"></path><path d="M373.641 450.23C373.641 450.44 372.561 450.53 371.511 451.23C370.461 451.93 369.891 452.8 369.701 452.72C369.511 452.64 369.831 451.4 371.121 450.6C372.411 449.8 373.691 450 373.641 450.23Z" fill="#2F3F5C"></path><path d="M378.211 452.15C378.261 452.36 377.331 452.71 376.601 453.61C375.871 454.51 375.661 455.46 375.441 455.45C375.221 455.44 375.101 454.23 376.031 453.14C376.961 452.05 378.201 452 378.211 452.15Z" fill="#2F3F5C"></path><path d="M380.781 457.65C380.581 457.65 380.291 456.65 380.851 455.46C381.411 454.27 382.401 453.84 382.491 454.01C382.581 454.18 381.961 454.81 381.491 455.78C381.021 456.75 381.001 457.63 380.781 457.65Z" fill="#2F3F5C"></path><path d="M372.36 81.8501C373.49 79.0501 372.12 75.6601 369.69 73.8501C367.129 72.1642 364.006 71.5569 361 72.1601C358.034 72.782 355.163 73.7906 352.46 75.1601C351.203 73.8925 349.618 72.9991 347.883 72.5799C346.148 72.1606 344.33 72.2319 342.633 72.7859C340.936 73.3398 339.427 74.3545 338.273 75.7167C337.119 77.079 336.367 78.7351 336.1 80.5001C335.018 80.228 333.884 80.2554 332.817 80.5793C331.75 80.9033 330.791 81.5117 330.044 82.3391C329.297 83.1666 328.789 84.1819 328.575 85.2761C328.361 86.3703 328.449 87.5021 328.83 88.5501L342.35 93.3001L357.11 119.3C359.291 121.161 362.075 122.165 364.942 122.124C367.809 122.084 370.564 121.001 372.691 119.079C374.819 117.157 376.175 114.527 376.506 111.678C376.837 108.83 376.12 105.959 374.49 103.6C375.317 102.865 376.019 102 376.57 101.04C377.749 100.343 378.778 99.4176 379.597 98.3189C380.416 97.2202 381.008 95.9697 381.34 94.6401C382.65 88.8501 378.17 82.5301 372.36 81.8501Z" fill="#2F3F5C"></path><path d="M363.41 136C362.57 131.77 361.99 128.87 362 128.9C362.01 128.93 370 125.8 369.42 114.67C369.14 109.13 367.03 100.4 365.07 93.3202C363.31 86.9402 357.36 79.9102 351.07 81.9402L332 91.2402C330.09 91.8602 329.76 93.6602 330.21 95.6102V96.6102L337.62 127.27L340.75 140.97C341.417 143.783 343.113 146.245 345.505 147.87C347.896 149.495 350.809 150.166 353.67 149.75C355.233 149.53 356.734 148.994 358.081 148.173C359.429 147.352 360.595 146.264 361.507 144.977C362.419 143.689 363.058 142.229 363.385 140.685C363.713 139.141 363.721 137.547 363.41 136V136Z" fill="#FFBE9D"></path><path d="M365 100.72C365.08 101.075 365.021 101.447 364.835 101.759C364.649 102.072 364.35 102.301 364 102.4C363.823 102.449 363.639 102.462 363.457 102.438C363.275 102.414 363.1 102.354 362.942 102.261C362.784 102.167 362.647 102.043 362.538 101.895C362.429 101.747 362.352 101.579 362.31 101.4C362.23 101.046 362.289 100.676 362.476 100.365C362.662 100.054 362.961 99.8265 363.31 99.73C363.486 99.679 363.671 99.6645 363.853 99.6871C364.034 99.7098 364.21 99.7693 364.368 99.8619C364.526 99.9545 364.664 100.078 364.772 100.226C364.881 100.373 364.958 100.542 365 100.72V100.72Z" fill="#2F3F5C"></path><path d="M364.13 98.5902C363.99 98.8102 362.78 98.2602 361.3 98.5902C359.82 98.9202 358.88 99.8802 358.68 99.7302C358.48 99.5802 358.68 99.3002 359.09 98.8602C359.64 98.2788 360.356 97.8808 361.14 97.7202C361.913 97.5533 362.72 97.641 363.44 97.9702C364 98.2002 364.19 98.5002 364.13 98.5902Z" fill="#2F3F5C"></path><path d="M350.481 104.001C350.561 104.354 350.501 104.725 350.315 105.036C350.129 105.347 349.83 105.574 349.481 105.671C349.308 105.721 349.127 105.736 348.948 105.716C348.77 105.696 348.597 105.641 348.44 105.553C348.282 105.466 348.144 105.348 348.033 105.207C347.921 105.066 347.839 104.904 347.791 104.731C347.711 104.376 347.77 104.004 347.956 103.691C348.142 103.378 348.441 103.149 348.791 103.051C348.964 103 349.146 102.985 349.325 103.006C349.504 103.027 349.678 103.083 349.835 103.172C349.992 103.26 350.13 103.379 350.241 103.521C350.352 103.663 350.434 103.826 350.481 104.001Z" fill="#2F3F5C"></path><path d="M349.751 102.12C349.621 102.34 348.401 101.78 346.921 102.12C345.441 102.46 344.501 103.4 344.301 103.26C344.101 103.12 344.301 102.83 344.711 102.38C345.264 101.804 345.979 101.41 346.761 101.25C347.534 101.086 348.339 101.17 349.061 101.49C349.591 101.73 349.821 102 349.751 102.12Z" fill="#2F3F5C"></path><path d="M357.281 111.52C358.014 111.115 358.793 110.8 359.601 110.58C359.971 110.46 360.321 110.31 360.331 110.04C360.278 109.642 360.108 109.269 359.841 108.97L358.111 106.31C355.691 102.52 353.851 99.3798 354.001 99.3098C354.151 99.2398 356.241 102.21 358.661 106L360.351 108.68C360.683 109.09 360.863 109.602 360.861 110.13C360.831 110.274 360.77 110.409 360.682 110.527C360.593 110.644 360.48 110.741 360.351 110.81C360.155 110.913 359.947 110.991 359.731 111.04C358.94 111.311 358.115 111.472 357.281 111.52Z" fill="#2F3F5C"></path><path d="M362 128.9C356.942 130.043 351.666 129.759 346.76 128.08C346.76 128.08 352 134.92 362.57 131.65L362 128.9Z" fill="#EB996E"></path><path d="M350.001 100C349.901 100.43 348.371 100.42 346.631 100.85C344.891 101.28 343.511 101.93 343.231 101.59C343.111 101.43 343.311 101.01 343.841 100.59C344.545 99.997 345.382 99.582 346.281 99.3802C347.172 99.1688 348.1 99.1688 348.991 99.3802C349.701 99.5102 350.071 99.8002 350.001 100Z" fill="#2F3F5C"></path><path d="M363.561 93.8704C363.321 94.2704 362.041 94.1704 360.561 94.4604C359.081 94.7504 357.911 95.2504 357.561 94.9604C357.401 94.8104 357.561 94.4304 357.991 93.9604C358.651 93.4051 359.449 93.0388 360.301 92.9004C361.138 92.7317 362.006 92.7939 362.811 93.0804C363.421 93.3604 363.661 93.6704 363.561 93.8704Z" fill="#2F3F5C"></path><path d="M336.711 84.0802C336.932 85.1634 337.389 86.1847 338.049 87.0714C338.71 87.9581 339.558 88.6885 340.532 89.2106C341.507 89.7327 342.584 90.0338 343.689 90.0925C344.793 90.1512 345.896 89.966 346.921 89.5502C348.501 88.9102 350.141 87.7102 351.741 88.2902C353.341 88.8702 354.001 91.1502 355.531 92.0002C357.781 93.2602 360.531 91.0802 363.041 91.3002C365.041 91.4702 366.551 93.0002 368.101 94.3002C369.651 95.6002 371.791 96.5802 373.541 95.6402C373.14 93.9702 372.546 92.3526 371.771 90.8202C370.989 89.2774 369.695 88.0543 368.111 87.3602C367.231 87.0102 366.281 86.8902 365.441 86.4602C363.631 85.5402 362.821 83.4602 361.511 81.8902C360.65 80.9008 359.566 80.1307 358.349 79.6438C357.132 79.1568 355.816 78.9671 354.511 79.0902C352.351 79.3102 350.301 80.4002 348.121 80.3102C346.511 80.2402 344.971 79.5202 343.361 79.5502C340.231 79.5502 337.881 82.3502 336.141 84.9602" fill="#2F3F5C"></path><path d="M347.249 86.3696C345.809 86.2596 342.869 85.9596 341.899 84.9396C340.914 83.8375 339.656 83.0135 338.252 82.5501C336.848 82.0868 335.347 82.0004 333.899 82.2996C332.463 82.728 331.201 83.6062 330.301 84.8052C329.401 86.0042 328.91 87.4604 328.899 88.9596C327.15 89.3866 325.548 90.2782 324.263 91.5402C322.978 92.8023 322.058 94.3879 321.599 96.1296C321.134 97.953 321.118 99.8621 321.554 101.693C321.989 103.524 322.863 105.221 324.099 106.64C324.7 107.391 325.248 108.183 325.739 109.01C325.061 109.851 324.465 110.755 323.959 111.71C321.669 116.77 327.879 118.71 327.879 118.71C327.879 122.11 331.029 122.09 333.039 122.08C335.049 122.07 336.159 127.44 337.729 127.23L336.139 110.66C336.372 110.75 336.62 110.798 336.869 110.8C340.659 110.87 339.669 103.69 338.449 101.8C339.578 100.394 340.532 98.856 341.289 97.2196C341.976 94.7182 342.024 92.0845 341.429 89.5596C342.699 89.3996 347.869 86.4096 347.249 86.3696Z" fill="#2F3F5C"></path><path d="M336.64 111.54C336.511 111.014 336.25 110.528 335.883 110.13C335.515 109.731 335.053 109.432 334.539 109.26C334.025 109.088 333.475 109.05 332.942 109.148C332.409 109.245 331.909 109.477 331.49 109.82C330.49 110.68 329.96 112.12 330.56 114.53C332.18 120.97 338.31 118.02 338.27 117.84C338.23 117.66 337.34 114.2 336.64 111.54Z" fill="#FFBE9D"></path><path d="M335.69 115.89C335.69 115.89 335.6 116 335.43 116.13C335.193 116.312 334.896 116.394 334.6 116.36C333.86 116.28 333.01 115.36 332.69 114.19C332.537 113.644 332.506 113.07 332.6 112.51C332.61 112.293 332.672 112.081 332.782 111.893C332.892 111.705 333.045 111.546 333.23 111.43C333.351 111.365 333.492 111.344 333.627 111.372C333.762 111.399 333.883 111.473 333.97 111.58C334.1 111.73 334.09 111.87 334.13 111.88C334.17 111.89 334.24 111.73 334.13 111.48C334.053 111.332 333.93 111.213 333.78 111.14C333.568 111.055 333.331 111.055 333.12 111.14C332.869 111.26 332.652 111.44 332.489 111.666C332.326 111.891 332.223 112.154 332.19 112.43C332.06 113.06 332.084 113.712 332.26 114.33C332.371 114.911 332.652 115.446 333.066 115.868C333.481 116.289 334.011 116.579 334.59 116.7C334.778 116.708 334.965 116.673 335.138 116.599C335.312 116.525 335.466 116.412 335.59 116.27C335.72 116.05 335.72 115.9 335.69 115.89Z" fill="#EB996E"></path><path d="M371.171 102.55C371.171 102.55 371.761 102.1 372.581 101.1C373.712 99.6594 374.406 97.9241 374.581 96.1003C374.713 94.8553 374.591 93.5964 374.221 92.4003C373.794 91.0283 373.002 89.7979 371.931 88.8403C370.694 87.76 369.196 87.0218 367.586 86.6991C365.975 86.3763 364.309 86.4802 362.751 87.0003C362.451 87.1003 362.171 87.2503 361.891 87.3703C361.611 87.4903 361.361 87.6703 361.101 87.8203L360.701 88.0403V87.6003C360.692 86.8257 360.405 86.0801 359.891 85.5003C359.364 84.9376 358.719 84.5002 358.001 84.2203C356.643 83.6543 355.138 83.5421 353.711 83.9003C350.951 84.5303 348.611 85.7903 346.401 86.0503C344.668 86.3515 342.885 85.9949 341.401 85.0503C341.009 84.7809 340.67 84.442 340.401 84.0503C340.241 83.7803 340.161 83.6303 340.181 83.6203C340.543 84.1141 340.986 84.5435 341.491 84.8903C342.951 85.7331 344.666 86.0207 346.321 85.7003C347.472 85.4837 348.598 85.1485 349.681 84.7003C350.952 84.1923 352.254 83.768 353.581 83.4303C354.32 83.2514 355.08 83.174 355.841 83.2003C356.643 83.2427 357.432 83.4255 358.171 83.7403C358.935 84.067 359.618 84.5587 360.171 85.1803C360.762 85.8573 361.095 86.7216 361.111 87.6203L360.711 87.4003L361.541 86.9203C361.851 86.8003 362.141 86.6403 362.461 86.5303C364.103 85.968 365.864 85.8504 367.566 86.1894C369.268 86.5284 370.85 87.3119 372.151 88.4603C373.275 89.4785 374.099 90.7861 374.531 92.2403C374.98 93.7816 375.04 95.41 374.707 96.9803C374.373 98.5507 373.657 100.014 372.621 101.24C372.291 101.616 371.919 101.952 371.511 102.24C371.41 102.357 371.296 102.461 371.171 102.55Z" fill="#455A64"></path><path d="M369.87 79.9397C369.213 79.6065 368.513 79.3674 367.79 79.2297C366.963 79.1167 366.121 79.1954 365.33 79.4597C364.305 79.7733 363.414 80.4211 362.8 81.2997L362.55 81.6497L362.4 81.2497C361.878 80.0205 361.037 78.9527 359.965 78.1564C358.893 77.3601 357.627 76.8642 356.3 76.7197C354.214 76.6413 352.159 77.2375 350.44 78.4197C348.975 79.3747 347.417 80.1788 345.79 80.8197C344.668 81.244 343.46 81.3882 342.27 81.2397C341.952 81.1812 341.641 81.0942 341.34 80.9797C341.14 80.8897 341.03 80.8397 341.04 80.8197C341.05 80.7997 341.49 80.9497 342.3 81.0297C343.45 81.1016 344.602 80.9136 345.67 80.4797C347.251 79.7902 348.767 78.9603 350.2 77.9997C351.085 77.4502 352.023 76.9912 353 76.6297C354.074 76.2381 355.222 76.0912 356.36 76.1997C357.778 76.3546 359.128 76.8911 360.265 77.7522C361.403 78.6133 362.286 79.7667 362.82 81.0897H362.43C363.117 80.15 364.099 79.4671 365.22 79.1497C366.071 78.9029 366.968 78.8584 367.84 79.0197C368.391 79.1245 368.92 79.3277 369.4 79.6197C369.571 79.7035 369.729 79.8112 369.87 79.9397V79.9397Z" fill="#455A64"></path><path d="M356.7 114.481C356.467 114.285 356.195 114.142 355.902 114.059C355.609 113.976 355.301 113.956 355 114.001C354.648 114.076 354.316 114.224 354.025 114.436C353.733 114.648 353.49 114.919 353.31 115.231C353.31 115.231 353.26 115.281 353.25 115.311C353.113 115.539 353.05 115.805 353.07 116.071C353.114 116.36 353.228 116.635 353.402 116.87C353.576 117.106 353.806 117.295 354.07 117.421C354.493 117.635 354.971 117.713 355.44 117.645C355.909 117.577 356.346 117.366 356.69 117.041C357.017 116.695 357.2 116.238 357.202 115.763C357.204 115.287 357.024 114.829 356.7 114.481V114.481Z" fill="#F77021"></path><path d="M357.2 117.59C357.12 117.59 357.03 117.29 356.76 116.88C356.435 116.33 355.949 115.893 355.368 115.629C354.787 115.364 354.138 115.284 353.51 115.4C353.02 115.47 352.72 115.61 352.69 115.54C352.66 115.47 352.89 115.23 353.43 115.04C354.137 114.812 354.903 114.855 355.58 115.16C356.263 115.464 356.804 116.019 357.09 116.71C357.3 117.23 357.27 117.58 357.2 117.59Z" fill="#2F3F5C"></path><path d="M336.79 118.83C336.79 118.83 337.08 119.33 336.7 120.09C336.485 120.545 336.106 120.902 335.64 121.09C335.349 121.195 335.037 121.23 334.73 121.194C334.423 121.157 334.129 121.05 333.87 120.88C333.607 120.72 333.384 120.502 333.219 120.242C333.055 119.981 332.952 119.687 332.92 119.38C332.89 118.886 333.035 118.398 333.33 118C333.85 117.34 334.43 117.32 334.43 117.38C334.43 117.44 333.99 117.61 333.64 118.21C333.437 118.547 333.353 118.941 333.4 119.33C333.437 119.559 333.524 119.776 333.653 119.968C333.783 120.159 333.952 120.321 334.15 120.44C334.345 120.565 334.564 120.648 334.794 120.682C335.023 120.717 335.257 120.702 335.48 120.64C335.849 120.508 336.168 120.263 336.39 119.94C336.78 119.32 336.71 118.83 336.79 118.83Z" fill="#F77021"></path><path d="M333.419 118.44C333.469 118.44 333.419 118.78 332.949 119C332.718 119.096 332.465 119.124 332.219 119.081C331.972 119.037 331.744 118.924 331.56 118.755C331.376 118.585 331.244 118.367 331.18 118.125C331.116 117.883 331.123 117.628 331.199 117.39C331.297 117.12 331.484 116.891 331.729 116.74C332.139 116.49 332.449 116.59 332.439 116.65C332.429 116.71 332.199 116.78 331.949 117.03C331.826 117.184 331.751 117.371 331.734 117.567C331.717 117.763 331.757 117.96 331.851 118.133C331.945 118.306 332.088 118.447 332.262 118.539C332.436 118.631 332.633 118.67 332.829 118.65C333.169 118.58 333.349 118.4 333.419 118.44Z" fill="#F77021"></path><path d="M344.41 207.25C344.41 207.25 369.17 208.69 383.81 208.82C395.14 208.93 400.2 205.92 402.46 198.63C404.36 192.52 400.28 180.79 400.28 180.79C392.61 180.79 387.88 181.89 382.95 184.2L384.26 189.56L344.34 193L344.41 207.25Z" fill="#FFBE9D"></path><path d="M392.579 195.28C391.505 193.884 390.251 192.636 388.849 191.57C387.345 190.649 385.724 189.936 384.029 189.45C384.563 189.373 385.107 189.421 385.619 189.59C386.877 189.887 388.071 190.412 389.139 191.14C390.21 191.869 391.136 192.792 391.869 193.86C392.429 194.68 392.639 195.25 392.579 195.28Z" fill="#EB996E"></path><path d="M335.351 184.16C335.351 184.16 327.691 186 322.061 189.76L328.061 206.02C330.061 211.36 336.171 214.02 341.061 211.22C348.591 206.91 351.251 194.35 351.251 194.35L359.521 158.47L345.811 149.88L335.401 184.16" fill="#FFBE9D"></path><path d="M345.76 149.88L346.32 138.08L343.25 126.08C343.08 125.42 343 124.59 343.54 124.19C343.808 123.985 344.139 123.879 344.476 123.889C344.813 123.9 345.136 124.028 345.39 124.25C346.22 125.11 350.22 135.6 350.22 135.6C350.22 135.6 356.29 131.96 357.37 131.78C358.45 131.6 359.8 134.87 359.89 135.12C359.93 135.853 359.93 136.587 359.89 137.32C359.89 137.32 363.64 137.43 363.98 137.94C364.253 138.982 364.397 140.053 364.41 141.13C364.41 141.13 366 141.64 366.25 142.84C366.5 144.04 367.02 146.02 366.25 146.46C365.48 146.9 363.92 147.76 363.92 147.76C363.92 147.76 363.29 153.88 363.12 154.44C362.95 155 359.44 158.44 359.44 158.44L345.76 149.88Z" fill="#FFBE9D"></path><path d="M333 211.461C333 211.461 333.37 211.681 334.15 211.931C335.291 212.288 336.497 212.384 337.68 212.211C339.58 211.94 341.36 211.119 342.8 209.851C344.703 208.124 346.311 206.097 347.56 203.851C348.295 202.53 348.914 201.148 349.41 199.721C349.93 198.149 350.361 196.55 350.7 194.931C351.48 191.561 352.33 187.931 353.23 184.071C355.03 176.361 357.05 167.741 359.23 158.451V158.381H359.28C359.97 157.701 360.66 157.011 361.35 156.291C361.69 155.931 362.03 155.571 362.35 155.201C362.51 155.011 362.68 154.821 362.81 154.631C362.911 154.442 362.969 154.234 362.98 154.021C363.25 152.021 363.46 149.951 363.68 147.861V147.731L363.8 147.671L365.71 146.601C365.85 146.511 366.07 146.411 366.16 146.331C366.256 146.244 366.319 146.128 366.34 146.001C366.387 145.669 366.387 145.332 366.34 145.001C366.243 144.267 366.093 143.542 365.89 142.831C365.55 142.208 364.979 141.745 364.3 141.541L364.13 141.481V141.311C364.13 140.731 364.07 140.131 364 139.541C363.973 139.245 363.929 138.951 363.87 138.661C363.847 138.532 363.806 138.408 363.75 138.291C363.75 138.221 363.75 138.291 363.69 138.231C363.636 138.202 363.579 138.179 363.52 138.161C362.317 137.898 361.091 137.761 359.86 137.751H359.6V137.491C359.6 136.871 359.6 136.181 359.6 135.491C359.559 135.255 359.478 135.029 359.36 134.821C359.26 134.581 359.14 134.351 359.02 134.111C358.786 133.647 358.512 133.206 358.2 132.791C358.059 132.597 357.886 132.428 357.69 132.291C357.617 132.229 357.528 132.191 357.434 132.18C357.34 132.169 357.244 132.187 357.16 132.231C356.676 132.416 356.205 132.633 355.75 132.881C353.89 133.881 352.07 134.881 350.29 135.961L350.03 136.121L349.92 135.841C348.98 133.471 348.04 131.131 347.12 128.841C346.66 127.691 346.21 126.541 345.75 125.411C345.679 125.157 345.538 124.929 345.344 124.752C345.149 124.576 344.909 124.457 344.65 124.411C344.411 124.331 344.152 124.336 343.916 124.423C343.68 124.51 343.48 124.675 343.35 124.891C343.225 125.105 343.173 125.354 343.2 125.601C343.2 125.821 343.34 126.161 343.4 126.431C343.56 127.011 343.71 127.581 343.86 128.151C344.16 129.301 344.45 130.431 344.75 131.551C345.337 133.804 345.913 136.004 346.48 138.151V138.221C346.28 142.327 346.09 146.261 345.91 150.021V150.001L336.8 179.641L334.23 187.891C333.93 188.821 333.7 189.551 333.54 190.061C333.38 190.571 333.28 190.791 333.28 190.791C333.28 190.791 333.33 190.531 333.47 190.041L334.1 187.851C334.68 185.921 335.51 183.131 336.56 179.571C338.72 172.411 341.79 162.191 345.5 149.871V149.921C345.673 146.174 345.85 142.241 346.03 138.121V138.191C345.46 136.041 344.87 133.841 344.28 131.601L343.38 128.201C343.23 127.631 343.08 127.051 342.92 126.481C342.834 126.181 342.764 125.877 342.71 125.571C342.673 125.223 342.747 124.873 342.92 124.571C343.105 124.259 343.391 124.019 343.73 123.891C344.066 123.792 344.421 123.781 344.762 123.858C345.103 123.935 345.419 124.098 345.68 124.331C345.931 124.566 346.117 124.862 346.22 125.191L347.59 128.621C348.52 130.921 349.45 133.261 350.4 135.621L350.03 135.491C351.82 134.431 353.62 133.371 355.52 132.381C356 132.13 356.494 131.906 357 131.711C357.158 131.645 357.33 131.621 357.5 131.641C357.671 131.665 357.835 131.727 357.98 131.821C358.221 131.993 358.433 132.202 358.61 132.441C358.944 132.878 359.236 133.347 359.48 133.841C359.61 134.091 359.73 134.331 359.84 134.581C359.982 134.845 360.077 135.133 360.12 135.431C360.12 136.141 360.12 136.801 360.12 137.431L359.87 137.161C361.155 137.169 362.436 137.317 363.69 137.601C363.776 137.631 363.86 137.667 363.94 137.711C364.05 137.77 364.14 137.861 364.2 137.971C364.278 138.133 364.335 138.304 364.37 138.481C364.43 138.801 364.47 139.101 364.51 139.411C364.57 140.021 364.61 140.621 364.64 141.221L364.46 140.981C364.869 141.1 365.249 141.302 365.578 141.574C365.906 141.846 366.176 142.181 366.37 142.561C366.589 143.32 366.75 144.096 366.85 144.881C366.919 145.281 366.919 145.69 366.85 146.091C366.806 146.333 366.679 146.553 366.49 146.711C366.326 146.82 366.156 146.92 365.98 147.011L364.08 148.001L364.21 147.811C363.98 149.901 363.77 151.951 363.49 153.981L363.43 154.371C363.407 154.528 363.341 154.677 363.24 154.801C363.093 155.019 362.929 155.227 362.75 155.421C362.41 155.801 362.07 156.171 361.75 156.531C361.06 157.251 360.37 157.941 359.67 158.621L359.74 158.501C357.54 167.781 355.5 176.401 353.67 184.111C352.76 187.961 351.89 191.591 351.09 194.951C350.748 196.582 350.307 198.192 349.77 199.771C349.255 201.212 348.62 202.607 347.87 203.941C346.593 206.216 344.947 208.263 343 210.001C341.517 211.277 339.691 212.091 337.75 212.341C336.542 212.503 335.312 212.379 334.16 211.981C333.867 211.873 333.583 211.742 333.31 211.591L333 211.461Z" fill="#EB996E"></path><path d="M359.9 137.35C359.9 137.42 359.56 137.46 359.03 137.48C358.357 137.493 357.687 137.573 357.03 137.72C356.396 137.876 355.811 138.189 355.33 138.63C354.97 138.97 354.81 139.26 354.73 139.23C354.65 139.2 354.73 138.84 355.06 138.38C355.526 137.798 356.174 137.389 356.9 137.22C357.6 137.048 358.327 137.014 359.04 137.12C359.58 137.19 359.9 137.28 359.9 137.35Z" fill="#EB996E"></path><path d="M357 137.46C356.87 137.41 356.86 137.1 357 136.77C357.14 136.44 357.34 136.21 357.47 136.26C357.6 136.31 357.62 136.62 357.47 136.95C357.32 137.28 357.1 137.51 357 137.46Z" fill="#EB996E"></path><path d="M364.581 141.091C363.61 141.391 362.597 141.529 361.581 141.501C361.261 141.49 360.944 141.556 360.655 141.693C360.366 141.831 360.114 142.036 359.921 142.291C359.661 142.701 359.751 143.041 359.671 143.061C359.591 143.081 359.351 142.731 359.601 142.131C359.739 141.793 359.99 141.513 360.311 141.341C360.681 141.137 361.09 141.015 361.511 140.981C362.532 140.824 363.574 140.862 364.581 141.091V141.091Z" fill="#EB996E"></path><path d="M363.92 144.691C364.06 144.691 364.14 145.431 364.1 146.341C364.06 147.251 363.91 147.971 363.77 147.971C363.63 147.971 363.54 147.221 363.58 146.311C363.62 145.401 363.77 144.681 363.92 144.691Z" fill="#EB996E"></path><path d="M368.07 171.62L368.96 168.56C369.001 168.42 369.078 168.293 369.182 168.191C369.287 168.089 369.416 168.017 369.558 167.981C369.699 167.944 369.847 167.945 369.988 167.984C370.129 168.022 370.257 168.097 370.36 168.2L371.53 169.39L372.25 166.5C372.293 166.333 372.385 166.183 372.516 166.07C372.646 165.958 372.808 165.888 372.979 165.871C373.151 165.853 373.323 165.889 373.474 165.973C373.624 166.057 373.745 166.185 373.82 166.34L375.45 169.76L368.07 171.62Z" fill="white"></path><path d="M375.469 171.07C374.351 171.611 373.163 171.995 371.939 172.21C370.756 172.597 369.524 172.812 368.279 172.85C370.582 171.926 373.002 171.326 375.469 171.07V171.07Z" fill="white"></path><path d="M316 154C316 154 315.63 154.38 315.11 155.19C314.412 156.344 313.953 157.626 313.76 158.96C313.475 160.947 313.414 162.96 313.58 164.96C313.69 167.23 313.87 169.71 314.15 172.31C314.623 176.75 315.328 181.163 316.26 185.53C316.61 187.21 316.93 188.53 317.15 189.53C317.25 189.95 317.34 190.3 317.41 190.6C317.48 190.9 317.49 190.98 317.49 190.98C317.49 190.98 317.44 190.86 317.37 190.62C317.3 190.38 317.19 189.96 317.08 189.55C316.83 188.62 316.49 187.28 316.08 185.6C315.108 181.234 314.383 176.817 313.91 172.37C313.63 169.77 313.46 167.28 313.36 165.01C313.208 163.008 313.282 160.995 313.58 159.01C313.795 157.658 314.285 156.365 315.02 155.21C315.29 154.764 315.62 154.357 316 154V154Z" fill="white"></path><path d="M337.05 140.38L336.82 140.5L336.16 140.82C335.59 141.09 334.76 141.49 333.77 142.04C331.189 143.479 328.683 145.048 326.26 146.74C323.4 148.74 320.87 150.56 319.02 151.88L316.83 153.43L316.22 153.84C316.152 153.894 316.078 153.941 316 153.98C316.057 153.913 316.125 153.855 316.2 153.81L316.78 153.37L318.93 151.76C320.76 150.41 323.28 148.53 326.14 146.57C328.567 144.871 331.091 143.315 333.7 141.91C334.7 141.38 335.54 141 336.13 140.75L336.8 140.47C337 140.4 337 140.37 337.05 140.38Z" fill="white"></path><path d="M384.739 146.89C384.677 146.855 384.619 146.811 384.569 146.76L384.119 146.37C383.562 145.899 382.978 145.462 382.369 145.06C380.339 143.765 378.185 142.677 375.939 141.81C373.7 140.923 371.413 140.162 369.089 139.53C368.189 139.28 367.469 139.1 366.959 138.98L366.389 138.83C366.32 138.815 366.253 138.792 366.189 138.76H366.399L366.979 138.87C367.489 138.97 368.219 139.13 369.119 139.36C371.466 139.952 373.77 140.697 376.019 141.59C378.278 142.456 380.435 143.57 382.449 144.91C383.288 145.477 384.057 146.142 384.739 146.89V146.89Z" fill="white"></path><path d="M337.329 223.22C337.194 223.196 337.062 223.152 336.939 223.09C336.592 222.937 336.257 222.757 335.939 222.55C335.401 222.227 334.931 221.801 334.557 221.297C334.183 220.793 333.912 220.219 333.759 219.61C333.485 218.38 333.622 217.094 334.149 215.95C334.302 215.595 334.496 215.259 334.729 214.95C334.889 214.74 334.999 214.64 335.009 214.65C334.736 215.077 334.493 215.521 334.279 215.98C333.814 217.104 333.706 218.343 333.969 219.53C334.256 220.702 334.969 221.726 335.969 222.4C336.799 223 337.349 223.18 337.329 223.22Z" fill="white"></path><path d="M334.15 212.39C334.363 212.787 334.521 213.21 334.62 213.65C334.777 214.07 334.871 214.512 334.9 214.96C334.673 214.572 334.511 214.15 334.42 213.71C334.256 213.288 334.165 212.842 334.15 212.39Z" fill="white"></path><path d="M347.669 436.6L378.169 436.45L377.619 331L377.329 223.73L335.999 223.2L328.569 237.2C325.529 242.829 323.591 248.985 322.859 255.34C322.359 260.2 325.999 276 327.259 280L338.629 316.06L347.669 436.6Z" fill="#2F3F5C"></path><path d="M386.281 223.86L419.801 315.23C421.787 321.117 422.447 327.371 421.733 333.543C421.019 339.714 418.949 345.652 415.671 350.93L376.751 426.93L354.871 399.55L387.431 331.55L358.731 285L363.561 224L377.081 223.78L386.281 223.86Z" fill="#2F3F5C"></path><path d="M374.551 254.47C374.551 254.47 374.551 254.63 374.551 254.94C374.551 255.25 374.601 255.73 374.641 256.32C374.711 257.55 374.801 259.32 374.921 261.61C375.151 266.24 375.471 272.89 375.921 281.1C376.371 289.31 376.751 299.1 377.251 310C377.491 315.44 377.751 321.15 378.011 327.07C378.201 330.07 378.121 333.07 378.151 336.07C378.181 339.07 378.151 342.23 378.151 345.37C378.151 370.5 378.231 393.25 378.261 409.74C378.261 417.96 378.261 424.62 378.261 429.25C378.261 431.54 378.261 433.32 378.261 434.56C378.261 435.14 378.261 435.56 378.261 435.94C378.261 436.32 378.261 436.41 378.261 436.41C378.261 436.41 378.261 436.25 378.261 435.94V434.56C378.261 433.32 378.261 431.56 378.201 429.25C378.201 424.62 378.121 417.97 378.061 409.75C377.991 393.26 377.901 370.51 377.801 345.38C377.801 342.24 377.801 339.14 377.801 336.08C377.801 333.02 377.861 330 377.671 327.08C377.421 321.17 377.171 315.46 376.941 310.02C376.481 299.14 376.061 289.35 375.721 281.11C375.381 272.87 375.131 266.25 374.941 261.62C374.861 259.34 374.801 257.56 374.761 256.32C374.761 255.73 374.761 255.32 374.761 254.94C374.761 254.56 374.551 254.47 374.551 254.47Z" fill="#455A64"></path><path d="M373.779 225.66C373.896 225.982 373.967 226.319 373.989 226.66C374.099 227.3 374.219 228.23 374.359 229.39C374.619 231.7 374.899 234.91 375.059 238.46C375.219 242.01 375.229 245.23 375.179 247.56C375.179 248.72 375.109 249.67 375.059 250.32C375.07 250.658 375.029 250.995 374.939 251.32C374.813 250.071 374.77 248.815 374.809 247.56C374.809 245.23 374.699 242.03 374.539 238.48C374.379 234.93 374.159 231.74 373.989 229.48C373.847 228.212 373.777 226.936 373.779 225.66V225.66Z" fill="#455A64"></path><path d="M367.06 227.72C367.11 227.79 366.54 228.05 366.38 228.86C366.335 229.08 366.348 229.308 366.416 229.521C366.484 229.735 366.606 229.927 366.77 230.08C366.968 230.264 367.215 230.388 367.481 230.436C367.747 230.483 368.021 230.454 368.27 230.35C368.51 230.227 368.71 230.039 368.848 229.807C368.986 229.576 369.056 229.31 369.05 229.04C369.041 228.817 368.975 228.599 368.857 228.408C368.74 228.217 368.576 228.06 368.38 227.95C367.973 227.753 367.52 227.674 367.07 227.72C367.07 227.72 367.17 227.59 367.43 227.51C367.805 227.419 368.2 227.458 368.55 227.62C368.829 227.737 369.071 227.928 369.247 228.174C369.424 228.419 369.529 228.709 369.55 229.01C369.59 229.383 369.512 229.758 369.327 230.084C369.142 230.409 368.86 230.669 368.52 230.826C368.18 230.982 367.799 231.029 367.431 230.958C367.064 230.887 366.728 230.702 366.47 230.43C366.258 230.219 366.107 229.954 366.035 229.663C365.962 229.372 365.971 229.067 366.06 228.78C366.161 228.406 366.387 228.078 366.7 227.85C366.9 227.71 367.05 227.69 367.06 227.72Z" fill="#455A64"></path><path d="M351.06 225.91C351.207 226.225 351.298 226.564 351.33 226.91C351.491 227.808 351.521 228.724 351.42 229.63C351.276 230.98 350.886 232.291 350.27 233.5C349.525 235.004 348.423 236.302 347.059 237.28C345.696 238.258 344.113 238.887 342.45 239.11C341.119 239.309 339.762 239.258 338.45 238.96C337.562 238.767 336.706 238.447 335.91 238.01C335.609 237.868 335.332 237.679 335.09 237.45C336.195 237.947 337.348 238.333 338.53 238.6C339.952 238.896 341.42 238.894 342.842 238.593C344.263 238.293 345.607 237.701 346.788 236.856C347.969 236.01 348.962 234.929 349.704 233.68C350.446 232.431 350.922 231.042 351.1 229.6C351.217 228.372 351.204 227.135 351.06 225.91Z" fill="#455A64"></path><path d="M390.3 234.67C389.647 234.745 388.986 234.667 388.37 234.44C386.859 233.964 385.502 233.094 384.44 231.92C383.367 230.751 382.631 229.314 382.31 227.76C382.152 227.126 382.152 226.464 382.31 225.83C382.4 225.83 382.41 226.56 382.71 227.68C383.115 229.127 383.852 230.46 384.862 231.573C385.872 232.685 387.128 233.547 388.53 234.09C389.57 234.5 390.31 234.57 390.3 234.67Z" fill="#455A64"></path><path d="M402.21 333.17C401.709 333.741 401.11 334.219 400.44 334.58C399.738 335.025 398.973 335.362 398.17 335.58C397.16 335.847 396.095 335.82 395.1 335.5C393.354 334.841 391.857 333.652 390.82 332.1C390.344 331.516 389.951 330.87 389.65 330.18C390.19 330.695 390.679 331.261 391.11 331.87C392.172 333.278 393.606 334.362 395.25 335C396.09 335.224 396.966 335.275 397.826 335.149C398.685 335.024 399.51 334.724 400.25 334.27C400.882 333.866 401.537 333.499 402.21 333.17V333.17Z" fill="#455A64"></path><path d="M394.57 339C393.388 337.776 392.333 336.436 391.42 335C390.368 333.663 389.451 332.226 388.68 330.71C389.87 331.93 390.929 333.27 391.84 334.71C392.9 336.039 393.815 337.477 394.57 339V339Z" fill="#455A64"></path><path d="M343.33 258C343.19 258.05 342.84 257.48 342.53 256.71C342.22 255.94 342.09 255.29 342.22 255.23C342.35 255.17 342.71 255.75 343.01 256.52C343.31 257.29 343.46 258 343.33 258Z" fill="#FAFAFA"></path><path d="M362.69 260.78C362.54 260.78 362.43 260.29 362.43 259.68C362.43 259.07 362.54 258.57 362.69 258.57C362.84 258.57 362.95 259.07 362.95 259.68C362.95 260.29 362.83 260.78 362.69 260.78Z" fill="#FAFAFA"></path><path d="M354.73 271.3C354.59 271.3 354.43 270.7 354.38 269.93C354.33 269.16 354.38 268.54 354.54 268.53C354.7 268.52 354.85 269.13 354.9 269.9C354.95 270.67 354.87 271.29 354.73 271.3Z" fill="#FAFAFA"></path><path d="M340.191 279C340.071 279.09 339.661 278.72 339.121 278.34C338.581 277.96 338.121 277.67 338.121 277.53C338.121 277.39 338.781 277.47 339.391 277.91C340.001 278.35 340.311 279 340.191 279Z" fill="#FAFAFA"></path><path d="M365.821 288.81C365.701 288.73 365.821 288.3 366.161 287.81C366.501 287.32 366.811 287.04 366.931 287.12C367.051 287.2 366.931 287.64 366.591 288.12C366.251 288.6 365.941 288.89 365.821 288.81Z" fill="#FAFAFA"></path><path d="M350 291.581C349.86 291.581 349.74 290.751 349.74 289.741C349.74 288.731 349.86 287.891 350 287.891C350.14 287.891 350.26 288.721 350.26 289.741C350.26 290.761 350.11 291.581 350 291.581Z" fill="#FAFAFA"></path><path d="M344.821 302.8C344.741 302.91 344.221 302.68 343.661 302.27C343.101 301.86 342.661 301.44 342.791 301.32C342.921 301.2 343.401 301.44 343.961 301.85C344.521 302.26 344.911 302.68 344.821 302.8Z" fill="#FAFAFA"></path><path d="M360.841 306.7C360.901 306.83 360.581 307.1 360.121 307.31C359.661 307.52 359.241 307.57 359.181 307.44C359.121 307.31 359.451 307.04 359.911 306.83C360.371 306.62 360.791 306.57 360.841 306.7Z" fill="#FAFAFA"></path><path d="M350 325C349.88 325.06 349.36 324.29 348.85 323.27C348.34 322.25 348.03 321.37 348.16 321.27C348.29 321.17 348.81 321.98 349.31 323C349.81 324.02 350.09 324.89 350 325Z" fill="#FAFAFA"></path><path d="M367.669 323.3C367.539 323.23 367.769 322.56 368.169 321.79C368.569 321.02 369.019 320.46 369.169 320.53C369.319 320.6 369.069 321.27 368.659 322.04C368.249 322.81 367.789 323.37 367.669 323.3Z" fill="#FAFAFA"></path><path d="M359.92 338.79C359.77 338.79 359.79 337.98 359.63 337.04C359.47 336.1 359.23 335.35 359.37 335.28C359.51 335.21 359.99 335.92 360.15 336.96C360.31 338 360.06 338.82 359.92 338.79Z" fill="#FAFAFA"></path><path d="M351.621 347.64C351.521 347.74 351.021 347.36 350.511 346.8C350.001 346.24 349.671 345.71 349.781 345.61C349.891 345.51 350.381 345.89 350.891 346.45C351.401 347.01 351.731 347.54 351.621 347.64Z" fill="#FAFAFA"></path><path d="M371.76 351C371.66 350.9 372.03 350.36 372.59 349.79C373.15 349.22 373.67 348.85 373.78 348.95C373.89 349.05 373.51 349.6 372.96 350.16C372.41 350.72 371.87 351.1 371.76 351Z" fill="#FAFAFA"></path><path d="M360.179 364.25C360.039 364.25 360.039 363.46 360.179 362.54C360.319 361.62 360.539 360.9 360.689 360.92C360.839 360.94 360.829 361.7 360.689 362.62C360.549 363.54 360.319 364.27 360.179 364.25Z" fill="#FAFAFA"></path><path d="M352.391 370.68C352.261 370.75 351.821 370.23 351.391 369.52C350.961 368.81 350.741 368.18 350.861 368.11C350.981 368.04 351.421 368.55 351.861 369.26C352.301 369.97 352.511 370.6 352.391 370.68Z" fill="#FAFAFA"></path><path d="M371.16 378.79C371.25 378.91 370.74 379.42 370.02 379.93C369.3 380.44 368.67 380.76 368.58 380.64C368.49 380.52 369.01 380.01 369.72 379.5C370.43 378.99 371.08 378.68 371.16 378.79Z" fill="#FAFAFA"></path><path d="M355.519 389.32C355.379 389.27 355.519 388.47 355.649 387.47C355.779 386.47 355.699 385.65 355.849 385.63C355.999 385.61 356.259 386.45 356.159 387.52C356.059 388.59 355.649 389.38 355.519 389.32Z" fill="#FAFAFA"></path><path d="M361.771 404.441C361.651 404.531 361.231 404.191 360.821 403.681C360.411 403.171 360.181 402.681 360.291 402.591C360.401 402.501 360.821 402.841 361.231 403.351C361.641 403.861 361.881 404.351 361.771 404.441Z" fill="#FAFAFA"></path><path d="M354.941 414.58C354.821 414.66 354.271 414.07 353.711 413.25C353.151 412.43 352.801 411.71 352.911 411.63C353.021 411.55 353.581 412.14 354.141 412.96C354.701 413.78 355.061 414.5 354.941 414.58Z" fill="#FAFAFA"></path><path d="M373.75 401.85C373.62 401.8 373.63 401.43 373.75 401.03C373.87 400.63 374.14 400.33 374.28 400.38C374.42 400.43 374.4 400.8 374.28 401.21C374.16 401.62 373.89 401.91 373.75 401.85Z" fill="#FAFAFA"></path><path d="M365.45 426C365.32 425.93 365.57 425.22 365.77 424.33C365.97 423.44 366.04 422.69 366.19 422.68C366.34 422.67 366.49 423.48 366.28 424.44C366.07 425.4 365.57 426.08 365.45 426Z" fill="#FAFAFA"></path><path d="M370.85 271.461C370.72 271.521 370.4 271.121 370.14 270.561C369.88 270.001 369.77 269.501 369.9 269.441C370.03 269.381 370.35 269.781 370.61 270.341C370.87 270.901 371 271.401 370.85 271.461Z" fill="#FAFAFA"></path><path d="M357 240.32C357.08 240.44 356.38 241 355.63 241.8C354.88 242.6 354.37 243.34 354.24 243.27C354.11 243.2 354.45 242.27 355.24 241.45C356.03 240.63 356.9 240.19 357 240.32Z" fill="#FAFAFA"></path><path d="M369.33 240.001C369.18 240.001 368.95 239.431 368.6 238.751C368.25 238.071 367.93 237.511 368.04 237.411C368.15 237.311 368.69 237.751 369.04 238.511C369.39 239.271 369.46 239.921 369.33 240.001Z" fill="#FAFAFA"></path><path d="M330.829 250.11C330.699 250.05 330.829 249.39 331.139 248.63C331.449 247.87 331.789 247.28 331.929 247.34C332.069 247.4 331.929 248.05 331.619 248.82C331.309 249.59 330.999 250.16 330.829 250.11Z" fill="#FAFAFA"></path><path d="M332.08 265.21C331.98 265.32 331.41 265 330.8 264.49C330.19 263.98 329.8 263.49 329.86 263.37C329.92 263.25 330.53 263.58 331.14 264.09C331.75 264.6 332.17 265.1 332.08 265.21Z" fill="#FAFAFA"></path><path d="M357.34 228.33C357.21 228.33 356.93 228.01 356.73 227.5C356.53 226.99 356.47 226.5 356.6 226.5C356.73 226.5 357.01 226.82 357.21 227.33C357.41 227.84 357.47 228.28 357.34 228.33Z" fill="#FAFAFA"></path><path d="M381.531 235.71C381.391 235.71 381.401 235.08 381.531 234.37C381.661 233.66 381.921 233.1 382.061 233.13C382.201 233.16 382.191 233.77 382.061 234.48C381.931 235.19 381.671 235.74 381.531 235.71Z" fill="#FAFAFA"></path><path d="M387.21 247.14C387.08 247.08 387.26 246.34 387.62 245.47C387.98 244.6 388.37 243.95 388.5 244C388.63 244.05 388.5 244.8 388.1 245.67C387.7 246.54 387.35 247.19 387.21 247.14Z" fill="#FAFAFA"></path><path d="M383.16 256.36C383.03 256.42 382.55 255.73 382.09 254.82C381.63 253.91 381.37 253.1 381.5 253.04C381.63 252.98 382.1 253.67 382.56 254.58C383.02 255.49 383.29 256.29 383.16 256.36Z" fill="#FAFAFA"></path><path d="M391.819 265.58C391.689 265.53 391.819 264.95 392.039 264.29C392.259 263.63 392.609 263.13 392.749 263.18C392.889 263.23 392.749 263.81 392.529 264.47C392.309 265.13 391.999 265.63 391.819 265.58Z" fill="#FAFAFA"></path><path d="M384.08 274.61C383.96 274.69 383.65 274.42 383.4 274.02C383.15 273.62 383.03 273.22 383.16 273.14C383.29 273.06 383.58 273.33 383.84 273.74C384.1 274.15 384.2 274.54 384.08 274.61Z" fill="#FAFAFA"></path><path d="M385.731 293.25C385.631 293.34 385.001 292.85 384.341 292.13C383.681 291.41 383.231 290.76 383.341 290.66C383.451 290.56 384.071 291.06 384.731 291.78C385.391 292.5 385.841 293.15 385.731 293.25Z" fill="#FAFAFA"></path><path d="M395.88 282.541C395.77 282.631 395.22 282.131 394.66 281.411C394.1 280.691 393.74 280.05 393.85 279.96C393.96 279.87 394.51 280.381 395.07 281.091C395.63 281.801 396 282.461 395.88 282.541Z" fill="#FAFAFA"></path><path d="M401.45 297.311C401.32 297.251 401.55 296.501 401.96 295.641C402.37 294.781 402.8 294.121 402.96 294.181C403.12 294.241 402.87 295.001 402.46 295.861C402.05 296.721 401.58 297.381 401.45 297.311Z" fill="#FAFAFA"></path><path d="M389.609 309.47C389.479 309.54 389.019 308.99 388.379 308.4C387.739 307.81 387.149 307.4 387.209 307.25C387.269 307.1 388.029 307.37 388.729 308.02C389.429 308.67 389.729 309.4 389.609 309.47Z" fill="#FAFAFA"></path><path d="M390.351 322C390.351 322.14 389.851 322.26 389.241 322.26C388.631 322.26 388.141 322.14 388.141 322C388.141 321.86 388.631 321.74 389.241 321.74C389.851 321.74 390.351 321.86 390.351 322Z" fill="#FAFAFA"></path><path d="M402.519 318.5C402.389 318.43 402.649 317.8 402.839 317.02C403.029 316.24 403.109 315.56 403.259 315.55C403.409 315.54 403.569 316.27 403.349 317.14C403.129 318.01 402.629 318.58 402.519 318.5Z" fill="#FAFAFA"></path><path d="M414.611 322.71C414.481 322.76 414.111 322.05 413.791 321.14C413.471 320.23 413.321 319.45 413.451 319.41C413.581 319.37 413.961 320.06 414.281 320.97C414.601 321.88 414.751 322.66 414.611 322.71Z" fill="#FAFAFA"></path><path d="M412.68 339.91C412.56 339.84 412.87 339 413.37 338.03C413.87 337.06 414.37 336.33 414.52 336.4C414.67 336.47 414.34 337.31 413.83 338.27C413.32 339.23 412.81 340 412.68 339.91Z" fill="#FAFAFA"></path><path d="M401.65 350C401.52 350.05 401.11 349.36 400.73 348.45C400.35 347.54 400.16 346.76 400.3 346.7C400.44 346.64 400.84 347.34 401.21 348.25C401.58 349.16 401.78 350 401.65 350Z" fill="#FAFAFA"></path><path d="M389.43 353.91C389.43 354.05 389.01 354.17 388.5 354.17C387.99 354.17 387.58 354.05 387.58 353.91C387.58 353.77 388 353.65 388.5 353.65C389 353.65 389.43 353.77 389.43 353.91Z" fill="#FAFAFA"></path><path d="M396.429 370C396.299 370 396.019 369.45 395.809 368.69C395.599 367.93 395.559 367.27 395.699 367.24C395.839 367.21 396.109 367.79 396.319 368.55C396.529 369.31 396.569 369.92 396.429 370Z" fill="#FAFAFA"></path><path d="M387.581 364.6C387.461 364.53 387.581 364.06 387.911 363.55C388.241 363.04 388.571 362.69 388.691 362.76C388.811 362.83 388.691 363.31 388.361 363.82C388.031 364.33 387.711 364.68 387.581 364.6Z" fill="#FAFAFA"></path><path d="M387.399 382.31C387.259 382.31 387.059 381.64 386.959 380.77C386.859 379.9 386.889 379.19 387.029 379.17C387.169 379.15 387.369 379.84 387.469 380.71C387.569 381.58 387.539 382.29 387.399 382.31Z" fill="#FAFAFA"></path><path d="M256.908 149.221C266.009 149.221 273.388 141.842 273.388 132.741C273.388 123.639 266.009 116.261 256.908 116.261C247.806 116.261 240.428 123.639 240.428 132.741C240.428 141.842 247.806 149.221 256.908 149.221Z" fill="#F77021"></path><path opacity="0.7" d="M256.908 149.221C266.009 149.221 273.388 141.842 273.388 132.741C273.388 123.639 266.009 116.261 256.908 116.261C247.806 116.261 240.428 123.639 240.428 132.741C240.428 141.842 247.806 149.221 256.908 149.221Z" fill="white"></path><path d="M291.098 126.751C295.29 126.751 298.688 123.353 298.688 119.161C298.688 114.969 295.29 111.571 291.098 111.571C286.906 111.571 283.508 114.969 283.508 119.161C283.508 123.353 286.906 126.751 291.098 126.751Z" fill="#F77021"></path><path opacity="0.6" d="M291.098 126.751C295.29 126.751 298.688 123.353 298.688 119.161C298.688 114.969 295.29 111.571 291.098 111.571C286.906 111.571 283.508 114.969 283.508 119.161C283.508 123.353 286.906 126.751 291.098 126.751Z" fill="white"></path><path d="M311.038 102.471C311.038 103.142 310.839 103.797 310.466 104.354C310.094 104.912 309.565 105.346 308.945 105.603C308.326 105.86 307.644 105.927 306.986 105.796C306.329 105.665 305.725 105.342 305.251 104.868C304.777 104.394 304.454 103.79 304.323 103.132C304.192 102.475 304.259 101.793 304.516 101.174C304.772 100.554 305.207 100.025 305.764 99.6524C306.322 99.2799 306.977 99.0811 307.648 99.0811C308.547 99.0811 309.409 99.4382 310.045 100.074C310.681 100.71 311.038 101.572 311.038 102.471V102.471Z" fill="#F77021"></path><path opacity="0.5" d="M311.038 102.471C311.038 103.142 310.839 103.797 310.466 104.354C310.094 104.912 309.565 105.346 308.945 105.603C308.326 105.86 307.644 105.927 306.986 105.796C306.329 105.665 305.725 105.342 305.251 104.868C304.777 104.394 304.454 103.79 304.323 103.132C304.192 102.475 304.259 101.793 304.516 101.174C304.772 100.554 305.207 100.025 305.764 99.6524C306.322 99.2799 306.977 99.0811 307.648 99.0811C308.547 99.0811 309.409 99.4382 310.045 100.074C310.681 100.71 311.038 101.572 311.038 102.471V102.471Z" fill="white"></path><path d="M254.828 82.9112C254.83 77.2896 253.372 71.7637 250.598 66.8748C247.823 61.9858 243.826 57.9013 238.998 55.0212C238.973 47.9239 236.895 40.9854 233.013 35.0435C229.132 29.1017 223.613 24.4105 217.124 21.5364C210.635 18.6623 203.452 17.7283 196.443 18.8471C189.435 19.9659 182.9 23.0896 177.628 27.8412C174.227 23.7092 169.859 20.4813 164.91 18.4445C159.962 16.4078 154.587 15.6253 149.263 16.1666C143.939 16.7079 138.831 18.5562 134.394 21.5472C129.957 24.5383 126.327 28.5793 123.828 33.3112C119.283 31.0328 114.177 30.1181 109.124 30.6774C104.072 31.2367 99.289 33.2461 95.353 36.4632C91.4171 39.6802 88.4961 43.9675 86.9425 48.8078C85.389 53.648 85.2693 58.8344 86.5978 63.7412C83.1737 66.0229 80.3999 69.1537 78.5474 72.8278C76.6949 76.5019 75.827 80.5937 76.0285 84.7035C76.2301 88.8132 77.4941 92.8005 79.6971 96.2757C81.9001 99.751 84.9669 102.595 88.5978 104.531C89.6053 110.003 92.4977 114.948 96.7725 118.509C101.047 122.069 106.434 124.02 111.998 124.021C113.491 124.019 114.981 123.878 116.448 123.601C117.755 126.671 119.693 129.431 122.136 131.703C124.579 133.975 127.473 135.707 130.63 136.788C133.786 137.869 137.134 138.273 140.457 137.976C143.78 137.678 147.004 136.685 149.918 135.061C152.428 137.367 155.405 139.106 158.646 140.162C161.887 141.217 165.317 141.564 168.704 141.179C172.091 140.794 175.355 139.686 178.277 137.93C181.198 136.174 183.709 133.811 185.638 131.001C189.079 135.209 193.737 138.249 198.973 139.704C204.21 141.16 209.769 140.96 214.887 139.132C220.006 137.304 224.433 133.937 227.563 129.493C230.693 125.049 232.371 119.746 232.368 114.311C232.368 114.161 232.368 114.011 232.368 113.851C238.902 111.732 244.597 107.595 248.632 102.036C252.668 96.4766 254.837 89.7809 254.828 82.9112V82.9112Z" fill="#F77021"></path><path opacity="0.8" d="M254.828 82.9112C254.83 77.2896 253.372 71.7637 250.598 66.8748C247.823 61.9858 243.826 57.9013 238.998 55.0212C238.973 47.9239 236.895 40.9854 233.013 35.0435C229.132 29.1017 223.613 24.4105 217.124 21.5364C210.635 18.6623 203.452 17.7283 196.443 18.8471C189.435 19.9659 182.9 23.0896 177.628 27.8412C174.227 23.7092 169.859 20.4813 164.91 18.4445C159.962 16.4078 154.587 15.6253 149.263 16.1666C143.939 16.7079 138.831 18.5562 134.394 21.5472C129.957 24.5383 126.327 28.5793 123.828 33.3112C119.283 31.0328 114.177 30.1181 109.124 30.6774C104.072 31.2367 99.289 33.2461 95.353 36.4632C91.4171 39.6802 88.4961 43.9675 86.9425 48.8078C85.389 53.648 85.2693 58.8344 86.5978 63.7412C83.1737 66.0229 80.3999 69.1537 78.5474 72.8278C76.6949 76.5019 75.827 80.5937 76.0285 84.7035C76.2301 88.8132 77.4941 92.8005 79.6971 96.2757C81.9001 99.751 84.9669 102.595 88.5978 104.531C89.6053 110.003 92.4977 114.948 96.7725 118.509C101.047 122.069 106.434 124.02 111.998 124.021C113.491 124.019 114.981 123.878 116.448 123.601C117.755 126.671 119.693 129.431 122.136 131.703C124.579 133.975 127.473 135.707 130.63 136.788C133.786 137.869 137.134 138.273 140.457 137.976C143.78 137.678 147.004 136.685 149.918 135.061C152.428 137.367 155.405 139.106 158.646 140.162C161.887 141.217 165.317 141.564 168.704 141.179C172.091 140.794 175.355 139.686 178.277 137.93C181.198 136.174 183.709 133.811 185.638 131.001C189.079 135.209 193.737 138.249 198.973 139.704C204.21 141.16 209.769 140.96 214.887 139.132C220.006 137.304 224.433 133.937 227.563 129.493C230.693 125.049 232.371 119.746 232.368 114.311C232.368 114.161 232.368 114.011 232.368 113.851C238.902 111.732 244.597 107.595 248.632 102.036C252.668 96.4766 254.837 89.7809 254.828 82.9112V82.9112Z" fill="white"></path><path d="M168.607 116.771L167.537 116.891C167.537 116.591 164.717 93.041 156.377 81.441C152.217 83.011 149.017 81.531 147.667 79.321C147.139 78.5849 146.899 77.6804 146.993 76.779C147.087 75.8777 147.508 75.0422 148.177 74.431L148.387 74.251L148.647 74.311C164.007 77.861 168.427 115.181 168.607 116.771ZM148.687 75.431C148.297 75.8933 148.075 76.474 148.057 77.0785C148.039 77.6831 148.226 78.2761 148.587 78.761C149.677 80.531 152.267 81.761 155.697 80.541C153.98 78.1192 151.518 76.3248 148.687 75.431Z" fill="white"></path><path d="M173.397 116.041C173.097 114.471 166.177 77.5309 179.777 69.5609L180.017 69.4209L180.267 69.5309C181.088 69.9138 181.74 70.5843 182.099 71.4155C182.459 72.2467 182.501 73.1808 182.217 74.0409C181.577 76.5609 178.967 78.9309 174.537 78.6609C170.027 92.2209 174.397 115.541 174.457 115.831L173.397 116.041ZM174.917 77.6009C178.537 77.7009 180.657 75.8009 181.167 73.7809C181.369 73.2115 181.371 72.5904 181.173 72.0197C180.975 71.449 180.589 70.9627 180.077 70.6409C177.646 72.3379 175.835 74.7814 174.917 77.6009V77.6009Z" fill="white"></path><path d="M132.898 69.3116L131.898 69.4116C131.765 68.0058 131.722 66.593 131.768 65.1816H132.768C132.72 66.5597 132.764 67.9393 132.898 69.3116V69.3116Z" fill="#F77021"></path><path d="M133.188 61.0016L132.188 60.8416C132.956 56.2713 134.74 51.9315 137.408 48.1416L138.228 48.7216C135.649 52.3859 133.927 56.5825 133.188 61.0016Z" fill="#F77021"></path><path d="M179.577 101.641L158.417 104.871C157.657 104.983 156.882 104.85 156.204 104.49C155.525 104.13 154.98 103.563 154.647 102.871C151.99 97.1856 148.226 92.0863 143.577 87.8711C139.564 84.166 136.67 79.4092 135.226 74.1415C133.782 68.8738 133.845 63.3066 135.408 58.0728C136.97 52.839 139.97 48.1486 144.066 44.535C148.162 40.9214 153.189 38.5294 158.577 37.6311V37.6311C162.391 36.9932 166.293 37.1199 170.057 38.0038C173.821 38.8877 177.372 40.5111 180.504 42.7797C183.635 45.0483 186.284 47.9167 188.296 51.2183C190.309 54.5198 191.645 58.1886 192.227 62.0111C193.241 68.6527 191.935 75.4409 188.527 81.2311C185.366 86.5488 183.324 92.4562 182.527 98.5911C182.425 99.3476 182.083 100.052 181.552 100.6C181.022 101.149 180.33 101.514 179.577 101.641V101.641ZM158.917 39.7311C153.91 40.5456 149.233 42.7542 145.424 46.1039C141.614 49.4535 138.825 53.8087 137.376 58.6704C135.928 63.5321 135.878 68.7035 137.233 73.5921C138.588 78.4808 141.292 82.8888 145.037 86.3111C149.889 90.7207 153.821 96.0462 156.607 101.981C156.732 102.259 156.944 102.488 157.211 102.634C157.478 102.78 157.786 102.835 158.087 102.791L179.247 99.5611C179.553 99.5089 179.833 99.3587 180.046 99.1332C180.259 98.9078 180.392 98.6192 180.427 98.3111C181.248 91.8911 183.368 85.7055 186.657 80.1311C189.817 74.763 191.029 68.4689 190.087 62.3111C189.55 58.7694 188.314 55.3699 186.45 52.3107C184.586 49.2515 182.133 46.5937 179.232 44.4921C176.331 42.3906 173.04 40.8874 169.553 40.07C166.065 39.2526 162.45 39.1374 158.917 39.7311V39.7311Z" fill="#F77021"></path><path d="M178.577 120.881L165.107 122.941C164.115 123.091 163.105 122.841 162.297 122.247C161.489 121.652 160.95 120.762 160.797 119.771L160.747 119.411C160.677 119.001 160.677 118.582 160.747 118.171C160.063 117.567 159.61 116.743 159.467 115.841V115.681C159.396 115.192 159.416 114.693 159.527 114.211C158.869 113.606 158.439 112.795 158.307 111.911C158.157 110.874 158.42 109.82 159.038 108.975C159.657 108.13 160.583 107.561 161.617 107.391L177.307 105.001C178.344 104.851 179.398 105.114 180.243 105.733C181.088 106.352 181.657 107.278 181.827 108.311C181.968 109.198 181.799 110.106 181.347 110.881C181.598 111.323 181.76 111.808 181.827 112.311V112.471C181.962 113.376 181.774 114.3 181.297 115.081C181.486 115.452 181.618 115.85 181.687 116.261V116.621C181.826 117.597 181.579 118.588 180.998 119.383C180.417 120.179 179.548 120.716 178.577 120.881V120.881ZM161.927 109.521C161.454 109.595 161.03 109.853 160.747 110.239C160.464 110.626 160.345 111.108 160.417 111.581C160.458 111.854 160.561 112.113 160.719 112.338C160.877 112.564 161.085 112.75 161.327 112.881L162.227 113.391L161.757 114.311C161.598 114.619 161.535 114.967 161.577 115.311V115.471C161.618 115.739 161.722 115.994 161.88 116.215C162.038 116.435 162.246 116.616 162.487 116.741L163.397 117.211L162.967 118.141C162.838 118.426 162.796 118.743 162.847 119.051V119.401C162.913 119.828 163.147 120.211 163.495 120.466C163.844 120.721 164.28 120.827 164.707 120.761L178.177 118.711C178.603 118.642 178.984 118.408 179.239 118.06C179.493 117.712 179.6 117.278 179.537 116.851V116.501C179.485 116.192 179.346 115.904 179.137 115.671L178.457 114.911L179.187 114.191C179.378 114 179.522 113.766 179.607 113.509C179.692 113.252 179.716 112.979 179.677 112.711V112.551C179.618 112.196 179.45 111.867 179.197 111.611L178.467 110.871L179.177 110.111C179.369 109.914 179.512 109.675 179.595 109.413C179.679 109.151 179.7 108.873 179.657 108.601C179.621 108.367 179.54 108.143 179.418 107.941C179.296 107.738 179.135 107.562 178.945 107.422C178.754 107.281 178.538 107.18 178.309 107.123C178.079 107.067 177.841 107.056 177.607 107.091L161.927 109.521Z" fill="#F77021"></path></svg>