<svg width="500" height="500" viewBox="0 0 500 500" fill="none" xmlns="http://www.w3.org/2000/svg">
<path d="M35.5103 215.39C35.5103 215.39 27.2203 295.39 86.3103 361.73C145.4 428.07 236.79 450.28 310.51 470.24C384.23 490.2 447.13 459.53 464.45 397.54C481.77 335.55 427.45 305.44 406.53 226.72C385.61 148 391.59 124.71 332.41 66.9995C273.23 9.28955 167.41 16.1896 103.41 81.8696C39.4103 147.55 35.5103 215.39 35.5103 215.39Z" fill="#C1EEE6"/>
<path d="M126.72 74.9199L252.52 280.44L405.38 135.63" stroke="#2F3F5C" stroke-linecap="round" stroke-linejoin="round"/>
<path d="M60.5801 289.79L252.52 280.44L112.83 221.2" stroke="#2F3F5C" stroke-linecap="round" stroke-linejoin="round"/>
<path d="M283.33 50.5801L254.771 285.28L429.951 320.04" stroke="#2F3F5C" stroke-linecap="round" stroke-linejoin="round"/>
<path d="M115.75 426.71L252.52 280.44L394.4 387.95" stroke="#2F3F5C" stroke-linecap="round" stroke-linejoin="round"/>
<path d="M56.3102 263.801C51.4843 263.801 46.7668 265.232 42.7543 267.913C38.7417 270.594 35.6143 274.405 33.7675 278.863C31.9207 283.322 31.4375 288.228 32.379 292.961C33.3205 297.694 35.6444 302.042 39.0568 305.454C42.4692 308.867 46.8168 311.19 51.55 312.132C56.2831 313.073 61.1891 312.59 65.6476 310.743C70.1062 308.897 73.9169 305.769 76.598 301.757C79.2791 297.744 80.7102 293.027 80.7102 288.201C80.7022 281.732 78.129 275.53 73.5548 270.956C68.9806 266.382 62.779 263.809 56.3102 263.801V263.801Z" fill="#2F3F5C"/>
<path fill-rule="evenodd" clip-rule="evenodd" d="M71.2503 287.57C71.0015 284.059 69.4391 280.77 66.8743 278.359C64.3096 275.948 60.9307 274.592 57.4107 274.56C53.8908 274.529 50.4881 275.824 47.8806 278.189C45.273 280.554 43.652 283.814 43.3403 287.32C43.3403 287.52 43.3403 287.72 43.3403 287.93C43.3379 290.455 44.0298 292.932 45.3403 295.09L42.8203 302.52L50.5603 300.06C52.6808 301.218 55.0649 301.808 57.4807 301.772C59.8966 301.736 62.2619 301.075 64.3468 299.854C66.4316 298.633 68.1649 296.893 69.3782 294.803C70.5914 292.714 71.2433 290.346 71.2703 287.93C71.2603 287.81 71.2603 287.69 71.2503 287.57ZM57.2503 299.57C54.9546 299.572 52.7086 298.901 50.7903 297.64L46.2803 299.08L47.7503 294.75C46.293 292.771 45.508 290.378 45.5103 287.92C45.5101 287.543 45.5301 287.165 45.5703 286.79C45.8236 283.84 47.1809 281.095 49.3709 279.103C51.5609 277.111 54.4222 276.019 57.3826 276.046C60.3429 276.072 63.1841 277.215 65.3381 279.246C67.4921 281.277 68.8 284.046 69.0003 287C69.0003 287.3 69.0003 287.6 69.0003 287.91C68.9871 291.008 67.7479 293.975 65.5535 296.161C63.3592 298.348 60.3883 299.577 57.2903 299.58L57.2503 299.57Z" fill="white"/>
<path fill-rule="evenodd" clip-rule="evenodd" d="M63.7006 290.72C63.3506 290.55 61.7006 289.72 61.3506 289.62C61.0006 289.52 60.8106 289.45 60.5806 289.79C60.3506 290.13 59.6906 290.89 59.5006 291.12C59.3106 291.35 59.1006 291.37 58.7506 291.2C57.7413 290.804 56.8103 290.232 56.0006 289.51C55.2519 288.831 54.6112 288.042 54.1006 287.17C53.9006 286.83 54.1006 286.64 54.2506 286.47C54.4006 286.3 54.5906 286.08 54.7606 285.88L54.8906 285.72C54.9706 285.589 55.0408 285.452 55.1006 285.31C55.1505 285.22 55.1767 285.118 55.1767 285.015C55.1767 284.912 55.1505 284.811 55.1006 284.72C55.0106 284.55 54.3306 282.87 54.0406 282.19C53.7506 281.51 53.4706 281.63 53.2706 281.63C53.0706 281.63 52.8406 281.63 52.6106 281.63C52.4381 281.633 52.268 281.672 52.1113 281.744C51.9546 281.817 51.8147 281.921 51.7006 282.05C51.3133 282.413 51.0063 282.854 50.7996 283.343C50.593 283.832 50.4911 284.359 50.5006 284.89C50.5059 285.283 50.5665 285.674 50.6806 286.05C50.9474 286.899 51.3603 287.694 51.9006 288.4C52.0706 288.62 54.2706 292.17 57.7506 293.53C61.2306 294.89 61.2306 294.44 61.8606 294.38C62.3383 294.289 62.7912 294.097 63.1893 293.818C63.5875 293.539 63.922 293.178 64.1706 292.76C64.3886 292.253 64.4579 291.695 64.3706 291.15C64.2606 291 64.0006 290.89 63.7006 290.72Z" fill="white"/>
<path d="M121 46.6407C114.613 46.77 108.531 49.3981 104.06 53.9608C99.5884 58.5236 97.084 64.6574 97.084 71.0457C97.084 77.4341 99.5884 83.5679 104.06 88.1307C108.531 92.6934 114.613 95.3214 121 95.4507V95.4507C124.246 95.5165 127.473 94.9338 130.492 93.7368C133.51 92.5399 136.26 90.7527 138.579 88.48C140.898 86.2073 142.741 83.4947 143.998 80.501C145.256 77.5074 145.904 74.2929 145.904 71.0457C145.904 67.7986 145.256 64.5841 143.998 61.5904C142.741 58.5968 140.898 55.8842 138.579 53.6115C136.26 51.3387 133.51 49.5516 130.492 48.3546C127.473 47.1577 124.246 46.575 121 46.6407V46.6407Z" fill="#2F3F5C"/>
<path d="M136.48 63.2202C136.304 62.5298 135.948 61.8989 135.447 61.3926C134.946 60.8863 134.319 60.523 133.63 60.3402C131.1 59.6602 120.99 59.6602 120.99 59.6602C120.99 59.6602 110.88 59.6602 108.36 60.3402C107.673 60.5271 107.046 60.8916 106.544 61.3971C106.042 61.9026 105.682 62.5314 105.5 63.2202C104.607 68.4019 104.607 73.6984 105.5 78.8802C105.684 79.568 106.045 80.1958 106.547 80.701C107.048 81.2063 107.673 81.5714 108.36 81.7602C110.88 82.4402 120.99 82.4402 120.99 82.4402C120.99 82.4402 131.1 82.4402 133.63 81.7602C134.316 81.5717 134.94 81.2065 135.44 80.7011C135.94 80.1957 136.299 79.5677 136.48 78.8802C137.387 73.6995 137.387 68.4008 136.48 63.2202V63.2202Z" fill="white"/>
<path d="M117.69 75.8602V66.2402L126.14 71.0502L117.69 75.8602Z" fill="#2F3F5C"/>
<path d="M117.53 396C111.201 396 105.014 397.877 99.752 401.393C94.4897 404.909 90.3881 409.907 87.9661 415.754C85.5441 421.601 84.9104 428.035 86.1452 434.243C87.3799 440.45 90.4276 446.152 94.9029 450.627C99.3781 455.103 105.08 458.15 111.287 459.385C117.495 460.62 123.929 459.986 129.776 457.564C135.623 455.142 140.621 451.041 144.137 445.778C147.654 440.516 149.53 434.329 149.53 428C149.53 419.513 146.159 411.374 140.158 405.373C134.157 399.371 126.017 396 117.53 396Z" fill="#2F3F5C"/>
<path d="M112.14 448.52H120.42V427.79H126.19L126.81 420.85H120.42V416.85C120.42 415.21 120.74 414.57 122.33 414.57H126.81V407.36H121.08C114.92 407.36 112.14 410.08 112.14 415.27V420.8H107.83V427.8H112.14V448.52Z" fill="white"/>
<path d="M395.26 364.11C390.431 364.108 385.71 365.539 381.695 368.22C377.679 370.901 374.549 374.714 372.7 379.174C370.851 383.635 370.367 388.544 371.308 393.28C372.25 398.016 374.575 402.366 377.989 405.781C381.404 409.195 385.754 411.52 390.49 412.462C395.226 413.403 400.135 412.919 404.596 411.07C409.057 409.222 412.869 406.091 415.55 402.076C418.232 398.06 419.662 393.339 419.66 388.51C419.652 382.042 417.079 375.84 412.505 371.266C407.93 366.692 401.729 364.118 395.26 364.11V364.11Z" fill="#2F3F5C"/>
<path d="M395.26 376.861C399.06 376.861 399.51 376.861 401.01 376.941C401.911 376.953 402.804 377.119 403.65 377.431C404.263 377.663 404.819 378.024 405.28 378.491C405.753 378.95 406.116 379.511 406.34 380.131C406.658 380.975 406.824 381.869 406.83 382.771C406.9 384.271 406.92 384.771 406.92 388.511C406.92 392.251 406.92 392.761 406.83 394.261C406.824 395.163 406.658 396.057 406.34 396.901C406.118 397.519 405.755 398.077 405.28 398.531C404.822 399.004 404.266 399.369 403.65 399.601C402.804 399.913 401.911 400.079 401.01 400.091C399.51 400.161 399.06 400.171 395.26 400.171C391.46 400.171 391.01 400.171 389.51 400.091C388.609 400.077 387.716 399.912 386.87 399.601C386.254 399.369 385.697 399.004 385.24 398.531C384.765 398.077 384.402 397.519 384.18 396.901C383.862 396.057 383.696 395.163 383.69 394.261C383.62 392.761 383.6 392.311 383.6 388.511C383.6 384.711 383.6 384.271 383.69 382.771C383.696 381.869 383.862 380.975 384.18 380.131C384.404 379.511 384.767 378.95 385.24 378.491C385.7 378.024 386.256 377.663 386.87 377.431C387.716 377.12 388.609 376.954 389.51 376.941C391.01 376.871 391.46 376.861 395.26 376.861ZM395.26 374.301C391.4 374.301 390.91 374.301 389.4 374.381C388.24 374.397 387.091 374.606 386 375.001C385.055 375.366 384.196 375.924 383.48 376.641C382.763 377.357 382.205 378.215 381.84 379.161C381.428 380.266 381.205 381.432 381.18 382.611C381.11 384.131 381.09 384.611 381.09 388.471C381.09 392.331 381.09 392.821 381.18 394.341C381.205 395.52 381.428 396.686 381.84 397.791C382.199 398.745 382.755 399.614 383.471 400.339C384.188 401.064 385.05 401.631 386 402.001C387.104 402.414 388.271 402.637 389.45 402.661C390.96 402.731 391.45 402.741 395.31 402.741C399.17 402.741 399.66 402.741 401.17 402.661C402.349 402.637 403.515 402.414 404.62 402.001C405.565 401.636 406.424 401.078 407.14 400.361C407.857 399.645 408.415 398.786 408.78 397.841C409.191 396.736 409.414 395.57 409.44 394.391C409.51 392.871 409.53 392.391 409.53 388.521C409.53 384.651 409.53 384.181 409.44 382.661C409.414 381.482 409.191 380.316 408.78 379.211C408.415 378.265 407.857 377.407 407.14 376.691C406.424 375.974 405.565 375.416 404.62 375.051C403.515 374.637 402.349 374.414 401.17 374.391C399.66 374.321 399.17 374.311 395.31 374.311" fill="white"/>
<path d="M395.26 381.21C393.814 381.208 392.399 381.635 391.195 382.438C389.992 383.24 389.053 384.382 388.499 385.718C387.944 387.054 387.799 388.525 388.08 389.944C388.362 391.363 389.059 392.666 390.081 393.689C391.104 394.712 392.408 395.408 393.827 395.69C395.246 395.972 396.716 395.826 398.052 395.272C399.389 394.717 400.53 393.779 401.333 392.575C402.135 391.371 402.562 389.957 402.56 388.51C402.56 386.574 401.791 384.717 400.422 383.348C399.053 381.979 397.197 381.21 395.26 381.21V381.21ZM395.26 393.21C394.323 393.21 393.406 392.932 392.627 392.411C391.848 391.89 391.24 391.15 390.881 390.284C390.522 389.418 390.429 388.465 390.612 387.545C390.794 386.626 391.246 385.781 391.909 385.118C392.572 384.455 393.416 384.004 394.336 383.821C395.255 383.638 396.208 383.732 397.074 384.091C397.94 384.45 398.681 385.057 399.202 385.837C399.722 386.616 400 387.532 400 388.47C400 389.727 399.501 390.933 398.612 391.822C397.723 392.711 396.518 393.21 395.26 393.21" fill="white"/>
<path d="M404.561 380.921C404.563 381.259 404.464 381.591 404.277 381.873C404.091 382.156 403.824 382.377 403.512 382.508C403.2 382.639 402.856 382.674 402.523 382.609C402.191 382.544 401.885 382.382 401.645 382.143C401.405 381.905 401.241 381.6 401.174 381.268C401.107 380.936 401.141 380.592 401.27 380.279C401.399 379.966 401.618 379.698 401.9 379.51C402.181 379.321 402.512 379.221 402.851 379.221C403.302 379.221 403.736 379.399 404.056 379.718C404.377 380.037 404.558 380.469 404.561 380.921" fill="white"/>
<path d="M404.18 169.641C394.367 169.641 384.956 165.742 378.017 158.804C371.078 151.865 367.18 142.454 367.18 132.641V132.641C367.18 122.828 371.078 113.417 378.017 106.478C384.956 99.5388 394.367 95.6406 404.18 95.6406V95.6406C413.993 95.6406 423.404 99.5388 430.343 106.478C437.281 113.417 441.18 122.828 441.18 132.641V132.641C441.18 142.454 437.281 151.865 430.343 158.804C423.404 165.742 413.993 169.641 404.18 169.641V169.641Z" fill="#2F3F5C" stroke="#2F3F5C" stroke-linecap="round" stroke-linejoin="round"/>
<path d="M384.48 145.05C388.177 147.424 392.478 148.684 396.87 148.68C411.87 148.68 420.36 136 419.87 124.63C421.437 123.481 422.791 122.066 423.87 120.45C422.396 121.104 420.832 121.532 419.23 121.72C420.916 120.71 422.178 119.121 422.78 117.25C421.197 118.204 419.462 118.88 417.65 119.25C416.433 117.952 414.82 117.091 413.064 116.802C411.307 116.513 409.504 116.811 407.934 117.651C406.364 118.49 405.115 119.824 404.38 121.446C403.646 123.068 403.466 124.886 403.87 126.62C400.657 126.462 397.512 125.628 394.642 124.174C391.771 122.72 389.239 120.678 387.21 118.18C386.177 119.96 385.86 122.066 386.324 124.07C386.789 126.075 388 127.827 389.71 128.97C388.429 128.931 387.174 128.588 386.05 127.97C386.036 129.848 386.674 131.673 387.856 133.132C389.038 134.592 390.69 135.595 392.53 135.97C391.344 136.295 390.097 136.34 388.89 136.1C389.404 137.708 390.409 139.115 391.763 140.123C393.117 141.131 394.753 141.69 396.44 141.72C393.049 144.365 388.75 145.561 384.48 145.05V145.05Z" fill="white"/>
<path d="M114.15 200.73C110.339 200.73 106.613 201.861 103.444 203.978C100.275 206.095 97.8052 209.105 96.3467 212.626C94.8882 216.147 94.5066 220.022 95.2502 223.76C95.9937 227.498 97.829 230.931 100.524 233.626C103.219 236.321 106.652 238.157 110.391 238.9C114.129 239.644 118.003 239.262 121.524 237.804C125.045 236.345 128.055 233.875 130.172 230.706C132.29 227.537 133.42 223.812 133.42 220C133.415 214.891 131.383 209.993 127.77 206.38C124.157 202.768 119.259 200.736 114.15 200.73V200.73Z" fill="#4B6590"/>
<path d="M108.53 214.95H104.29V228.64H108.53V214.95Z" fill="white"/>
<path d="M106.39 213.161C106.891 213.164 107.382 213.019 107.801 212.744C108.22 212.468 108.547 212.075 108.742 211.613C108.936 211.151 108.989 210.641 108.894 210.149C108.798 209.657 108.559 209.205 108.206 208.849C107.853 208.493 107.402 208.25 106.911 208.151C106.42 208.051 105.91 208.1 105.446 208.291C104.983 208.482 104.587 208.806 104.308 209.223C104.029 209.639 103.88 210.129 103.88 210.631C103.879 210.961 103.942 211.289 104.068 211.596C104.193 211.902 104.378 212.18 104.611 212.415C104.844 212.65 105.121 212.837 105.426 212.965C105.732 213.093 106.059 213.159 106.39 213.161V213.161Z" fill="white"/>
<path d="M115.31 221.46C115.31 219.53 116.19 218.39 117.89 218.39C119.59 218.39 120.19 219.49 120.19 221.46V228.64H124.41V220C124.41 216.34 122.33 214.56 119.41 214.56C118.585 214.549 117.772 214.753 117.05 215.151C116.327 215.548 115.721 216.127 115.29 216.83V215H111.22V228.69H115.29L115.31 221.46Z" fill="white"/>
<path d="M428.94 337.34C426.314 337.34 423.713 336.823 421.287 335.817C418.86 334.812 416.655 333.339 414.798 331.482C412.941 329.625 411.468 327.42 410.463 324.994C409.458 322.567 408.94 319.966 408.94 317.34V317.34C408.94 312.036 411.048 306.948 414.798 303.198C418.549 299.447 423.636 297.34 428.94 297.34V297.34C434.245 297.34 439.332 299.447 443.083 303.198C446.833 306.948 448.94 312.036 448.94 317.34V317.34C448.94 319.966 448.423 322.567 447.418 324.994C446.413 327.42 444.94 329.625 443.083 331.482C441.225 333.339 439.021 334.812 436.594 335.817C434.168 336.823 431.567 337.34 428.94 337.34V337.34Z" fill="#4B6590"/>
<path d="M426 324.921C426.577 324.812 427.121 324.573 427.59 324.221C427.992 323.918 428.331 323.542 428.59 323.111C429.012 322.444 429.231 321.669 429.22 320.881C429.239 320.155 429.048 319.44 428.67 318.821C428.284 318.238 427.714 317.801 427.05 317.581C427.456 317.392 427.82 317.123 428.12 316.791C428.575 316.199 428.805 315.466 428.77 314.721C428.788 313.956 428.56 313.206 428.12 312.581C427.678 312.06 427.118 311.653 426.486 311.394C425.855 311.135 425.17 311.031 424.49 311.091H417.71V325.091H424C424.671 325.105 425.341 325.048 426 324.921V324.921ZM420.5 313.521H423.55C424.112 313.504 424.672 313.578 425.21 313.741C425.457 313.847 425.663 314.029 425.799 314.262C425.934 314.494 425.99 314.764 425.96 315.031C425.985 315.27 425.945 315.511 425.845 315.729C425.744 315.947 425.587 316.134 425.39 316.271C424.937 316.517 424.425 316.635 423.91 316.611H420.5V313.521ZM420.5 322.681V318.941H423.95C424.427 318.92 424.904 318.999 425.35 319.171C425.638 319.298 425.879 319.512 426.04 319.782C426.202 320.053 426.275 320.367 426.25 320.681C426.287 321.032 426.219 321.386 426.053 321.698C425.887 322.01 425.632 322.265 425.32 322.431C424.87 322.616 424.386 322.701 423.9 322.681H420.5Z" fill="white"/>
<path d="M431.53 324.191C432.56 325.03 433.852 325.48 435.18 325.461C435.902 325.507 436.626 325.396 437.301 325.135C437.976 324.875 438.587 324.471 439.09 323.951C439.618 323.453 439.97 322.796 440.09 322.081H437.32C437.186 322.352 436.999 322.593 436.77 322.791C436.34 323.125 435.805 323.295 435.26 323.271C434.733 323.285 434.213 323.15 433.76 322.881C433.407 322.639 433.122 322.311 432.933 321.927C432.744 321.544 432.657 321.118 432.68 320.691H440.23C440.258 320.003 440.231 319.314 440.15 318.631C440.035 317.862 439.752 317.128 439.32 316.481C438.88 315.812 438.259 315.282 437.53 314.951C436.76 314.619 435.929 314.452 435.09 314.461C434.406 314.434 433.724 314.548 433.086 314.796C432.448 315.044 431.867 315.42 431.38 315.901C430.892 316.46 430.518 317.11 430.281 317.813C430.045 318.517 429.949 319.26 430 320.001C429.914 320.77 430.007 321.549 430.272 322.276C430.538 323.003 430.968 323.659 431.53 324.191V324.191ZM433.47 317.291C433.685 317.087 433.94 316.929 434.219 316.827C434.498 316.726 434.794 316.683 435.09 316.701C435.677 316.685 436.25 316.884 436.7 317.261C436.925 317.471 437.105 317.725 437.229 318.007C437.353 318.289 437.418 318.593 437.42 318.901H432.75C432.811 318.301 433.063 317.736 433.47 317.291V317.291Z" fill="white"/>
<path d="M437.96 311.891H431.86V313.311H437.96V311.891Z" fill="white"/>
<path d="M283.33 70.6104C278.026 70.6104 272.939 68.5032 269.188 64.7525C265.437 61.0018 263.33 55.9147 263.33 50.6104C263.33 45.306 265.437 40.2189 269.188 36.4682C272.939 32.7175 278.026 30.6104 283.33 30.6104V30.6104C288.634 30.6104 293.722 32.7175 297.472 36.4682C301.223 40.2189 303.33 45.306 303.33 50.6104C303.33 55.9147 301.223 61.0018 297.472 64.7525C293.722 68.5032 288.634 70.6104 283.33 70.6104Z" fill="#4B6590"/>
<path d="M329.71 85.5898H169.66C161.64 85.5898 155.14 92.0907 155.14 100.11V440.07C155.14 448.089 161.64 454.59 169.66 454.59H329.71C337.729 454.59 344.23 448.089 344.23 440.07V100.11C344.23 92.0907 337.729 85.5898 329.71 85.5898Z" fill="#2F3F5C"/>
<path opacity="0.2" d="M171.43 85.5898C167.109 85.5898 162.966 87.3061 159.911 90.3611C156.856 93.416 155.14 97.5595 155.14 101.88V438.29C155.137 440.674 155.659 443.03 156.668 445.19C157.677 447.35 159.149 449.262 160.98 450.79L271.3 85.5898H171.43Z" fill="white"/>
<path d="M256.099 443.91C256.099 442.637 255.722 441.394 255.015 440.336C254.308 439.279 253.303 438.454 252.128 437.968C250.952 437.482 249.659 437.355 248.411 437.604C247.164 437.853 246.018 438.466 245.119 439.366C244.22 440.267 243.609 441.413 243.362 442.661C243.115 443.909 243.243 445.202 243.732 446.377C244.22 447.552 245.046 448.555 246.104 449.261C247.163 449.966 248.407 450.341 249.679 450.339C250.523 450.339 251.359 450.173 252.138 449.85C252.918 449.527 253.626 449.053 254.222 448.456C254.819 447.858 255.291 447.149 255.613 446.369C255.935 445.589 256.101 444.753 256.099 443.91V443.91Z" stroke="white" stroke-linecap="round" stroke-linejoin="round"/>
<path d="M329.71 85.5898H169.66C161.64 85.5898 155.14 92.0907 155.14 100.11V440.07C155.14 448.089 161.64 454.59 169.66 454.59H329.71C337.729 454.59 344.23 448.089 344.23 440.07V100.11C344.23 92.0907 337.729 85.5898 329.71 85.5898Z" stroke="#2F3F5C" stroke-linecap="round" stroke-linejoin="round"/>
<path d="M335.81 110.649H163.54V432.689H335.81V110.649Z" fill="#F77021" stroke="#2F3F5C" stroke-linecap="round" stroke-linejoin="round"/>
<path d="M246.969 367.51C290.594 367.51 325.959 332.145 325.959 288.52C325.959 244.895 290.594 209.53 246.969 209.53C203.345 209.53 167.979 244.895 167.979 288.52C167.979 332.145 203.345 367.51 246.969 367.51Z" fill="#2F3F5C"/>
<path d="M330.55 149.3H169.5V185.97H330.55V149.3Z" fill="white"/>
<path d="M330.55 390.07H169.5V426.74H330.55V390.07Z" fill="white"/>
<path d="M330.55 377.32H169.5V378.91H330.55V377.32Z" fill="white"/>
<path d="M330.55 384.49H169.5V386.08H330.55V384.49Z" fill="white"/>
<path d="M329.95 113.99H315.67V121.82H329.95V113.99Z" stroke="#2F3F5C" stroke-width="0.821067" stroke-linecap="round" stroke-linejoin="round"/>
<path d="M326.81 113.99H315.67V121.82H326.81V113.99Z" fill="#2F3F5C" stroke="#2F3F5C" stroke-width="0.725073" stroke-linecap="round" stroke-linejoin="round"/>
<path d="M331.93 116.18H329.92V119.63H331.93V116.18Z" fill="#2F3F5C" stroke="#2F3F5C" stroke-width="0.725073" stroke-linecap="round" stroke-linejoin="round"/>
<path d="M170.04 116.42H167.42V120.91H170.04V116.42Z" fill="#2F3F5C" stroke="#2F3F5C" stroke-width="0.883086" stroke-linecap="round" stroke-linejoin="round"/>
<path d="M174.16 114.84H171.54V120.91H174.16V114.84Z" fill="#2F3F5C" stroke="#2F3F5C" stroke-width="0.883086" stroke-linecap="round" stroke-linejoin="round"/>
<path d="M178.269 112.979H175.649V120.909H178.269V112.979Z" fill="#2F3F5C" stroke="#2F3F5C" stroke-width="0.883086" stroke-linecap="round" stroke-linejoin="round"/>
<path d="M331.739 126.17H166.319V138.61H331.739V126.17Z" fill="#2F3F5C"/>
<path d="M164 363C164 363 185.08 289.6 189.06 273.91C193.04 258.22 199.06 248.01 211.48 245.52C223.9 243.03 246.83 240.72 246.83 240.72C246.83 240.72 266.76 238.72 281.2 239.72C295.64 240.72 308.85 248.44 315.82 253.72C322.79 259 342.97 277.13 342.97 277.13L340.48 235.29L358.66 236.78C358.66 236.78 371.86 295.06 373.6 305.78C375.34 316.5 375.35 321.23 373.6 322.47C371.85 323.71 374.85 324.47 358.91 319.23C342.97 313.99 324.29 306.78 314.08 303.79C303.87 300.8 302.62 300.3 302.62 300.3C302.62 300.3 277.62 337.92 269.67 349.13C264.213 357.089 259.36 365.446 255.15 374.13" fill="white"/>
<path opacity="0.2" d="M373.57 322.391C375.32 321.151 375.32 316.391 373.57 305.701C372.57 299.311 367.42 276.001 363.46 258.221C365.03 279.221 365.64 299.741 362.46 303.571C355.46 311.851 345.23 300.971 345.23 300.971L343.28 284.831C343.28 284.831 308.42 259.121 295.34 254.761C282.26 250.401 268.34 249.531 254.81 253.891C241.28 258.251 229.97 262.611 221.69 270.891C213.41 279.171 184.69 345.411 184.69 345.411L181.44 365.081L255.12 374.001C259.33 365.317 264.184 356.96 269.64 349.001C277.64 337.791 302.59 300.171 302.59 300.171C302.59 300.171 303.84 300.671 314.05 303.661C324.26 306.651 342.94 313.871 358.88 319.101C374.82 324.331 371.83 323.641 373.57 322.391Z" fill="black"/>
<path d="M164 363C164 363 185.08 289.6 189.06 273.91C193.04 258.22 199.06 248.01 211.48 245.52C223.9 243.03 246.83 240.72 246.83 240.72C246.83 240.72 266.76 238.72 281.2 239.72C295.64 240.72 308.85 248.44 315.82 253.72C322.79 259 342.97 277.13 342.97 277.13L340.48 235.29L358.66 236.78C358.66 236.78 371.86 295.06 373.6 305.78C375.34 316.5 375.35 321.23 373.6 322.47C371.85 323.71 374.85 324.47 358.91 319.23C342.97 313.99 324.29 306.78 314.08 303.79C303.87 300.8 302.62 300.3 302.62 300.3C302.62 300.3 277.62 337.92 269.67 349.13C264.213 357.089 259.36 365.446 255.15 374.13" stroke="#2F3F5C" stroke-linecap="round" stroke-linejoin="round"/>
<path d="M309.7 288.671L302.59 300.231L323.63 288.671" stroke="#2F3F5C" stroke-linecap="round" stroke-linejoin="round"/>
<path d="M342.94 277.061C342.94 277.061 343.94 297.731 345.18 300.971C346.42 304.211 351.91 305.701 351.91 305.701" fill="white"/>
<path d="M342.94 277.061C342.94 277.061 343.94 297.731 345.18 300.971C346.42 304.211 351.91 305.701 351.91 305.701" stroke="#2F3F5C" stroke-linecap="round" stroke-linejoin="round"/>
<path d="M233.19 276.43C233.19 276.43 230.47 282.88 231.83 282.88C233.19 282.88 242.02 279.49 246.1 279.49C250.18 279.49 254.59 286.62 254.59 286.62C254.59 286.62 266.48 277.79 270.22 278.81C272.052 279.424 273.732 280.419 275.15 281.73C275.386 281.937 275.676 282.071 275.986 282.12C276.296 282.168 276.613 282.127 276.9 282.003C277.188 281.878 277.435 281.675 277.612 281.416C277.788 281.157 277.888 280.854 277.9 280.54C277.97 278.71 278.03 276.21 278.03 273.03C278.03 265.56 271.58 245.18 259.69 244.16C247.8 243.14 245.76 251.63 240.69 261.82C235.62 272.01 233.19 276.43 233.19 276.43Z" fill="#2F3F5C"/>
<path d="M258.76 232.48C258.76 232.48 247.3 234 242.07 239C236.84 244 238.58 251.95 235.84 259.17C233.1 266.39 228.37 281.09 230.84 280.84C233.31 280.59 242.05 273.62 244.54 275.36C247.03 277.1 252.76 284.36 253.76 284.82C254.76 285.28 267.46 276.11 269.2 275.11C270.94 274.11 279.41 285.11 279.66 282.11C279.91 279.11 280.41 261.44 278.66 250.73C276.91 240.02 264.49 232.73 258.76 232.48Z" fill="white" stroke="#2F3F5C" stroke-linecap="round" stroke-linejoin="round"/>
<path d="M262.74 218.53C262.74 218.53 258.51 231.48 255 236C251.49 240.52 250 241.23 248.78 251.69C247.56 262.15 253.01 285.81 254.78 285.31C256.55 284.81 273.71 257.42 279.44 252.93C285.17 248.44 291.15 243.72 291.15 243.72C291.15 243.72 277.2 239.48 272.47 233.51C268.895 228.74 265.645 223.735 262.74 218.53V218.53Z" fill="white"/>
<path opacity="0.2" d="M281.91 251C286.76 247.19 291.14 243.73 291.14 243.73C291.14 243.73 277.19 239.49 272.46 233.52C268.89 228.759 265.643 223.765 262.74 218.57C261.289 222.954 259.597 227.254 257.67 231.45C259.78 237.36 265.66 247 281.91 251Z" fill="black"/>
<path d="M272.46 233.48C268.89 228.719 265.643 223.725 262.74 218.53C262.74 218.53 261.32 222.88 259.45 227.41C261 231.9 264.11 238.58 269.68 242.52C274.184 245.525 279.18 247.718 284.44 249L291.14 243.72C291.14 243.72 277.19 239.45 272.46 233.48Z" fill="#2F3F5C"/>
<path d="M262.74 218.53C262.74 218.53 258.51 231.48 255 236C251.49 240.52 250 241.23 248.78 251.69C247.56 262.15 253.01 285.81 254.78 285.31C256.55 284.81 273.71 257.42 279.44 252.93C285.17 248.44 291.15 243.72 291.15 243.72C291.15 243.72 277.2 239.48 272.47 233.51C268.895 228.74 265.645 223.735 262.74 218.53V218.53Z" stroke="#2F3F5C" stroke-linecap="round" stroke-linejoin="round"/>
<path d="M315.79 185.41C315.79 185.41 315.05 202.1 315.54 207.57C316.03 213.04 318.03 222.57 313.54 231.48C309.05 240.39 305.32 246.18 301.09 247.67C296.86 249.16 283.16 246.18 272.2 237.96C261.24 229.74 259.25 212.81 257.5 207.33C255.75 201.85 257.75 183.17 268.96 177.19C278.036 172.518 288.567 171.536 298.35 174.45C304.34 176.44 315.79 185.41 315.79 185.41Z" fill="white"/>
<path opacity="0.2" d="M269 177.191C267.401 178.057 265.953 179.174 264.71 180.501L270.48 184.601C270.48 184.601 277.89 177.191 294.48 187.651C303.04 193.051 310.42 193.921 315.57 193.491C315.69 189.051 315.85 185.411 315.85 185.411C315.85 185.411 304.4 176.411 298.42 174.411C288.622 171.501 278.079 172.498 269 177.191V177.191Z" fill="black"/>
<path d="M315.79 185.41C315.79 185.41 315.05 202.1 315.54 207.57C316.03 213.04 318.03 222.57 313.54 231.48C309.05 240.39 305.32 246.18 301.09 247.67C296.86 249.16 283.16 246.18 272.2 237.96C261.24 229.74 259.25 212.81 257.5 207.33C255.75 201.85 257.75 183.17 268.96 177.19C278.036 172.518 288.567 171.536 298.35 174.45C304.34 176.44 315.79 185.41 315.79 185.41Z" stroke="#2F3F5C" stroke-linecap="round" stroke-linejoin="round"/>
<path d="M292.27 207.92C292.27 209.69 291.58 211.13 290.73 211.13C289.88 211.13 289.19 209.69 289.19 207.92C289.19 206.15 289.88 204.7 290.73 204.7C291.58 204.7 292.27 206.14 292.27 207.92Z" fill="#2F3F5C"/>
<path d="M310.46 209.591C310.46 211.371 309.77 212.811 308.92 212.811C308.07 212.811 307.38 211.371 307.38 209.591C307.38 207.811 308.07 206.381 308.92 206.381C309.77 206.381 310.46 207.821 310.46 209.591Z" fill="#2F3F5C"/>
<path d="M305.58 204.841C305.58 204.841 300.85 209.571 302.09 211.561C303.33 213.551 306.23 214.671 305.33 217.561C304.43 220.451 297.86 221.561 295.62 217.561" stroke="#2F3F5C" stroke-linecap="round" stroke-linejoin="round"/>
<path d="M281.42 220.28C283.277 222.534 285.593 224.366 288.214 225.654C290.835 226.942 293.701 227.657 296.62 227.75C296.62 227.75 286.4 234.47 281.92 233.75C277.44 233.03 281.42 220.28 281.42 220.28Z" fill="#2F3F5C" stroke="#2F3F5C" stroke-linecap="round" stroke-linejoin="round"/>
<path d="M283.81 198.421C283.81 198.421 288.15 192.421 296.81 196.151" stroke="#2F3F5C" stroke-linecap="round" stroke-linejoin="round"/>
<path d="M307.32 198.611C307.32 198.611 312.8 197.351 314.79 202.611" stroke="#2F3F5C" stroke-linecap="round" stroke-linejoin="round"/>
<path d="M259.26 214.051C259.26 214.051 261.5 204.341 266.98 200.851C272.46 197.361 277.69 198.111 274.45 193.381C271.21 188.651 269.45 183.911 276.45 181.671C283.45 179.431 297.12 183.171 305.09 186.161C313.06 189.151 328.5 190.161 332.49 178.931C334.95 172.011 327.75 166.501 322.49 163.671C316.66 160.551 310.12 159.001 303.54 160.161C299.54 160.851 295.73 162.421 291.73 162.821C284.96 163.511 278.99 160.371 272.24 162.001C266.575 163.353 261.503 166.512 257.79 171.001C251.54 178.681 249.79 192.631 259.26 214.051Z" fill="#2F3F5C"/>
<path d="M316.93 159.69C316.93 159.69 329.87 166.69 320.81 178.32C311.75 189.95 303.22 181.95 281.73 177.81C260.24 173.67 247.57 184.28 247.57 184.28" stroke="#808080" stroke-linecap="round" stroke-linejoin="round"/>
<path d="M249.38 197.001C249.38 197.001 253.52 189.001 266.98 186.651C280.44 184.301 281.22 186.391 281.22 186.391" stroke="#808080" stroke-linecap="round" stroke-linejoin="round"/>
<path d="M259.26 214.051C259.26 214.051 261.5 204.341 266.98 200.851C272.46 197.361 277.69 198.111 274.45 193.381C271.21 188.651 269.45 183.911 276.45 181.671C283.45 179.431 297.12 183.171 305.09 186.161C313.06 189.151 328.5 190.161 332.49 178.931C334.95 172.011 327.75 166.501 322.49 163.671C316.66 160.551 310.12 159.001 303.54 160.161C299.54 160.851 295.73 162.421 291.73 162.821C284.96 163.511 278.99 160.371 272.24 162.001C266.575 163.353 261.503 166.512 257.79 171.001C251.54 178.681 249.79 192.631 259.26 214.051Z" stroke="#2F3F5C" stroke-linecap="round" stroke-linejoin="round"/>
<path d="M264.89 210.511C264.89 210.511 258.43 195.721 252.74 203.421C247.05 211.121 257.36 220.861 265.1 218.971" fill="white"/>
<path d="M264.89 210.511C264.89 210.511 258.43 195.721 252.74 203.421C247.05 211.121 257.36 220.861 265.1 218.971" stroke="#2F3F5C" stroke-linecap="round" stroke-linejoin="round"/>
<path d="M335.22 208.821C335.22 208.821 330.99 208.321 330.22 211.821C329.45 215.321 328.72 220.821 330.22 220.821C331.72 220.821 334.45 220.081 335.45 217.821C336.45 215.561 337.45 208.601 337.45 208.601L335.22 208.821Z" fill="white" stroke="#2F3F5C" stroke-linecap="round" stroke-linejoin="round"/>
<path d="M341.94 207.57C341.94 207.57 335.94 206.57 335.22 208.82C334.5 211.07 333.48 218.82 334.22 219.03C334.96 219.24 339.45 217.29 339.45 217.29L341.94 207.57Z" fill="white" stroke="#2F3F5C" stroke-linecap="round" stroke-linejoin="round"/>
<path d="M349.91 208.07C349.91 208.07 342.91 203.59 341.2 205.83C339.49 208.07 339.45 217.29 339.45 217.29C340.069 217.427 340.713 217.407 341.322 217.233C341.931 217.058 342.488 216.734 342.94 216.29C344.19 214.8 345.68 212.81 345.68 212.81C345.68 212.81 350.68 214.05 351.41 213.81C352.14 213.57 353.9 213.81 353.41 211.32C352.92 208.83 349.91 208.07 349.91 208.07Z" fill="white" stroke="#2F3F5C" stroke-linecap="round" stroke-linejoin="round"/>
<path d="M359.38 212.561C356.237 210.388 353.672 207.481 351.91 204.091C349.42 198.861 348.17 199.091 346.91 201.351C345.65 203.611 347.15 205.831 348.15 207.821C349.15 209.811 353.38 214.551 353.38 214.551L359.38 212.561Z" fill="white" stroke="#2F3F5C" stroke-linecap="round" stroke-linejoin="round"/>
<path d="M314.58 247.4C314.58 247.4 310.97 278.23 311.53 279.9C312.09 281.57 318.19 283.51 319.58 282.4C320.97 281.29 320.14 279.07 319.58 277.68C319.02 276.29 324.3 250.46 324.3 250.46L314.58 247.4Z" fill="#F77021" stroke="#2F3F5C" stroke-linecap="round" stroke-linejoin="round"/>
<path d="M223.63 258.08L241.91 315.171C241.91 315.171 283.91 290.711 293.75 277.951C303.59 265.191 309.27 250.8 312.75 249.45C316.23 248.1 328.51 251.45 330.31 253.45C332.11 255.45 331.69 257.641 329.51 259.701C327.33 261.761 326.09 262.05 326.09 262.05C326.09 262.05 325.98 266.541 325 267.321C324.02 268.101 324.25 267.09 324 268.09C323.83 269.16 323.438 270.182 322.85 271.09C322.13 272.09 321.85 272.611 321.16 272.881C319.727 273.49 318.236 273.953 316.71 274.261C314.022 274.954 311.289 275.455 308.53 275.761C306.8 276.061 295.53 298.331 284.95 311.601C274.37 324.871 240.95 355.3 235.7 355.46C230.45 355.62 199.61 304.681 193 292.171" fill="white"/>
<path opacity="0.2" d="M322.85 271.07C323.439 270.161 323.83 269.139 324 268.07C324.22 267.07 324 268.07 325 267.3C326 266.53 326.09 262.03 326.09 262.03C326.09 262.03 327.33 261.74 329.51 259.68C331.69 257.62 332.12 255.37 330.31 253.43C328.5 251.49 316.2 248.13 312.75 249.43C311.85 249.78 310.75 251.03 309.55 252.91C311.38 255.91 313.55 257.74 311.55 262.98C308.55 270.98 301.55 280.98 295.55 289.48C289.55 297.98 239.55 344.98 233.55 343.98C228.65 343.16 214.42 325.98 209.36 319.75C220.2 337.14 232.6 355.51 235.75 355.42C240.98 355.26 274.44 324.84 285 311.56C295.56 298.28 306.8 276 308.53 275.74C311.289 275.434 314.023 274.933 316.71 274.24C318.237 273.932 319.728 273.47 321.16 272.86C321.9 272.59 322.13 272.09 322.85 271.07Z" fill="black"/>
<path d="M223.63 258.08L241.91 315.171C241.91 315.171 283.91 290.711 293.75 277.951C303.59 265.191 309.27 250.8 312.75 249.45C316.23 248.1 328.51 251.45 330.31 253.45C332.11 255.45 331.69 257.641 329.51 259.701C327.33 261.761 326.09 262.05 326.09 262.05C326.09 262.05 325.98 266.541 325 267.321C324.02 268.101 324.25 267.09 324 268.09C323.83 269.16 323.438 270.182 322.85 271.09C322.13 272.09 321.85 272.611 321.16 272.881C319.727 273.49 318.236 273.953 316.71 274.261C314.022 274.954 311.289 275.455 308.53 275.761C306.8 276.061 295.53 298.331 284.95 311.601C274.37 324.871 240.95 355.3 235.7 355.46C230.45 355.62 199.61 304.681 193 292.171" stroke="#2F3F5C" stroke-linecap="round" stroke-linejoin="round"/>
<path d="M241.91 315.171C241.91 315.171 237.12 315.371 233.06 328.171" stroke="#2F3F5C" stroke-linecap="round" stroke-linejoin="round"/>
<path d="M316.71 274.24C318.236 273.932 319.727 273.47 321.16 272.86C321.9 272.59 322.16 272.09 322.85 271.07C323.438 270.161 323.83 269.139 324 268.07C324.22 267.07 324.87 266.73 325.84 265.95C326.81 265.17 326.06 262.03 326.06 262.03C326.06 262.03 327.3 261.74 329.48 259.68C331.66 257.62 332.09 255.37 330.28 253.43C328.47 251.49 316.17 248.13 312.72 249.43C309.27 250.73 304.05 264 295 276.33L303.42 283.23C306.06 278.83 307.94 275.85 308.56 275.74C311.309 275.433 314.032 274.932 316.71 274.24Z" fill="white"/>
<path opacity="0.2" d="M322.85 271.07C323.439 270.161 323.83 269.139 324 268.07C324.22 267.07 324 268.07 325 267.3C326 266.53 326.09 262.03 326.09 262.03C326.09 262.03 327.33 261.74 329.51 259.68C331.69 257.62 332.12 255.37 330.31 253.43C328.5 251.49 316.2 248.13 312.75 249.43C311.85 249.78 310.75 251.03 309.55 252.91C311.38 255.91 313.55 257.74 311.55 262.98C308.55 270.98 301.55 280.98 295.55 289.48C289.55 297.98 239.55 344.98 233.55 343.98C228.65 343.16 214.42 325.98 209.36 319.75C220.2 337.14 232.6 355.51 235.75 355.42C240.98 355.26 274.44 324.84 285 311.56C295.56 298.28 306.8 276 308.53 275.74C311.289 275.434 314.023 274.933 316.71 274.24C318.237 273.932 319.728 273.47 321.16 272.86C321.9 272.59 322.13 272.09 322.85 271.07Z" fill="black"/>
<path d="M316.71 274.24C318.236 273.932 319.727 273.47 321.16 272.86C321.9 272.59 322.16 272.09 322.85 271.07C323.438 270.161 323.83 269.139 324 268.07C324.22 267.07 324.87 266.73 325.84 265.95C326.81 265.17 326.06 262.03 326.06 262.03C326.06 262.03 327.3 261.74 329.48 259.68C331.66 257.62 332.09 255.37 330.28 253.43C328.47 251.49 316.17 248.13 312.72 249.43C309.27 250.73 304.05 264 295 276.33L303.42 283.23C306.06 278.83 307.94 275.85 308.56 275.74C311.309 275.433 314.032 274.932 316.71 274.24Z" stroke="#2F3F5C" stroke-linecap="round" stroke-linejoin="round"/>
<path d="M305.83 227.25C303.08 227.25 300.83 231.25 300.83 236.09C300.83 240.93 303.06 244.93 305.83 244.93L366.83 263.36V208.07L305.83 227.25Z" fill="#F77021" stroke="#2F3F5C" stroke-linecap="round" stroke-linejoin="round"/>
<path d="M340.15 219.891L316.35 226.741" stroke="#2F3F5C" stroke-linecap="round" stroke-linejoin="round"/>
<path d="M348.11 217.601L343.13 219.041" stroke="#2F3F5C" stroke-linecap="round" stroke-linejoin="round"/>
<path d="M313.64 224.79L305.83 227.25C303.08 227.25 300.83 231.25 300.83 236.09C300.83 240.93 303.06 244.93 305.83 244.93L312.88 247.06C311.223 243.556 310.427 239.707 310.559 235.833C310.692 231.959 311.748 228.173 313.64 224.79Z" fill="#2F3F5C" stroke="#2F3F5C" stroke-linecap="round" stroke-linejoin="round"/>
<path d="M372.08 273.22C383.634 273.22 393 256.596 393 236.09C393 215.584 383.634 198.96 372.08 198.96C360.526 198.96 351.16 215.584 351.16 236.09C351.16 256.596 360.526 273.22 372.08 273.22Z" fill="#D6D6D6" stroke="#2F3F5C" stroke-linecap="round" stroke-linejoin="round"/>
<path d="M372.08 227.851L352.15 222.521L350.41 236.721L352.65 251.161L372.08 244.331L372.83 228.251" fill="#D6D6D6"/>
<path d="M372.08 227.851L352.15 222.521L350.41 236.721L352.65 251.161L372.08 244.331L372.83 228.251" stroke="#2F3F5C" stroke-linecap="round" stroke-linejoin="round"/>
<path d="M372.08 195.62C359.49 195.62 349.28 213.74 349.28 236.09C349.28 258.44 359.49 276.56 372.08 276.56C384.67 276.56 394.88 258.44 394.88 236.09C394.88 213.74 384.67 195.62 372.08 195.62ZM372.64 270.82C362.15 270.82 353.64 255.27 353.64 236.09C353.64 216.91 362.15 201.37 372.64 201.37C383.13 201.37 391.64 216.91 391.64 236.09C391.64 255.27 383.14 270.82 372.64 270.82Z" fill="#2F3F5C" stroke="#2F3F5C" stroke-linecap="round" stroke-linejoin="round"/>
<path d="M372.08 244.331C374.643 244.331 376.72 240.641 376.72 236.091C376.72 231.54 374.643 227.851 372.08 227.851C369.518 227.851 367.44 231.54 367.44 236.091C367.44 240.641 369.518 244.331 372.08 244.331Z" fill="#F77021" stroke="#2F3F5C" stroke-linecap="round" stroke-linejoin="round"/>
<path d="M430.88 194.111L435.51 192.671" stroke="#2F3F5C" stroke-linecap="round" stroke-linejoin="round"/>
<path d="M397.73 204.37L425.17 195.87" stroke="#2F3F5C" stroke-linecap="round" stroke-linejoin="round"/>
<path d="M401.33 234.051L426.51 234.951" stroke="#2F3F5C" stroke-linecap="round" stroke-linejoin="round"/>
<path d="M422.19 271.04L427.41 272.72" stroke="#2F3F5C" stroke-linecap="round" stroke-linejoin="round"/>
<path d="M399.53 263.73L418.05 269.71" stroke="#2F3F5C" stroke-linecap="round" stroke-linejoin="round"/>
<path d="M400.43 217.861L413.92 216.061" stroke="#2F3F5C" stroke-linecap="round" stroke-linejoin="round"/>
<path d="M394.13 273.62L404.03 281.72" stroke="#2F3F5C" stroke-linecap="round" stroke-linejoin="round"/>
</svg>
