<svg width="500" height="500" viewBox="0 0 500 500" fill="none" xmlns="http://www.w3.org/2000/svg">
<path d="M74.5199 124C86.1499 106.64 103.44 93.4903 124.89 91.7703C146 90.0003 166.48 100.87 181.41 115C225.81 157 230.6 239.23 293.41 262.1C319.64 271.65 346.52 259.24 372.18 253.92C392.18 249.78 412.86 256.63 416.8 279.04C421.19 304.04 404.1 330.4 390.21 349.64C375.04 370.64 351.54 385.18 326.6 391.46C274.21 404.66 216.91 386 171.6 359.75C157.619 351.71 144.368 342.461 132 332.11C83.3399 291.11 48.9999 228.83 58.9999 163.7C61.2636 149.506 66.5568 135.966 74.5199 124V124Z" fill="#C1EEE6"/>
<path d="M250 427.56C357.083 427.56 443.89 422.492 443.89 416.24C443.89 409.988 357.083 404.92 250 404.92C142.918 404.92 56.1104 409.988 56.1104 416.24C56.1104 422.492 142.918 427.56 250 427.56Z" fill="#C1EEE6"/>
<path d="M444 92.6095V293.86C443.946 296.243 442.984 298.515 441.312 300.214C439.639 301.912 437.382 302.908 435 303H145.39C140.58 303 137 298.68 137 293.86V92.6095C136.966 91.4883 137.159 90.3718 137.566 89.3265C137.973 88.2811 138.586 87.3284 139.369 86.525C140.152 85.7216 141.088 85.084 142.122 84.6502C143.157 84.2163 144.268 83.995 145.39 83.9995H435C437.327 83.9747 439.572 84.8617 441.254 86.4708C442.936 88.0798 443.922 90.2832 444 92.6095Z" fill="#F77021"/>
<path opacity="0.1" d="M444 117.689V293.859C443.946 296.242 442.984 298.515 441.312 300.214C439.639 301.912 437.382 302.908 435 302.999H145.39C140.58 302.999 137 298.679 137 293.859V225.289C162.48 176.289 223.22 168.349 294.33 196.999C395 237.559 437.93 182.509 444 117.689Z" fill="white"/>
<path opacity="0.2" d="M364.92 280H218C216.674 280 215.402 279.473 214.464 278.536C213.527 277.598 213 276.326 213 275V275C213 273.674 213.527 272.402 214.464 271.464C215.402 270.527 216.674 270 218 270H364.92C366.246 270 367.518 270.527 368.456 271.464C369.393 272.402 369.92 273.674 369.92 275V275C369.92 276.326 369.393 277.598 368.456 278.536C367.518 279.473 366.246 280 364.92 280V280Z" fill="black"/>
<path d="M218 279C216.939 279 215.922 278.579 215.172 277.828C214.421 277.078 214 276.061 214 275C214 273.939 214.421 272.922 215.172 272.172C215.922 271.421 216.939 271 218 271H304.84C305.901 271 306.918 271.421 307.668 272.172C308.419 272.922 308.84 273.939 308.84 275C308.84 276.061 308.419 277.078 307.668 277.828C306.918 278.579 305.901 279 304.84 279H218Z" fill="#F77021"/>
<path opacity="0.7" d="M218 279C216.939 279 215.922 278.579 215.172 277.828C214.421 277.078 214 276.061 214 275C214 273.939 214.421 272.922 215.172 272.172C215.922 271.421 216.939 271 218 271H304.84C305.901 271 306.918 271.421 307.668 272.172C308.419 272.922 308.84 273.939 308.84 275C308.84 276.061 308.419 277.078 307.668 277.828C306.918 278.579 305.901 279 304.84 279H218Z" fill="white"/>
<path d="M159.93 287.26C169.25 294.75 166 330.5 167.75 336C169.5 341.5 177 346 177 346L166.54 358.25C166.54 358.25 157.79 356.73 151.14 342.48C144.49 328.23 159.93 287.26 159.93 287.26Z" fill="#2F3F5C"/>
<path opacity="0.2" d="M159.93 287.26C169.25 294.75 166 330.5 167.75 336C169.5 341.5 177 346 177 346L166.54 358.25C166.54 358.25 157.79 356.73 151.14 342.48C144.49 328.23 159.93 287.26 159.93 287.26Z" fill="black"/>
<path d="M150 365.751C150 365.751 217 347.061 225.38 370.571C233.76 394.081 173 412.811 139.37 414.001C105.74 415.191 91.9997 391.511 101.92 369.081L150 365.751Z" fill="#F77021"/>
<path opacity="0.2" d="M150 365.751C150 365.751 217 347.061 225.38 370.571C233.76 394.081 173 412.811 139.37 414.001C105.74 415.191 91.9997 391.511 101.92 369.081L150 365.751Z" fill="black"/>
<path d="M215.669 403.8C215.632 403.824 215.589 403.837 215.544 403.837C215.5 403.837 215.457 403.824 215.419 403.8C215.386 403.777 215.362 403.744 215.351 403.706C215.34 403.667 215.343 403.626 215.359 403.59C215.469 403.22 216.589 399.98 217.709 399.64C217.83 399.614 217.956 399.618 218.075 399.653C218.194 399.688 218.302 399.752 218.389 399.84C218.545 399.971 218.663 400.141 218.732 400.332C218.8 400.524 218.817 400.73 218.779 400.93C218.598 401.534 218.231 402.066 217.729 402.45C217.087 402.964 216.397 403.416 215.669 403.8ZM215.959 403.17C217.008 402.712 217.856 401.892 218.349 400.86C218.379 400.723 218.368 400.58 218.318 400.449C218.269 400.317 218.182 400.203 218.069 400.12C218.04 400.081 217.998 400.053 217.951 400.04C217.904 400.028 217.854 400.031 217.809 400.05C217.712 400.077 217.622 400.129 217.549 400.2C216.855 401.086 216.329 402.093 215.999 403.17H215.959Z" fill="#F77021"/>
<path d="M215.61 403.84C215.573 403.852 215.533 403.852 215.496 403.841C215.459 403.831 215.425 403.81 215.4 403.78C215.29 403.69 213.74 401.72 214 400.4C214.03 400.237 214.092 400.081 214.183 399.942C214.274 399.803 214.392 399.683 214.53 399.59C214.648 399.476 214.802 399.406 214.966 399.391C215.13 399.377 215.293 399.419 215.43 399.51C216.24 400.08 216.14 402.7 215.74 403.7V403.8L215.61 403.84ZM214.72 399.99C214.583 400.113 214.492 400.279 214.46 400.46C214.29 401.3 215.07 402.56 215.46 403.16C215.71 402.04 215.63 400.16 215.15 399.87C215.1 399.87 215 399.76 214.76 399.93L214.68 399.99H214.72Z" fill="#F77021"/>
<path d="M147.4 415.69C147.412 415.648 147.435 415.61 147.466 415.58C147.498 415.55 147.537 415.529 147.58 415.52C147.619 415.515 147.659 415.523 147.694 415.543C147.728 415.563 147.755 415.593 147.77 415.63C147.97 415.97 149.5 419.03 148.95 420.07C148.889 420.177 148.799 420.265 148.692 420.324C148.585 420.384 148.463 420.414 148.34 420.41C148.139 420.434 147.935 420.403 147.75 420.32C147.565 420.237 147.406 420.106 147.29 419.94C146.984 419.386 146.862 418.749 146.94 418.12C147.014 417.297 147.168 416.483 147.4 415.69V415.69ZM147.64 416.33C147.245 417.405 147.245 418.585 147.64 419.66C147.718 419.778 147.829 419.87 147.958 419.927C148.088 419.984 148.231 420.002 148.37 419.98C148.419 419.983 148.469 419.971 148.511 419.947C148.554 419.922 148.588 419.885 148.61 419.84C148.648 419.747 148.671 419.65 148.68 419.55C148.529 418.423 148.177 417.332 147.64 416.33V416.33Z" fill="#F77021"/>
<path d="M163.63 393.07L151.78 401.76L146.09 405.93L149.8 412.42L155.58 409.26L169.69 401.54L163.63 393.07Z" fill="#EBB376"/>
<path d="M151.64 412.22L148.06 404.33C148.012 404.226 147.945 404.133 147.861 404.056C147.777 403.979 147.679 403.92 147.571 403.881C147.464 403.843 147.35 403.827 147.237 403.833C147.123 403.84 147.012 403.869 146.91 403.92L143.05 405.81C143.05 405.81 137.68 407.98 137.05 409.72C135.05 414.82 142.54 432.47 144.87 432.48C145.72 432.48 146.23 431.16 146.35 430.32C146.72 427.64 146.79 420.92 147.13 418.69C147.53 416.09 150.13 414.09 151.38 413.29C151.541 413.17 151.656 412.997 151.703 412.802C151.751 412.606 151.728 412.401 151.64 412.22Z" fill="#2F3F5C"/>
<path d="M147.409 415.62C147.428 415.586 147.455 415.557 147.489 415.538C147.522 415.519 147.561 415.509 147.599 415.51C147.739 415.51 150.229 415.76 150.999 416.87C151.188 417.148 151.26 417.489 151.199 417.82C151.199 417.984 151.141 418.143 151.038 418.27C150.934 418.398 150.79 418.486 150.629 418.52C149.629 418.7 147.849 416.8 147.419 415.82V415.73C147.406 415.695 147.403 415.657 147.409 415.62V415.62ZM150.779 417.68C150.791 417.494 150.738 417.31 150.629 417.16C150.149 416.46 148.699 416.16 147.979 416.01C148.599 417.01 149.979 418.21 150.539 418.1C150.599 418.1 150.719 418.1 150.769 417.78V417.68H150.779Z" fill="#F77021"/>
<path opacity="0.2" d="M163.63 393.07L151.78 401.76L155.58 409.26L169.69 401.54L163.63 393.07Z" fill="black"/>
<path d="M158.28 409.751L162.18 408.881L155.71 396.521L152.09 400.211L158.28 409.751Z" fill="#F77021"/>
<path opacity="0.6" d="M158.28 409.751L162.18 408.881L155.71 396.521L152.09 400.211L158.28 409.751Z" fill="white"/>
<path d="M188.149 408.03L202.649 410.42L209.619 411.57L211.649 404.37L205.349 402.46L189.969 397.78L188.149 408.03Z" fill="#EBB376"/>
<path d="M210.229 403.2L207.089 411.27C207.049 411.377 207.031 411.491 207.035 411.605C207.039 411.72 207.065 411.832 207.112 411.936C207.16 412.04 207.227 412.134 207.311 412.212C207.394 412.29 207.492 412.35 207.599 412.39L211.649 413.82C211.649 413.82 216.959 416.14 218.649 415.4C223.649 413.24 231.069 395.56 229.439 393.89C228.839 393.28 227.549 393.84 226.859 394.35C224.689 395.95 219.859 400.61 218.009 401.92C215.869 403.46 212.599 402.98 211.179 402.67C210.984 402.632 210.781 402.664 210.607 402.761C210.433 402.858 210.299 403.014 210.229 403.2V403.2Z" fill="#2F3F5C"/>
<path opacity="0.2" d="M188.149 408.03L202.649 410.42L205.349 402.46L189.969 397.78L188.149 408.03Z" fill="black"/>
<path d="M202.85 401C202.85 401 142.57 365.44 122.17 366.39C101.77 367.34 100 387.6 108.41 398.85C116.82 410.1 132.41 412.85 132.41 412.85C132.41 412.85 121.83 397.85 123.36 393.69C124.89 389.53 130.72 403.63 130.72 403.63C130.72 403.63 168.07 408.52 200.61 411.28L202.85 401Z" fill="#F77021"/>
<path d="M203.81 400.04L200.46 397.79L196.16 411H201.32L203.81 400.04Z" fill="#F77021"/>
<path opacity="0.6" d="M203.81 400.04L200.46 397.79L196.16 411H201.32L203.81 400.04Z" fill="white"/>
<path d="M157.89 372C146.98 351 150.45 319.05 159.89 287.26C153.29 281.75 126.96 278.03 106.89 283.87C106.89 283.87 94.1501 331.08 95.6501 382.65L157.89 372Z" fill="#2F3F5C"/>
<path d="M134.73 292.42C125.96 292.42 120.25 283.22 120.25 283.22C131.75 279.22 131.79 267.05 131.79 267.05L136.22 271.38L142.53 277.56C137.28 281.28 139.76 284.5 141.43 285.93C141.771 286.235 142.14 286.51 142.53 286.75C142.53 286.75 143.5 292.42 134.73 292.42Z" fill="#EBB376"/>
<path opacity="0.2" d="M141.43 285.93C130.67 287.14 131.43 271.03 131.43 271.03C133.043 271.004 134.656 271.121 136.25 271.38L142.56 277.56C137.28 281.28 139.76 284.5 141.43 285.93Z" fill="black"/>
<path d="M149.83 255C145.76 256.68 146.54 261.13 153.3 269.24C157.46 265.65 159.72 257.49 157.53 254.87C155.34 252.25 153.39 253.51 149.83 255Z" fill="#2F3F5C"/>
<path d="M155.85 273.001C155.481 274.086 155.047 275.148 154.55 276.181C150.55 284.371 138.97 285.961 133.85 277.861L133.79 277.781C130.41 272.331 131.68 267.241 133.09 258.421C133.404 256.376 134.233 254.445 135.498 252.809C136.764 251.173 138.425 249.886 140.324 249.068C142.224 248.25 144.301 247.928 146.359 248.133C148.417 248.339 150.389 249.064 152.09 250.241C158.83 254.931 158.43 265.471 155.85 273.001Z" fill="#EBB376"/>
<path d="M145.54 263.75C145.38 264.46 145.63 265.12 146.09 265.22C146.55 265.32 147.09 264.84 147.21 264.13C147.33 263.42 147.12 262.77 146.67 262.66C146.22 262.55 145.74 263.06 145.54 263.75Z" fill="#2F3F5C"/>
<path d="M153.58 265.57C153.42 266.27 153.67 266.93 154.14 267.03C154.61 267.13 155.14 266.66 155.27 265.94C155.4 265.22 155.17 264.57 154.71 264.47C154.25 264.37 153.74 264.86 153.58 265.57Z" fill="#2F3F5C"/>
<path d="M150.88 265.311C151.229 267.665 151.902 269.96 152.88 272.131C151.34 273.011 149.35 272.001 149.35 272.001L150.88 265.311Z" fill="#D58745"/>
<path d="M143.91 260.72C143.815 260.714 143.725 260.671 143.66 260.6C143.62 260.561 143.589 260.514 143.567 260.463C143.545 260.411 143.534 260.356 143.534 260.3C143.534 260.244 143.545 260.189 143.567 260.137C143.589 260.086 143.62 260.039 143.66 260C144.161 259.542 144.766 259.211 145.422 259.037C146.079 258.863 146.768 258.85 147.43 259C147.535 259.028 147.624 259.097 147.678 259.19C147.733 259.284 147.748 259.395 147.72 259.5V259.5C147.684 259.606 147.609 259.694 147.511 259.747C147.413 259.801 147.299 259.816 147.19 259.79V259.79C146.664 259.67 146.116 259.679 145.593 259.817C145.071 259.954 144.59 260.216 144.19 260.58C144.117 260.66 144.018 260.709 143.91 260.72V260.72Z" fill="#2F3F5C"/>
<path d="M157.85 263.68C157.772 263.659 157.701 263.617 157.644 263.559C157.588 263.501 157.548 263.429 157.53 263.35C157.421 262.827 157.191 262.337 156.857 261.92C156.524 261.503 156.096 261.171 155.61 260.95C155.504 260.91 155.418 260.83 155.369 260.727C155.321 260.625 155.314 260.508 155.35 260.4C155.388 260.295 155.466 260.209 155.567 260.161C155.668 260.112 155.784 260.105 155.89 260.14C156.509 260.408 157.056 260.82 157.484 261.342C157.912 261.864 158.209 262.48 158.35 263.14C158.363 263.194 158.366 263.25 158.357 263.305C158.349 263.36 158.33 263.413 158.301 263.46C158.272 263.507 158.234 263.549 158.189 263.581C158.145 263.614 158.094 263.637 158.04 263.65H157.85V263.68Z" fill="#2F3F5C"/>
<path d="M138.28 251.521C142.03 253.831 140.55 258.101 132.59 265.021C129.04 260.821 128.11 252.391 130.7 250.171C133.29 247.951 135 249.511 138.28 251.521Z" fill="#2F3F5C"/>
<path d="M127.38 264.48C127.444 265.592 127.727 266.68 128.213 267.682C128.698 268.684 129.377 269.581 130.21 270.32C132.45 272.32 134.84 270.58 135.29 267.8C135.7 265.29 135.01 261.25 132.29 260.37C129.57 259.49 127.23 261.73 127.38 264.48Z" fill="#EBB376"/>
<path d="M142.53 272.09C142.53 272.09 143.45 275.27 147.71 276.01" stroke="#2F3F5C" stroke-width="0.557248" stroke-linecap="round" stroke-linejoin="round"/>
<path d="M150.189 265.37C150.189 265.963 150.013 266.543 149.684 267.037C149.354 267.53 148.886 267.915 148.337 268.142C147.789 268.369 147.186 268.428 146.604 268.312C146.022 268.197 145.488 267.911 145.068 267.491C144.649 267.072 144.363 266.537 144.247 265.955C144.131 265.373 144.191 264.77 144.418 264.222C144.645 263.674 145.029 263.205 145.523 262.876C146.016 262.546 146.596 262.37 147.189 262.37C147.985 262.37 148.748 262.686 149.311 263.249C149.873 263.811 150.189 264.574 150.189 265.37Z" stroke="#2F3F5C" stroke-width="0.557248" stroke-linecap="round" stroke-linejoin="round"/>
<path d="M158.36 267.05C158.36 267.643 158.184 268.223 157.855 268.717C157.525 269.21 157.057 269.594 156.508 269.821C155.96 270.049 155.357 270.108 154.775 269.992C154.193 269.876 153.659 269.591 153.239 269.171C152.819 268.752 152.534 268.217 152.418 267.635C152.302 267.053 152.362 266.45 152.589 265.902C152.816 265.354 153.2 264.885 153.694 264.555C154.187 264.226 154.767 264.05 155.36 264.05C156.156 264.05 156.919 264.366 157.482 264.928C158.044 265.491 158.36 266.254 158.36 267.05Z" stroke="#2F3F5C" stroke-width="0.557248" stroke-linecap="round" stroke-linejoin="round"/>
<path d="M150.189 266.19C150.547 265.999 150.963 265.951 151.355 266.055C151.746 266.158 152.084 266.407 152.299 266.75" stroke="#2F3F5C" stroke-width="0.557248" stroke-linecap="round" stroke-linejoin="round"/>
<path d="M144.19 264.75C144.19 264.75 135.5 261.09 133.88 260.75" stroke="#2F3F5C" stroke-width="0.557248" stroke-linecap="round" stroke-linejoin="round"/>
<path d="M130.61 250.29C130.61 250.29 129.71 243.23 136.92 242.06C144.13 240.89 153.56 242.7 156.48 241.45C156.366 242.076 156.123 242.671 155.767 243.198C155.41 243.724 154.948 244.171 154.41 244.51C154.41 244.51 159.91 246.51 164.24 244.79C164.24 244.79 162.36 250 159.93 252H162C162 252 157.9 255.92 152.91 256C147.92 256.08 143.22 249.21 138.28 251.52C133.34 253.83 130.61 250.29 130.61 250.29Z" fill="#2F3F5C"/>
<path opacity="0.4" d="M155.849 273C155.481 274.086 155.046 275.148 154.549 276.18C150.549 284.37 138.969 285.96 133.849 277.86L133.789 277.78C131.149 273.09 133.259 267.97 133.259 267.97L134.799 262.97L135.919 261.86C135.919 261.86 136.179 266.93 136.969 268.36C137.759 269.79 142.259 270.21 143.179 270.46C144.099 270.71 146.279 273.31 147.359 274.01C148.439 274.71 152.359 274.13 152.869 274.71C153.379 275.29 155.849 273 155.849 273Z" fill="black"/>
<path opacity="0.2" d="M110.89 353.5L131.63 376.5C131.63 376.5 154.55 375.99 182.39 389.6C182.39 389.6 212.26 377.26 215.01 367.01C217.76 356.76 152.3 364.01 152.3 364.01L110.89 353.5Z" fill="black"/>
<path d="M116.75 346.75L150 357.63C150 357.63 161.88 355 164 355C166.12 355 174.33 361.67 169.69 364C165.05 366.33 152.38 366.63 151 365.88C149.62 365.13 112.75 356.5 112.75 356.5L116.75 346.75Z" fill="#EBB376"/>
<path d="M106.89 283.87C114.41 282.41 101.36 328.25 104.56 335C107.76 341.75 120.25 346 120.25 346L114.5 358.69C114.5 358.69 97.4999 355.48 88.2499 343.69C78.9999 331.9 94.6099 286.25 106.89 283.87Z" fill="#2F3F5C"/>
<path opacity="0.2" d="M106.89 283.87C114.41 282.41 101.36 328.25 104.56 335C107.76 341.75 120.25 346 120.25 346L114.5 358.69C114.5 358.69 97.4999 355.48 88.2499 343.69C78.9999 331.9 94.6099 286.25 106.89 283.87Z" fill="black"/>
<path d="M120.25 345L113.25 358.71L119.25 360L124.75 347.38L120.25 345Z" fill="#2F3F5C"/>
<path opacity="0.2" d="M120.25 345L113.25 358.71L119.25 360L124.75 347.38L120.25 345Z" fill="white"/>
<path d="M134 364V366.18C134.002 366.907 134.283 367.605 134.786 368.13C135.289 368.655 135.974 368.967 136.7 369H217.09C217.84 368.979 218.554 368.678 219.093 368.156C219.632 367.634 219.955 366.929 220 366.18V364H134Z" fill="#2F3F5C"/>
<path opacity="0.2" d="M134 364V366.18C134.002 366.907 134.283 367.605 134.786 368.13C135.289 368.655 135.974 368.967 136.7 369H217.09C217.84 368.979 218.554 368.678 219.093 368.156C219.632 367.634 219.955 366.929 220 366.18V364H134Z" fill="white"/>
<path opacity="0.2" d="M164 364V366.18C164.004 366.908 164.288 367.606 164.792 368.131C165.296 368.656 165.983 368.967 166.71 369H217.09C217.84 368.979 218.554 368.678 219.093 368.156C219.632 367.634 219.955 366.929 220 366.18V364H164Z" fill="white"/>
<path d="M166.71 367H219.82C220.673 366.958 221.494 366.666 222.181 366.158C222.868 365.651 223.389 364.953 223.68 364.15L235.86 325.94C236 325.614 236.055 325.259 236.021 324.906C235.987 324.553 235.865 324.215 235.665 323.922C235.466 323.629 235.196 323.391 234.881 323.23C234.565 323.069 234.214 322.99 233.86 323H180.71C179.851 323.063 179.028 323.374 178.343 323.896C177.658 324.418 177.139 325.128 176.85 325.94L164.67 364.1C164.529 364.426 164.474 364.784 164.511 365.137C164.547 365.491 164.674 365.83 164.879 366.121C165.083 366.412 165.359 366.645 165.68 366.799C166 366.953 166.355 367.022 166.71 367V367Z" fill="#2F3F5C"/>
<path opacity="0.2" d="M166.71 367H219.82C220.673 366.958 221.494 366.666 222.181 366.158C222.868 365.651 223.389 364.953 223.68 364.15L235.86 325.94C236 325.614 236.055 325.259 236.021 324.906C235.987 324.553 235.865 324.215 235.665 323.922C235.466 323.629 235.196 323.391 234.881 323.23C234.565 323.069 234.214 322.99 233.86 323H180.71C179.851 323.063 179.028 323.374 178.343 323.896C177.658 324.418 177.139 325.128 176.85 325.94L164.67 364.1C164.529 364.426 164.474 364.784 164.511 365.137C164.547 365.491 164.674 365.83 164.879 366.121C165.083 366.412 165.359 366.645 165.68 366.799C166 366.953 166.355 367.022 166.71 367V367Z" fill="white"/>
<path opacity="0.2" d="M168.71 367H219.82C220.673 366.958 221.494 366.666 222.181 366.158C222.868 365.651 223.389 364.953 223.68 364.15L235.86 325.94C236 325.614 236.055 325.259 236.021 324.906C235.987 324.553 235.865 324.215 235.665 323.922C235.466 323.629 235.196 323.391 234.881 323.23C234.565 323.069 234.214 322.99 233.86 323H182.71C181.851 323.063 181.028 323.374 180.343 323.896C179.658 324.418 179.139 325.128 178.85 325.94L166.67 364.1C166.529 364.426 166.474 364.784 166.511 365.137C166.547 365.491 166.674 365.83 166.879 366.121C167.083 366.412 167.359 366.645 167.68 366.799C168 366.953 168.355 367.022 168.71 367V367Z" fill="white"/>
<path opacity="0.2" d="M205.32 340.811L197.97 346.021L201.15 351.221L208.5 346.021L205.32 340.811Z" fill="white"/>
<path opacity="0.2" d="M242.11 93.6992H174.86C170.033 93.6992 166.12 97.6123 166.12 102.439V169.689C166.12 174.516 170.033 178.429 174.86 178.429H242.11C246.937 178.429 250.85 174.516 250.85 169.689V102.439C250.85 97.6123 246.937 93.6992 242.11 93.6992Z" fill="black"/>
<path d="M253.55 84.3994H197.21C193.162 84.3994 189.88 87.6812 189.88 91.7294V148.069C189.88 152.118 193.162 155.399 197.21 155.399H253.55C257.598 155.399 260.88 152.118 260.88 148.069V91.7294C260.88 87.6812 257.598 84.3994 253.55 84.3994Z" fill="#F77021"/>
<path opacity="0.3" d="M253.55 84.3994H197.21C193.162 84.3994 189.88 87.6812 189.88 91.7294V148.069C189.88 152.118 193.162 155.399 197.21 155.399H253.55C257.598 155.399 260.88 152.118 260.88 148.069V91.7294C260.88 87.6812 257.598 84.3994 253.55 84.3994Z" fill="white"/>
<path d="M230.851 111.7V107.41L228.641 107.2C228.351 105.774 227.791 104.416 226.991 103.2L228.411 101.48L225.411 98.48L223.701 99.9C222.483 99.1025 221.126 98.5426 219.701 98.25L219.481 96H215.191L215.001 98.25C213.575 98.5426 212.218 99.1025 211.001 99.9L209.291 98.48L206.291 101.48L207.711 103.2C206.91 104.416 206.35 105.774 206.061 107.2L203.851 107.41V111.7L206.061 111.91C206.353 113.336 206.913 114.693 207.711 115.91L206.291 117.63L209.291 120.63L211.001 119.21C212.218 120.007 213.575 120.567 215.001 120.86L215.211 123.07H219.501L219.711 120.86C221.136 120.567 222.493 120.007 223.711 119.21L225.421 120.63L228.421 117.63L227.001 115.88C227.798 114.663 228.358 113.306 228.651 111.88L230.851 111.7ZM217.341 115.37C216.189 115.372 215.062 115.032 214.103 114.393C213.145 113.755 212.397 112.846 211.956 111.782C211.514 110.718 211.398 109.547 211.622 108.417C211.846 107.287 212.401 106.249 213.215 105.435C214.03 104.62 215.068 104.066 216.198 103.841C217.328 103.617 218.499 103.733 219.562 104.175C220.626 104.617 221.535 105.364 222.174 106.323C222.813 107.281 223.153 108.408 223.151 109.56C223.148 111.1 222.535 112.576 221.446 113.665C220.357 114.754 218.881 115.367 217.341 115.37V115.37Z" fill="white"/>
<path d="M248.25 123.83V120.46L246.52 120.3C246.291 119.191 245.853 118.135 245.23 117.19L246.34 115.85L244 113.47L242.66 114.58C241.714 113.956 240.659 113.518 239.55 113.29L239.39 111.55H236L235.84 113.29C234.731 113.518 233.675 113.956 232.73 114.58L231.39 113.47L229 115.85L230.11 117.19C229.486 118.135 229.049 119.191 228.82 120.3L227.09 120.46V123.83L228.82 123.99C229.049 125.099 229.486 126.154 230.11 127.1L229 128.44L231.38 130.82L232.72 129.71C233.665 130.333 234.721 130.771 235.83 131L235.99 132.73H239.36L239.52 131C240.629 130.771 241.684 130.333 242.63 129.71L243.97 130.82L246.35 128.44L245.24 127.1C245.863 126.154 246.301 125.099 246.53 123.99L248.25 123.83ZM237.66 126.7C236.758 126.7 235.876 126.432 235.126 125.931C234.377 125.43 233.792 124.718 233.447 123.885C233.102 123.052 233.012 122.135 233.187 121.25C233.363 120.366 233.798 119.553 234.435 118.915C235.073 118.278 235.886 117.843 236.77 117.667C237.655 117.491 238.572 117.582 239.405 117.927C240.238 118.272 240.95 118.857 241.451 119.606C241.952 120.356 242.22 121.238 242.22 122.14C242.22 123.349 241.739 124.509 240.884 125.364C240.029 126.219 238.869 126.7 237.66 126.7Z" fill="white"/>
<path d="M230.85 133.379V130.549L229.39 130.419C229.2 129.488 228.833 128.602 228.31 127.809L229.24 126.679L227.24 124.679L226.11 125.609C225.315 125.089 224.43 124.723 223.5 124.529L223.36 123.069H220.53L220.39 124.529C219.46 124.723 218.575 125.089 217.78 125.609L216.65 124.679L214.65 126.679L215.58 127.809C215.057 128.602 214.69 129.488 214.5 130.419L213.04 130.549V133.379L214.5 133.519C214.694 134.449 215.06 135.334 215.58 136.129L214.65 137.259L216.65 139.259L217.78 138.329C218.577 138.848 219.461 139.218 220.39 139.419L220.53 140.869H223.36L223.5 139.419C224.429 139.218 225.314 138.848 226.11 138.329L227.24 139.259L229.24 137.259L228.31 136.129C228.83 135.334 229.196 134.449 229.39 133.519L230.85 133.379ZM222 135.789C221.242 135.791 220.5 135.568 219.868 135.148C219.237 134.728 218.745 134.13 218.454 133.43C218.162 132.729 218.086 131.958 218.233 131.215C218.381 130.471 218.746 129.787 219.282 129.251C219.818 128.715 220.501 128.35 221.245 128.202C221.989 128.055 222.76 128.132 223.46 128.423C224.161 128.714 224.759 129.206 225.179 129.838C225.599 130.469 225.822 131.211 225.82 131.969C225.82 132.982 225.418 133.954 224.701 134.67C223.985 135.387 223.013 135.789 222 135.789V135.789Z" fill="white"/>
<path opacity="0.2" d="M256.55 84.3994H200.21C196.162 84.3994 192.88 87.6812 192.88 91.7294V148.069C192.88 152.118 196.162 155.399 200.21 155.399H256.55C260.598 155.399 263.88 152.118 263.88 148.069V91.7294C263.88 87.6812 260.598 84.3994 256.55 84.3994Z" fill="white"/>
<path opacity="0.2" d="M364.25 175.939H302.08C297.618 175.939 294 179.557 294 184.019V246.189C294 250.652 297.618 254.269 302.08 254.269H364.25C368.712 254.269 372.33 250.652 372.33 246.189V184.019C372.33 179.557 368.712 175.939 364.25 175.939Z" fill="black"/>
<path d="M372.54 171.75H320.45C316.711 171.75 313.68 174.781 313.68 178.52V230.61C313.68 234.349 316.711 237.38 320.45 237.38H372.54C376.279 237.38 379.31 234.349 379.31 230.61V178.52C379.31 174.781 376.279 171.75 372.54 171.75Z" fill="#F77021"/>
<path opacity="0.2" d="M372.54 171.75H320.45C316.711 171.75 313.68 174.781 313.68 178.52V230.61C313.68 234.349 316.711 237.38 320.45 237.38H372.54C376.279 237.38 379.31 234.349 379.31 230.61V178.52C379.31 174.781 376.279 171.75 372.54 171.75Z" fill="white"/>
<path d="M349 215.109C349 215.578 348.861 216.037 348.6 216.427C348.339 216.817 347.968 217.121 347.534 217.3C347.101 217.479 346.624 217.525 346.164 217.433C345.704 217.341 345.281 217.114 344.95 216.782C344.619 216.449 344.394 216.026 344.304 215.565C344.214 215.105 344.262 214.628 344.443 214.195C344.624 213.762 344.929 213.393 345.32 213.134C345.711 212.875 346.171 212.737 346.64 212.739C347.267 212.742 347.867 212.993 348.309 213.437C348.751 213.881 349 214.482 349 215.109V215.109Z" fill="white"/>
<path d="M346.43 191.47C343.34 191.468 340.28 192.076 337.424 193.258C334.569 194.44 331.974 196.173 329.789 198.359C327.604 200.544 325.871 203.138 324.689 205.994C323.507 208.849 322.899 211.909 322.9 215H341.69C341.659 214.374 341.761 213.748 341.99 213.164C342.218 212.58 342.568 212.051 343.016 211.613C343.464 211.174 344 210.836 344.589 210.62C345.177 210.404 345.805 210.315 346.43 210.36C346.911 210.383 347.385 210.474 347.84 210.63L356.65 200.4L350.43 212.5C350.917 213.242 351.171 214.112 351.16 215H370C370 211.906 369.39 208.843 368.205 205.986C367.02 203.129 365.284 200.533 363.094 198.347C360.905 196.162 358.307 194.43 355.447 193.249C352.588 192.069 349.524 191.465 346.43 191.47Z" fill="white"/>
<path opacity="0.2" d="M375.31 171.75H323.22C319.481 171.75 316.45 174.781 316.45 178.52V230.61C316.45 234.349 319.481 237.38 323.22 237.38H375.31C379.049 237.38 382.08 234.349 382.08 230.61V178.52C382.08 174.781 379.049 171.75 375.31 171.75Z" fill="white"/>
<path opacity="0.2" d="M383.34 113.34H328.79C324.874 113.34 321.7 116.514 321.7 120.43V174.98C321.7 178.896 324.874 182.07 328.79 182.07H383.34C387.256 182.07 390.43 178.896 390.43 174.98V120.43C390.43 116.514 387.256 113.34 383.34 113.34Z" fill="black"/>
<path d="M391.78 107.279H346.07C342.789 107.279 340.13 109.939 340.13 113.219V158.929C340.13 162.21 342.789 164.869 346.07 164.869H391.78C395.06 164.869 397.72 162.21 397.72 158.929V113.219C397.72 109.939 395.06 107.279 391.78 107.279Z" fill="#F77021"/>
<path opacity="0.1" d="M391.78 107.279H346.07C342.789 107.279 340.13 109.939 340.13 113.219V158.929C340.13 162.21 342.789 164.869 346.07 164.869H391.78C395.06 164.869 397.72 162.21 397.72 158.929V113.219C397.72 109.939 395.06 107.279 391.78 107.279Z" fill="white"/>
<path d="M385 121.89C385 121.389 384.801 120.908 384.446 120.554C384.092 120.199 383.611 120 383.11 120H354.89C354.389 120 353.908 120.199 353.554 120.554C353.199 120.908 353 121.389 353 121.89V128.11C353 128.611 353.199 129.092 353.554 129.446C353.908 129.801 354.389 130 354.89 130H383.11C383.611 130 384.092 129.801 384.446 129.446C384.801 129.092 385 128.611 385 128.11V121.89ZM375.68 125.26H374.06V123.64H375.68V125.26ZM380.01 126.07C379.687 126.072 379.37 125.978 379.101 125.799C378.831 125.621 378.621 125.367 378.496 125.068C378.371 124.77 378.338 124.442 378.401 124.124C378.463 123.807 378.619 123.516 378.847 123.287C379.076 123.059 379.367 122.903 379.684 122.841C380.002 122.778 380.33 122.811 380.628 122.936C380.927 123.061 381.181 123.271 381.359 123.541C381.538 123.81 381.632 124.127 381.63 124.45C381.63 124.664 381.588 124.875 381.506 125.072C381.424 125.269 381.303 125.448 381.152 125.599C381 125.75 380.821 125.869 380.623 125.95C380.425 126.03 380.214 126.071 380 126.07H380.01Z" fill="white"/>
<path d="M385 132.89C385 132.389 384.801 131.908 384.446 131.554C384.092 131.199 383.611 131 383.11 131H354.89C354.389 131 353.908 131.199 353.554 131.554C353.199 131.908 353 132.389 353 132.89V139.11C353 139.611 353.199 140.092 353.554 140.446C353.908 140.801 354.389 141 354.89 141H383.11C383.611 141 384.092 140.801 384.446 140.446C384.801 140.092 385 139.611 385 139.11V132.89ZM375.68 136.89H374.06V135.27H375.68V136.89ZM380.01 137.7C379.69 137.7 379.376 137.605 379.11 137.427C378.844 137.249 378.636 136.996 378.513 136.7C378.391 136.404 378.359 136.078 378.421 135.764C378.484 135.45 378.638 135.161 378.865 134.934C379.091 134.708 379.38 134.554 379.694 134.491C380.008 134.429 380.334 134.461 380.63 134.583C380.926 134.706 381.179 134.914 381.357 135.18C381.535 135.446 381.63 135.76 381.63 136.08C381.63 136.293 381.588 136.504 381.506 136.701C381.423 136.897 381.303 137.076 381.151 137.226C381 137.375 380.82 137.494 380.622 137.573C380.425 137.653 380.213 137.693 380 137.69L380.01 137.7Z" fill="white"/>
<path d="M385 143.89C385 143.389 384.801 142.908 384.446 142.554C384.092 142.199 383.611 142 383.11 142H354.89C354.389 142 353.908 142.199 353.554 142.554C353.199 142.908 353 143.389 353 143.89V150.11C353 150.611 353.199 151.092 353.554 151.446C353.908 151.801 354.389 152 354.89 152H383.11C383.611 152 384.092 151.801 384.446 151.446C384.801 151.092 385 150.611 385 150.11V143.89ZM375.68 148.51H374.06V146.89H375.68V148.51ZM380.01 149.32C379.69 149.32 379.376 149.225 379.11 149.047C378.844 148.869 378.636 148.616 378.513 148.32C378.391 148.024 378.359 147.698 378.421 147.384C378.484 147.07 378.638 146.781 378.865 146.554C379.091 146.328 379.38 146.174 379.694 146.111C380.008 146.049 380.334 146.081 380.63 146.203C380.926 146.326 381.179 146.534 381.357 146.8C381.535 147.066 381.63 147.38 381.63 147.7C381.63 147.914 381.588 148.125 381.506 148.322C381.424 148.519 381.303 148.698 381.152 148.849C381 149 380.821 149.119 380.623 149.2C380.425 149.28 380.214 149.321 380 149.32H380.01Z" fill="white"/>
<path opacity="0.2" d="M394.22 107.279H348.51C345.23 107.279 342.57 109.939 342.57 113.219V158.929C342.57 162.21 345.23 164.869 348.51 164.869H394.22C397.501 164.869 400.16 162.21 400.16 158.929V113.219C400.16 109.939 397.501 107.279 394.22 107.279Z" fill="white"/>
<path opacity="0.2" d="M285.6 166.56H218.35C213.523 166.56 209.61 170.473 209.61 175.3V242.55C209.61 247.377 213.523 251.29 218.35 251.29H285.6C290.427 251.29 294.34 247.377 294.34 242.55V175.3C294.34 170.473 290.427 166.56 285.6 166.56Z" fill="black"/>
<path d="M293.16 160.569H236.82C232.772 160.569 229.49 163.851 229.49 167.899V224.239C229.49 228.288 232.772 231.569 236.82 231.569H293.16C297.208 231.569 300.49 228.288 300.49 224.239V167.899C300.49 163.851 297.208 160.569 293.16 160.569Z" fill="#F77021"/>
<path opacity="0.5" d="M293.16 160.569H236.82C232.772 160.569 229.49 163.851 229.49 167.899V224.239C229.49 228.288 232.772 231.569 236.82 231.569H293.16C297.208 231.569 300.49 228.288 300.49 224.239V167.899C300.49 163.851 297.208 160.569 293.16 160.569Z" fill="white"/>
<path d="M245.35 215.56C244.834 215.044 244.425 214.432 244.146 213.759C243.867 213.085 243.724 212.363 243.724 211.635C243.724 210.906 243.867 210.184 244.146 209.51C244.425 208.837 244.834 208.225 245.35 207.71L258.35 194.77C258.639 194.477 258.983 194.246 259.362 194.087C259.742 193.929 260.149 193.848 260.56 193.848C260.971 193.848 261.378 193.929 261.757 194.087C262.136 194.246 262.481 194.477 262.77 194.77L266.19 198.18C266.482 198.47 266.714 198.815 266.873 199.195C267.031 199.575 267.112 199.983 267.112 200.395C267.112 200.806 267.031 201.214 266.873 201.594C266.714 201.974 266.482 202.319 266.19 202.61L253.24 215.56C252.725 216.083 252.111 216.5 251.434 216.784C250.756 217.068 250.029 217.214 249.295 217.214C248.56 217.214 247.833 217.068 247.156 216.784C246.478 216.5 245.864 216.083 245.35 215.56V215.56Z" fill="white"/>
<path d="M269.21 194.25L266.66 191.7L281.29 177.07L284.48 176.43L283.84 179.62L269.21 194.25Z" fill="white"/>
<path d="M267.77 197.64L263.27 193.13C263.172 193.036 263.094 192.924 263.04 192.799C262.987 192.675 262.959 192.54 262.959 192.405C262.959 192.269 262.987 192.135 263.04 192.01C263.094 191.886 263.172 191.773 263.27 191.68V191.68C263.364 191.58 263.477 191.5 263.602 191.446C263.728 191.391 263.863 191.363 264 191.363C264.137 191.363 264.273 191.391 264.398 191.446C264.524 191.5 264.637 191.58 264.73 191.68L269.23 196.18C269.33 196.273 269.41 196.386 269.464 196.512C269.519 196.638 269.547 196.773 269.547 196.91C269.547 197.047 269.519 197.182 269.464 197.308C269.41 197.433 269.33 197.546 269.23 197.64C269.137 197.74 269.024 197.819 268.898 197.874C268.773 197.928 268.637 197.956 268.5 197.956C268.363 197.956 268.228 197.928 268.102 197.874C267.977 197.819 267.864 197.74 267.77 197.64V197.64Z" fill="white"/>
<path d="M261.71 189L255.54 182.81C256.69 179.72 254.36 175.92 251.83 174.92L251.78 179.68C251.78 180.21 251.569 180.719 251.194 181.094C250.819 181.469 250.31 181.68 249.78 181.68C249.249 181.68 248.741 181.469 248.365 181.094C247.99 180.719 247.78 180.21 247.78 179.68V175C246.619 175.47 245.617 176.262 244.89 177.282C244.164 178.303 243.744 179.509 243.68 180.76C243.695 182.236 244.244 183.658 245.225 184.761C246.207 185.864 247.555 186.574 249.02 186.76C250.039 186.917 251.082 186.771 252.02 186.34L258.24 192.58L261.71 189Z" fill="white"/>
<path d="M282.25 212.479V217.209C283.411 216.739 284.413 215.947 285.139 214.927C285.865 213.906 286.285 212.7 286.35 211.449C286.359 209.979 285.839 208.554 284.884 207.436C283.929 206.317 282.604 205.58 281.15 205.359C280.193 205.161 279.199 205.259 278.3 205.639L271.84 199.159L268.3 202.699L274.72 209.129C272.86 212.929 275.72 216.129 278.29 217.129V212.429C278.29 211.899 278.501 211.39 278.876 211.015C279.251 210.64 279.759 210.429 280.29 210.429C280.553 210.434 280.813 210.492 281.055 210.598C281.296 210.704 281.514 210.856 281.696 211.047C281.878 211.237 282.021 211.462 282.116 211.708C282.211 211.953 282.256 212.216 282.25 212.479Z" fill="white"/>
<path opacity="0.2" d="M296.16 160.569H239.82C235.772 160.569 232.49 163.851 232.49 167.899V224.239C232.49 228.288 235.772 231.569 239.82 231.569H296.16C300.208 231.569 303.49 228.288 303.49 224.239V167.899C303.49 163.851 300.208 160.569 296.16 160.569Z" fill="white"/>
<path d="M278.25 147.72H346.17C351.047 147.72 355 143.766 355 138.89V70.9697C355 66.0931 351.047 62.1397 346.17 62.1397L278.25 62.1397C273.373 62.1397 269.42 66.0931 269.42 70.9697V138.89C269.42 143.766 273.373 147.72 278.25 147.72Z" fill="#F77021"/>
<path opacity="0.2" d="M341.27 75.7295H260.21C254.389 75.7295 249.67 80.4484 249.67 86.2695V167.329C249.67 173.151 254.389 177.869 260.21 177.869H341.27C347.091 177.869 351.81 173.151 351.81 167.329V86.2695C351.81 80.4484 347.091 75.7295 341.27 75.7295Z" fill="black"/>
<path opacity="0.5" d="M278.25 147.72H346.17C351.047 147.72 355 143.766 355 138.89V70.9697C355 66.0931 351.047 62.1397 346.17 62.1397L278.25 62.1397C273.373 62.1397 269.42 66.0931 269.42 70.9697V138.89C269.42 143.766 273.373 147.72 278.25 147.72Z" fill="white"/>
<path d="M312.18 78.4092L286 88.6892C286 88.6892 289.31 124.689 312.21 131.439C335.12 124.689 338.43 88.6892 338.43 88.6892L312.18 78.4092ZM311.52 113.269C311.35 113.493 311.131 113.675 310.879 113.802C310.628 113.928 310.351 113.996 310.07 113.999V113.999C309.786 113.995 309.507 113.923 309.255 113.791C309.003 113.659 308.786 113.47 308.62 113.239L299.43 100.569C299.29 100.377 299.19 100.159 299.134 99.9275C299.078 99.6962 299.069 99.4563 299.106 99.2213C299.143 98.9864 299.226 98.7611 299.35 98.5583C299.475 98.3554 299.638 98.179 299.83 98.0392C300.022 97.8993 300.24 97.7987 300.472 97.7431C300.703 97.6875 300.943 97.6781 301.178 97.7152C301.413 97.7523 301.638 97.8354 301.841 97.9596C302.044 98.0838 302.22 98.2468 302.36 98.4392L310.12 109.119L322.8 92.3792C323.09 91.9982 323.519 91.7474 323.993 91.6818C324.467 91.6162 324.948 91.7411 325.33 92.0292C325.705 92.3499 325.948 92.7979 326.013 93.2871C326.077 93.7763 325.959 94.2721 325.68 94.6792L311.52 113.269Z" fill="white"/>
<path opacity="0.2" d="M281.86 147.72H349.78C354.657 147.72 358.61 143.766 358.61 138.89V70.9697C358.61 66.0931 354.657 62.1397 349.78 62.1397L281.86 62.1397C276.984 62.1397 273.03 66.0931 273.03 70.9697V138.89C273.03 143.766 276.984 147.72 281.86 147.72Z" fill="white"/>
<path d="M433.06 284.93H347.81V342.46H433.06V284.93Z" fill="#F77021"/>
<path opacity="0.7" d="M433.06 284.93H347.81V342.46H433.06V284.93Z" fill="white"/>
<path d="M431.26 289.359H349.39V340.539H431.26V289.359Z" fill="#2F3F5C"/>
<path d="M420.45 297.29H353.14V298.79H420.45V297.29Z" fill="#E0E0E0"/>
<path d="M410.44 301.54H353.14V303.04H410.44V301.54Z" fill="#E0E0E0"/>
<path d="M420.45 305.79H353.14V307.29H420.45V305.79Z" fill="#E0E0E0"/>
<path d="M410.44 310.04H353.14V311.54H410.44V310.04Z" fill="#E0E0E0"/>
<path d="M360.41 314.29H353.14V315.79H360.41V314.29Z" fill="#E0E0E0"/>
<path d="M390.43 318.54H353.14V320.04H390.43V318.54Z" fill="#E0E0E0"/>
<path d="M410.44 322.79H353.14V324.29H410.44V322.79Z" fill="#E0E0E0"/>
<path d="M360.41 327.04H353.14V328.54H360.41V327.04Z" fill="#E0E0E0"/>
<path d="M360.41 331.29H353.14V332.79H360.41V331.29Z" fill="#E0E0E0"/>
<path d="M187.23 165.24H101.98V222.77H187.23V165.24Z" fill="#F77021"/>
<path opacity="0.7" d="M187.23 165.24H101.98V222.77H187.23V165.24Z" fill="white"/>
<path d="M185.44 169.67H103.57V220.85H185.44V169.67Z" fill="#2F3F5C"/>
<path d="M174.63 177.601H107.32V179.101H174.63V177.601Z" fill="#E0E0E0"/>
<path d="M164.62 181.851H107.32V183.351H164.62V181.851Z" fill="#E0E0E0"/>
<path d="M174.63 186.101H107.32V187.601H174.63V186.101Z" fill="#E0E0E0"/>
<path d="M164.62 190.351H107.32V191.851H164.62V190.351Z" fill="#E0E0E0"/>
<path d="M114.59 194.601H107.32V196.101H114.59V194.601Z" fill="#E0E0E0"/>
<path d="M144.61 198.851H107.32V200.351H144.61V198.851Z" fill="#E0E0E0"/>
<path d="M164.62 203.101H107.32V204.601H164.62V203.101Z" fill="#E0E0E0"/>
<path d="M114.59 207.351H107.32V208.851H114.59V207.351Z" fill="#E0E0E0"/>
<path d="M114.59 211.601H107.32V213.101H114.59V211.601Z" fill="#E0E0E0"/>
</svg>
