<svg width="500" height="500" viewBox="0 0 500 500" fill="none" xmlns="http://www.w3.org/2000/svg">
<path d="M61.7401 197.53C69.1601 218.76 77.7401 239.15 90.7401 257.53C111.46 286.85 146.49 302.19 180.57 313.48C214.391 324.691 249.023 333.29 284.16 339.2C309.35 343.44 325.66 344.48 350.16 337.2C385.61 326.59 422.33 297.2 434.9 262.41C442.9 240.16 449.85 214.64 441.9 192.36C433.95 170.08 409.48 152 385.85 150.78C365 149.65 346 161.37 328.1 172C310.2 182.63 289.89 193 269.47 188.92C247.07 184.45 231.63 163.98 221.25 143.63C210.87 123.28 202.84 100.85 186.09 85.3198C168.26 68.7898 137.17 58.6998 113.91 65.7398C90.6501 72.7798 68.8801 93.6398 60.0001 123C60.0001 123 49.7401 163.16 61.7401 197.53Z" fill="#C1EEE6"/>
<path d="M447.71 428.21C447.71 428.35 356.35 428.47 243.71 428.47C131.07 428.47 39.71 428.35 39.71 428.21C39.71 428.07 131 428 243.68 428C356.36 428 447.71 428.06 447.71 428.21Z" fill="#2F3F5C"/>
<path d="M419.861 409.57C419.181 406.9 420.941 404.24 422.911 402.32C424.881 400.4 427.231 398.68 428.261 396.13C429.931 392 427.751 386.63 430.581 383.2C432.251 381.2 435.221 380.51 436.701 378.35C437.389 377.156 437.847 375.843 438.051 374.48C439.653 367.612 443.072 361.302 447.951 356.21C448.243 362.338 446.878 368.432 444.001 373.85C442.851 376.02 441.441 378.12 441.051 380.54C440.411 384.47 442.591 388.54 441.601 392.39C440.471 396.81 435.491 399.73 435.231 404.28C435.011 408.12 438.341 411.51 438.071 415.35C437.857 416.983 437.261 418.542 436.331 419.9C433.331 424.83 428.941 428.21 422.331 428.06L414.221 428.3L419.861 409.57Z" fill="#F77021"/>
<g opacity="0.3">
<path opacity="0.3" d="M419.861 409.57C419.181 406.9 420.941 404.24 422.911 402.32C424.881 400.4 427.231 398.68 428.261 396.13C429.931 392 427.751 386.63 430.581 383.2C432.251 381.2 435.221 380.51 436.701 378.35C437.389 377.156 437.847 375.843 438.051 374.48C439.653 367.612 443.072 361.302 447.951 356.21C448.243 362.338 446.878 368.432 444.001 373.85C442.851 376.02 441.441 378.12 441.051 380.54C440.411 384.47 442.591 388.54 441.601 392.39C440.471 396.81 435.491 399.73 435.231 404.28C435.011 408.12 438.341 411.51 438.071 415.35C437.857 416.983 437.261 418.542 436.331 419.9C433.331 424.83 428.941 428.21 422.331 428.06L414.221 428.3L419.861 409.57Z" fill="black"/>
</g>
<path d="M412.58 428.5C411.839 428.605 411.085 428.585 410.35 428.44C409.453 428.302 408.572 428.075 407.72 427.76C406.545 427.345 405.446 426.736 404.47 425.96C403.887 425.481 403.43 424.867 403.14 424.17C402.901 423.382 402.78 422.563 402.78 421.74C402.768 420.864 402.708 419.989 402.6 419.12C402.437 418.194 402.098 417.308 401.6 416.51C400.65 414.83 399.07 413.23 398.6 410.94C398.13 408.65 398.47 406.27 398.86 403.84C399.25 401.41 399.63 398.76 398.72 396.22C397.81 393.68 396.1 391.39 395.23 388.52C394.36 385.65 394.79 382.52 394.62 379.52C394.577 377.967 394.238 376.436 393.62 375.01C392.97 373.57 392.07 372.21 391.37 370.7C389.94 367.64 389.71 364.17 389.37 360.78C389.18 359.07 389 357.34 388.81 355.6C388.702 353.844 388.41 352.105 387.94 350.41C387.403 348.707 386.765 347.037 386.03 345.41C385.652 344.563 385.345 343.687 385.11 342.79C384.974 341.865 384.89 340.934 384.86 340C384.784 338.126 384.868 336.249 385.11 334.39C385.34 332.52 385.69 330.66 385.9 328.79V328.47V328.09L386.23 328.26C387.945 329.144 389.43 330.414 390.57 331.97C391.694 333.499 392.59 335.183 393.23 336.97C394.56 340.46 395.03 344.11 395.69 347.59C396.208 350.997 397.329 354.286 399 357.3C399.88 358.75 400.94 360.07 401.88 361.48C402.88 362.857 403.563 364.438 403.88 366.11C404.34 369.55 402.43 372.55 402.81 375.59C402.985 377.083 403.483 378.519 404.27 379.8C404.99 381.1 405.85 382.31 406.67 383.52C407.498 384.703 408.217 385.958 408.82 387.27C409.395 388.556 409.734 389.934 409.82 391.34C410.01 394.07 409.6 396.66 409.82 399.11C410.045 401.446 410.725 403.715 411.82 405.79C412.82 407.79 413.87 409.6 414.82 411.35C415.27 412.23 415.69 413.08 416.03 413.94C416.349 414.771 416.584 415.632 416.73 416.51C416.95 418.042 416.95 419.598 416.73 421.13C416.502 423.272 415.689 425.309 414.38 427.02C414.178 427.272 413.957 427.509 413.72 427.73C413.557 427.899 413.376 428.05 413.18 428.18C412.88 428.4 412.72 428.5 412.72 428.5C413.3 428.043 413.829 427.527 414.3 426.96C415.555 425.245 416.325 423.225 416.53 421.11C416.722 419.594 416.695 418.058 416.45 416.55C416.309 415.69 416.074 414.849 415.75 414.04C415.389 413.169 414.982 412.318 414.53 411.49C413.62 409.75 412.53 407.94 411.53 405.93C410.427 403.819 409.748 401.512 409.53 399.14C409.33 396.64 409.72 394.04 409.53 391.37C409.452 390.013 409.13 388.682 408.58 387.44C407.981 386.153 407.268 384.921 406.45 383.76C405.64 382.56 404.77 381.34 404.02 380.02C403.204 378.683 402.685 377.185 402.5 375.63C402.12 372.39 404.02 369.37 403.55 366.18C403.246 364.579 402.591 363.066 401.63 361.75C400.71 360.37 399.63 359.04 398.73 357.56C397.019 354.456 395.884 351.068 395.38 347.56C394.71 344.05 394.24 340.44 392.93 337.02C392.301 335.297 391.433 333.671 390.35 332.19C389.253 330.704 387.83 329.49 386.19 328.64L386.56 328.43V328.76C386.34 330.66 385.99 332.51 385.76 334.36C385.526 336.19 385.446 338.036 385.52 339.88C385.55 340.787 385.627 341.691 385.75 342.59C385.976 343.458 386.277 344.305 386.65 345.12C387.389 346.778 388.03 348.477 388.57 350.21C389.053 351.93 389.348 353.697 389.45 355.48C389.64 357.23 389.82 358.96 390 360.67C390.37 364.08 390.6 367.48 392 370.44C392.68 371.91 393.58 373.27 394.24 374.76C394.894 376.233 395.254 377.819 395.3 379.43C395.46 382.56 395.04 385.61 395.87 388.43C396.7 391.25 398.45 393.5 399.33 396.12C400.21 398.74 399.86 401.51 399.46 403.93C399.06 406.35 398.65 408.74 399.16 410.93C399.67 413.12 401.16 414.69 402.11 416.42C402.616 417.254 402.955 418.177 403.11 419.14C403.213 420.023 403.263 420.911 403.26 421.8C403.261 422.595 403.375 423.387 403.6 424.15C403.868 424.815 404.294 425.405 404.84 425.87C405.791 426.64 406.862 427.249 408.01 427.67C408.846 427.999 409.714 428.241 410.6 428.39C411.144 428.494 411.697 428.551 412.25 428.56L412.58 428.5Z" fill="#2F3F5C"/>
<path d="M387.51 332.859C387.544 332.939 387.568 333.023 387.58 333.109C387.63 333.299 387.69 333.539 387.76 333.839C387.92 334.479 388.1 335.439 388.4 336.649C388.7 337.859 389.4 339.209 390.06 340.889C390.72 342.569 391.35 344.479 391.95 346.649C392.55 348.819 393.09 351.219 393.65 353.789C394.13 356.541 394.988 359.213 396.2 361.729C396.86 363.049 397.6 364.379 398.2 365.839C398.773 367.339 399.156 368.905 399.34 370.499C399.738 373.8 400.305 377.077 401.04 380.319C402.62 386.969 404.14 393.319 405.51 399.069C406.88 404.819 408.2 409.999 409.27 414.369C410.34 418.739 411.16 422.219 411.75 424.699C412.03 425.889 412.25 426.829 412.4 427.509L412.56 428.239C412.569 428.326 412.569 428.413 412.56 428.499C412.519 428.424 412.489 428.343 412.47 428.259L412.26 427.529C412.08 426.859 411.83 425.929 411.52 424.749L408.87 414.459L405 399.189L400.48 380.429C399.739 377.176 399.175 373.884 398.79 370.569C398.616 369.016 398.246 367.491 397.69 366.029C397.13 364.599 396.4 363.269 395.69 361.939C394.472 359.388 393.617 356.678 393.15 353.889C392.61 351.299 392.1 348.889 391.52 346.749C390.94 344.609 390.32 342.659 389.71 340.989C389.1 339.319 388.41 337.939 388.12 336.699C387.83 335.459 387.7 334.509 387.58 333.859C387.53 333.559 387.49 333.309 387.45 333.119C387.458 333.03 387.479 332.943 387.51 332.859Z" fill="#2F3F5C"/>
<path d="M411.15 428.52C405.87 425.34 404.4 415.78 406.65 410.04C408.9 404.3 412.78 399.04 413.41 392.94C413.9 388.24 412.41 383.39 413.51 378.79C415.02 372.58 421.12 367.79 421.09 361.41C421.09 357.83 419.09 354.41 419.23 350.86C419.45 346.47 422.84 343 424.95 339.15C428.19 333.24 428.44 326.24 429.57 319.6C430.7 312.96 433.27 305.87 439.17 302.6C440.01 308.24 441.47 312.11 440.96 319.75C440.78 322.49 437.56 327.75 437.1 333.75C436.82 337.35 436.62 340.94 436.38 344.54C436.14 348.14 435.9 351.6 434.62 354.87C433.62 357.37 432.09 359.64 431.36 362.23C429.99 367.09 431.72 372.38 430.61 377.31C429.67 381.49 426.75 385.07 426.14 389.31C425.27 395.31 429.14 401.48 427.09 407.15C426.09 409.97 423.76 412.22 423.09 415.15C422.56 417.41 423.09 419.8 422.63 422.07C421.86 425.72 414.87 428.52 411.15 428.28" fill="#F77021"/>
<path d="M437.68 308.229C437.691 308.333 437.691 308.436 437.68 308.539C437.68 308.779 437.6 309.089 437.55 309.469C437.43 310.279 437.28 311.469 437 313.019C436.72 314.569 435.88 316.319 435.23 318.429C434.58 320.539 433.86 322.949 433.23 325.669C432.6 328.389 432.09 331.389 431.54 334.619C431.091 338.102 430.159 341.505 428.77 344.729C428.01 346.419 427.17 348.109 426.53 349.909C425.912 351.761 425.529 353.683 425.39 355.629C425.068 359.779 424.524 363.908 423.76 367.999C422.09 376.349 420.5 384.299 419.06 391.529C417.62 398.759 416.16 405.229 415.01 410.699C413.86 416.169 412.9 420.529 412.23 423.609C411.9 425.099 411.64 426.279 411.45 427.109C411.36 427.489 411.29 427.789 411.24 428.019C411.223 428.126 411.193 428.23 411.15 428.329C411.135 428.223 411.135 428.116 411.15 428.009C411.15 427.779 411.24 427.469 411.31 427.089C411.47 426.249 411.7 425.089 411.99 423.569C412.62 420.479 413.51 416.059 414.61 410.619C415.71 405.179 417.07 398.619 418.55 391.429C420.03 384.239 421.55 376.249 423.21 367.909C423.968 363.848 424.512 359.749 424.84 355.629C424.984 353.643 425.384 351.683 426.03 349.799C426.68 347.959 427.54 346.259 428.29 344.589C429.675 341.401 430.61 338.035 431.07 334.589C431.64 331.369 432.18 328.359 432.83 325.589C433.396 323.139 434.087 320.719 434.9 318.339C435.58 316.219 436.42 314.489 436.74 312.979C437.06 311.469 437.23 310.259 437.39 309.449C437.46 309.069 437.52 308.769 437.56 308.539C437.591 308.433 437.631 308.329 437.68 308.229V308.229Z" fill="#2F3F5C"/>
<path d="M228.31 82.9307C229.026 83.1527 229.702 83.4905 230.31 83.9307C232.034 85.1338 233.283 86.9028 233.84 88.9307C234.238 90.3159 234.303 91.7755 234.03 93.1907C233.713 94.8251 232.964 96.3447 231.86 97.5907C231.268 98.2651 230.577 98.8452 229.81 99.3107C229.016 99.8103 228.149 100.182 227.24 100.411C225.315 100.914 223.279 100.783 221.434 100.037C219.589 99.291 218.034 97.9703 217 96.2707C216.502 95.4777 216.134 94.61 215.91 93.7007C215.681 92.8334 215.583 91.9368 215.62 91.0407C215.673 89.4872 216.12 87.9727 216.917 86.6384C217.715 85.3041 218.837 84.1937 220.18 83.4107C221.987 82.3469 224.108 81.9439 226.18 82.2707C226.924 82.3734 227.647 82.5963 228.32 82.9307C227.605 82.7407 226.88 82.5871 226.15 82.4707C224.143 82.2382 222.116 82.6816 220.39 83.7307C219.124 84.4976 218.07 85.5692 217.324 86.8477C216.578 88.1263 216.164 89.5712 216.12 91.0507C216.082 91.9007 216.18 92.7514 216.41 93.5707C216.609 94.4295 216.947 95.2502 217.41 96.0007C218.398 97.5935 219.869 98.8295 221.608 99.5291C223.347 100.229 225.264 100.355 227.08 99.8907C228.773 99.4599 230.3 98.5379 231.47 97.2407C232.526 96.0635 233.254 94.6287 233.58 93.0807C233.856 91.7292 233.812 90.3318 233.45 89.0007C232.933 87.0476 231.778 85.3231 230.17 84.1007C229.57 83.6796 228.949 83.2891 228.31 82.9307Z" fill="#2F3F5C"/>
<path d="M237.06 74.5202C237.047 74.4139 237.047 74.3064 237.06 74.2002C237.06 73.9602 237.14 73.6502 237.19 73.2002C237.317 72.3202 237.507 71.0602 237.76 69.4202L237.81 69.5102L230 66.4402H230.16L227.27 70.6602L227.22 70.7302H227.12C225.301 70.5182 223.462 70.5451 221.65 70.8102H221.55L221.49 70.7302L218.49 66.6002L218.71 66.6602L210.9 70.0002L211.02 69.7702C211.31 71.3302 211.63 73.0402 211.95 74.7702V74.9002L211.84 74.9802C210.402 76.1046 209.12 77.4162 208.03 78.8802L208 79.0002H207.86L202.86 78.2002L203.11 78.0502L199.97 85.9102L199.88 85.6202L204.09 88.5202L204.21 88.6002V88.7502C203.991 90.5616 204.011 92.394 204.27 94.2002V94.3502L204.14 94.4402L200 97.4402L200.09 97.1302L203.41 104.91L203.13 104.76L208.13 103.84H208.28L208.38 103.97C209.497 105.405 210.802 106.683 212.26 107.77C211.989 107.187 211.501 106.732 210.899 106.503C210.298 106.274 209.631 106.289 209.04 106.544C208.45 106.799 207.982 107.274 207.737 107.869C207.491 108.464 207.488 109.131 207.727 109.729C207.966 110.326 208.428 110.806 209.016 111.068C209.604 111.329 210.271 111.351 210.874 111.129C211.478 110.906 211.971 110.457 212.249 109.876C212.526 109.296 212.566 108.63 212.36 108.02V108.02V108V108.08V108.24L212.31 108.56L212.21 109.19L212 110.46C211.87 111.3 211.73 112.14 211.6 112.97L211.44 112.69L219.29 115.85L218.98 115.94L221.89 111.73L221.97 111.61H222.13C223.941 111.83 225.774 111.81 227.58 111.55H227.73L227.82 111.67L230.82 115.82L230.52 115.73L238.3 112.42L238.16 112.69C237.85 110.98 237.55 109.3 237.25 107.69V107.55L237.36 107.47C238.799 106.348 240.084 105.04 241.18 103.58L241.26 103.47H241.4L246.4 104.29L246.17 104.42C247.28 101.66 248.33 99.0602 249.34 96.5802L249.41 96.8202L245.21 93.9002L245.12 93.8402V93.7302C245.361 91.9148 245.361 90.0756 245.12 88.2602V88.1502L245.2 88.0902L249.36 85.0902V85.2802C248.08 82.2802 247 79.6802 246.07 77.4802L246.2 77.5502L241.2 78.4402C240.354 77.3523 239.407 76.3477 238.37 75.4402L237.59 74.7802C237.497 74.7151 237.41 74.6414 237.33 74.5602C237.429 74.6105 237.523 74.6709 237.61 74.7402C237.8 74.8802 238.07 75.0802 238.42 75.3802C239.493 76.2742 240.469 77.2799 241.33 78.3802H241.25L246.25 77.3802H246.34V77.4702L249.69 85.2402V85.3502L249.59 85.4202L245.46 88.4202L245.52 88.2602C245.798 90.1013 245.825 91.9718 245.6 93.8202L245.52 93.6402L249.73 96.5402L249.86 96.6302L249.81 96.7802C248.81 99.2602 247.81 101.87 246.67 104.63L246.6 104.79H246.43L241.38 103.99L241.6 103.9C240.481 105.399 239.17 106.744 237.7 107.9L237.79 107.67C238.09 109.32 238.4 110.99 238.71 112.67V112.86L238.53 112.93L230.76 116.26L230.57 116.34L230.46 116.18L227.46 112.04L227.7 112.14C225.851 112.41 223.974 112.43 222.12 112.2L222.36 112.1L219.45 116.3L219.34 116.47L219.15 116.39L211.29 113.24L211.1 113.17V112.96C211.24 112.12 211.37 111.29 211.51 110.44L211.71 109.18L211.81 108.54L211.86 108.23V108.07V107.93C212.07 108.43 211.92 108.07 211.97 108.18C210.469 107.064 209.124 105.752 207.97 104.28L208.22 104.37L203.22 105.29H203.01L202.93 105.1L199.62 97.3102L199.54 97.1302L199.7 97.0102L203.85 94.0102L203.75 94.2502C203.481 92.4012 203.461 90.5245 203.69 88.6702L203.79 88.9102L199.54 86.0002L199.38 85.8902L199.46 85.7102C200.55 82.9802 201.63 80.3202 202.62 77.8602L202.69 77.6902H202.87L207.87 78.5102L207.65 78.5902C208.769 77.0889 210.084 75.7437 211.56 74.5902L211.48 74.8002C211.16 73.0402 210.85 71.3202 210.57 69.8002V69.6402L210.72 69.5802L218.51 66.2802L218.65 66.2202L218.73 66.3402L221.73 70.4902L221.56 70.4202C223.405 70.1708 225.275 70.1708 227.12 70.4202L226.98 70.4802L229.9 66.2902L229.96 66.2002H230.06L237.89 69.4002H237.95V69.4602C237.67 71.0802 237.46 72.3302 237.31 73.2002C237.23 73.6069 237.17 73.9402 237.13 74.2002C237.114 74.3083 237.09 74.4152 237.06 74.5202Z" fill="#2F3F5C"/>
<path fill-rule="evenodd" clip-rule="evenodd" d="M353.469 271.491C355.347 272.887 357.028 274.528 358.469 276.371L364.829 275.211L369.029 285.051L363.789 288.841C364.124 291.16 364.151 293.514 363.869 295.841L369.179 299.521L365.179 309.451L358.799 308.451C357.406 310.33 355.765 312.012 353.919 313.451L355.079 319.821L345.239 324.021L341.449 318.781C339.13 319.117 336.775 319.14 334.449 318.851L330.769 324.171L320.839 320.171L321.839 313.791C319.96 312.397 318.278 310.755 316.839 308.911L310.539 310.001L306.339 300.161L311.579 296.371C311.244 294.051 311.221 291.697 311.509 289.371L306.189 285.701L310.189 275.771L316.569 276.771C317.965 274.893 319.607 273.212 321.449 271.771L320.289 265.411L330.129 261.211L333.919 266.451C336.239 266.112 338.593 266.085 340.919 266.371L344.589 261.061L354.519 265.061L353.519 271.451L353.469 271.491ZM342.409 282.131C340.303 281.283 337.992 281.08 335.77 281.546C333.547 282.013 331.513 283.127 329.924 284.75C328.336 286.372 327.264 288.429 326.844 290.661C326.425 292.892 326.676 295.198 327.568 297.287C328.459 299.375 329.949 301.153 331.85 302.394C333.752 303.636 335.979 304.285 338.249 304.261C340.52 304.237 342.732 303.54 344.607 302.258C346.481 300.976 347.933 299.168 348.779 297.061C349.343 295.662 349.624 294.166 349.609 292.659C349.594 291.151 349.281 289.662 348.69 288.275C348.098 286.888 347.239 285.632 346.161 284.578C345.084 283.523 343.809 282.692 342.409 282.131V282.131Z" fill="#FAFAFA"/>
<path d="M342.41 282.13C343.313 282.429 344.163 282.868 344.93 283.43C347.085 284.943 348.65 287.155 349.36 289.69C349.857 291.438 349.936 293.277 349.59 295.06C349.187 297.115 348.241 299.025 346.85 300.59C346.105 301.441 345.235 302.173 344.27 302.76C343.272 303.387 342.182 303.853 341.04 304.14C338.627 304.776 336.074 304.62 333.757 303.694C331.439 302.769 329.481 301.123 328.17 299C327.542 298 327.077 296.906 326.79 295.76C326.499 294.672 326.377 293.546 326.43 292.42C326.504 290.328 327.14 288.293 328.27 286.53C329.476 284.663 331.194 283.181 333.219 282.263C335.244 281.344 337.49 281.028 339.69 281.35C340.634 281.474 341.552 281.747 342.41 282.16C341.505 281.908 340.587 281.704 339.66 281.55C337.112 281.244 334.535 281.8 332.34 283.13C330.73 284.104 329.39 285.465 328.441 287.089C327.493 288.714 326.966 290.55 326.91 292.43C326.838 294.651 327.426 296.844 328.6 298.73C329.858 300.758 331.731 302.33 333.945 303.219C336.159 304.107 338.599 304.266 340.91 303.67C343.061 303.121 345.003 301.949 346.49 300.3C347.761 298.902 348.657 297.206 349.096 295.368C349.535 293.531 349.502 291.612 349 289.79C348.339 287.312 346.863 285.128 344.81 283.59C344.036 283.063 343.235 282.575 342.41 282.13V282.13Z" fill="#2F3F5C"/>
<path d="M353.47 271.49C353.461 271.353 353.461 271.216 353.47 271.08C353.47 270.79 353.57 270.39 353.64 269.87C353.81 268.77 354.05 267.17 354.37 265.09V265.18L344.42 261.24L344.58 261.19L341 266.52L340.95 266.6H340.86C338.556 266.321 336.225 266.352 333.93 266.69H333.82L333.76 266.61L329.96 261.38L330.18 261.44L320.35 265.66L320.47 265.43C320.83 267.43 321.23 269.57 321.64 271.79V271.92L321.53 272C319.705 273.426 318.081 275.091 316.7 276.95L316.62 277.06H316.48L310.1 276.06L310.35 275.92C309.1 279.04 307.76 282.4 306.35 285.85L306.27 285.56L311.59 289.23L311.71 289.31V289.46C311.432 291.757 311.459 294.08 311.79 296.37V296.52L311.67 296.61L306.43 300.4L306.52 300.1L310.72 309.94L310.43 309.78L316.8 308.62H316.95L317.05 308.75C318.474 310.57 320.131 312.194 321.98 313.58L322.11 313.68V313.83C321.77 315.97 321.436 318.097 321.11 320.21L320.95 319.93L330.88 323.93L330.57 324.02C331.81 322.23 333.03 320.46 334.25 318.71L334.33 318.58H334.49C336.783 318.862 339.103 318.839 341.39 318.51H341.55L341.64 318.63L345.42 323.87L345.12 323.79L354.97 319.6L354.83 319.86C354.43 317.7 354.05 315.58 353.67 313.5V313.36L353.79 313.27C355.616 311.85 357.244 310.192 358.63 308.34L358.71 308.23H358.85L365.23 309.23L364.99 309.37L368.99 299.44L369.06 299.68L363.74 296L363.65 295.93V295.82C363.941 293.518 363.921 291.187 363.59 288.89V288.79L363.68 288.73L368.93 284.95L368.88 285.14C367.26 281.32 365.88 278.07 364.71 275.28L364.84 275.35L358.47 276.48C357.397 275.095 356.195 273.816 354.88 272.66C354.44 272.28 354.11 272.01 353.88 271.82C353.769 271.736 353.662 271.645 353.56 271.55L353.91 271.79C354.14 271.96 354.49 272.22 354.91 272.6C356.264 273.726 357.495 274.993 358.58 276.38H358.5L364.86 275.18H364.95V275.27C366.14 278.05 367.54 281.27 369.18 285.1L369.23 285.21L369.13 285.28L363.87 289L363.94 288.83C364.279 291.149 364.31 293.503 364.03 295.83L363.95 295.65L369.28 299.32L369.41 299.41L369.35 299.55C368.09 302.69 366.77 305.99 365.35 309.49L365.28 309.65H365.11L358.73 308.65L358.94 308.57C357.531 310.449 355.876 312.131 354.02 313.57L354.11 313.34C354.49 315.433 354.88 317.553 355.28 319.7V319.89L355.11 319.97L345.27 324.17L345.09 324.25L344.97 324.09C343.72 322.37 342.46 320.63 341.18 318.85L341.42 318.96C339.084 319.297 336.713 319.324 334.37 319.04L334.62 318.93C333.4 320.68 332.18 322.46 330.94 324.25L330.83 324.42L330.63 324.34L320.7 320.34L320.51 320.27V320.06C320.85 317.95 321.2 315.82 321.51 313.68L321.61 313.93C319.732 312.52 318.05 310.865 316.61 309.01L316.86 309.1L310.5 310.26H310.29L310.21 310.07C308.77 306.68 307.35 303.34 306.02 300.23L305.94 300.04L306.1 299.92L311.35 296.13L311.24 296.37C310.911 294.05 310.887 291.696 311.17 289.37L311.27 289.61C309.43 288.33 307.62 287.07 305.96 285.93L305.8 285.82L305.87 285.64C307.26 282.19 308.62 278.83 309.87 275.71L309.94 275.54H310.12L316.51 276.54L316.29 276.63C317.703 274.751 319.361 273.07 321.22 271.63L321.14 271.84C320.74 269.62 320.35 267.45 319.99 265.48V265.31L320.14 265.25L329.99 261.07L330.12 261.01L330.21 261.13L333.99 266.38L333.83 266.31C336.15 265.982 338.504 265.962 340.83 266.25L340.69 266.32L344.38 261.01L344.44 260.92H344.54L354.45 264.92H354.51V264.99C354.16 267.05 353.89 268.63 353.71 269.72C353.61 270.25 353.54 270.65 353.49 270.94L353.47 271.49Z" fill="#2F3F5C"/>
<path d="M305.42 428.21L194.5 428.14C188.097 428.137 181.958 425.593 177.429 421.067C172.901 416.541 170.355 410.402 170.35 404L170.4 125.91C170.4 122.736 171.025 119.592 172.241 116.66C173.456 113.727 175.237 111.063 177.483 108.819C179.729 106.576 182.394 104.796 185.328 103.583C188.261 102.37 191.405 101.747 194.58 101.75L305.51 101.81C308.683 101.813 311.825 102.44 314.756 103.658C317.687 104.875 320.349 106.658 322.591 108.904C324.833 111.15 326.61 113.816 327.821 116.75C329.032 119.683 329.654 122.826 329.65 126V404.1C329.642 407.274 329.009 410.415 327.787 413.345C326.565 416.274 324.778 418.934 322.528 421.173C320.278 423.412 317.609 425.186 314.674 426.393C311.738 427.601 308.594 428.218 305.42 428.21V428.21Z" fill="#2F3F5C"/>
<path d="M305.389 111.62H283.879C282.465 111.652 281.12 112.243 280.142 113.265C279.163 114.287 278.63 115.655 278.659 117.07V121C278.675 121.702 278.552 122.401 278.298 123.055C278.044 123.71 277.663 124.308 277.177 124.815C276.691 125.322 276.11 125.729 275.467 126.011C274.824 126.293 274.131 126.446 273.429 126.46H231.509C230.093 126.423 228.749 125.827 227.77 124.802C226.792 123.777 226.26 122.407 226.289 120.99V117C226.319 115.584 225.786 114.215 224.807 113.191C223.829 112.168 222.485 111.574 221.069 111.54H213.509H194.679C190.191 111.54 185.886 113.322 182.711 116.495C179.537 119.668 177.752 123.972 177.749 128.46L177.699 399.91C177.698 402.132 178.134 404.332 178.984 406.384C179.833 408.437 181.078 410.302 182.649 411.874C184.219 413.445 186.083 414.691 188.136 415.542C190.188 416.392 192.388 416.83 194.609 416.83L305.309 416.9C309.795 416.9 314.098 415.121 317.273 411.953C320.449 408.784 322.239 404.486 322.249 400L322.299 128.56C322.302 124.072 320.522 119.766 317.351 116.589C314.18 113.413 309.878 111.625 305.389 111.62V111.62Z" fill="white"/>
<path d="M216.999 177.76C217.24 177.908 217.47 178.072 217.689 178.25L219.619 179.74L219.699 179.8L219.629 179.88L215.739 184.43V184.22L224.739 193.22H224.419L228.259 189.01L228.379 188.87L228.539 188.95C229.811 189.569 231 190.345 232.079 191.26C233.265 192.194 234.143 193.462 234.599 194.9C234.691 195.283 234.728 195.677 234.709 196.07V196.66L234.529 197.23C234.423 197.615 234.254 197.98 234.029 198.31C233.848 198.67 233.623 199.006 233.359 199.31C232.343 200.56 230.933 201.427 229.359 201.77C227.781 202.097 226.14 201.919 224.669 201.26C223.949 200.954 223.275 200.546 222.669 200.05C222.069 199.55 221.569 199.05 221.039 198.5L214.979 192.5C213.049 190.59 211.219 188.78 209.509 187.07L208.249 185.82C207.816 185.431 207.427 184.995 207.089 184.52C206.758 184.063 206.521 183.545 206.392 182.996C206.264 182.446 206.246 181.877 206.339 181.32C206.527 180.387 206.926 179.509 207.505 178.754C208.084 177.998 208.827 177.385 209.679 176.96C210.956 176.311 212.406 176.087 213.819 176.32C214.701 176.463 215.544 176.783 216.299 177.26C216.494 177.385 216.681 177.522 216.859 177.67C216.979 177.76 217.039 177.82 217.029 177.82C216.058 177.154 214.952 176.71 213.789 176.52C212.415 176.325 211.015 176.57 209.789 177.22C208.99 177.632 208.296 178.221 207.758 178.942C207.221 179.663 206.856 180.497 206.689 181.38C206.609 181.888 206.631 182.407 206.753 182.906C206.875 183.406 207.094 183.876 207.399 184.29C207.731 184.739 208.106 185.154 208.519 185.53L209.789 186.77L215.299 192.16L221.369 198.16C221.899 198.67 222.369 199.23 222.979 199.68C223.549 200.141 224.178 200.525 224.849 200.82C226.224 201.43 227.756 201.594 229.229 201.29C230.695 200.974 232.01 200.171 232.959 199.01C233.205 198.737 233.416 198.434 233.589 198.11C233.792 197.803 233.944 197.466 234.039 197.11L234.199 196.61V196.09C234.217 195.754 234.186 195.418 234.109 195.09C233.682 193.753 232.864 192.576 231.759 191.71C230.723 190.818 229.577 190.062 228.349 189.46L228.629 189.4L224.759 193.6L224.599 193.77L224.439 193.6L215.489 184.54L215.379 184.44L215.479 184.33L219.479 179.85V179.99L217.609 178.43C217.386 178.225 217.182 178.001 216.999 177.76V177.76Z" fill="#2F3F5C"/>
<path d="M237.13 210.22C237.679 210.168 238.222 210.06 238.75 209.9C239.492 209.645 240.169 209.231 240.734 208.687C241.299 208.143 241.738 207.482 242.02 206.75C242.213 206.25 242.328 205.724 242.36 205.19C242.36 204.64 242.36 204.02 242.36 203.4C242.36 202.14 242.36 200.77 242.3 199.31C242.3 196.37 242.22 193.02 242.18 189.31C242.14 185.6 242.1 181.57 242.05 177.22C242.05 176.14 242.05 175.03 242.05 173.91C242.137 172.797 242.018 171.679 241.7 170.61C241.295 169.551 240.554 168.655 239.59 168.06C238.591 167.452 237.424 167.179 236.26 167.28L204.47 167.57C203.136 167.575 201.856 168.1 200.904 169.034C199.951 169.967 199.401 171.236 199.37 172.57C199.37 175.323 199.37 178.026 199.37 180.68C199.37 185.99 199.45 191.12 199.49 196.01C199.49 198.45 199.49 200.84 199.49 203.15C199.422 204.268 199.499 205.391 199.72 206.49C200.022 207.513 200.633 208.417 201.47 209.08C202.28 209.719 203.261 210.105 204.29 210.19C205.29 210.19 206.36 210.19 207.36 210.19H213.16L230.66 210.13H235.42H236.66C236.799 210.114 236.94 210.114 237.08 210.13C236.94 210.143 236.799 210.143 236.66 210.13H235.42L230.67 210.22L213.16 210.45L207.36 210.52C206.36 210.52 205.36 210.52 204.26 210.52C203.144 210.435 202.079 210.02 201.2 209.33C200.296 208.61 199.63 207.634 199.29 206.53C199.13 205.963 199.049 205.378 199.05 204.79C199.05 204.22 199.05 203.64 199.05 203.07C199.05 200.75 199.026 198.366 198.98 195.92C198.93 191.04 198.88 185.92 198.83 180.59C198.83 177.923 198.81 175.216 198.77 172.47C198.788 171.004 199.38 169.604 200.42 168.57C201.48 167.507 202.918 166.907 204.42 166.9L236.21 166.66C237.467 166.562 238.723 166.863 239.8 167.52C240.846 168.174 241.647 169.154 242.08 170.31C242.298 170.868 242.419 171.46 242.44 172.06C242.44 172.65 242.44 173.2 242.44 173.77C242.44 174.89 242.44 175.99 242.44 177.08C242.44 181.42 242.49 185.47 242.51 189.17C242.53 192.87 242.51 196.17 242.51 199.17C242.51 200.64 242.51 202.01 242.51 203.27C242.51 203.9 242.51 204.49 242.51 205.08C242.46 205.635 242.332 206.18 242.13 206.7C241.827 207.448 241.363 208.121 240.77 208.669C240.177 209.217 239.47 209.627 238.7 209.87C238.201 210.08 237.67 210.198 237.13 210.22V210.22Z" fill="#2F3F5C"/>
<path d="M294.337 166.598L261.978 166.864C258.996 166.888 256.598 169.326 256.622 172.308L256.888 204.667C256.912 207.649 259.35 210.047 262.332 210.022L294.691 209.757C297.673 209.733 300.071 207.295 300.046 204.313L299.781 171.954C299.757 168.972 297.319 166.574 294.337 166.598Z" fill="#F77021"/>
<path d="M293.1 188.24C292.99 187.061 292.796 185.891 292.52 184.74C291.667 181.621 289.79 178.881 287.19 176.96C285.419 175.641 283.364 174.754 281.19 174.37C278.685 173.942 276.111 174.183 273.73 175.07C271.103 176.052 268.827 177.792 267.19 180.07C265.423 182.513 264.484 185.458 264.509 188.473C264.534 191.488 265.523 194.416 267.33 196.83C269.004 199.079 271.308 200.781 273.95 201.72C276.344 202.574 278.923 202.774 281.42 202.3C283.604 201.888 285.659 200.966 287.42 199.61C289.985 197.642 291.816 194.871 292.62 191.74C292.875 190.587 293.049 189.417 293.14 188.24C293.151 188.316 293.151 188.393 293.14 188.47V189.16C293.143 189.535 293.116 189.909 293.06 190.28C293.017 190.79 292.93 191.295 292.8 191.79C292.498 193.165 291.981 194.485 291.27 195.7C289.575 198.649 286.901 200.913 283.711 202.096C280.522 203.28 277.019 203.31 273.81 202.18C272.472 201.707 271.214 201.033 270.08 200.18C268.874 199.325 267.813 198.282 266.94 197.09C265.062 194.592 264.034 191.558 264.009 188.433C263.984 185.308 264.962 182.257 266.8 179.73C268.503 177.379 270.866 175.586 273.59 174.58C276.047 173.673 278.703 173.442 281.28 173.91C283.318 174.287 285.252 175.094 286.954 176.277C288.655 177.46 290.086 178.991 291.15 180.77C291.88 181.972 292.416 183.281 292.74 184.65C292.878 185.144 292.975 185.649 293.03 186.16C293.087 186.527 293.12 186.898 293.13 187.27C293.13 187.55 293.13 187.78 293.13 187.96C293.135 188.054 293.125 188.149 293.1 188.24V188.24Z" fill="white"/>
<path d="M293.18 187.26C293.18 187.4 286.61 187.57 278.5 187.64C270.39 187.71 263.83 187.64 263.83 187.5C263.83 187.36 270.39 187.19 278.5 187.12C286.61 187.05 293.17 187.12 293.18 187.26Z" fill="white"/>
<path d="M279.31 202.7C279.37 202.493 279.458 202.295 279.57 202.11L280.39 200.46C280.856 199.61 281.27 198.731 281.63 197.83C282.152 196.656 282.6 195.451 282.97 194.22C284.061 191.059 284.447 187.697 284.1 184.37C283.834 182.421 283.232 180.533 282.32 178.79C281.328 176.93 279.922 175.322 278.21 174.09H278.51C278.29 174.27 278.04 174.49 277.81 174.71C274.661 177.532 272.42 181.225 271.37 185.32C270.624 188.709 271.106 192.254 272.73 195.32C273.03 195.98 273.43 196.56 273.73 197.14C274.03 197.72 274.45 198.2 274.81 198.66L275.81 199.93C276.14 200.3 276.45 200.63 276.74 200.93C277.29 201.55 277.74 201.93 278.08 202.28C278.247 202.431 278.398 202.598 278.53 202.78C278.341 202.656 278.164 202.516 278 202.36C277.68 202.07 277.17 201.67 276.59 201.07L275.59 200.07L274.52 198.81C274.14 198.36 273.79 197.81 273.39 197.29C272.99 196.77 272.63 196.13 272.31 195.45C270.605 192.332 270.073 188.707 270.81 185.23C271.85 181.025 274.133 177.23 277.36 174.34C277.61 174.11 277.85 173.89 278.1 173.69L278.25 173.57L278.4 173.67C280.181 174.958 281.642 176.638 282.67 178.58C283.608 180.379 284.221 182.329 284.48 184.34C284.816 187.726 284.385 191.144 283.22 194.34C282.831 195.578 282.357 196.788 281.8 197.96C281.415 198.857 280.974 199.729 280.48 200.57C280.1 201.22 279.8 201.76 279.57 202.17C279.496 202.353 279.409 202.53 279.31 202.7V202.7Z" fill="white"/>
<path d="M237.999 383.23C238.549 383.185 239.092 383.082 239.619 382.92C240.36 382.662 241.035 382.247 241.6 381.703C242.164 381.159 242.604 380.5 242.889 379.77C243.083 379.271 243.198 378.744 243.229 378.21C243.229 377.65 243.229 377.04 243.229 376.41C243.229 375.15 243.229 373.79 243.179 372.32C243.179 369.38 243.099 366.04 243.059 362.32C243.019 358.6 242.969 354.57 242.929 350.23C242.929 349.14 242.929 348.04 242.929 346.92C243.017 345.808 242.898 344.689 242.579 343.62C242.176 342.558 241.434 341.659 240.469 341.06C239.469 340.456 238.303 340.186 237.139 340.29L205.35 340.57C203.998 340.583 202.706 341.125 201.749 342.08C200.802 343.02 200.263 344.295 200.249 345.63C200.249 348.37 200.249 351.07 200.299 353.73C200.299 359.05 200.38 364.18 200.41 369.07C200.41 371.51 200.426 373.89 200.46 376.21C200.392 377.325 200.469 378.445 200.689 379.54C200.984 380.549 201.579 381.443 202.396 382.105C203.213 382.766 204.212 383.162 205.259 383.24C206.259 383.24 207.329 383.24 208.329 383.24H214.13L231.63 383.18H236.389H237.63H238.049H237.63H236.389L231.639 383.27L214.13 383.5L208.329 383.56C207.329 383.56 206.329 383.61 205.229 383.56C204.116 383.474 203.052 383.064 202.169 382.38C201.259 381.662 200.592 380.681 200.259 379.57C200.103 379.061 200.016 378.533 199.999 378C199.999 377.43 199.999 376.86 199.999 376.28C199.999 373.96 199.976 371.58 199.929 369.14C199.929 364.25 199.839 359.14 199.789 353.81C199.789 351.14 199.789 348.44 199.729 345.69C199.75 344.212 200.349 342.802 201.398 341.76C202.447 340.719 203.862 340.13 205.339 340.12L237.13 339.88C238.386 339.775 239.643 340.073 240.719 340.73C241.768 341.385 242.57 342.37 242.999 343.53C243.218 344.088 243.34 344.68 243.359 345.28C243.359 345.86 243.359 346.42 243.359 346.98C243.359 348.1 243.359 349.21 243.359 350.3C243.359 354.64 243.359 358.69 243.429 362.38C243.499 366.07 243.429 369.38 243.429 372.38C243.429 373.85 243.429 375.21 243.429 376.47C243.429 377.1 243.429 377.69 243.429 378.28C243.388 378.835 243.263 379.382 243.059 379.9C242.759 380.651 242.295 381.326 241.702 381.876C241.109 382.426 240.401 382.837 239.63 383.08C239.101 383.233 238.547 383.284 237.999 383.23V383.23Z" fill="#2F3F5C"/>
<path d="M207.869 351.71C208.026 351.696 208.183 351.696 208.339 351.71H209.769L215.209 351.6L234.549 351.32H234.779V351.56C234.839 357.32 234.899 363.78 234.969 370.56L234.699 370.83H232.839H230.999H227.369H220.369L207.999 371H207.779V356.83C207.779 355.22 207.779 353.94 207.779 353.02C207.779 352.62 207.779 352.29 207.779 352.02C207.762 351.914 207.762 351.806 207.779 351.7C207.779 351.7 207.779 351.83 207.779 352.07C207.779 352.31 207.779 352.67 207.779 353.07C207.779 354 207.829 355.3 207.869 356.93C207.919 360.27 207.999 365 208.089 370.72L207.879 370.51L220.269 370.37L227.269 370.3H230.889H232.739H234.599L234.339 370.56C234.339 363.75 234.249 357.28 234.209 351.56L234.449 351.8H215.269H209.769H208.289L207.869 351.71Z" fill="#2F3F5C"/>
<path d="M221.309 363.77C221.377 363.669 221.457 363.579 221.549 363.5L222.269 362.79L224.959 360.22C227.299 358 230.549 354.94 234.389 351.32L234.549 351.73L221.209 351.86L207.869 351.95L208.019 351.54L217.599 360.28L220.329 362.81L221.059 363.5C221.152 363.58 221.236 363.671 221.309 363.77C221.309 363.77 220.969 363.51 220.309 362.96L217.539 360.55L207.699 351.89L207.239 351.48H207.849L221.199 351.34L234.539 351.25H235.149L234.699 351.66L224.999 360.49L222.259 362.94C221.649 363.5 221.309 363.79 221.309 363.77Z" fill="#2F3F5C"/>
<path d="M217.579 360.42C216.182 362.31 214.648 364.094 212.989 365.76C211.449 367.548 209.778 369.22 207.989 370.76C209.387 368.87 210.921 367.086 212.579 365.42C214.116 363.628 215.788 361.957 217.579 360.42Z" fill="#2F3F5C"/>
<path d="M234.7 370.53C231.229 367.375 227.987 363.977 225 360.36C226.806 361.862 228.495 363.5 230.05 365.26C231.732 366.896 233.287 368.658 234.7 370.53Z" fill="#2F3F5C"/>
<path d="M237.909 282.75H205.549C202.567 282.75 200.149 285.168 200.149 288.15V320.51C200.149 323.492 202.567 325.91 205.549 325.91H237.909C240.892 325.91 243.309 323.492 243.309 320.51V288.15C243.309 285.168 240.892 282.75 237.909 282.75Z" fill="#F77021"/>
<path d="M234.31 313.62C234.302 313.493 234.302 313.366 234.31 313.24C234.31 312.97 234.31 312.63 234.31 312.24C234.31 311.29 234.26 309.98 234.22 308.32C234.22 304.93 234.09 300.15 234 294.39L234.21 294.6L209.21 294.85L209.46 294.59V297.15C209.46 298.01 209.46 298.86 209.46 299.7C209.46 301.38 209.46 303.03 209.46 304.65C209.46 307.88 209.46 310.96 209.52 313.84L209.28 313.61H227.28H232.42H233.8H234.29C234.144 313.624 233.996 313.624 233.85 313.61H232.52L227.43 313.71L209.29 313.98H209.06V313.75C209.06 310.86 209 307.75 208.96 304.55C208.96 302.94 208.96 301.28 208.96 299.6V297.06V294.49L209.22 294.22L234.22 294.06H234.44V308.34C234.44 309.98 234.44 311.28 234.44 312.22C234.44 312.63 234.44 312.96 234.44 313.22C234.422 313.36 234.378 313.496 234.31 313.62V313.62Z" fill="#FAFAFA"/>
<path d="M217.51 290.77C218.231 290.659 218.96 290.609 219.69 290.62C221.08 290.56 223.06 290.52 225.41 290.47H225.54L225.61 290.59L227.84 294.27L228.07 294.65H227.62H225.26C221.31 294.65 217.73 294.65 215.12 294.65H214.79L214.96 294.38C216.37 292.03 217.37 290.62 217.51 290.74C217.65 290.86 217.27 291.08 216.88 291.74C216.49 292.4 215.88 293.45 215.28 294.56L215.12 294.28C217.73 294.22 221.31 294.16 225.25 294.13H227.62L227.4 294.52L225.21 290.81L225.41 290.93C223.06 290.93 221.09 290.93 219.7 290.88C218.968 290.905 218.236 290.868 217.51 290.77V290.77Z" fill="#FAFAFA"/>
<path d="M226.879 305.78C226.879 305.78 227.009 305.28 227.059 304.39C227.126 303.125 226.775 301.874 226.059 300.83C225.482 299.983 224.68 299.313 223.744 298.896C222.808 298.479 221.774 298.331 220.759 298.468C219.743 298.605 218.786 299.023 217.994 299.673C217.202 300.324 216.607 301.182 216.275 302.152C215.943 303.121 215.888 304.164 216.115 305.164C216.343 306.163 216.844 307.079 217.563 307.81C218.282 308.54 219.19 309.056 220.185 309.3C221.181 309.544 222.224 309.506 223.199 309.19C224.417 308.813 225.473 308.038 226.199 306.99C226.709 306.25 226.859 305.76 226.909 305.78C226.959 305.8 226.909 305.91 226.819 306.14C226.713 306.491 226.562 306.827 226.369 307.14C225.683 308.277 224.622 309.139 223.369 309.58C222.62 309.835 221.828 309.939 221.039 309.885C220.249 309.831 219.479 309.619 218.772 309.264C218.065 308.908 217.436 308.415 216.923 307.813C216.409 307.212 216.02 306.513 215.779 305.76C215.38 304.544 215.38 303.231 215.779 302.015C216.178 300.799 216.956 299.742 217.999 299C218.974 298.328 220.125 297.959 221.309 297.94C222.301 297.929 223.279 298.17 224.153 298.638C225.027 299.107 225.769 299.788 226.309 300.62C227.042 301.732 227.36 303.066 227.209 304.39C227.174 304.731 227.097 305.067 226.979 305.39C226.999 305.67 226.899 305.78 226.879 305.78Z" fill="#FAFAFA"/>
<path d="M294.976 224.891L262.617 225.157C259.634 225.181 257.237 227.619 257.261 230.601L257.527 262.96C257.551 265.942 259.988 268.34 262.971 268.315L295.33 268.05C298.312 268.026 300.71 265.588 300.685 262.606L300.42 230.247C300.395 227.265 297.958 224.867 294.976 224.891Z" fill="#4B6590"/>
<path d="M292.77 245.85C292.661 244.682 292.471 243.522 292.2 242.38C291.353 239.283 289.49 236.561 286.91 234.65C285.017 233.242 282.8 232.332 280.464 232.006C278.127 231.679 275.746 231.945 273.54 232.78C272.262 233.241 271.064 233.899 269.99 234.73C268.854 235.569 267.859 236.581 267.04 237.73C265.28 240.154 264.344 243.078 264.369 246.073C264.394 249.068 265.379 251.977 267.18 254.37C268.014 255.523 269.027 256.536 270.18 257.37C271.264 258.182 272.469 258.819 273.75 259.26C275.973 260.056 278.36 260.281 280.693 259.914C283.025 259.547 285.228 258.6 287.1 257.16C289.644 255.206 291.46 252.457 292.26 249.35C292.516 248.205 292.687 247.041 292.77 245.87C292.785 245.946 292.785 246.024 292.77 246.1V246.79C292.773 247.162 292.746 247.533 292.69 247.9C292.646 248.407 292.559 248.909 292.43 249.4C292.132 250.765 291.623 252.074 290.92 253.28C289.236 256.209 286.579 258.455 283.412 259.63C280.245 260.804 276.766 260.833 273.58 259.71C272.246 259.261 270.991 258.607 269.86 257.77C268.668 256.921 267.619 255.888 266.75 254.71C264.879 252.23 263.856 249.215 263.831 246.108C263.805 243.002 264.78 239.97 266.61 237.46C267.46 236.269 268.492 235.219 269.67 234.35C270.786 233.498 272.027 232.823 273.35 232.35C275.626 231.498 278.081 231.234 280.486 231.584C282.892 231.933 285.17 232.885 287.11 234.35C288.593 235.467 289.843 236.863 290.79 238.46C291.515 239.658 292.051 240.96 292.38 242.32C292.511 242.809 292.604 243.307 292.66 243.81C292.719 244.177 292.749 244.549 292.75 244.92C292.75 245.2 292.75 245.42 292.75 245.61C292.773 245.688 292.779 245.77 292.77 245.85V245.85Z" fill="white"/>
<path d="M274.999 239.11C275.278 239.225 275.549 239.358 275.809 239.51L278.199 240.77C280.249 241.86 283.199 243.43 286.629 245.33L287.009 245.54L286.639 245.76L280.999 249.05L275.229 252.38L274.859 252.59V252.17C274.859 248.29 274.859 244.97 274.919 242.67C274.919 241.6 274.919 240.67 274.919 240.01C274.893 239.711 274.893 239.41 274.919 239.11C274.919 239.11 274.919 239.49 274.969 240.11C275.019 240.73 275.019 241.75 275.059 242.85C275.129 245.18 275.219 248.39 275.269 252.14L274.899 251.93L280.659 248.57L286.309 245.3V245.73C283.019 243.87 280.219 242.22 278.189 241.03L275.809 239.63C275.269 239.32 274.999 239.13 274.999 239.11Z" fill="white"/>
<path d="M234.47 268.06C234.47 267.92 235.14 267.8 235.98 267.79C236.82 267.78 237.49 267.89 237.49 268.04C237.49 268.19 236.82 268.3 235.98 268.31C235.14 268.32 234.47 268.21 234.47 268.06Z" fill="#E0E0E0"/>
<path d="M228.42 268.11C228.42 267.97 229.09 267.85 229.93 267.84C230.77 267.83 231.44 267.94 231.44 268.09C231.44 268.24 230.77 268.35 229.93 268.36C229.09 268.37 228.42 268.26 228.42 268.11Z" fill="#E0E0E0"/>
<path d="M222.369 268.16C222.369 268.02 223.049 267.9 223.879 267.89C224.709 267.88 225.389 267.99 225.399 268.14C225.409 268.29 224.719 268.4 223.879 268.41C223.039 268.42 222.369 268.31 222.369 268.16Z" fill="#E0E0E0"/>
<path d="M216.319 268.21C216.319 268.07 216.999 267.95 217.829 267.94C218.659 267.93 219.339 268.04 219.349 268.19C219.359 268.34 218.669 268.45 217.839 268.46C217.009 268.47 216.319 268.36 216.319 268.21Z" fill="#E0E0E0"/>
<path d="M210.27 268.26C210.27 268.12 210.95 268 211.78 267.99C212.61 267.98 213.3 268.09 213.3 268.24C213.3 268.39 212.62 268.5 211.79 268.51C210.96 268.52 210.27 268.41 210.27 268.26Z" fill="#E0E0E0"/>
<path d="M204.23 268.24C204.23 268.07 204.89 268.08 205.73 268.04C206.57 268 207.25 268.14 207.25 268.29C207.25 268.44 206.57 268.55 205.74 268.56C204.91 268.57 204.18 268.36 204.23 268.24Z" fill="#E0E0E0"/>
<path d="M199.909 264.44C200.059 264.44 200.329 265.01 200.759 265.68C201.189 266.35 201.619 266.85 201.519 266.96C201.419 267.07 200.799 266.71 200.319 265.96C199.839 265.21 199.779 264.47 199.909 264.44Z" fill="#E0E0E0"/>
<path d="M199.65 258.41C199.8 258.41 199.92 259.09 199.92 259.92C199.92 260.75 199.82 261.44 199.68 261.44C199.54 261.44 199.41 260.76 199.4 259.93C199.39 259.1 199.51 258.42 199.65 258.41Z" fill="#E0E0E0"/>
<path d="M199.599 252.37C199.749 252.37 199.869 253.04 199.869 253.88C199.869 254.72 199.769 255.39 199.629 255.39C199.489 255.39 199.359 254.71 199.349 253.88C199.339 253.05 199.459 252.37 199.599 252.37Z" fill="#E0E0E0"/>
<path d="M199.549 246.32C199.699 246.32 199.819 246.99 199.819 247.83C199.819 248.67 199.719 249.34 199.579 249.34C199.439 249.34 199.309 248.67 199.299 247.83C199.289 246.99 199.409 246.32 199.549 246.32Z" fill="#E0E0E0"/>
<path d="M199.5 240.27C199.65 240.27 199.77 240.94 199.77 241.78C199.77 242.62 199.67 243.29 199.53 243.29C199.39 243.29 199.26 242.62 199.25 241.78C199.24 240.94 199.36 240.27 199.5 240.27Z" fill="#E0E0E0"/>
<path d="M199.45 234.22C199.6 234.22 199.72 234.89 199.72 235.73C199.72 236.57 199.62 237.24 199.48 237.24C199.34 237.24 199.21 236.57 199.2 235.73C199.19 234.89 199.31 234.22 199.45 234.22Z" fill="#E0E0E0"/>
<path d="M199.94 228.24C200.07 228.31 199.87 228.94 199.75 229.73C199.63 230.52 199.59 231.2 199.43 231.19C199.27 231.18 199.1 230.53 199.23 229.64C199.36 228.75 199.81 228.17 199.94 228.24Z" fill="#E0E0E0"/>
<path d="M204.769 225.15C204.769 225.29 204.109 225.39 203.349 225.62C202.589 225.85 201.989 226.12 201.909 226C201.829 225.88 202.349 225.37 203.199 225.12C204.049 224.87 204.779 225 204.769 225.15Z" fill="#E0E0E0"/>
<path d="M210.82 225.1C210.82 225.24 210.14 225.36 209.31 225.37C208.48 225.38 207.79 225.26 207.79 225.12C207.79 224.98 208.47 224.85 209.3 224.85C210.13 224.85 210.82 225 210.82 225.1Z" fill="#E0E0E0"/>
<path d="M216.87 225.05C216.87 225.19 216.19 225.31 215.36 225.32C214.53 225.33 213.84 225.21 213.84 225.07C213.84 224.93 214.52 224.8 215.35 224.8C216.18 224.8 216.87 224.9 216.87 225.05Z" fill="#E0E0E0"/>
<path d="M222.92 225C222.92 225.14 222.24 225.26 221.41 225.27C220.58 225.28 219.89 225.16 219.89 225.02C219.89 224.88 220.57 224.75 221.4 224.75C222.23 224.75 222.91 224.85 222.92 225Z" fill="#E0E0E0"/>
<path d="M228.999 225C228.999 225.14 228.33 225.26 227.49 225.27C226.65 225.28 225.979 225.16 225.979 225.02C225.979 224.88 226.65 224.75 227.49 224.75C228.33 224.75 228.999 224.8 228.999 225Z" fill="#E0E0E0"/>
<path d="M234.999 224.9C234.999 225.04 234.33 225.16 233.49 225.17C232.65 225.18 231.979 225.06 231.979 224.92C231.979 224.78 232.65 224.65 233.49 224.65C234.33 224.65 234.999 224.75 234.999 224.9Z" fill="#E0E0E0"/>
<path d="M240.74 226.22C240.64 226.32 240.09 225.96 239.37 225.62C238.65 225.28 238.02 225.09 238.04 224.94C238.06 224.79 238.79 224.77 239.59 225.15C240.39 225.53 240.84 226.12 240.74 226.22Z" fill="#E0E0E0"/>
<path d="M242.599 231.73C242.449 231.73 242.329 231.06 242.319 230.22C242.309 229.38 242.219 228.78 242.319 228.73C242.419 228.68 242.799 229.33 242.799 230.22C242.799 231.11 242.739 231.73 242.599 231.73Z" fill="#E0E0E0"/>
<path d="M242.65 237.78C242.5 237.78 242.38 237.11 242.37 236.27C242.36 235.43 242.48 234.76 242.62 234.76C242.76 234.76 242.89 235.43 242.89 236.27C242.89 237.11 242.79 237.78 242.65 237.78Z" fill="#E0E0E0"/>
<path d="M242.7 243.83C242.55 243.83 242.43 243.16 242.42 242.32C242.41 241.48 242.53 240.81 242.67 240.81C242.81 240.81 242.94 241.48 242.94 242.32C242.94 243.16 242.84 243.83 242.7 243.83Z" fill="#E0E0E0"/>
<path d="M242.749 249.88C242.599 249.88 242.479 249.21 242.469 248.37C242.459 247.53 242.579 246.86 242.719 246.86C242.859 246.86 242.989 247.53 242.989 248.37C242.989 249.21 242.889 249.88 242.749 249.88Z" fill="#E0E0E0"/>
<path d="M242.799 255.93C242.649 255.93 242.529 255.26 242.519 254.42C242.509 253.58 242.629 252.91 242.769 252.91C242.909 252.91 243.039 253.58 243.039 254.42C243.039 255.26 242.939 255.93 242.799 255.93Z" fill="#E0E0E0"/>
<path d="M242.85 262C242.7 262 242.58 261.32 242.57 260.49C242.56 259.66 242.68 258.98 242.82 258.97C242.96 258.96 243.09 259.65 243.09 260.48C243.09 261.31 243 262 242.85 262Z" fill="#E0E0E0"/>
<path d="M240.37 267.18C240.3 267.05 240.8 266.62 241.32 266.02C241.84 265.42 242.2 264.87 242.32 264.93C242.44 264.99 242.32 265.7 241.69 266.36C241.06 267.02 240.44 267.3 240.37 267.18Z" fill="#E0E0E0"/>
<path d="M291.46 381.201C291.46 381.051 292.13 380.931 292.97 380.921C293.81 380.911 294.48 381.031 294.48 381.171C294.48 381.311 293.81 381.44 292.97 381.44C292.13 381.44 291.46 381.341 291.46 381.201Z" fill="#E0E0E0"/>
<path d="M285.409 381.25C285.409 381.1 286.079 380.98 286.919 380.97C287.759 380.96 288.429 381.08 288.429 381.22C288.429 381.36 287.759 381.49 286.919 381.49C286.079 381.49 285.409 381.39 285.409 381.25Z" fill="#E0E0E0"/>
<path d="M279.359 381.3C279.359 381.15 280.029 381.03 280.869 381.02C281.709 381.01 282.379 381.13 282.379 381.27C282.379 381.41 281.709 381.54 280.869 381.54C280.029 381.54 279.359 381.44 279.359 381.3Z" fill="#E0E0E0"/>
<path d="M273.31 381.35C273.31 381.2 273.98 381.08 274.82 381.07C275.66 381.06 276.33 381.18 276.33 381.32C276.33 381.46 275.66 381.59 274.82 381.59C273.98 381.59 273.31 381.49 273.31 381.35Z" fill="#E0E0E0"/>
<path d="M267.26 381.4C267.26 381.25 267.94 381.13 268.77 381.12C269.6 381.11 270.28 381.23 270.29 381.37C270.3 381.51 269.61 381.64 268.78 381.64C267.95 381.64 267.26 381.54 267.26 381.4Z" fill="#E0E0E0"/>
<path d="M261.21 381.37C261.26 381.21 261.88 381.21 262.72 381.17C263.56 381.13 264.24 381.28 264.24 381.42C264.24 381.56 263.56 381.69 262.73 381.69C261.9 381.69 261.17 381.49 261.21 381.37Z" fill="#E0E0E0"/>
<path d="M256.9 377.58C257.04 377.58 257.32 378.14 257.75 378.81C258.18 379.48 258.61 379.98 258.51 380.09C258.41 380.2 257.79 379.84 257.31 379.09C256.83 378.34 256.76 377.6 256.9 377.58Z" fill="#E0E0E0"/>
<path d="M256.639 371.55C256.779 371.55 256.909 372.22 256.909 373.06C256.909 373.9 256.809 374.57 256.659 374.57C256.509 374.57 256.399 373.9 256.389 373.06C256.379 372.22 256.499 371.55 256.639 371.55Z" fill="#E0E0E0"/>
<path d="M256.589 365.5C256.729 365.5 256.859 366.17 256.859 367.01C256.859 367.85 256.759 368.52 256.609 368.52C256.459 368.52 256.349 367.85 256.339 367.01C256.329 366.17 256.449 365.5 256.589 365.5Z" fill="#E0E0E0"/>
<path d="M256.54 359.45C256.68 359.45 256.81 360.12 256.81 360.96C256.81 361.8 256.71 362.47 256.56 362.47C256.41 362.47 256.3 361.8 256.29 360.96C256.28 360.12 256.4 359.45 256.54 359.45Z" fill="#E0E0E0"/>
<path d="M256.49 353.4C256.63 353.4 256.76 354.08 256.76 354.91C256.76 355.74 256.66 356.42 256.52 356.42C256.38 356.42 256.25 355.75 256.24 354.91C256.23 354.07 256.35 353.4 256.49 353.4Z" fill="#E0E0E0"/>
<path d="M256.44 347.35C256.58 347.35 256.71 348.03 256.71 348.86C256.71 349.69 256.61 350.37 256.46 350.38C256.31 350.39 256.2 349.7 256.19 348.87C256.18 348.04 256.3 347.35 256.44 347.35Z" fill="#E0E0E0"/>
<path d="M256.92 341.38C257.06 341.44 256.86 342.08 256.74 342.86C256.62 343.64 256.58 344.33 256.42 344.33C256.26 344.33 256.09 343.66 256.22 342.78C256.35 341.9 256.8 341.31 256.92 341.38Z" fill="#E0E0E0"/>
<path d="M261.76 338.28C261.76 338.43 261.1 338.52 260.34 338.75C259.58 338.98 258.98 339.26 258.9 339.13C258.82 339 259.34 338.5 260.19 338.25C261.04 338 261.77 338.14 261.76 338.28Z" fill="#E0E0E0"/>
<path d="M267.809 338.23C267.809 338.37 267.129 338.49 266.299 338.5C265.469 338.51 264.779 338.4 264.779 338.25C264.779 338.1 265.459 337.99 266.289 337.98C267.119 337.97 267.799 338.08 267.809 338.23Z" fill="#E0E0E0"/>
<path d="M273.86 338.18C273.86 338.32 273.18 338.44 272.35 338.45C271.52 338.46 270.83 338.35 270.83 338.2C270.83 338.05 271.51 337.94 272.34 337.93C273.17 337.92 273.85 338 273.86 338.18Z" fill="#E0E0E0"/>
<path d="M279.9 338.13C279.9 338.27 279.23 338.39 278.39 338.4C277.55 338.41 276.88 338.3 276.88 338.15C276.88 338 277.55 337.89 278.39 337.88C279.23 337.87 279.9 338 279.9 338.13Z" fill="#E0E0E0"/>
<path d="M285.999 338.08C285.999 338.22 285.329 338.34 284.489 338.35C283.649 338.36 282.979 338.25 282.979 338.1C282.979 337.95 283.649 337.84 284.489 337.83C285.329 337.82 285.999 337.93 285.999 338.08Z" fill="#E0E0E0"/>
<path d="M291.999 338C291.999 338.14 291.329 338.26 290.489 338.27C289.649 338.28 288.979 338.17 288.979 338.02C288.979 337.87 289.649 337.76 290.489 337.75C291.329 337.74 291.999 337.88 291.999 338Z" fill="#E0E0E0"/>
<path d="M297.73 339.35C297.63 339.46 297.07 339.09 296.35 338.76C295.63 338.43 295.01 338.22 295.02 338.08C295.03 337.94 295.77 337.91 296.58 338.29C297.39 338.67 297.83 339.25 297.73 339.35Z" fill="#E0E0E0"/>
<path d="M299.579 344.87C299.439 344.87 299.319 344.19 299.309 343.36C299.299 342.53 299.209 341.91 299.309 341.86C299.409 341.81 299.779 342.46 299.789 343.35C299.799 344.24 299.729 344.87 299.579 344.87Z" fill="#E0E0E0"/>
<path d="M299.63 350.92C299.49 350.92 299.37 350.24 299.36 349.41C299.35 348.58 299.46 347.89 299.61 347.89C299.76 347.89 299.87 348.57 299.88 349.4C299.89 350.23 299.78 350.91 299.63 350.92Z" fill="#E0E0E0"/>
<path d="M299.68 357C299.54 357 299.42 356.33 299.41 355.49C299.4 354.65 299.51 353.98 299.66 353.98C299.81 353.98 299.92 354.66 299.93 355.49C299.94 356.32 299.83 357 299.68 357Z" fill="#E0E0E0"/>
<path d="M299.73 363C299.59 363 299.47 362.33 299.46 361.49C299.45 360.65 299.56 359.98 299.71 359.98C299.86 359.98 299.97 360.65 299.98 361.49C299.99 362.33 299.88 363 299.73 363Z" fill="#E0E0E0"/>
<path d="M299.779 369.06C299.639 369.06 299.519 368.39 299.509 367.55C299.499 366.71 299.609 366.04 299.759 366.04C299.909 366.04 300.019 366.71 300.029 367.55C300.039 368.39 299.929 369.06 299.779 369.06Z" fill="#E0E0E0"/>
<path d="M299.829 375.11C299.689 375.11 299.569 374.44 299.559 373.6C299.549 372.76 299.659 372.09 299.809 372.09C299.959 372.09 300.069 372.76 300.079 373.6C300.089 374.44 299.999 375.11 299.829 375.11Z" fill="#E0E0E0"/>
<path d="M297.359 380.31C297.289 380.18 297.789 379.75 298.309 379.15C298.829 378.55 299.189 378 299.309 378.06C299.429 378.12 299.309 378.83 298.679 379.5C298.049 380.17 297.429 380.43 297.359 380.31Z" fill="#E0E0E0"/>
<path d="M291.46 325.87C291.46 325.72 292.13 325.6 292.97 325.59C293.81 325.58 294.48 325.7 294.48 325.84C294.48 325.98 293.81 326.11 292.97 326.11C292.13 326.11 291.46 326 291.46 325.87Z" fill="#E0E0E0"/>
<path d="M285.409 325.92C285.409 325.77 286.079 325.65 286.919 325.64C287.759 325.63 288.429 325.75 288.429 325.89C288.429 326.03 287.759 326.16 286.919 326.16C286.079 326.16 285.409 326.06 285.409 325.92Z" fill="#E0E0E0"/>
<path d="M279.359 326C279.359 325.85 280.029 325.73 280.869 325.72C281.709 325.71 282.379 325.83 282.379 325.97C282.379 326.11 281.709 326.24 280.869 326.24C280.029 326.24 279.359 326.11 279.359 326Z" fill="#E0E0E0"/>
<path d="M273.31 326C273.31 325.85 273.98 325.73 274.82 325.72C275.66 325.71 276.33 325.83 276.33 325.97C276.33 326.11 275.66 326.24 274.82 326.24C273.98 326.24 273.31 326.16 273.31 326Z" fill="#E0E0E0"/>
<path d="M267.26 326.07C267.26 325.92 267.94 325.8 268.77 325.79C269.6 325.78 270.28 325.9 270.29 326.04C270.3 326.18 269.61 326.31 268.78 326.31C267.95 326.31 267.26 326.21 267.26 326.07Z" fill="#E0E0E0"/>
<path d="M261.21 326C261.26 325.84 261.88 325.84 262.72 325.8C263.56 325.76 264.24 325.91 264.24 326.05C264.24 326.19 263.56 326.32 262.73 326.32C261.9 326.32 261.17 326.16 261.21 326Z" fill="#E0E0E0"/>
<path d="M256.9 322.25C257.04 322.25 257.32 322.81 257.75 323.48C258.18 324.15 258.61 324.65 258.51 324.76C258.41 324.87 257.79 324.51 257.31 323.76C256.83 323.01 256.76 322.27 256.9 322.25Z" fill="#E0E0E0"/>
<path d="M256.639 316.22C256.779 316.22 256.909 316.89 256.909 317.73C256.909 318.57 256.809 319.24 256.659 319.24C256.509 319.24 256.399 318.57 256.389 317.73C256.379 316.89 256.499 316.22 256.639 316.22Z" fill="#E0E0E0"/>
<path d="M256.589 310.17C256.729 310.17 256.859 310.84 256.859 311.68C256.859 312.52 256.759 313.19 256.609 313.19C256.459 313.19 256.349 312.52 256.339 311.68C256.329 310.84 256.449 310.17 256.589 310.17Z" fill="#E0E0E0"/>
<path d="M256.54 304.12C256.68 304.12 256.81 304.79 256.81 305.63C256.81 306.47 256.71 307.14 256.56 307.14C256.41 307.14 256.3 306.47 256.29 305.63C256.28 304.79 256.4 304.12 256.54 304.12Z" fill="#E0E0E0"/>
<path d="M256.49 298.07C256.63 298.07 256.76 298.75 256.76 299.58C256.76 300.41 256.66 301.09 256.52 301.09C256.38 301.09 256.25 300.42 256.24 299.58C256.23 298.74 256.35 298.07 256.49 298.07Z" fill="#E0E0E0"/>
<path d="M256.44 292C256.58 292 256.71 292.68 256.71 293.51C256.71 294.34 256.61 295.02 256.46 295.03C256.31 295.04 256.2 294.35 256.19 293.52C256.18 292.69 256.3 292 256.44 292Z" fill="#E0E0E0"/>
<path d="M256.92 286.05C257.06 286.11 256.86 286.75 256.74 287.53C256.62 288.31 256.58 289 256.42 289C256.26 289 256.09 288.33 256.22 287.45C256.35 286.57 256.8 286 256.92 286.05Z" fill="#E0E0E0"/>
<path d="M261.76 283C261.76 283.15 261.1 283.24 260.34 283.47C259.58 283.7 258.98 283.98 258.9 283.85C258.82 283.72 259.34 283.22 260.19 282.97C261.04 282.72 261.77 282.81 261.76 283Z" fill="#E0E0E0"/>
<path d="M267.809 282.9C267.809 283.04 267.129 283.16 266.299 283.17C265.469 283.18 264.779 283.07 264.779 282.92C264.779 282.77 265.459 282.66 266.289 282.65C267.119 282.64 267.799 282.75 267.809 282.9Z" fill="#E0E0E0"/>
<path d="M273.86 282.85C273.86 282.99 273.18 283.11 272.35 283.12C271.52 283.13 270.83 283.02 270.83 282.87C270.83 282.72 271.51 282.61 272.34 282.6C273.17 282.59 273.85 282.7 273.86 282.85Z" fill="#E0E0E0"/>
<path d="M279.9 282.8C279.9 282.94 279.23 283.06 278.39 283.07C277.55 283.08 276.88 282.97 276.88 282.82C276.88 282.67 277.55 282.56 278.39 282.55C279.23 282.54 279.9 282.65 279.9 282.8Z" fill="#E0E0E0"/>
<path d="M285.999 282.75C285.999 282.89 285.329 283.01 284.489 283.02C283.649 283.03 282.979 282.92 282.979 282.77C282.979 282.62 283.649 282.51 284.489 282.5C285.329 282.49 285.999 282.6 285.999 282.75Z" fill="#E0E0E0"/>
<path d="M291.999 282.7C291.999 282.84 291.329 282.96 290.489 282.97C289.649 282.98 288.979 282.87 288.979 282.72C288.979 282.57 289.649 282.46 290.489 282.45C291.329 282.44 291.999 282.55 291.999 282.7Z" fill="#E0E0E0"/>
<path d="M297.73 284C297.63 284.11 297.07 283.74 296.35 283.41C295.63 283.08 295.01 282.87 295.02 282.73C295.03 282.59 295.77 282.56 296.58 282.94C297.39 283.32 297.83 283.92 297.73 284Z" fill="#E0E0E0"/>
<path d="M299.579 289.54C299.439 289.54 299.319 288.86 299.309 288.03C299.299 287.2 299.209 286.58 299.309 286.53C299.409 286.48 299.779 287.13 299.789 288.02C299.799 288.91 299.729 289.54 299.579 289.54Z" fill="#E0E0E0"/>
<path d="M299.63 295.59C299.49 295.59 299.37 294.91 299.36 294.08C299.35 293.25 299.46 292.56 299.61 292.56C299.76 292.56 299.87 293.24 299.88 294.07C299.89 294.9 299.78 295.58 299.63 295.59Z" fill="#E0E0E0"/>
<path d="M299.68 301.64C299.54 301.64 299.42 300.96 299.41 300.13C299.4 299.3 299.51 298.61 299.66 298.61C299.81 298.61 299.92 299.29 299.93 300.12C299.94 300.95 299.83 301.63 299.68 301.64Z" fill="#E0E0E0"/>
<path d="M299.73 307.68C299.59 307.68 299.47 307.01 299.46 306.17C299.45 305.33 299.56 304.66 299.71 304.66C299.86 304.66 299.97 305.33 299.98 306.17C299.99 307.01 299.88 307.68 299.73 307.68Z" fill="#E0E0E0"/>
<path d="M299.779 313.73C299.639 313.73 299.519 313.06 299.509 312.22C299.499 311.38 299.609 310.71 299.759 310.71C299.909 310.71 300.019 311.38 300.029 312.22C300.039 313.06 299.929 313.73 299.779 313.73Z" fill="#E0E0E0"/>
<path d="M299.829 319.78C299.689 319.78 299.569 319.11 299.559 318.27C299.549 317.43 299.659 316.76 299.809 316.76C299.959 316.76 300.069 317.43 300.079 318.27C300.089 319.11 299.999 319.78 299.829 319.78Z" fill="#E0E0E0"/>
<path d="M297.359 325C297.289 324.87 297.789 324.44 298.309 323.84C298.829 323.24 299.189 322.69 299.309 322.75C299.429 322.81 299.309 323.52 298.679 324.19C298.049 324.86 297.429 325.1 297.359 325Z" fill="#E0E0E0"/>
<path d="M243.491 175.26C247.643 173.29 249.411 168.328 247.442 164.177C245.472 160.025 240.51 158.256 236.359 160.226C232.207 162.195 230.438 167.157 232.408 171.309C234.377 175.461 239.339 177.229 243.491 175.26Z" fill="#F77021"/>
<path d="M243 169.06C243 170.28 242.13 171.23 240.37 171.24C239.402 171.28 238.454 170.951 237.72 170.32L238.08 169.72C238.702 170.284 239.52 170.582 240.36 170.55C241.57 170.55 242.24 169.97 242.23 169.06C242.22 168.15 241.6 167.62 240.23 167.63H239.71V167.08L241.71 164.52H237.97V163.85H242.68V164.39L240.68 167.01C242.18 167.07 243 167.89 243 169.06Z" fill="white"/>
<path d="M239.72 396.16C239.724 396.581 239.603 396.994 239.372 397.347C239.141 397.699 238.811 397.975 238.423 398.14C238.036 398.305 237.608 398.351 237.194 398.273C236.78 398.195 236.399 397.995 236.098 397.7C235.797 397.405 235.591 397.027 235.505 396.615C235.419 396.203 235.457 395.774 235.615 395.383C235.772 394.993 236.042 394.657 236.39 394.42C236.738 394.183 237.149 394.054 237.57 394.05C237.85 394.046 238.128 394.098 238.388 394.202C238.648 394.306 238.885 394.461 239.085 394.657C239.285 394.853 239.444 395.087 239.553 395.345C239.662 395.603 239.719 395.88 239.72 396.16V396.16Z" fill="#2F3F5C"/>
<path d="M251.619 396.06C251.625 396.482 251.505 396.896 251.276 397.25C251.046 397.604 250.716 397.882 250.328 398.048C249.94 398.214 249.511 398.261 249.096 398.183C248.681 398.105 248.299 397.906 247.998 397.61C247.696 397.315 247.49 396.936 247.404 396.523C247.318 396.11 247.357 395.68 247.516 395.289C247.675 394.898 247.946 394.563 248.295 394.326C248.645 394.089 249.057 393.962 249.479 393.96C249.758 393.957 250.034 394.01 250.292 394.114C250.55 394.218 250.785 394.372 250.984 394.567C251.183 394.762 251.341 394.994 251.45 395.25C251.559 395.506 251.617 395.782 251.619 396.06V396.06Z" fill="#2F3F5C"/>
<path d="M263.529 396C263.535 396.422 263.416 396.837 263.186 397.191C262.956 397.545 262.626 397.822 262.238 397.989C261.85 398.155 261.421 398.202 261.006 398.124C260.591 398.046 260.209 397.846 259.908 397.551C259.606 397.255 259.4 396.877 259.314 396.463C259.228 396.05 259.267 395.62 259.426 395.229C259.585 394.838 259.856 394.503 260.206 394.266C260.555 394.03 260.967 393.902 261.389 393.9C261.951 393.898 262.491 394.117 262.891 394.51C263.292 394.903 263.521 395.439 263.529 396V396Z" fill="#2F3F5C"/>
<path d="M306 139C306 139.08 303.21 139.18 299.76 139.21C296.31 139.24 293.51 139.21 293.51 139.1C293.51 138.99 296.3 138.92 299.75 138.89C303.2 138.86 306 138.94 306 139Z" fill="#2F3F5C"/>
<path d="M306.06 142.23C306.06 142.31 303.26 142.4 299.81 142.43C296.36 142.46 293.57 142.43 293.56 142.33C295.638 142.154 297.724 142.084 299.81 142.12C301.893 142.048 303.98 142.084 306.06 142.23Z" fill="#2F3F5C"/>
<path d="M306.09 145.42C304.011 145.596 301.925 145.666 299.84 145.63C296.39 145.63 293.59 145.63 293.59 145.53C295.668 145.354 297.754 145.284 299.84 145.32C303.29 145.29 306.09 145.34 306.09 145.42Z" fill="#2F3F5C"/>
<path d="M192.39 149.07H192.65H193.38L196 149C196 148.41 196 147.76 196 147.07C196 146.71 196 146.37 196 145.95C196.044 145.732 196.156 145.534 196.319 145.383C196.483 145.232 196.689 145.137 196.91 145.11C197.35 145.11 197.72 145.11 198.19 145.11C198.44 145.15 198.667 145.278 198.832 145.47C198.997 145.662 199.088 145.907 199.09 146.16C199.09 147.07 199.09 148.01 199.09 148.99L198.94 148.84H202.31L202.16 148.99C202.16 147.63 202.16 146.23 202.16 144.8C202.16 144.44 202.16 144.08 202.16 143.73C202.149 143.572 202.1 143.419 202.019 143.283C201.937 143.148 201.824 143.033 201.69 142.95L200.22 141.5L198.8 140.1L198.12 139.42C197.88 139.19 197.7 138.96 197.43 138.91C197.302 138.875 197.168 138.869 197.038 138.893C196.909 138.917 196.786 138.971 196.68 139.05C196.48 139.22 196.26 139.46 196.05 139.66L194.85 140.88C194.09 141.67 193.29 142.39 192.72 143.07C192.552 143.46 192.493 143.889 192.55 144.31V145.49C192.55 146.22 192.55 146.85 192.55 147.4C192.55 147.95 192.55 148.28 192.55 148.63C192.564 148.776 192.564 148.923 192.55 149.07C192.542 148.937 192.542 148.803 192.55 148.67C192.55 148.33 192.55 147.94 192.55 147.47C192.55 147 192.55 146.27 192.5 145.54C192.5 145.16 192.5 144.76 192.5 144.33C192.434 143.862 192.496 143.385 192.68 142.95C193.31 142.18 194.05 141.51 194.81 140.7L196.01 139.47C196.23 139.26 196.4 139.05 196.66 138.82C196.801 138.714 196.964 138.642 197.138 138.609C197.311 138.576 197.489 138.583 197.66 138.63C197.982 138.741 198.267 138.943 198.48 139.21L199.17 139.89L200.6 141.28L202.07 142.73C202.23 142.846 202.363 142.996 202.459 143.168C202.556 143.341 202.614 143.533 202.63 143.73C202.63 144.09 202.63 144.44 202.63 144.8C202.63 146.24 202.63 147.64 202.63 149V149.15H202.48H199.12H198.97V149C198.97 148 198.97 147.08 198.97 146.18C198.972 145.988 198.906 145.802 198.783 145.656C198.66 145.509 198.489 145.411 198.3 145.38C197.92 145.38 197.46 145.38 197.09 145.38C196.919 145.399 196.759 145.471 196.632 145.586C196.504 145.7 196.416 145.852 196.38 146.02C196.38 146.35 196.38 146.75 196.38 147.1V149.1H196H193.29H192.58C192.515 149.096 192.452 149.086 192.39 149.07V149.07Z" fill="#2F3F5C"/>
<path d="M343.243 340.652L310.883 340.975C307.901 341.005 305.508 343.447 305.537 346.429L305.861 378.789C305.891 381.772 308.333 384.165 311.315 384.135L343.675 383.812C346.657 383.782 349.051 381.34 349.021 378.358L348.697 345.998C348.668 343.015 346.226 340.622 343.243 340.652Z" fill="#4B6590"/>
<path d="M316.13 361.1L316.58 361.45L317.79 362.45L322.22 366.09L322.28 366.14V366.22C322.07 368.42 321.82 371.07 321.53 374.04L321.21 373.84L327.89 369.7L328 369.63L328.11 369.69L335.31 372.85L334.96 373.14C334.36 370.68 333.74 368.14 333.1 365.51C333.1 365.4 333.04 365.74 333.16 365.27V365.22L333.25 365.12L333.42 364.94L333.75 364.56L334.42 363.82L335.74 362.34L338.33 359.46L338.5 359.89L330.67 359.27H330.54L330.48 359.16L326.56 352.35H326.93L323.93 359.6V359.68H323.85L318.22 360.79L316.69 361.08C316.506 361.126 316.319 361.159 316.13 361.18L316.61 361.06L318.08 360.71L323.78 359.38L323.67 359.47L326.62 352.18L326.77 351.79L326.99 352.16L330.99 358.94L330.8 358.82L338.64 359.41H339.15L338.81 359.79L336.23 362.68L334.91 364.15L334.24 364.9L333.9 365.27L333.74 365.46L333.65 365.56C333.77 365.09 333.65 365.43 333.71 365.33C334.34 367.94 334.96 370.5 335.55 372.96L335.67 373.47L335.2 373.26L328.02 370.06H328.24L321.53 374.15L321.17 374.37L321.22 373.95C321.54 370.95 321.83 368.33 322.07 366.14L322.13 366.27L317.73 362.4L316.6 361.4L316.13 361.1Z" fill="#FAFAFA"/>
<path d="M139.5 347.479L147.39 422.869H133.69L120.01 357.679L139.5 347.479Z" fill="#FFBE9D"/>
<path d="M114.14 310.3H90.2401L95.3201 354.2L59.5801 404L66.8701 413.32L106.56 372.06L114.83 363.18C115.7 362.244 116.37 361.141 116.799 359.937C117.227 358.733 117.404 357.455 117.32 356.18L114.14 310.3Z" fill="#FFBE9D"/>
<path d="M115.19 340.319C115.271 340.478 115.331 340.646 115.37 340.819C115.47 341.149 115.61 341.639 115.77 342.279C116.09 343.559 116.52 345.419 116.9 347.749C117.379 350.476 117.593 353.242 117.54 356.009C117.504 357.671 117.186 359.314 116.6 360.869C115.848 362.47 114.834 363.934 113.6 365.199C108.6 370.399 104.11 375.059 100.83 378.429L96.9097 382.429L95.8297 383.489C95.5797 383.729 95.4397 383.849 95.4297 383.829C95.5238 383.681 95.6346 383.543 95.7597 383.419L96.7597 382.289L100.55 378.209C103.84 374.739 108.29 370.059 113.2 364.869C114.428 363.655 115.442 362.242 116.2 360.689C116.769 359.196 117.084 357.617 117.13 356.019C117.201 353.279 117.027 350.538 116.61 347.829C116.27 345.509 115.9 343.639 115.61 342.359L115.31 340.869C115.242 340.693 115.202 340.508 115.19 340.319Z" fill="#EB996E"/>
<path d="M161.63 251.329L162.05 251.269C165.451 250.789 168.823 250.122 172.15 249.269C176.24 248.009 176.15 247.629 175.92 247.179C175.34 245.949 168.66 249.119 169.72 247.599C170.78 246.079 178.32 244.679 177.66 243.419C176.8 241.789 169.86 245.239 169.25 245.489C168.64 245.739 168.25 244.859 168.85 244.659C169.65 244.379 178.03 241.239 177.2 239.659C176.74 238.769 175.2 239.789 175.2 239.789C175.2 239.789 167.56 243.309 167.2 242.539C166.84 241.769 171.25 239.539 172.79 238.879C174.33 238.219 174.64 237.259 173.79 236.809C173.23 236.499 168.47 238.359 166.96 239.029C165.45 239.699 161.34 241.619 162.64 239.029C162.64 239.029 162.64 238.939 162.69 238.899C164.04 236.369 164.25 233.969 163.83 233.229C163.724 233.077 163.577 232.957 163.407 232.884C163.236 232.81 163.049 232.785 162.865 232.812C162.681 232.839 162.508 232.917 162.366 233.037C162.224 233.156 162.118 233.313 162.06 233.489C161.999 233.614 161.965 233.751 161.96 233.889C161.955 233.963 161.955 234.036 161.96 234.109C161.686 235.06 161.317 235.982 160.86 236.859C160.462 237.651 159.935 238.371 159.3 238.989C158.58 239.689 157.93 240.269 157.37 240.739L151.7 242.999L156.84 252.719L160.51 252.009" fill="#FFBE9D"/>
<path d="M139.4 245.41L158.4 239.15L162.75 253L136.87 262.12C134.658 262.899 132.236 262.828 130.073 261.921C127.911 261.013 126.163 259.334 125.17 257.21L120.79 240.35L134.09 230.29L139.4 245.41Z" fill="#F77021"/>
<path d="M99.5698 208.11C99.5698 208.11 77.7898 205.21 79.5698 227.2C80.1498 234.53 83.4198 245 85.7898 250.83C86.5851 252.797 86.6594 254.983 85.9998 257C83.9198 263.51 78.6898 273.12 77.7998 278.5L122.73 282.26L122.6 245L130.34 241.83L136.87 239.26C128.27 202.98 112.27 207.66 112.27 207.66L99.5698 208.07" fill="#F77021"/>
<g opacity="0.2">
<path opacity="0.2" d="M86.4295 252.649C86.8595 255.979 85.4295 258.929 83.9695 262.319C83.9695 262.319 90.2995 277.139 96.2195 277.799C101.22 278.369 112.3 279.409 122.71 280.389L123.06 271.989L80.5195 233.069C81.2995 238.209 83.7095 244.769 86.4295 252.649Z" fill="black"/>
</g>
<path d="M143 348.21C132.28 325.99 123.41 302.21 122.74 277.54L123.02 235.84L105.73 237.84L98.5403 278.07L77.5403 278.52C73.3203 288.52 74.1803 299.43 77.0503 309.41C80.4103 321.12 87.6403 332.46 85.7303 344.49C85.2703 347.34 84.4103 350.62 86.2403 352.84C87.4603 354.33 89.5103 354.84 91.3903 355.18C106.3 358.18 122.01 361.13 136.47 356.4C137.495 356.127 138.421 355.568 139.14 354.79C141.77 351.61 143.86 349.91 143 348.21Z" fill="#2F3F5C"/>
<path d="M97.9403 280.89C98.0008 281.576 97.8801 282.266 97.5903 282.89C97.0127 284.462 95.9367 285.801 94.5265 286.704C93.1163 287.607 91.4494 288.023 89.7803 287.89C89.0796 287.895 88.3899 287.716 87.7803 287.37C87.7803 287.29 88.5503 287.51 89.7803 287.52C91.3524 287.547 92.8975 287.109 94.2225 286.263C95.5475 285.416 96.5937 284.198 97.2303 282.76C97.7503 281.64 97.8503 280.87 97.9403 280.89Z" fill="#4B6590"/>
<path d="M121.76 223.199C121.756 223.539 121.702 223.875 121.6 224.199C121.46 224.839 121.25 225.769 120.97 226.919V226.779C121.52 227.709 122.13 228.839 122.74 230.109C123.441 231.485 123.987 232.934 124.37 234.429C124.432 234.732 124.469 235.04 124.48 235.349C124.48 235.639 124.48 235.929 124.48 236.219C124.48 236.789 124.41 237.349 124.35 237.889C124.23 238.898 124.057 239.899 123.83 240.889C123.516 242.318 123.078 243.717 122.52 245.069V244.999C122.544 245.463 122.504 245.927 122.4 246.379C122.309 245.925 122.269 245.462 122.28 244.999V244.999C122.732 243.63 123.099 242.234 123.38 240.819C123.56 239.909 123.72 238.919 123.83 237.819C123.83 237.289 123.92 236.739 123.94 236.179V235.329C123.926 235.054 123.892 234.78 123.84 234.509C123.467 233.054 122.947 231.64 122.29 230.289C121.7 229.019 121.13 227.889 120.62 226.939V226.869V226.799C120.95 225.669 121.22 224.749 121.42 224.119C121.491 223.799 121.606 223.489 121.76 223.199V223.199Z" fill="#2F3F5C"/>
<path d="M112.76 240.479C112.76 240.479 112.63 241.009 112.11 241.679C111.417 242.543 110.531 243.232 109.524 243.692C108.517 244.152 107.416 244.371 106.31 244.329C105.851 244.342 105.398 244.228 105 243.999C106.478 243.997 107.943 243.719 109.32 243.179C110.623 242.5 111.79 241.584 112.76 240.479V240.479Z" fill="#2F3F5C"/>
<path d="M86.7598 210.28C86.7598 210.28 99.5598 219.28 106.1 237.82L109 237.45C109 237.45 104.1 219 88.8798 209.33C88.1311 209.543 87.417 209.863 86.7598 210.28V210.28Z" fill="#2F3F5C"/>
<path d="M114.199 207.79C114.199 207.79 122.199 221.47 122.469 236.41H119.729C119.729 236.41 116.539 213.27 110.729 207.5L114.199 207.79Z" fill="#2F3F5C"/>
<path d="M109.38 237.399C109.43 237.399 109.69 237.779 109.92 238.529C110.062 238.986 110.089 239.47 110 239.939C109.941 240.245 109.812 240.532 109.623 240.778C109.434 241.025 109.19 241.224 108.91 241.359C108.611 241.477 108.283 241.503 107.968 241.436C107.653 241.368 107.365 241.209 107.14 240.979C106.796 240.636 106.563 240.197 106.47 239.719C106.31 238.949 106.36 238.479 106.47 238.469C106.58 238.459 106.63 238.929 106.87 239.619C106.997 240.003 107.221 240.348 107.52 240.619C107.678 240.777 107.878 240.886 108.096 240.934C108.314 240.982 108.541 240.966 108.75 240.889C108.957 240.783 109.138 240.633 109.281 240.45C109.425 240.267 109.527 240.056 109.58 239.829C109.664 239.427 109.664 239.012 109.58 238.609C109.43 237.889 109.3 237.429 109.38 237.399Z" fill="#4B6590"/>
<path d="M107.83 238.559C107.83 238.629 107.83 238.729 107.83 238.849C107.834 238.874 107.844 238.897 107.858 238.918C107.871 238.938 107.889 238.956 107.91 238.969C107.943 238.976 107.977 238.976 108.01 238.969C108.07 238.969 108.09 238.969 108.1 238.899C108.115 238.854 108.115 238.805 108.1 238.759C108.03 238.659 107.93 238.629 107.9 238.569C107.87 238.509 108.01 238.339 108.29 238.449C108.375 238.483 108.45 238.538 108.506 238.61C108.563 238.683 108.598 238.769 108.61 238.859C108.624 238.981 108.599 239.104 108.538 239.211C108.477 239.317 108.383 239.401 108.27 239.449C108.159 239.501 108.034 239.517 107.914 239.493C107.794 239.47 107.684 239.409 107.6 239.319C107.54 239.249 107.5 239.163 107.484 239.072C107.468 238.98 107.477 238.886 107.51 238.799C107.58 238.499 107.82 238.499 107.83 238.559Z" fill="#4B6590"/>
<path d="M121.27 238.05C121.27 238.12 121.11 238.2 120.84 238.17C120.488 238.112 120.168 237.93 119.938 237.657C119.709 237.383 119.585 237.037 119.59 236.68C119.59 236.41 119.72 236.27 119.78 236.28C119.84 236.29 119.93 236.85 120.34 237.28C120.75 237.71 121.26 237.91 121.27 238.05Z" fill="#4B6590"/>
<path d="M118 246.51C116.766 246.964 115.479 247.253 114.17 247.37C112.89 247.653 111.579 247.767 110.27 247.71C111.499 247.256 112.784 246.967 114.09 246.85C115.372 246.566 116.687 246.452 118 246.51V246.51Z" fill="#4B6590"/>
<path d="M112.62 292.239C112.957 293.328 113.364 294.394 113.84 295.429C114.63 297.369 115.72 300.059 116.84 303.049C117.96 306.039 119.01 308.759 119.74 310.739C120.088 311.823 120.509 312.882 121 313.909C120.968 313.602 120.897 313.299 120.79 313.009C120.64 312.439 120.39 311.629 120.06 310.629C119.41 308.629 118.45 305.869 117.28 302.879C116.11 299.889 114.97 297.209 114.1 295.289C113.66 294.289 113.29 293.559 113.03 293.039C112.927 292.757 112.79 292.488 112.62 292.239V292.239Z" fill="#4B6590"/>
<path d="M67.48 414.21L68.39 413.41L60 403.08L56.21 406.39L56.72 407.04C58.98 409.91 68.42 421.48 70.59 422.82C73 424.31 67.48 414.21 67.48 414.21Z" fill="#F77021"/>
<g opacity="0.5">
<path opacity="0.5" d="M59.4604 409.92C60.1719 409.038 60.5285 407.922 60.4604 406.79C60.4181 405.659 59.946 404.586 59.1404 403.79L56.3604 406.24L59.4604 409.92Z" fill="white"/>
</g>
<g opacity="0.5">
<path opacity="0.5" d="M69.9995 419.28C69.9995 419.28 71.7595 422.98 70.9995 423.04C70.2395 423.1 60.1995 411.77 56.2295 406.39L56.4695 406.21L67.9995 419.53C67.9995 419.53 69.4995 418.72 69.9995 419.28Z" fill="white"/>
</g>
<path d="M56.3203 406.05C56.3552 406.118 56.3989 406.182 56.4503 406.24L56.8503 406.75L58.3603 408.63C59.6503 410.2 61.4603 412.34 63.5103 414.63C65.5603 416.92 67.4603 419.03 68.8503 420.5L70.5203 422.24L70.9803 422.71C71.028 422.766 71.0816 422.816 71.1403 422.86C71.1403 422.86 71.1403 422.8 71.0003 422.69L70.5603 422.2L68.9303 420.43C67.5603 418.93 65.6703 416.85 63.6303 414.53C61.5903 412.21 59.7603 410.07 58.4503 408.53L56.9003 406.69L56.4803 406.2C56.4308 406.146 56.3774 406.096 56.3203 406.05V406.05Z" fill="#2F3F5C"/>
<path d="M67.8301 419.66C68.5512 419.239 69.4 419.094 70.2201 419.25C69.8276 419.066 69.388 419.006 68.9607 419.079C68.5333 419.153 68.1387 419.355 67.8301 419.66V419.66Z" fill="#2F3F5C"/>
<path d="M66.7295 415.419C66.7295 415.469 67.0295 415.419 67.3895 415.419C67.61 415.406 67.8249 415.344 68.0195 415.239C67.802 415.192 67.577 415.192 67.3595 415.239C67.139 415.253 66.924 415.315 66.7295 415.419V415.419Z" fill="#2F3F5C"/>
<path d="M66.4502 414.25C66.4502 414.25 66.6902 414.35 66.9902 414.39C67.2902 414.43 67.5502 414.39 67.5502 414.39C67.5502 414.39 67.3102 414.29 67.0102 414.25C66.7102 414.21 66.4502 414.2 66.4502 414.25Z" fill="#2F3F5C"/>
<path d="M66.9404 412.91C66.9404 412.91 67.0804 413.2 67.3304 413.49C67.5804 413.78 67.8104 413.99 67.8404 413.96C67.8704 413.93 67.7004 413.67 67.4504 413.38C67.2004 413.09 67.0004 412.88 66.9404 412.91Z" fill="#2F3F5C"/>
<path d="M67.4404 412.16C67.4804 412.43 67.6026 412.682 67.7904 412.88C67.9359 413.11 68.144 413.294 68.3904 413.41C68.3904 413.41 68.1704 413.13 67.9104 412.78C67.6504 412.43 67.4904 412.14 67.4404 412.16Z" fill="#2F3F5C"/>
<path d="M67.8897 414.999C68.0464 415.237 68.2386 415.45 68.4597 415.629C68.6915 415.836 68.9427 416.02 69.2097 416.179C69.369 416.276 69.5363 416.36 69.7097 416.429C69.8195 416.469 69.9398 416.469 70.0497 416.429C70.1061 416.398 70.1523 416.352 70.1825 416.295C70.2127 416.238 70.2256 416.173 70.2197 416.109C70.1253 415.759 69.912 415.453 69.6164 415.243C69.3208 415.033 68.9613 414.933 68.5997 414.959C68.3868 414.973 68.179 415.031 67.9897 415.129C67.8597 415.199 67.7997 415.259 67.8097 415.269C68.0603 415.151 68.3327 415.086 68.6097 415.079C68.9033 415.069 69.1929 415.15 69.4397 415.309C69.7402 415.488 69.9618 415.774 70.0597 416.109C70.0597 416.279 69.9197 416.349 69.7497 416.289C69.585 416.234 69.4272 416.161 69.2797 416.069C69.0158 415.921 68.765 415.75 68.5297 415.559C68.1297 415.219 67.9097 414.999 67.8897 414.999Z" fill="#2F3F5C"/>
<path d="M67.9996 415.19C67.9996 415.19 68.2396 415.19 68.5096 414.87C68.6543 414.701 68.7602 414.503 68.8196 414.29C68.8666 414.152 68.8785 414.005 68.854 413.862C68.8295 413.719 68.7696 413.584 68.6796 413.47C68.608 413.419 68.52 413.397 68.4329 413.408C68.3459 413.419 68.2662 413.463 68.2096 413.53C68.1196 413.634 68.0546 413.757 68.0196 413.89C67.9512 414.097 67.9109 414.312 67.8996 414.53C67.8704 414.732 67.891 414.938 67.9596 415.13C67.9596 415.13 67.9596 414.9 67.9596 414.55C67.9857 414.341 68.0361 414.137 68.1096 413.94C68.1696 413.74 68.3496 413.46 68.5196 413.6C68.5883 413.693 68.6333 413.802 68.6508 413.917C68.6682 414.032 68.6575 414.15 68.6196 414.26C68.5732 414.455 68.4882 414.638 68.3696 414.8C68.2096 415.08 67.9996 415.16 67.9996 415.19Z" fill="#2F3F5C"/>
<path d="M59.21 403.86C59.21 403.86 59.49 404.12 59.83 404.62C60.2789 405.262 60.5387 406.017 60.58 406.8C60.6132 407.581 60.4298 408.356 60.05 409.04C59.76 409.57 59.49 409.83 59.51 409.85C59.53 409.87 59.59 409.8 59.71 409.68C59.8752 409.501 60.0226 409.307 60.15 409.1C60.57 408.405 60.7753 407.601 60.74 406.79C60.7008 405.977 60.4147 405.196 59.92 404.55C59.7791 404.353 59.6145 404.175 59.43 404.02C59.3 403.9 59.22 403.85 59.21 403.86Z" fill="#2F3F5C"/>
<path d="M61.5195 410.32C61.8354 410.889 62.2217 411.417 62.6695 411.89C63.0744 412.397 63.5452 412.847 64.0695 413.23C64.0695 413.23 63.4895 412.59 62.7895 411.78C62.0895 410.97 61.5595 410.3 61.5195 410.32Z" fill="#2F3F5C"/>
<path d="M59.82 408.37C59.82 408.37 59.73 408.54 59.64 408.74C59.55 408.94 59.45 409.09 59.48 409.12C59.51 409.15 59.68 409.03 59.79 408.8C59.9 408.57 59.86 408.37 59.82 408.37Z" fill="#2F3F5C"/>
<path d="M60.0902 406.83C60.0402 406.83 60.0002 406.98 59.9802 407.18C59.9602 407.38 59.9802 407.53 60.0402 407.53C60.1002 407.53 60.1302 407.38 60.1402 407.19C60.1502 407 60.1302 406.83 60.0902 406.83Z" fill="#2F3F5C"/>
<path d="M59.5801 405.41C59.5801 405.41 59.6701 405.58 59.7501 405.77C59.8301 405.96 59.8401 406.14 59.8901 406.14C59.9401 406.14 59.9901 405.95 59.8901 405.71C59.7901 405.47 59.6001 405.38 59.5801 405.41Z" fill="#2F3F5C"/>
<path d="M59.1201 404.49C59.1201 404.49 59.1201 404.61 59.1201 404.72C59.1201 404.83 59.2301 404.91 59.2701 404.89C59.3101 404.87 59.2701 404.78 59.2701 404.67C59.2701 404.56 59.1601 404.48 59.1201 404.49Z" fill="#2F3F5C"/>
<path d="M147 423.21V421.99L133.69 421.93L133.85 426.93H134.67C138.33 427 153.26 427.04 155.67 426.21C158.27 425.34 147 423.21 147 423.21Z" fill="#F77021"/>
<g opacity="0.5">
<path opacity="0.5" d="M138.55 426.68C138.313 425.571 137.675 424.589 136.76 423.92C135.862 423.257 134.749 422.954 133.64 423.07L133.77 426.77L138.55 426.68Z" fill="white"/>
</g>
<g opacity="0.5">
<path opacity="0.5" d="M152.49 424.449C152.49 424.449 156.49 425.449 156 426.109C155.51 426.769 140.44 427.299 133.76 426.959V426.659L151.37 426.189C151.37 426.189 151.72 424.509 152.49 424.449Z" fill="white"/>
</g>
<path d="M133.57 426.66H133.79H134.45H136.85C138.85 426.66 141.69 426.66 144.79 426.52C147.89 426.38 150.69 426.25 152.72 426.11L155.12 425.93L155.77 425.87H156H155.77H155.12L152.71 426C150.71 426.11 147.88 426.25 144.79 426.36C141.7 426.47 138.88 426.52 136.85 426.55H134.45H133.79C133.712 426.576 133.638 426.613 133.57 426.66V426.66Z" fill="#2F3F5C"/>
<path d="M151.39 426.389C151.479 425.988 151.617 425.598 151.8 425.229C152.02 424.867 152.282 424.532 152.58 424.229C152.192 424.421 151.871 424.725 151.659 425.101C151.447 425.477 151.353 425.909 151.39 426.339V426.389Z" fill="#2F3F5C"/>
<path d="M147.42 424.55C147.42 424.55 147.63 424.34 147.82 424.03C147.948 423.85 148.036 423.646 148.08 423.43C148.08 423.43 147.86 423.64 147.68 423.95C147.5 424.26 147.38 424.53 147.42 424.55Z" fill="#2F3F5C"/>
<path d="M146.33 424C146.33 424 146.56 423.88 146.78 423.67C147 423.46 147.16 423.26 147.13 423.23C147.1 423.2 146.89 423.34 146.67 423.55C146.45 423.76 146.3 424 146.33 424Z" fill="#2F3F5C"/>
<path d="M145.61 422.799C145.61 422.849 145.92 422.869 146.3 422.859C146.534 422.882 146.77 422.851 146.99 422.769C146.99 422.769 146.68 422.699 146.29 422.699C146.059 422.681 145.827 422.715 145.61 422.799V422.799Z" fill="#2F3F5C"/>
<path d="M145.34 421.93C145.574 422.073 145.846 422.142 146.12 422.13C146.391 422.167 146.668 422.118 146.91 421.99C146.65 421.972 146.39 421.972 146.13 421.99C145.869 421.947 145.604 421.927 145.34 421.93Z" fill="#2F3F5C"/>
<path d="M147.82 423.379C148.101 423.431 148.389 423.431 148.67 423.379C148.977 423.332 149.279 423.255 149.57 423.149C149.747 423.088 149.917 423.011 150.08 422.92C150.18 422.855 150.251 422.755 150.28 422.64C150.291 422.577 150.284 422.512 150.259 422.454C150.234 422.395 150.193 422.345 150.14 422.309C149.927 422.215 149.696 422.169 149.463 422.175C149.231 422.181 149.002 422.239 148.794 422.344C148.586 422.45 148.405 422.6 148.262 422.784C148.12 422.968 148.02 423.182 147.97 423.409C147.97 423.559 147.97 423.64 147.97 423.64C148.049 423.375 148.17 423.125 148.33 422.899C148.517 422.673 148.763 422.504 149.04 422.409C149.361 422.28 149.719 422.28 150.04 422.409C150.17 422.499 150.13 422.66 149.98 422.76C149.831 422.847 149.673 422.921 149.51 422.98C149.226 423.085 148.936 423.172 148.64 423.239C148.15 423.349 147.82 423.359 147.82 423.379Z" fill="#2F3F5C"/>
<path d="M148.05 423.42C148.146 423.239 148.171 423.028 148.12 422.83C148.091 422.605 148.005 422.392 147.87 422.21C147.793 422.088 147.687 421.988 147.561 421.918C147.435 421.848 147.294 421.811 147.15 421.81C147.107 421.819 147.066 421.837 147.03 421.862C146.995 421.887 146.964 421.92 146.941 421.957C146.917 421.994 146.902 422.036 146.895 422.079C146.888 422.123 146.89 422.167 146.9 422.21C146.924 422.344 146.979 422.47 147.06 422.58C147.174 422.766 147.315 422.935 147.48 423.08C147.618 423.223 147.785 423.335 147.97 423.41C147.97 423.41 147.8 423.26 147.56 423C147.414 422.849 147.286 422.681 147.18 422.5C147.06 422.33 146.97 422.01 147.18 421.96C147.39 421.91 147.62 422.14 147.75 422.3C147.875 422.462 147.963 422.65 148.01 422.85C148.04 423.038 148.053 423.229 148.05 423.42V423.42Z" fill="#2F3F5C"/>
<path d="M133.71 423C133.71 423 134.09 423 134.71 423C135.49 423.068 136.237 423.348 136.87 423.81C137.493 424.28 137.974 424.913 138.26 425.64C138.49 426.2 138.52 426.58 138.55 426.58C138.565 426.49 138.565 426.399 138.55 426.31C138.518 426.068 138.461 425.83 138.38 425.6C138.116 424.831 137.624 424.161 136.97 423.68C136.315 423.199 135.532 422.924 134.72 422.89C134.481 422.865 134.239 422.865 134 422.89C133.897 422.906 133.798 422.943 133.71 423V423Z" fill="#2F3F5C"/>
<path d="M140.17 425.349C140.81 425.465 141.461 425.502 142.11 425.459C142.757 425.46 143.402 425.379 144.03 425.219C144.03 425.169 143.17 425.219 142.1 425.299C141.03 425.379 140.17 425.299 140.17 425.349Z" fill="#2F3F5C"/>
<path d="M137.58 425.419C137.58 425.419 137.66 425.599 137.75 425.799C137.84 425.999 137.9 426.159 137.95 426.159C138 426.159 138.01 425.949 137.89 425.719C137.77 425.489 137.61 425.389 137.58 425.419Z" fill="#2F3F5C"/>
<path d="M136.56 424.239C136.56 424.239 136.62 424.409 136.76 424.539C136.9 424.669 137.04 424.759 137.07 424.719C137.1 424.679 137.01 424.559 136.87 424.419C136.73 424.279 136.59 424.209 136.56 424.239Z" fill="#2F3F5C"/>
<path d="M135.14 423.73C135.14 423.73 135.33 423.73 135.53 423.83C135.73 423.93 135.87 423.99 135.9 423.96C135.93 423.93 135.82 423.75 135.57 423.68C135.32 423.61 135.13 423.69 135.14 423.73Z" fill="#2F3F5C"/>
<path d="M134.14 423.51C134.14 423.51 134.2 423.61 134.31 423.65C134.42 423.69 134.53 423.65 134.54 423.65C134.55 423.65 134.48 423.54 134.37 423.5C134.26 423.46 134.15 423.47 134.14 423.51Z" fill="#2F3F5C"/>
<path d="M116.38 171L119 188.68L123 187.92C123.7 187.881 124.357 187.568 124.83 187.05C125.41 186.2 124.83 185.05 124.11 184.29C123.39 183.53 122.45 182.92 122.18 181.92C121.91 180.92 122.44 179.81 122.44 178.75C122.368 177.66 121.975 176.616 121.31 175.75C120.7 174.85 119.96 174.29 119.96 171.41" fill="#2F3F5C"/>
<path d="M112.71 208.189C112.49 203.769 112.34 199.119 112.34 199.119C112.34 199.119 117.99 197.879 118.78 190.399C119.54 183.259 117.53 166.969 117.53 166.969C113.408 165.555 108.951 165.436 104.759 166.628C100.567 167.82 96.8408 170.267 94.0801 173.639V173.639L96.4201 209.479C96.5185 210.496 96.8179 211.482 97.3009 212.382C97.7838 213.282 98.4407 214.077 99.2333 214.721C100.026 215.364 100.939 215.844 101.918 216.133C102.898 216.421 103.925 216.511 104.94 216.399V216.399C107.045 216.301 109.031 215.391 110.48 213.86C111.928 212.33 112.728 210.297 112.71 208.189V208.189Z" fill="#FFBE9D"/>
<path d="M117.33 179.85C117.332 180.094 117.245 180.331 117.084 180.515C116.924 180.699 116.702 180.818 116.46 180.85C116.22 180.875 115.98 180.804 115.792 180.652C115.605 180.5 115.485 180.28 115.46 180.04C115.458 179.796 115.545 179.559 115.706 179.375C115.866 179.191 116.088 179.072 116.33 179.04C116.57 179.015 116.81 179.086 116.998 179.238C117.185 179.39 117.305 179.61 117.33 179.85V179.85Z" fill="#2F3F5C"/>
<path d="M117.57 178.7C117.46 178.83 116.71 178.34 115.68 178.39C114.65 178.44 113.94 179 113.82 178.88C113.7 178.76 113.87 178.6 114.18 178.34C114.61 178.012 115.13 177.824 115.67 177.8C116.203 177.766 116.733 177.907 117.18 178.2C117.51 178.42 117.62 178.64 117.57 178.7Z" fill="#2F3F5C"/>
<path d="M106.55 180.57C106.552 180.814 106.464 181.05 106.304 181.235C106.144 181.419 105.922 181.538 105.68 181.57C105.44 181.595 105.2 181.524 105.012 181.372C104.824 181.22 104.705 181 104.68 180.76C104.678 180.516 104.765 180.279 104.925 180.095C105.086 179.911 105.308 179.792 105.55 179.76C105.79 179.735 106.03 179.806 106.217 179.958C106.405 180.11 106.525 180.33 106.55 180.57V180.57Z" fill="#2F3F5C"/>
<path d="M106.899 179.629C106.789 179.759 106.039 179.259 105.009 179.319C103.979 179.379 103.269 179.919 103.149 179.799C103.029 179.679 103.149 179.519 103.509 179.269C103.936 178.934 104.457 178.742 104.999 178.719C105.532 178.691 106.061 178.831 106.509 179.119C106.839 179.349 106.999 179.569 106.899 179.629Z" fill="#2F3F5C"/>
<path d="M111 186.999C111.531 186.801 112.085 186.674 112.65 186.619C112.91 186.619 113.15 186.509 113.19 186.329C113.198 186.056 113.121 185.787 112.97 185.559L112.1 183.559C111.299 181.908 110.631 180.196 110.1 178.439C111.032 180.023 111.838 181.679 112.51 183.389C112.81 184.069 113.09 184.729 113.36 185.389C113.532 185.692 113.599 186.044 113.55 186.389C113.515 186.483 113.461 186.569 113.39 186.64C113.319 186.71 113.234 186.765 113.14 186.799C112.997 186.847 112.849 186.874 112.7 186.879C112.141 186.993 111.569 187.033 111 186.999V186.999Z" fill="#2F3F5C"/>
<path d="M112.34 199.12C108.851 199.359 105.365 198.625 102.27 197C102.27 197 104.94 202 112.34 200.9V199.12Z" fill="#EB996E"/>
<path d="M107.86 189C108.171 188.68 108.551 188.434 108.97 188.28C109.181 188.212 109.408 188.217 109.616 188.293C109.825 188.369 110.002 188.512 110.12 188.7C110.19 188.86 110.25 189.06 110.41 189.08C110.57 189.1 110.62 189.01 110.74 188.99C110.86 188.97 111.06 189.13 111.09 189.3C111.105 189.478 111.063 189.657 110.97 189.81C110.832 190.106 110.665 190.388 110.47 190.65C110.247 191 109.927 191.277 109.55 191.45C109.206 191.565 108.834 191.565 108.49 191.45C108.054 191.342 107.676 191.074 107.43 190.7C107.311 190.512 107.24 190.298 107.223 190.077C107.206 189.856 107.242 189.634 107.33 189.43C107.414 189.234 107.554 189.066 107.731 188.947C107.908 188.829 108.116 188.763 108.33 188.76" fill="#EB996E"/>
<path d="M108 187.9C108.17 187.9 108.23 188.99 109.22 189.73C110.21 190.47 111.39 190.29 111.41 190.44C111.43 190.59 111.15 190.67 110.65 190.71C110 190.75 109.357 190.563 108.83 190.18C108.308 189.817 107.949 189.264 107.83 188.64C107.85 188.18 108 187.89 108 187.9Z" fill="#2F3F5C"/>
<path d="M97.2295 181.679C96.4255 181.555 95.6028 181.652 94.8495 181.959C94.4743 182.116 94.1337 182.345 93.8471 182.633C93.5606 182.921 93.3337 183.263 93.1795 183.639C92.9121 184.414 92.9478 185.26 93.2795 186.009C93.6174 186.753 94.1161 187.412 94.7395 187.939C95.161 188.345 95.6712 188.646 96.2295 188.819C96.5099 188.901 96.8059 188.912 97.0917 188.853C97.3776 188.794 97.6446 188.666 97.8695 188.479" fill="#FFBE9D"/>
<path d="M97 186.52C97.09 186.52 96.77 187.04 96 186.88C95.8023 186.828 95.6171 186.736 95.4556 186.611C95.294 186.485 95.1595 186.328 95.06 186.15C94.8192 185.752 94.6594 185.31 94.59 184.85C94.5082 184.359 94.604 183.856 94.86 183.43C94.9663 183.251 95.1113 183.098 95.2843 182.982C95.4573 182.866 95.654 182.79 95.86 182.76C96.6 182.76 96.86 183.21 96.78 183.23C96.7 183.25 96.42 183.05 95.94 183.23C95.6472 183.358 95.4104 183.587 95.2726 183.875C95.1349 184.163 95.1056 184.492 95.19 184.8C95.32 185.62 95.67 186.35 96.12 186.51C96.57 186.67 97 186.45 97 186.52Z" fill="#EB996E"/>
<path d="M115.68 165.05C116.041 166.16 116.033 167.358 115.656 168.463C115.279 169.568 114.554 170.521 113.59 171.18C111.59 172.45 109.1 172.28 106.78 172.58C104.46 172.88 101.78 174.13 101.56 176.45C101.4 177.86 102.18 179.36 101.56 180.66C100.89 182.18 98.7599 182.54 97.9399 183.98C96.6299 186.3 99.6399 189.06 99.0699 191.66L83.7399 188.88C83.7865 188.166 83.9899 187.472 84.3356 186.846C84.6814 186.221 85.1608 185.679 85.7399 185.26C84.3071 186 83.0908 187.099 82.2099 188.45L77.6699 186.91C78.3147 185.367 79.2873 183.983 80.5201 182.854C81.753 181.725 83.2168 180.877 84.8099 180.37C87.2599 179.58 83.8099 175.21 84.9799 172.93C86.3299 170.35 91.0899 171.6 92.4399 169.02C92.9299 168.08 92.7599 166.94 93.0299 165.91C93.6399 163.57 96.3799 162.44 98.7999 162.4C101.22 162.36 103.64 163.06 106.05 162.82C107.37 162.69 108.64 162.27 109.95 162.06C111.256 161.77 112.622 161.924 113.83 162.5C114.423 162.805 114.894 163.303 115.167 163.912C115.44 164.521 115.497 165.204 115.33 165.85" fill="#2F3F5C"/>
<path d="M113.81 170C114.81 172.58 116.3 176.05 118.95 176.82C119.95 175.64 120.1 171.75 119.89 169.93C119.73 168.079 118.984 166.327 117.76 164.93C117.139 164.245 116.355 163.729 115.48 163.43C114.606 163.13 113.67 163.058 112.76 163.22" fill="#2F3F5C"/>
<path d="M86.8097 189.17C86.7163 189.046 86.6515 188.902 86.6197 188.75C86.5187 188.309 86.5187 187.851 86.6197 187.41C86.7486 186.701 87.0098 186.022 87.3897 185.41C87.8097 184.7 88.3897 183.97 88.8597 183.09C89.3453 182.116 89.5298 181.019 89.3897 179.94C89.1882 178.642 89.2631 177.317 89.6097 176.05C89.872 175.331 90.4075 174.745 91.0997 174.42C91.7896 174.143 92.5121 173.954 93.2497 173.86C93.9493 173.787 94.6128 173.512 95.1597 173.07C95.6502 172.536 95.9946 171.885 96.1597 171.18C96.3496 170.421 96.5902 169.676 96.8797 168.95C97.1983 168.239 97.6382 167.59 98.1797 167.03C99.2013 165.949 100.579 165.274 102.06 165.13C103.367 165.094 104.672 165.277 105.92 165.67C106.975 165.982 108.062 166.173 109.16 166.24C110.053 166.286 110.939 166.059 111.7 165.59C112.265 165.224 112.72 164.713 113.02 164.11C113.257 163.579 113.37 163.001 113.35 162.42C113.414 162.561 113.445 162.715 113.44 162.87C113.468 163.322 113.389 163.774 113.21 164.19C112.917 164.852 112.451 165.422 111.86 165.84C111.058 166.361 110.116 166.626 109.16 166.6C108.029 166.57 106.907 166.399 105.82 166.09C104.615 165.726 103.358 165.564 102.1 165.61C100.742 165.763 99.4813 166.39 98.5397 167.38C98.0478 167.904 97.6457 168.505 97.3497 169.16C97.0737 169.868 96.8432 170.593 96.6597 171.33C96.468 172.127 96.0676 172.859 95.4997 173.45C94.879 173.957 94.126 174.277 93.3297 174.37C92.6446 174.451 91.9726 174.619 91.3297 174.87C91.0242 174.995 90.748 175.182 90.519 175.419C90.29 175.657 90.1131 175.94 89.9997 176.25C89.6617 177.453 89.58 178.713 89.7597 179.95C89.7989 180.544 89.7721 181.141 89.6797 181.73C89.5845 182.278 89.3951 182.806 89.1197 183.29C88.6097 184.21 88.0097 184.92 87.5797 185.59C87.2001 186.157 86.9226 186.787 86.7597 187.45C86.6417 188.019 86.6589 188.608 86.8097 189.17V189.17Z" fill="#4B6590"/>
<path d="M115.9 165.379C115.873 165.516 115.833 165.65 115.78 165.779C115.639 166.156 115.462 166.518 115.25 166.859C114.468 168.14 113.346 169.178 112.01 169.859C111.075 170.333 110.055 170.615 109.01 170.689C107.845 170.746 106.678 170.709 105.52 170.579C104.279 170.429 103.023 170.483 101.8 170.739C101.167 170.864 100.569 171.128 100.05 171.512C99.5314 171.896 99.1043 172.39 98.7998 172.959C98.2698 174.169 98.4298 175.589 98.1498 176.959C98.017 177.662 97.6673 178.306 97.1498 178.799C96.6373 179.215 96.0452 179.521 95.4098 179.699C94.8563 179.846 94.332 180.086 93.8598 180.409C93.4463 180.732 93.1283 181.16 92.9398 181.649C92.6267 182.58 92.4778 183.558 92.4998 184.539C92.6416 186.025 92.3165 187.518 91.5698 188.809C91.3369 189.147 91.0243 189.422 90.6598 189.609C90.5364 189.681 90.4007 189.728 90.2598 189.749C90.7135 189.489 91.103 189.13 91.3998 188.699C92.0468 187.411 92.3007 185.961 92.1298 184.529C92.0881 183.513 92.227 182.497 92.5398 181.529C92.7374 180.965 93.0827 180.465 93.5398 180.079C94.0537 179.731 94.6165 179.462 95.2098 179.279C95.7786 179.121 96.3093 178.849 96.7698 178.479C97.1893 178.045 97.4682 177.495 97.5698 176.899C97.8298 175.659 97.6398 174.209 98.2398 172.799C98.579 172.158 99.058 171.602 99.6413 171.171C100.225 170.74 100.897 170.445 101.61 170.309C102.889 170.043 104.204 169.992 105.5 170.159C106.634 170.299 107.777 170.352 108.92 170.319C109.902 170.264 110.863 170.016 111.75 169.589C113.045 168.97 114.157 168.026 114.98 166.849C115.66 165.899 115.85 165.359 115.9 165.379Z" fill="#4B6590"/>
<path d="M121.68 176.32C121.522 175.732 121.328 175.155 121.1 174.59C120.829 174.01 120.421 173.506 119.91 173.12C119.21 172.652 118.542 172.138 117.91 171.58C117.269 170.975 116.832 170.185 116.66 169.32C116.51 168.55 116.48 167.86 116.4 167.32C116.3 166.719 116.163 166.124 115.99 165.54C116.436 166.01 116.71 166.616 116.77 167.26C117.03 168.38 116.98 170.08 118.27 171.26C118.88 171.85 119.58 172.31 120.18 172.79C120.736 173.24 121.16 173.83 121.41 174.5C121.703 175.059 121.798 175.7 121.68 176.32V176.32Z" fill="#4B6590"/>
<path d="M106.91 177.33C106.77 177.59 105.98 177.44 105.01 177.39C104.04 177.34 103.24 177.39 103.13 177.1C103.02 176.81 103.88 176.28 105.07 176.35C106.26 176.42 107.06 177.09 106.91 177.33Z" fill="#2F3F5C"/>
<path d="M117.24 176.709C117.24 176.999 116.49 177.219 115.58 177.209C114.67 177.199 113.93 176.949 113.93 176.659C113.93 176.369 114.68 176.149 115.59 176.169C116.5 176.189 117.24 176.419 117.24 176.709Z" fill="#2F3F5C"/>
<path d="M124.453 228.998L113.989 260.021C113.035 262.847 114.554 265.91 117.379 266.864L148.402 277.328C151.228 278.281 154.292 276.763 155.245 273.937L165.709 242.915C166.662 240.089 165.144 237.025 162.318 236.072L131.296 225.608C128.47 224.654 125.406 226.172 124.453 228.998Z" fill="#4B6590"/>
<path d="M154 255.919C154.28 254.764 154.481 253.592 154.6 252.409C154.816 249.168 153.935 245.949 152.1 243.269C150.754 241.299 148.936 239.698 146.812 238.611C144.687 237.525 142.325 236.988 139.94 237.049C138.579 237.072 137.23 237.305 135.94 237.739C134.577 238.166 133.291 238.808 132.13 239.639C129.633 241.374 127.761 243.867 126.792 246.749C125.823 249.631 125.808 252.748 126.75 255.639C127.594 258.329 129.219 260.707 131.42 262.469C132.984 263.719 134.791 264.628 136.727 265.138C138.662 265.649 140.683 265.75 142.66 265.434C144.637 265.119 146.526 264.394 148.206 263.307C149.887 262.219 151.322 260.793 152.42 259.119C153.037 258.106 153.588 257.054 154.07 255.969C154.056 256.048 154.036 256.124 154.01 256.199L153.78 256.849C153.656 257.194 153.506 257.528 153.33 257.849C153.121 258.319 152.873 258.77 152.59 259.199C151.847 260.401 150.926 261.483 149.86 262.409C148.439 263.64 146.796 264.587 145.02 265.199C142.86 265.948 140.554 266.178 138.29 265.869C135.68 265.502 133.215 264.446 131.15 262.809C130.033 261.935 129.055 260.897 128.25 259.729C127.37 258.513 126.695 257.162 126.25 255.729C125.286 252.742 125.307 249.525 126.31 246.551C127.313 243.576 129.244 241.003 131.82 239.209C133.037 238.333 134.388 237.657 135.82 237.209C137.169 236.766 138.579 236.533 140 236.519C142.459 236.464 144.892 237.032 147.074 238.168C149.255 239.304 151.115 240.973 152.48 243.019C153.524 244.58 154.255 246.329 154.63 248.169C154.927 249.552 155.008 250.972 154.87 252.379C154.833 252.891 154.756 253.399 154.64 253.899C154.582 254.27 154.491 254.635 154.37 254.989L154.16 255.649C154.127 255.75 154.072 255.842 154 255.919Z" fill="#FAFAFA"/>
<path d="M154.85 255.649C153.782 255.555 152.736 255.292 151.75 254.869C150.711 254.614 149.721 254.188 148.82 253.609C149.888 253.697 150.935 253.957 151.92 254.379C152.96 254.638 153.951 255.067 154.85 255.649Z" fill="#FAFAFA"/>
<path d="M135 264.819C135.338 262.724 136.014 260.698 137 258.819C136.912 259.887 136.652 260.934 136.23 261.919C135.974 262.944 135.559 263.923 135 264.819Z" fill="#FAFAFA"/>
<path d="M142.27 243.34C142.357 242.271 142.617 241.225 143.04 240.24C143.295 239.199 143.725 238.208 144.31 237.31C144.216 238.377 143.956 239.423 143.54 240.41C143.276 241.448 142.847 242.437 142.27 243.34Z" fill="#FAFAFA"/>
<path d="M132.74 248.189C131.673 248.097 130.627 247.837 129.64 247.419C128.599 247.154 127.607 246.726 126.7 246.149C127.771 246.241 128.82 246.501 129.81 246.919C130.85 247.178 131.84 247.607 132.74 248.189Z" fill="#FAFAFA"/>
<path d="M149.11 246.21C147.624 247.241 146.039 248.122 144.38 248.84C142.789 249.727 141.114 250.454 139.38 251.01C140.869 249.985 142.453 249.104 144.11 248.38C145.703 247.497 147.377 246.77 149.11 246.21V246.21Z" fill="#FAFAFA"/>
<path d="M145.6 252.999C144.523 252.901 143.467 252.638 142.47 252.219C141.407 251.958 140.394 251.526 139.47 250.939C140.547 251.038 141.602 251.301 142.6 251.719C143.662 251.981 144.676 252.413 145.6 252.999V252.999Z" fill="#FAFAFA"/>
<path d="M139.85 273.469L143.18 275.289C146.35 276.689 148.06 277.579 149.35 277.289C151.08 276.839 150.12 274.919 150.12 274.919C150.12 274.919 152.72 275.399 153.26 273.919C153.345 273.612 153.331 273.286 153.222 272.987C153.113 272.687 152.913 272.429 152.65 272.249C152.65 272.249 155 272.579 155.82 271.999C156.96 271.199 155.93 269.849 155.93 269.849C159.45 269.709 160.11 267.979 159.6 267.479C159.09 266.979 156.51 266.769 156.51 266.769C154.51 266.299 148.99 265.089 152.2 263.469C155.41 261.849 157.25 259.409 157.29 258.399C157.267 258.177 157.177 257.966 157.034 257.795C156.89 257.623 156.698 257.499 156.483 257.437C156.267 257.376 156.039 257.381 155.826 257.45C155.613 257.52 155.427 257.652 155.29 257.829C154.446 258.697 153.483 259.442 152.43 260.039C151.603 260.56 150.693 260.936 149.74 261.149C148.63 261.389 147.68 261.549 146.87 261.669L142.33 262.859L139.85 273.469Z" fill="#FFBE9D"/>
<path d="M81.2295 229.21C82.8295 235.84 88.2295 247.77 93.4595 257.55C98.6895 267.33 106.759 269.62 106.759 269.62L143.079 277L145.859 260.95C145.859 260.95 114.339 252.64 111.729 251.95L94.7295 218.83" fill="#F77021"/>
<path d="M82.4502 214.23C82.6599 214.114 82.8811 214.02 83.1102 213.95C83.7542 213.707 84.4261 213.546 85.1102 213.47C86.2009 213.353 87.3037 213.445 88.3602 213.74C89.753 214.148 91.0513 214.828 92.1802 215.74C95.0568 218.16 97.359 221.19 98.9202 224.61C100.7 228.42 102.74 232.54 104.82 236.9L111.95 251.81L111.8 251.68L124.72 255.22L128.34 256.22L129.34 256.51C129.452 256.533 129.56 256.574 129.66 256.63C129.545 256.625 129.431 256.608 129.32 256.58L128.32 256.35L124.66 255.45L111.66 252.1H111.56V252C109.45 247.62 106.99 242.53 104.37 237.12C102.3 232.76 100.26 228.61 98.5202 224.82C97.014 221.441 94.789 218.431 92.0002 216C90.9129 215.104 89.6636 214.425 88.3202 214C87.3002 213.693 86.2327 213.574 85.1702 213.65C84.2497 213.772 83.3403 213.966 82.4502 214.23V214.23Z" fill="#2F3F5C"/>
</svg>
