<svg width="500" height="500" viewBox="0 0 500 500" fill="none" xmlns="http://www.w3.org/2000/svg">
<path opacity="0.7" d="M126.05 399.25C126.05 399.25 170.55 425.89 224.55 403.87C278.55 381.85 298.55 334.09 327.97 299.08C343.38 280.74 367.37 271.45 386.15 256.38C446.15 208.2 430.82 120.7 380.15 93.9002C336.28 70.7002 283.74 74.9002 217.15 105.73C150.56 136.56 102.62 156.15 64.5801 223.25C26.5401 290.35 71.0001 362.37 126.05 399.25Z" fill="#C1EEE6"/>
<path d="M427.08 325.55C423.87 324.96 419.69 329.13 418.32 331.7C418.22 331.88 417.25 334.33 416.91 335.26C416.91 335.26 416.91 335.2 416.91 335.17C417.009 332.161 416.841 329.149 416.41 326.17C416.035 323.525 415.508 320.904 414.83 318.32C414.23 315.91 413.53 313.75 412.89 311.84C412.54 310.84 412.2 309.84 411.89 309H411.95C412.01 309 412.24 305.06 412.22 304.81C412.06 301.9 410.03 296.37 406.87 295.54C406.341 295.418 405.792 295.409 405.259 295.513C404.727 295.618 404.222 295.833 403.777 296.145C403.333 296.457 402.96 296.859 402.681 297.325C402.402 297.791 402.225 298.311 402.16 298.85C401.8 301.13 403.3 303.54 404.81 305.11C406.32 306.68 410.65 308.48 411.71 308.91C412.03 309.81 412.37 310.8 412.71 311.91C413.3 313.83 413.95 316 414.5 318.41C414.66 319.09 414.81 319.79 414.96 320.51C414.49 319.42 413.78 317.87 413.7 317.73C412.21 315.22 407.86 311.24 404.7 311.97C404.175 312.105 403.684 312.349 403.26 312.687C402.835 313.024 402.487 313.447 402.237 313.928C401.987 314.41 401.841 314.938 401.809 315.479C401.777 316.021 401.859 316.563 402.05 317.07C402.78 319.26 405.22 320.71 407.29 321.4C409.36 322.09 414.16 321.7 415.21 321.59C415.49 323.08 415.75 324.59 415.93 326.25C416.289 329.185 416.39 332.147 416.23 335.1C416.23 335.28 416.23 335.46 416.23 335.64C416.09 335.08 415.08 331.94 414.98 331.73C413.78 329.07 409.89 324.64 406.64 325.01C406.102 325.087 405.587 325.277 405.127 325.566C404.667 325.856 404.273 326.239 403.972 326.691C403.67 327.143 403.466 327.653 403.375 328.189C403.283 328.725 403.306 329.273 403.44 329.8C403.93 332.05 406.2 333.8 408.18 334.67C410.45 335.72 415.96 335.73 416.18 335.73C415.93 338.668 415.492 341.587 414.87 344.47C414.42 346.61 413.87 348.76 413.32 350.91C413.12 350.18 412.18 347.27 412.09 347.07C410.89 344.41 407 339.98 403.75 340.35C403.212 340.427 402.697 340.617 402.237 340.906C401.777 341.196 401.383 341.579 401.082 342.031C400.78 342.483 400.576 342.993 400.485 343.529C400.393 344.064 400.416 344.613 400.55 345.14C401.04 347.39 403.31 349.14 405.29 350.02C407.46 351.02 412.6 351.07 413.29 351.08C413.04 352.08 412.78 353.02 412.51 354C411.65 357.18 410.77 360.37 410 363.54C409.73 364.63 409.49 365.71 409.27 366.79C408.93 365.67 408.27 363.71 408.27 363.55C407.06 360.89 403.17 356.46 399.92 356.84C399.402 356.914 398.904 357.093 398.458 357.366C398.011 357.64 397.625 358.002 397.323 358.43C397.022 358.858 396.811 359.343 396.704 359.855C396.597 360.368 396.595 360.897 396.7 361.41C393.96 362.28 391.95 366.87 391.64 369.41C391.64 369.5 391.64 370.11 391.64 370.81C391.44 369.81 391.26 368.75 391.1 367.7C390.66 364.79 390.3 361.82 389.93 358.85L389.69 356.98C390.75 356.64 394.64 355.31 396.12 353.98C397.6 352.65 399.12 350.56 398.91 348.47C398.883 347.978 398.752 347.497 398.527 347.059C398.303 346.62 397.988 346.234 397.604 345.925C397.221 345.616 396.777 345.391 396.3 345.264C395.824 345.137 395.327 345.112 394.84 345.19C391.92 345.75 389.75 350.64 389.42 353.27C389.42 353.36 389.42 354.02 389.42 354.77C389.2 353.16 388.95 351.56 388.66 349.98C388.174 347.252 387.506 344.559 386.66 341.92C387.28 341.73 391.66 340.3 393.29 338.85C394.92 337.4 396.29 335.42 396.08 333.33C396.055 332.838 395.925 332.356 395.701 331.918C395.476 331.479 395.161 331.093 394.777 330.784C394.393 330.475 393.948 330.251 393.471 330.126C392.994 330.002 392.496 329.979 392.01 330.06C389.09 330.61 386.92 335.5 386.59 338.13C386.59 338.32 386.54 340.71 386.59 341.61C386.59 341.61 386.59 341.55 386.59 341.53C385.613 338.953 384.411 336.467 383 334.1C381.817 331.979 380.511 329.929 379.09 327.96C377.79 326.12 376.49 324.51 375.33 323.1C374.7 322.35 374.1 321.66 373.54 321.03H373.6C373.65 321.03 372.55 317.6 372.46 317.39C371.37 314.97 367.84 310.95 364.89 311.28C364.402 311.349 363.934 311.52 363.517 311.782C363.099 312.044 362.741 312.391 362.467 312.801C362.192 313.21 362.007 313.673 361.923 314.158C361.839 314.644 361.859 315.142 361.98 315.62C362.42 317.67 364.48 319.23 366.28 320.06C368.08 320.89 372.28 321.01 373.36 321.06C373.93 321.72 374.54 322.45 375.18 323.25C376.31 324.69 377.57 326.31 378.82 328.18C379.18 328.7 379.54 329.25 379.9 329.8C379.14 329.03 378.04 327.95 377.9 327.86C375.82 326.22 370.83 324.27 368.37 325.93C367.967 326.215 367.629 326.581 367.378 327.006C367.127 327.43 366.968 327.903 366.913 328.393C366.857 328.883 366.905 329.379 367.055 329.849C367.204 330.319 367.452 330.752 367.78 331.12C369.12 332.73 371.67 333.17 373.64 333.12C375.61 333.07 379.56 331.12 380.41 330.69C381.15 331.86 381.87 333.09 382.55 334.4C383.817 336.769 384.871 339.245 385.7 341.8C385.75 341.96 385.79 342.12 385.84 342.28C385.54 341.85 383.65 339.51 383.5 339.37C381.61 337.51 376.87 335.03 374.24 336.37C373.811 336.611 373.436 336.94 373.142 337.336C372.848 337.731 372.639 338.183 372.531 338.664C372.423 339.145 372.416 339.643 372.513 340.126C372.609 340.61 372.806 341.067 373.09 341.47C374.24 343.22 376.72 343.93 378.7 344.06C380.97 344.21 385.64 342.41 385.86 342.33C386.613 344.898 387.195 347.514 387.6 350.16C387.92 352.16 388.17 354.16 388.39 356.16C387.99 355.6 386.24 353.44 386.1 353.3C384.21 351.44 379.47 348.96 376.84 350.3C376.409 350.54 376.034 350.869 375.739 351.264C375.443 351.659 375.235 352.112 375.126 352.593C375.018 353.074 375.012 353.573 375.109 354.057C375.206 354.54 375.404 354.998 375.69 355.4C376.84 357.14 379.32 357.86 381.3 357.98C383.46 358.12 387.84 356.49 388.41 356.27C388.51 357.18 388.61 358.09 388.7 359C389.01 362 389.31 365 389.7 367.91C389.83 368.91 389.98 369.91 390.14 370.91C389.49 370.08 388.31 368.63 388.19 368.51C386.3 366.65 381.56 364.17 378.93 365.51C378.501 365.751 378.126 366.08 377.832 366.476C377.538 366.871 377.329 367.323 377.221 367.804C377.113 368.285 377.106 368.783 377.203 369.266C377.299 369.75 377.496 370.207 377.78 370.61C378.93 372.36 381.41 373.07 383.39 373.19C385.37 373.31 389.16 371.98 390.26 371.57C390.54 373.24 390.87 374.88 391.26 376.48C391.45 377.17 391.59 377.89 391.8 378.54L392.4 380.54C392.86 381.86 393.28 383.09 393.73 384.32C393.95 384.9 394.16 385.48 394.38 386.05C393.84 385.11 393.02 383.7 392.93 383.58C391.34 381.45 387.03 378.28 384.22 379.24C383.759 379.413 383.338 379.682 382.987 380.028C382.636 380.374 382.361 380.791 382.181 381.25C382.001 381.709 381.92 382.201 381.942 382.694C381.964 383.186 382.09 383.669 382.31 384.11C383.19 386.01 385.53 387.11 387.46 387.52C389.39 387.93 393.98 387.07 394.71 386.91C395.28 388.38 395.84 389.79 396.39 391.11C396.94 392.43 397.58 393.91 398.14 395.16H393.32V398.33H394.47L396.35 420.56H411.35L413.22 398.33H414.09V395.16H409.83C409.71 393.57 409.6 391.85 409.51 390.01C409.44 388.58 409.39 387.08 409.35 385.53C410.15 385.46 415.13 384.96 417.17 383.79C419.06 382.71 421.17 380.79 421.47 378.52C421.558 377.984 421.532 377.436 421.394 376.911C421.257 376.386 421.01 375.896 420.671 375.473C420.331 375.049 419.906 374.702 419.424 374.454C418.941 374.205 418.412 374.061 417.87 374.03C414.6 373.94 411.11 378.69 410.14 381.44C410.07 381.62 409.56 383.83 409.34 384.93C409.34 383.99 409.34 383.03 409.34 382.06C409.34 380.65 409.34 379.17 409.34 377.74C409.34 376.99 409.41 376.24 409.45 375.48C409.49 374.72 409.59 373.99 409.65 373.23C409.77 372.12 409.93 370.98 410.11 369.84C411.56 369.91 415.76 370.04 417.72 369.29C419.68 368.54 422.13 366.94 422.72 364.73C422.893 364.213 422.953 363.665 422.899 363.123C422.844 362.58 422.675 362.056 422.403 361.583C422.131 361.111 421.762 360.701 421.32 360.382C420.878 360.063 420.374 359.84 419.84 359.73C416.63 359.14 412.46 363.3 411.08 365.88C411.03 365.96 410.78 366.58 410.5 367.3C410.71 366.17 410.93 365.03 411.18 363.9C411.88 360.74 412.69 357.54 413.48 354.34C413.65 353.67 413.81 353 413.98 352.34C415.2 352.41 419.72 352.58 421.77 351.79C423.82 351 426.18 349.45 426.77 347.23C426.941 346.713 427 346.165 426.945 345.624C426.89 345.082 426.72 344.558 426.449 344.086C426.177 343.614 425.808 343.205 425.367 342.885C424.927 342.565 424.423 342.342 423.89 342.23C420.67 341.65 416.5 345.81 415.13 348.39C415.08 348.48 414.8 349.15 414.5 349.92C414.91 348.18 415.29 346.43 415.61 344.69C416.195 341.699 416.579 338.672 416.76 335.63C417.47 335.68 422.56 335.95 424.76 335.1C426.76 334.32 429.16 332.76 429.76 330.54C429.933 330.037 430 329.504 429.957 328.974C429.914 328.444 429.762 327.928 429.51 327.46C429.259 326.991 428.913 326.58 428.495 326.251C428.077 325.922 427.595 325.684 427.08 325.55V325.55ZM400.23 395.12C399.564 393.68 398.837 392.1 398.05 390.38C397.52 389.19 396.99 387.94 396.45 386.64C398.206 385.772 399.879 384.748 401.45 383.58C403.428 384.245 405.458 384.741 407.52 385.06C407.52 386.79 407.52 388.46 407.59 390.06C407.64 391.88 407.71 393.57 407.79 395.14L400.23 395.12ZM408.13 373.02C408.05 373.8 407.91 374.59 407.88 375.35C407.85 376.11 407.77 376.85 407.71 377.6C407.71 379.14 407.6 380.6 407.59 382.01C407.59 382.69 407.59 383.37 407.59 384.01C407.42 382.83 407.13 381.01 407.08 380.9C406.29 378.09 403.08 373.12 399.85 373C399.308 372.995 398.77 373.103 398.272 373.319C397.774 373.535 397.328 373.854 396.961 374.253C396.594 374.653 396.315 375.126 396.143 375.64C395.971 376.155 395.908 376.7 395.96 377.24C396.008 377.84 396.164 378.426 396.42 378.97C396.02 380.235 395.815 381.553 395.81 382.88C395.81 383.06 396.1 385.09 396.27 386.1C395.95 385.31 395.62 384.51 395.27 383.68C394.8 382.5 394.34 381.23 393.88 380.01C393.67 379.37 393.46 378.72 393.24 378.01C393.02 377.3 392.87 376.7 392.68 376.01C392.42 375.01 392.18 374.01 391.96 373.01C393.21 372.59 396.81 371.33 398.22 370.01C399.419 368.971 400.32 367.632 400.83 366.13L401.35 366.4C403.35 367.31 407.76 367.4 409.05 367.45C408.684 369.37 408.377 371.22 408.13 373V373.02Z" fill="#2F3F5C"/>
<path d="M423.19 318.45C424.94 317.16 426.82 315.02 426.85 312.72C426.876 312.177 426.788 311.636 426.591 311.13C426.394 310.624 426.093 310.165 425.707 309.783C425.322 309.401 424.86 309.105 424.352 308.913C423.844 308.721 423.302 308.638 422.76 308.67C419.5 308.96 416.58 314.08 415.93 316.92C415.87 317.17 415.44 321.11 415.5 321.1C415.56 321.09 421.13 320 423.19 318.45Z" fill="#2F3F5C"/>
<path d="M380.58 330.07C380.58 330.07 384.97 327.27 386.23 325.31C387.29 323.64 388.23 321.22 387.46 319.26C387.305 318.792 387.054 318.361 386.721 317.997C386.389 317.633 385.984 317.343 385.532 317.145C385.08 316.948 384.592 316.849 384.098 316.853C383.605 316.857 383.119 316.965 382.67 317.17C380 318.47 379.2 323.77 379.58 326.39C379.61 326.61 380.53 330.1 380.58 330.07Z" fill="#2F3F5C"/>
<path d="M425.94 139.76H217.29V265.53H425.94V139.76Z" fill="white" stroke="#2F3F5C" stroke-linecap="round" stroke-linejoin="round"/>
<path d="M425.94 261.67H217.29V265.53H425.94V261.67Z" fill="white" stroke="#2F3F5C" stroke-linecap="round" stroke-linejoin="round"/>
<path d="M392.29 225C392.36 225.12 393.91 223.9 393.99 224C394.15 224.28 387.56 229.76 387.72 230C388.07 230.62 400.56 221.81 400.9 222.39C401.24 222.97 385.82 232.54 386.22 233.24C386.74 234.13 404.06 221.99 404.48 222.7C404.9 223.41 385.23 234.3 385.68 235.08C386.13 235.86 405.86 222.32 406.35 223.15C406.84 223.98 384.86 235.58 385.35 236.5C385.84 237.42 407.16 222.75 407.66 223.62C408.16 224.49 384.72 238.81 385.21 239.62C385.87 240.77 409.91 224.01 410.49 225.02C411.07 226.03 384.71 239.37 385.26 240.33C385.81 241.29 410.45 224.33 411.09 225.42C411.64 226.36 384.71 240.34 385.36 241.47C386.01 242.6 411.36 224.93 412.03 226.07C412.7 227.21 385.37 243.13 385.94 244.07C386.62 245.24 413.34 226.73 414 227.87C414.66 229.01 385.83 244.47 386.56 245.73C387.29 246.99 414.39 227.9 415.16 229.22C415.79 230.32 386.16 245.12 386.73 246.14C387.43 247.35 414.73 228.37 415.44 229.57C416.15 230.77 386.3 245.57 386.96 246.7C387.73 248.02 415.07 228.9 415.75 230.08C416.34 231.08 386.6 246.16 387.24 247.26C387.88 248.36 415.43 229.47 416.09 230.61C416.75 231.75 387.89 248.18 388.62 249.45C389.25 250.54 416.56 231.65 417.29 232.9C418.02 234.15 388.84 249.34 389.49 250.46C390.14 251.58 417.17 233.03 417.8 234.12C418.43 235.21 389.53 250.18 390.12 251.2C390.85 252.46 417.45 233.98 418.07 235.06C418.69 236.14 391.42 251.83 392.07 252.95C392.72 254.07 417.89 236.37 418.61 237.63C419.19 238.63 391.56 251.91 392.23 253.06C392.9 254.21 418 236.84 418.66 238C419.32 239.16 391.75 252.28 392.34 253.3C392.93 254.32 418 236.95 418.67 238.11C419.24 239.11 394.41 253.9 394.99 254.91C395.57 255.92 418.12 240.1 418.75 241.19C419.22 242.01 396.67 254.91 397.2 255.82C397.73 256.73 417.97 242.73 418.44 243.55C418.91 244.37 397.08 255.1 397.57 255.95C398.06 256.8 417.79 242.95 418.36 243.95C418.84 244.77 401.22 256.02 401.61 256.69C402 257.36 416.61 247.06 417.01 247.8C417.31 248.32 405.52 256.01 405.8 256.5C406.08 256.99 414.42 250.93 414.68 251.38C414.8 251.58 409.27 255.2 409.41 255.38C409.55 255.56 411.98 253.67 412.08 253.84C412.18 254.01 410 255.04 410.08 255.11C410.16 255.18 411.69 254 411.77 254.11" stroke="#2F3F5C" stroke-width="0.72" stroke-linecap="round" stroke-linejoin="round"/>
<path d="M399.38 246.29C399.887 246.191 400.366 245.979 400.78 245.67C401.131 245.394 401.426 245.055 401.65 244.67C402.026 244.072 402.217 243.376 402.2 242.67C402.219 242.032 402.053 241.403 401.72 240.86C401.379 240.346 400.875 239.962 400.29 239.77C400.65 239.606 400.97 239.367 401.23 239.07C401.639 238.554 401.845 237.907 401.81 237.25C401.828 236.578 401.628 235.918 401.24 235.37C400.849 234.913 400.355 234.556 399.798 234.328C399.242 234.101 398.639 234.009 398.04 234.06H392.04V246.39H397.6C398.195 246.418 398.792 246.384 399.38 246.29V246.29ZM394.54 236.29H397.22C397.714 236.274 398.207 236.338 398.68 236.48C398.898 236.574 399.081 236.735 399.201 236.94C399.322 237.145 399.374 237.383 399.35 237.62C399.372 237.829 399.336 238.041 399.246 238.231C399.156 238.421 399.016 238.584 398.84 238.7C398.445 238.923 397.994 239.031 397.54 239.01H394.54V236.29ZM394.54 244.34V241H397.54C397.96 240.99 398.377 241.061 398.77 241.21C399.022 241.321 399.234 241.507 399.375 241.744C399.517 241.98 399.581 242.255 399.56 242.53C399.595 242.839 399.536 243.152 399.389 243.427C399.243 243.702 399.016 243.926 398.74 244.07C398.349 244.237 397.925 244.312 397.5 244.29L394.54 244.34Z" fill="white"/>
<path d="M404.29 245.639C405.196 246.376 406.332 246.773 407.5 246.759C408.134 246.798 408.768 246.699 409.36 246.469C409.952 246.24 410.488 245.885 410.93 245.429C411.395 244.989 411.707 244.41 411.82 243.779H409.38C409.263 244.022 409.096 244.237 408.89 244.409C408.514 244.702 408.046 244.851 407.57 244.829C407.107 244.843 406.649 244.725 406.25 244.489C405.94 244.276 405.689 243.986 405.523 243.648C405.357 243.311 405.28 242.936 405.3 242.559H411.94C411.965 241.955 411.941 241.35 411.87 240.749C411.765 240.074 411.516 239.43 411.14 238.859C410.752 238.271 410.203 237.807 409.56 237.519C408.886 237.223 408.156 237.076 407.42 237.089C406.818 237.065 406.217 237.165 405.655 237.382C405.092 237.598 404.58 237.928 404.15 238.349C403.71 238.845 403.373 239.422 403.159 240.049C402.944 240.676 402.856 241.339 402.9 241.999C402.837 242.672 402.93 243.35 403.171 243.981C403.412 244.612 403.795 245.18 404.29 245.639V245.639ZM405.99 239.579C406.179 239.398 406.404 239.259 406.65 239.169C406.896 239.08 407.158 239.042 407.42 239.059C407.934 239.042 408.437 239.216 408.83 239.549C409.028 239.734 409.188 239.956 409.298 240.204C409.408 240.451 409.466 240.719 409.47 240.989H405.36C405.414 240.462 405.638 239.967 406 239.579H405.99Z" fill="white"/>
<path d="M409.94 234.83H404.58V236.08H409.94V234.83Z" fill="white"/>
<path d="M388.35 149C388.42 149.13 389.97 147.9 390.04 148C390.2 148.29 383.31 154.2 383.5 154.52C383.82 155.07 397.18 145.8 397.5 146.41C397.82 147.02 382.79 154.62 383.12 155.2C383.45 155.78 397.88 145.82 398.25 146.46C398.62 147.1 382.04 156.22 382.39 156.83C382.87 157.66 399.64 145.94 400.04 146.64C400.44 147.34 380.95 159.64 381.42 160.45C381.89 161.26 403.05 146.59 403.64 147.62C404.11 148.42 380.77 160.62 381.32 161.55C381.87 162.48 404.07 147.03 404.67 148.07C405.18 148.95 380.77 162.88 381.26 163.73C381.75 164.58 406.01 148.1 406.59 149.11C407.17 150.12 380.74 163.45 381.32 164.46C381.9 165.47 406.51 148.33 407.19 149.52C407.87 150.71 380.85 164.33 381.39 165.27C382.03 166.38 407.28 148.94 407.87 149.98C408.46 151.02 380.79 164.62 381.42 165.72C382.05 166.82 407.58 149.16 408.22 150.25C408.86 151.34 380.79 164.8 381.48 166C382.17 167.2 407.8 149.4 408.41 150.45C409.02 151.5 381.11 165.98 381.75 167.08C382.39 168.18 408.64 150.08 409.26 151.19C409.97 152.42 381.19 166.24 381.8 167.31C382.56 168.62 408.8 150.31 409.44 151.36C410.08 152.41 381.58 167.74 382.19 168.8C382.9 170.04 409.75 151.23 410.47 152.47C411.09 153.54 382.42 169.79 383.11 170.98C383.8 172.17 411.23 153.16 411.91 154.35C412.59 155.54 383.74 172.01 384.34 173.05C384.94 174.09 412.4 155.2 413.12 156.44C413.84 157.68 383.75 172 384.46 173.23C385.17 174.46 412.56 155.53 413.2 156.64C413.84 157.75 384.63 173.19 385.2 174.2C385.88 175.38 413.01 156.64 413.66 157.77C414.31 158.9 385.45 174.12 386.13 175.29C386.81 176.46 413.47 158.01 414.13 159.13C414.79 160.25 386.13 174.75 386.8 175.94C387.47 177.13 413.63 158.79 414.35 160.03C415.07 161.27 388.25 176.48 388.92 177.64C389.59 178.8 414.2 161.74 414.76 162.72C415.32 163.7 390.36 177.85 390.93 178.83C391.5 179.81 414.22 164 414.81 165C415.4 166 390.94 178.15 391.46 179.05C391.98 179.95 414.22 164.62 414.77 165.59C415.32 166.56 392.77 178.91 393.26 179.76C393.85 180.76 413.92 166.5 414.5 167.5C414.98 168.33 395.43 179.7 395.85 180.42C396.27 181.14 413.29 169.23 413.77 170.07C414.13 170.68 396.68 179.84 397.12 180.59C397.56 181.34 412.88 170.5 413.31 171.24C413.62 171.78 400.74 179.95 401.07 180.53C401.4 181.11 411.07 174.16 411.32 174.61C411.45 174.83 405.88 178.92 406 179.14C406.12 179.36 407.77 177.96 407.84 178.08C407.91 178.2 406.06 179.03 406.1 179.08C406.14 179.13 407.7 177.96 407.79 178.08" stroke="#2F3F5C" stroke-width="0.72" stroke-linecap="round" stroke-linejoin="round"/>
<path d="M395.27 174.25H399.56V163.51H402.56L402.88 159.91H399.56V157.91C399.56 157.07 399.73 156.73 400.56 156.73H402.89V153H399.89C396.69 153 395.25 154.4 395.25 157.1V159.96H393V163.6H395.23L395.27 174.25Z" fill="white"/>
<path d="M339.33 178.49C339.4 178.61 340.95 177.38 341.03 177.49C341.11 177.6 335.6 181.86 335.73 182.08C336.02 182.58 345.9 175.57 346.18 176.08C346.46 176.59 333.7 184.48 334 185C334.3 185.52 349.16 175.25 349.59 176C350.02 176.75 332.28 187.7 332.75 188.51C333.22 189.32 352.75 175.79 353.28 176.66C353.81 177.53 331.77 190.79 332.28 191.66C332.79 192.53 355.7 176.89 356.28 177.83C356.86 178.77 331.79 191.12 332.28 191.98C332.93 193.1 355.89 176.83 356.55 177.98C357.06 178.87 331.69 191.72 332.25 192.7C332.9 193.83 356.51 177.13 357.19 178.31C357.76 179.31 331.91 194.23 332.45 195.15C333.08 196.25 358.63 178.71 359.2 179.71C359.77 180.71 332.48 196.91 333.09 198C333.7 199.09 360.56 180.53 361.26 181.74C361.84 182.74 332.83 197.9 333.51 199.09C334.29 200.44 361.39 181.53 362.02 182.63C362.65 183.73 333.02 198.34 333.73 199.63C334.44 200.92 361.65 181.8 362.38 183.08C362.98 184.08 333.24 198.92 333.94 200.08C334.64 201.24 362.04 182.37 362.68 183.49C363.32 184.61 333.73 199.87 334.37 200.99C335.12 202.28 362.55 183.19 363.21 184.34C363.87 185.49 333.85 200 334.53 201.22C335.21 202.44 362.67 183.35 363.38 184.57C364.09 185.79 335.38 202.38 336.03 203.45C336.68 204.52 363.93 185.88 364.56 186.98C365.29 188.24 335.93 202.98 336.64 204.16C337.35 205.34 364.22 186.61 364.92 187.83C365.52 188.83 337.21 204.28 337.92 205.51C338.63 206.74 364.65 188.36 365.39 189.64C366.03 190.75 337.92 204.96 338.56 206.07C339.2 207.18 364.92 189.3 365.56 190.46C366.2 191.62 338.89 205.76 339.56 206.85C340.23 207.94 365.09 190.61 365.74 191.73C366.24 192.61 341.51 207.42 342.04 208.34C342.57 209.26 365.15 193.47 365.8 194.61C366.45 195.75 342.19 207.72 342.8 208.7C343.41 209.68 365.26 194.51 365.8 195.43C366.34 196.35 344.44 208.61 345 209.5C345.56 210.39 364.83 196.78 365.38 197.74C365.84 198.52 344.81 208.74 345.3 209.59C345.79 210.44 364.88 197.27 365.3 198.03C365.72 198.79 345.55 209 346 209.75C346.45 210.5 364.55 197.93 365 198.75C365.38 199.4 346.66 209.2 347.1 209.97C347.54 210.74 364.1 198.97 364.62 199.86C364.99 200.5 351.03 209.46 351.38 210.07C351.73 210.68 362.33 203.07 362.62 203.58C362.78 203.86 356.04 208.68 356.2 208.94C356.36 209.2 359.09 207.02 359.2 207.21C359.31 207.4 356.32 208.74 356.39 208.86C356.46 208.98 358.99 207.12 359.1 207.3C359.21 207.48 357 208.51 357.04 208.59C357.08 208.67 358.66 207.48 358.73 207.59" stroke="#2F3F5C" stroke-width="0.72" stroke-linecap="round" stroke-linejoin="round"/>
<path d="M339.67 198.999C341.36 200.087 343.316 200.689 345.325 200.738C347.334 200.787 349.318 200.282 351.059 199.277C352.8 198.273 354.23 196.809 355.193 195.045C356.157 193.282 356.616 191.287 356.52 189.279C357.275 188.733 357.925 188.056 358.44 187.279C357.739 187.595 356.994 187.801 356.23 187.889C357.036 187.411 357.638 186.653 357.92 185.759C357.166 186.207 356.34 186.521 355.48 186.689C354.898 186.072 354.129 185.663 353.292 185.526C352.454 185.389 351.595 185.532 350.847 185.933C350.099 186.334 349.504 186.97 349.154 187.743C348.803 188.516 348.718 189.383 348.91 190.209C347.38 190.136 345.883 189.741 344.515 189.052C343.148 188.363 341.94 187.395 340.97 186.209C340.477 187.058 340.327 188.062 340.55 189.017C340.773 189.973 341.353 190.807 342.17 191.349C341.556 191.333 340.956 191.168 340.42 190.869C340.409 191.768 340.711 192.642 341.275 193.341C341.839 194.04 342.63 194.52 343.51 194.699C342.943 194.855 342.347 194.875 341.77 194.759C342.013 195.527 342.492 196.199 343.138 196.68C343.784 197.161 344.565 197.427 345.37 197.439C344.569 198.062 343.654 198.52 342.676 198.788C341.697 199.056 340.676 199.128 339.67 198.999V198.999Z" fill="white"/>
<path d="M292.25 148.78C292.32 148.9 293.86 147.66 293.94 147.78C294.13 148.11 287.17 154.06 287.36 154.39C287.7 154.99 301.16 145.54 301.54 146.2C301.92 146.86 286.54 154.95 286.81 155.49C287.08 156.03 302.3 145.49 302.75 146.28C303.2 147.07 286.12 155.53 286.49 156.17C286.86 156.81 303.05 145.51 303.49 146.33C303.93 147.15 285.01 159.03 285.43 159.77C285.85 160.51 306.58 146.31 307.12 147.25C307.66 148.19 284.56 161.75 285.12 162.75C285.68 163.75 309.2 147.4 309.83 148.48C310.46 149.56 284.72 164.57 285.33 165.63C286.04 166.87 311.5 148.91 312.2 150.12C312.9 151.33 284.77 164.79 285.44 166C286.11 167.21 311.86 149.32 312.44 150.39C313.02 151.46 284.74 164.94 285.44 166.12C286.14 167.3 311.8 149.19 312.54 150.47C313.12 151.47 285.3 167.23 286.01 168.47C286.72 169.71 313.51 150.88 314.25 152.17C314.88 153.26 285.64 168.08 286.38 169.34C287.12 170.6 314.14 151.63 314.87 152.89C315.49 153.96 286.26 169.53 286.97 170.76C287.59 171.83 315.03 152.85 315.77 154.13C316.38 155.19 286.71 170.34 287.37 171.49C288.03 172.64 315.48 153.56 316.22 154.84C316.82 155.9 286.93 170.71 287.52 171.72C288.27 173.03 315.71 153.95 316.36 155.07C317.01 156.19 288.36 172.84 288.96 173.85C289.56 174.86 316.76 156.15 317.47 157.38C318.18 158.61 289.28 173.87 289.9 174.95C290.61 176.18 317.22 157.45 317.97 158.75C318.6 159.84 289.36 173.98 289.97 175.01C290.58 176.04 317.3 157.6 317.97 158.82C318.64 160.04 290.26 174.69 291 175.9C291.59 176.9 317.7 158.9 318.39 160.09C319.08 161.28 290.91 175.24 291.6 176.42C292.17 177.42 317.87 159.61 318.6 160.84C319.17 161.84 291.06 175.36 291.74 176.53C292.32 177.53 317.89 159.73 318.63 161.01C319.21 162.01 292.47 176.48 293.04 177.48C293.73 178.68 318.11 161.48 318.76 162.63C319.28 163.52 293.34 177.09 293.9 178.06C294.57 179.23 318.23 162.6 318.84 163.65C319.45 164.7 296.36 178.56 296.84 179.41C297.32 180.26 317.95 165.88 318.53 166.89C319.02 167.74 297.31 178.89 297.78 179.74C298.35 180.74 317.78 166.9 318.33 167.87C318.88 168.84 299.38 179.41 299.85 180.21C300.32 181.01 317.26 169.11 317.71 169.9C318.16 170.69 302.83 179.9 303.18 180.46C303.53 181.02 315.93 172.25 316.29 172.89C316.65 173.53 304.42 179.89 304.7 180.34C304.98 180.79 315.18 173.66 315.45 174.13C315.61 174.4 309.92 178.66 310.05 178.88C310.18 179.1 311.66 177.77 311.74 177.88" stroke="#2F3F5C" stroke-width="0.72" stroke-linecap="round" stroke-linejoin="round"/>
<path d="M297.14 159H293.49V170.78H297.14V159Z" fill="white"/>
<path d="M295.3 157.46C295.732 157.463 296.155 157.339 296.516 157.102C296.877 156.865 297.16 156.526 297.328 156.128C297.496 155.73 297.542 155.291 297.46 154.867C297.378 154.442 297.172 154.052 296.868 153.745C296.564 153.438 296.176 153.229 295.752 153.143C295.329 153.057 294.89 153.099 294.49 153.264C294.091 153.428 293.749 153.707 293.508 154.066C293.268 154.425 293.14 154.848 293.14 155.28C293.138 155.564 293.193 155.847 293.301 156.111C293.409 156.374 293.568 156.614 293.768 156.817C293.969 157.019 294.207 157.18 294.47 157.291C294.733 157.401 295.015 157.458 295.3 157.46V157.46Z" fill="white"/>
<path d="M303.001 164.6C303.001 162.94 303.761 161.96 305.221 161.96C306.681 161.96 307.221 162.9 307.221 164.6V170.78H310.851V163.32C310.851 160.17 309.061 158.64 306.571 158.64C305.856 158.635 305.152 158.817 304.529 159.168C303.907 159.518 303.387 160.026 303.021 160.64V159H299.521V170.78H303.001V164.6Z" fill="white"/>
<path d="M302.6 224.89C302.68 225.03 304.22 223.79 304.29 223.89C304.36 223.99 300.29 226.66 300.38 226.89C300.47 227.12 307.1 222.55 307.3 222.89C307.5 223.23 297.87 229.4 298.11 229.82C298.35 230.24 310.67 221.72 311.04 222.36C311.41 223 296.28 232.08 296.68 232.77C297.08 233.46 313.88 221.77 314.35 222.57C314.82 223.37 296.11 232.66 296.49 233.31C296.98 234.17 314.49 221.89 314.9 222.68C315.31 223.47 295.77 233.14 296.25 233.98C296.73 234.82 315.08 221.98 315.59 222.82C316.1 223.66 295.11 236.43 295.59 237.31C296.22 238.4 318.25 222.98 318.79 223.92C319.33 224.86 295.01 237.52 295.52 238.39C296.03 239.26 319.11 223.31 319.75 224.39C320.39 225.47 295.07 239.49 295.58 240.39C296.09 241.29 320.86 224.39 321.46 225.45C322.06 226.51 295.28 241.6 295.91 242.7C296.65 243.99 322.6 225.7 323.29 226.9C323.89 227.9 295.73 243.37 296.29 244.41C296.85 245.45 323.86 227.07 324.47 228.13C325.08 229.19 296.13 244.51 296.79 245.66C297.45 246.81 324.65 227.94 325.36 229.17C326.07 230.4 296.8 246.06 297.36 247.08C298.15 248.45 325.56 229.32 326.2 230.43C326.84 231.54 297.27 246.88 297.88 247.93C298.61 249.19 326.08 230.16 326.72 231.28C327.36 232.4 298.45 248.62 299.1 249.76C299.88 251.11 327.05 232.19 327.67 233.27C328.4 234.52 299.67 249.97 300.35 251.21C301.03 252.45 327.55 233.75 328.35 235.06C328.96 236.13 301.12 251.43 301.68 252.4C302.35 253.57 328.1 235.6 328.77 236.76C329.44 237.92 301.36 251.6 301.97 252.67C302.58 253.74 328.18 236 328.85 237.15C329.42 238.15 302.42 252.34 303.08 253.48C303.74 254.62 328.4 237.57 328.96 238.53C329.52 239.49 304.46 253.6 305.08 254.67C305.7 255.74 328.49 239.96 329.01 240.86C329.53 241.76 307.31 254.86 307.84 255.8C308.37 256.74 328.03 242.8 328.6 243.8C329.09 244.64 310.01 255.58 310.48 256.4C310.95 257.22 327.42 245.7 327.81 246.4C328.2 247.1 310.95 255.85 311.31 256.49C311.67 257.13 327.07 246.39 327.5 247.14C327.76 247.59 317.07 255.51 317.36 256.01C317.65 256.51 323.96 251.77 324.15 252.09C324.24 252.24 320.15 254.83 320.29 255C320.43 255.17 321.9 253.88 321.98 254" stroke="#2F3F5C" stroke-width="0.72" stroke-linecap="round" stroke-linejoin="round"/>
<path d="M312.32 231.53C314.9 231.53 315.2 231.53 316.22 231.59C316.834 231.597 317.443 231.708 318.02 231.92C318.435 232.083 318.813 232.331 319.128 232.648C319.443 232.965 319.688 233.343 319.85 233.76C320.062 234.333 320.173 234.939 320.18 235.55C320.23 236.55 320.24 236.88 320.24 239.46C320.24 242.04 320.24 242.34 320.18 243.36C320.173 243.971 320.062 244.576 319.85 245.15C319.687 245.57 319.439 245.952 319.12 246.27C318.802 246.589 318.42 246.838 318 247C317.423 247.211 316.814 247.323 316.2 247.33C315.2 247.38 314.88 247.39 312.3 247.39C309.72 247.39 309.41 247.39 308.39 247.33C307.779 247.323 307.173 247.212 306.6 247C306.181 246.84 305.802 246.591 305.49 246.27C305.166 245.961 304.919 245.581 304.77 245.16C304.553 244.587 304.438 243.982 304.43 243.37C304.43 242.37 304.38 242.04 304.38 239.47C304.38 236.9 304.38 236.58 304.43 235.56C304.438 234.948 304.553 234.342 304.77 233.77C304.919 233.348 305.166 232.968 305.49 232.66C305.802 232.338 306.181 232.089 306.6 231.93C307.173 231.718 307.779 231.606 308.39 231.6C309.39 231.55 309.72 231.54 312.3 231.54L312.32 231.53ZM312.3 229.8C309.67 229.8 309.35 229.8 308.3 229.86C307.5 229.877 306.709 230.029 305.96 230.31C305.315 230.554 304.731 230.937 304.25 231.43C303.754 231.91 303.372 232.494 303.13 233.14C302.853 233.89 302.701 234.68 302.68 235.48C302.68 236.48 302.68 236.84 302.68 239.48C302.68 242.12 302.68 242.43 302.68 243.48C302.701 244.279 302.853 245.07 303.13 245.82C303.372 246.466 303.754 247.05 304.25 247.53C304.731 248.023 305.315 248.405 305.96 248.65C306.709 248.93 307.5 249.082 308.3 249.1C309.3 249.15 309.66 249.16 312.3 249.16C314.94 249.16 315.25 249.16 316.3 249.1C317.103 249.082 317.897 248.93 318.65 248.65C319.293 248.403 319.876 248.021 320.36 247.53C320.852 247.05 321.232 246.465 321.47 245.82C321.751 245.071 321.903 244.28 321.92 243.48C321.97 242.48 321.98 242.12 321.98 239.48C321.98 236.84 321.98 236.48 321.92 235.48C321.903 234.68 321.751 233.889 321.47 233.14C321.232 232.494 320.852 231.91 320.36 231.43C319.876 230.938 319.293 230.557 318.65 230.31C317.897 230.03 317.103 229.877 316.3 229.86C315.3 229.86 314.94 229.8 312.3 229.8Z" fill="white"/>
<path d="M312.32 234.49C311.331 234.49 310.365 234.783 309.542 235.333C308.72 235.882 308.079 236.663 307.701 237.577C307.322 238.49 307.223 239.496 307.416 240.466C307.609 241.436 308.086 242.326 308.785 243.026C309.484 243.725 310.375 244.201 311.345 244.394C312.315 244.587 313.32 244.488 314.234 244.11C315.147 243.731 315.928 243.09 316.478 242.268C317.027 241.446 317.32 240.479 317.32 239.49C317.32 238.164 316.794 236.892 315.856 235.955C314.918 235.017 313.646 234.49 312.32 234.49V234.49ZM312.32 242.68C311.681 242.682 311.055 242.494 310.522 242.14C309.989 241.786 309.574 241.282 309.328 240.691C309.082 240.1 309.018 239.45 309.142 238.823C309.266 238.195 309.574 237.619 310.026 237.166C310.479 236.714 311.055 236.406 311.683 236.282C312.31 236.158 312.96 236.222 313.551 236.468C314.142 236.714 314.646 237.129 315 237.662C315.354 238.195 315.542 238.821 315.54 239.46C315.54 240.314 315.201 241.133 314.597 241.737C313.993 242.341 313.174 242.68 312.32 242.68Z" fill="white"/>
<path d="M318.63 234.3C318.63 234.53 318.561 234.754 318.433 234.945C318.305 235.136 318.124 235.285 317.911 235.372C317.699 235.46 317.465 235.482 317.24 235.437C317.014 235.391 316.808 235.28 316.646 235.116C316.484 234.953 316.374 234.745 316.331 234.52C316.287 234.294 316.311 234.061 316.401 233.849C316.49 233.637 316.64 233.457 316.832 233.33C317.024 233.204 317.25 233.138 317.48 233.14C317.631 233.14 317.782 233.17 317.922 233.228C318.062 233.287 318.189 233.372 318.296 233.48C318.403 233.588 318.488 233.716 318.545 233.857C318.602 233.997 318.631 234.148 318.63 234.3" fill="white"/>
<path d="M371.72 193.45H385.88" stroke="#2F3F5C" stroke-linecap="round" stroke-linejoin="round"/>
<path d="M371.72 196.37H385.88" stroke="#2F3F5C" stroke-linecap="round" stroke-linejoin="round"/>
<path d="M371.72 199.279H385.88" stroke="#2F3F5C" stroke-linecap="round" stroke-linejoin="round"/>
<path d="M371.72 202.189H385.88" stroke="#2F3F5C" stroke-linecap="round" stroke-linejoin="round"/>
<path d="M326.35 159.319H369.23" stroke="#2F3F5C" stroke-linecap="round" stroke-linejoin="round"/>
<path d="M321.771 220.09L334.051 207.81" stroke="#2F3F5C" stroke-linecap="round" stroke-linejoin="round"/>
<path d="M399.61 185.13V216.35" stroke="#2F3F5C" stroke-linecap="round" stroke-linejoin="round"/>
<path d="M336.76 235.49H350.91" stroke="#2F3F5C" stroke-linecap="round" stroke-linejoin="round"/>
<path d="M336.76 238.41H350.91" stroke="#2F3F5C" stroke-linecap="round" stroke-linejoin="round"/>
<path d="M336.76 241.319H350.91" stroke="#2F3F5C" stroke-linecap="round" stroke-linejoin="round"/>
<path d="M336.76 244.24H350.91" stroke="#2F3F5C" stroke-linecap="round" stroke-linejoin="round"/>
<path d="M295.55 185.96H309.7" stroke="#2F3F5C" stroke-linecap="round" stroke-linejoin="round"/>
<path d="M295.55 188.87H309.7" stroke="#2F3F5C" stroke-linecap="round" stroke-linejoin="round"/>
<path d="M295.55 191.79H309.7" stroke="#2F3F5C" stroke-linecap="round" stroke-linejoin="round"/>
<path d="M295.55 194.7H309.7" stroke="#2F3F5C" stroke-linecap="round" stroke-linejoin="round"/>
<path d="M362.15 164.729H376.3" stroke="#2F3F5C" stroke-linecap="round" stroke-linejoin="round"/>
<path d="M362.15 167.649H376.3" stroke="#2F3F5C" stroke-linecap="round" stroke-linejoin="round"/>
<path d="M362.15 170.56H376.3" stroke="#2F3F5C" stroke-linecap="round" stroke-linejoin="round"/>
<path d="M362.15 173.47H376.3" stroke="#2F3F5C" stroke-linecap="round" stroke-linejoin="round"/>
<path d="M365.48 240.91H379.63" stroke="#2F3F5C" stroke-linecap="round" stroke-linejoin="round"/>
<path d="M365.48 243.819H379.63" stroke="#2F3F5C" stroke-linecap="round" stroke-linejoin="round"/>
<path d="M365.48 246.729H379.63" stroke="#2F3F5C" stroke-linecap="round" stroke-linejoin="round"/>
<path d="M365.48 249.649H379.63" stroke="#2F3F5C" stroke-linecap="round" stroke-linejoin="round"/>
<path d="M370.47 215.51L358.4 216.35V229.25L371.72 228.42L370.47 215.51Z" fill="#F77021"/>
<path d="M360.83 220.039L368.6 219.479" stroke="#2F3F5C" stroke-linecap="round" stroke-linejoin="round"/>
<path d="M360.55 223.37L368.88 223.09" stroke="#2F3F5C" stroke-linecap="round" stroke-linejoin="round"/>
<path d="M323.26 172.47L311.19 173.3V186.2L324.51 185.37L323.26 172.47Z" fill="#F77021"/>
<path d="M313.61 176.99L321.39 176.43" stroke="#2F3F5C" stroke-linecap="round" stroke-linejoin="round"/>
<path d="M313.33 180.32L321.66 180.04" stroke="#2F3F5C" stroke-linecap="round" stroke-linejoin="round"/>
<path d="M302.43 209.68L290.36 210.51V223.42L303.68 222.59L302.43 209.68Z" fill="#F77021"/>
<path d="M292.78 214.199L300.56 213.649" stroke="#2F3F5C" stroke-linecap="round" stroke-linejoin="round"/>
<path d="M292.5 217.54L300.83 217.26" stroke="#2F3F5C" stroke-linecap="round" stroke-linejoin="round"/>
<path d="M285.611 238.24C285.611 238.24 287.881 242.4 287.881 244.24C287.881 246.08 277.301 269 277.111 269.78C276.921 270.56 278.241 274.7 277.491 277.72C276.741 280.74 273.901 284 273.901 284L270.311 268.51C271.468 267.265 272.271 265.733 272.636 264.074C273.002 262.414 272.917 260.686 272.391 259.07C270.501 253.59 270.501 241.88 270.501 241.88L285.611 238.24Z" fill="white" stroke="#2F3F5C" stroke-linecap="round" stroke-linejoin="round"/>
<path d="M267.29 410.471C267.29 410.471 266.35 420.061 267.1 420.631C267.85 421.201 271.71 421.111 274.37 420.631C278 419.971 279.98 420.791 282.63 420.791C285.28 420.791 290.94 421.511 291.54 420.301C292.7 417.981 285.8 415.761 282.02 413.501C278.24 411.241 274.66 409.341 274.66 409.341L267.29 410.471Z" fill="white" stroke="#2F3F5C" stroke-linecap="round" stroke-linejoin="round"/>
<path d="M238.58 266.57C238.58 266.57 235.18 284.71 234.99 288.1C234.8 291.49 225.36 406.51 225.36 406.51L234.05 407.26L255.77 298.26L257.28 297.89L267.28 410.43L275.4 408.92L275.78 284.85L273.32 266.16L238.58 266.57Z" fill="#2F3F5C" stroke="#2F3F5C" stroke-linecap="round" stroke-linejoin="round"/>
<path d="M247.27 208.781C247.27 208.781 232.16 205.571 228.57 204.631C224.98 203.691 224 212.181 222.91 215.001C221.82 217.821 211.01 237.481 211.76 239.001C212.51 240.521 215.35 244.481 221.02 240.511C226.69 236.541 230.08 229.931 230.08 229.931C230.08 229.931 237.64 251.281 238.02 253.731C238.4 256.181 237.02 266.391 238.02 268.461C239.02 270.531 248.4 271.861 256.15 271.671C263.9 271.481 272.39 271.301 273.52 268.461C274.65 265.621 273.33 244.671 273.33 244.671C273.33 244.671 285.04 242.591 286.93 239.761C288.82 236.931 284.67 232.961 280.93 225.591C277.19 218.221 276.21 209.351 273.37 207.651C270.53 205.951 252.03 209.161 250.37 209.161C249.324 209.169 248.282 209.041 247.27 208.781V208.781Z" fill="#F77021" stroke="#2F3F5C" stroke-linecap="round" stroke-linejoin="round"/>
<path d="M250.1 213.88L252.75 220.68L249.16 262.04L257.85 276.77L262.95 259.77L255.39 220.11L259.55 211.99L253.88 209.54L249.54 212.94L250.1 213.88Z" fill="#2F3F5C" stroke="#2F3F5C" stroke-linecap="round" stroke-linejoin="round"/>
<path d="M243.11 207.65L242.55 219.74L255.2 213.5L266.35 220.11L260.3 207.46C257.459 205.909 254.286 205.065 251.05 205C248.173 204.918 245.361 205.857 243.11 207.65V207.65Z" fill="#F77021" stroke="#2F3F5C" stroke-linecap="round" stroke-linejoin="round"/>
<path d="M245.76 194.431C246.245 197.616 246.435 200.84 246.33 204.061C246.14 209.351 246.89 208.221 249.33 212.181C251.77 216.141 253.48 217.661 255.56 215.391C257.64 213.121 257.64 208.391 258.02 207.461C258.4 206.531 258.77 195.561 258.77 195.561C258.77 195.561 256.15 197.451 245.76 194.431Z" fill="white" stroke="#2F3F5C" stroke-linecap="round" stroke-linejoin="round"/>
<path d="M259.33 172.15C260.908 177.026 261.728 182.115 261.76 187.24C261.76 195.52 261.76 198.24 259 199.74C256.24 201.24 252 201.36 249.43 199.74C246.82 198.156 244.421 196.247 242.29 194.06C240.5 192.11 235.63 186.11 234.98 182.06C234.33 178.01 242.13 172.81 248.62 170.21C250.398 169.441 252.363 169.215 254.269 169.561C256.174 169.906 257.936 170.807 259.33 172.15V172.15Z" fill="white" stroke="#2F3F5C" stroke-linecap="round" stroke-linejoin="round"/>
<path d="M251.001 182.901C251.181 183.841 250.921 184.681 250.421 184.781C249.921 184.881 249.421 184.191 249.191 183.241C248.961 182.291 249.271 181.461 249.771 181.361C250.271 181.261 250.791 182.001 251.001 182.901Z" fill="#2F3F5C"/>
<path d="M256.91 180.52C257.175 180.136 257.556 179.849 257.998 179.701C258.44 179.553 258.918 179.553 259.36 179.7" stroke="#2F3F5C" stroke-linecap="round" stroke-linejoin="round"/>
<path d="M256.91 191.761L259.57 189.921" stroke="#2F3F5C" stroke-linecap="round" stroke-linejoin="round"/>
<path d="M246.69 180.521C246.69 180.521 247.51 177.661 251.19 178.681" stroke="#2F3F5C" stroke-linecap="round" stroke-linejoin="round"/>
<path d="M254.66 178.271C254.66 178.271 254.87 176.221 257.73 176.221" stroke="#2F3F5C" stroke-linecap="round" stroke-linejoin="round"/>
<path d="M255.381 180.261C255.381 180.261 258.631 185.461 258.471 186.261C258.311 187.061 255.061 189.341 255.061 189.341" stroke="#2F3F5C" stroke-linecap="round" stroke-linejoin="round"/>
<path d="M239.85 189.84C240.321 189.692 240.724 189.384 240.991 188.969C241.258 188.555 241.371 188.06 241.31 187.57C241.31 185.62 240.31 184.49 240.31 181.73C240.31 178.97 248.91 174.58 253.31 175.07C257.71 175.56 261.75 175.56 264.19 173.12C266.63 170.68 267.11 167.93 266.14 168.12C264.97 168.46 263.83 168.895 262.73 169.42C263.116 167.726 263.141 165.969 262.805 164.264C262.469 162.558 261.78 160.943 260.78 159.52C257.37 154.65 256.56 157.9 257.05 158.71C257.54 159.52 258.99 163.25 258.99 163.25C258.99 163.25 253.64 159.2 250.23 159.52C246.82 159.84 235.95 164.71 233.35 168.45C230.75 172.19 230.59 178.02 231.24 181.27C231.89 184.52 233.84 184.84 233.84 184.84L238.22 190.36L239.85 189.84Z" fill="#2F3F5C" stroke="#2F3F5C" stroke-linecap="round" stroke-linejoin="round"/>
<path d="M234 181.181C234 181.181 234.61 176.071 239.31 174.431C244.01 172.791 248.31 172.801 254.23 172.801C260.15 172.801 257.09 167.081 254.84 166.671" stroke="#787878" stroke-linecap="round" stroke-linejoin="round"/>
<path d="M233.58 174.23C233.58 174.23 234.58 169.94 243.39 169.53" stroke="#787878" stroke-linecap="round" stroke-linejoin="round"/>
<path d="M242.29 191.46C242.29 191.46 240.18 186.46 236.77 187.89C233.36 189.32 237.09 196.17 240.66 196.01C244.23 195.85 244.72 193.74 244.72 193.74" fill="white"/>
<path d="M242.29 191.46C242.29 191.46 240.18 186.46 236.77 187.89C233.36 189.32 237.09 196.17 240.66 196.01C244.23 195.85 244.72 193.74 244.72 193.74" stroke="#2F3F5C" stroke-linecap="round" stroke-linejoin="round"/>
<path d="M242.81 215.46C242.81 215.46 242.81 205.41 243.87 203.46C244.93 201.51 248.28 199.93 250.22 198.87C252.16 197.81 253.04 198.87 252.16 200.46C251.255 201.819 250.187 203.061 248.98 204.16C248.98 204.16 258.33 199.75 259.21 200.99C260.09 202.23 260.27 203.81 259.21 204.69C258.269 205.317 257.385 206.026 256.57 206.81C256.04 207.51 257.1 212.81 256.04 214.57C254.98 216.33 250.22 218.27 247.75 219.86C245.28 221.45 227.64 240.86 222.88 243.14C218.12 245.42 215.29 246.85 212.82 243.67C210.35 240.49 210.88 237.32 214.06 233.44C217.24 229.56 242.81 215.46 242.81 215.46Z" fill="white" stroke="#2F3F5C" stroke-linecap="round" stroke-linejoin="round"/>
<path d="M225.36 406.511C225.36 406.511 222.53 411.991 220.64 413.871C218.75 415.751 214.87 419.521 215.25 420.461C215.63 421.401 233.41 420.461 233.41 420.461C233.41 420.461 234.9 421.121 234.41 416.711C234.19 414.641 234.03 407.261 234.03 407.261L225.36 406.511Z" fill="white" stroke="#2F3F5C" stroke-linecap="round" stroke-linejoin="round"/>
<path d="M273.33 244.671C273.33 244.671 273.52 223.321 272.39 220.671Z" fill="white"/>
<path d="M273.33 244.671C273.33 244.671 273.52 223.321 272.39 220.671" stroke="#2F3F5C" stroke-linecap="round" stroke-linejoin="round"/>
<path d="M122.06 415.45C122.06 414.535 121.788 413.639 121.28 412.878C120.771 412.117 120.048 411.523 119.202 411.173C118.356 410.822 117.425 410.731 116.527 410.909C115.628 411.088 114.803 411.529 114.156 412.176C113.508 412.824 113.067 413.649 112.889 414.547C112.71 415.445 112.802 416.376 113.152 417.222C113.503 418.068 114.096 418.791 114.858 419.3C115.619 419.809 116.514 420.08 117.43 420.08C118.658 420.08 119.835 419.593 120.704 418.724C121.572 417.856 122.06 416.678 122.06 415.45V415.45Z" fill="#2F3F5C" stroke="#2F3F5C" stroke-linecap="round" stroke-linejoin="round"/>
<path d="M117.429 417.77C118.711 417.77 119.749 416.731 119.749 415.45C119.749 414.169 118.711 413.13 117.429 413.13C116.148 413.13 115.109 414.169 115.109 415.45C115.109 416.731 116.148 417.77 117.429 417.77Z" fill="white" stroke="#2F3F5C" stroke-linecap="round" stroke-linejoin="round"/>
<path d="M171.67 415.45C171.67 414.535 171.399 413.639 170.89 412.878C170.381 412.117 169.658 411.523 168.812 411.173C167.966 410.822 167.035 410.731 166.137 410.909C165.239 411.088 164.414 411.529 163.766 412.176C163.119 412.824 162.678 413.649 162.499 414.547C162.32 415.445 162.412 416.376 162.763 417.222C163.113 418.068 163.706 418.791 164.468 419.3C165.229 419.809 166.124 420.08 167.04 420.08C168.268 420.08 169.446 419.593 170.314 418.724C171.182 417.856 171.67 416.678 171.67 415.45V415.45Z" fill="#2F3F5C" stroke="#2F3F5C" stroke-linecap="round" stroke-linejoin="round"/>
<path d="M169.36 415.45C169.362 414.991 169.227 414.541 168.974 414.158C168.72 413.776 168.358 413.477 167.934 413.3C167.511 413.122 167.044 413.075 166.593 413.163C166.143 413.252 165.728 413.472 165.403 413.796C165.077 414.12 164.855 414.534 164.765 414.984C164.675 415.434 164.72 415.901 164.895 416.326C165.071 416.75 165.368 417.113 165.75 417.368C166.131 417.624 166.58 417.76 167.04 417.76C167.653 417.76 168.242 417.517 168.677 417.084C169.111 416.651 169.357 416.064 169.36 415.45Z" fill="white" stroke="#2F3F5C" stroke-linecap="round" stroke-linejoin="round"/>
<path d="M183.25 420.08C185.807 420.08 187.88 418.007 187.88 415.45C187.88 412.893 185.807 410.82 183.25 410.82C180.693 410.82 178.62 412.893 178.62 415.45C178.62 418.007 180.693 420.08 183.25 420.08Z" fill="#2F3F5C" stroke="#2F3F5C" stroke-linecap="round" stroke-linejoin="round"/>
<path d="M183.25 417.77C184.531 417.77 185.57 416.731 185.57 415.45C185.57 414.169 184.531 413.13 183.25 413.13C181.968 413.13 180.93 414.169 180.93 415.45C180.93 416.731 181.968 417.77 183.25 417.77Z" fill="white" stroke="#2F3F5C" stroke-linecap="round" stroke-linejoin="round"/>
<path d="M150.1 342.66H159.82V410.11H150.02V342.7L150.1 342.66Z" fill="#2F3F5C" stroke="#2F3F5C" stroke-linecap="round" stroke-linejoin="round"/>
<path d="M162.46 374.729H147.45V410.149H162.46V374.729Z" fill="#2F3F5C" stroke="#2F3F5C" stroke-linecap="round" stroke-linejoin="round"/>
<path d="M132.359 307.28H144.999V334.23H132.399V307.28H132.359Z" fill="#2F3F5C" stroke="#2F3F5C" stroke-linecap="round" stroke-linejoin="round"/>
<path d="M163.46 307.29H114.46C113.313 307.289 112.178 307.059 111.121 306.613C110.064 306.167 109.107 305.515 108.306 304.694C107.505 303.874 106.876 302.901 106.456 301.834C106.036 300.767 105.833 299.627 105.86 298.48L107 250.6C107.052 248.357 107.98 246.223 109.585 244.655C111.191 243.087 113.346 242.209 115.59 242.21H156.09C158.144 242.208 160.131 242.942 161.691 244.28C163.25 245.617 164.279 247.469 164.59 249.5L172 297.39C172.189 298.619 172.11 299.874 171.767 301.068C171.425 302.263 170.827 303.37 170.015 304.311C169.203 305.252 168.196 306.006 167.064 306.52C165.933 307.035 164.703 307.297 163.46 307.29V307.29Z" fill="#F77021" stroke="#2F3F5C" stroke-linecap="round" stroke-linejoin="round"/>
<path d="M147.44 344.41L125.92 358.58" stroke="#2F3F5C" stroke-linecap="round" stroke-linejoin="round"/>
<path d="M125.11 356.44L121.44 358.91C121.145 359.11 120.898 359.372 120.717 359.679C120.536 359.986 120.425 360.329 120.393 360.684C120.36 361.039 120.407 361.397 120.529 361.731C120.651 362.066 120.846 362.369 121.1 362.62L121.36 362.86C121.782 363.275 122.342 363.519 122.933 363.545C123.524 363.571 124.104 363.376 124.56 363L127.93 360.22C128.183 360.013 128.39 359.756 128.539 359.465C128.687 359.173 128.773 358.855 128.792 358.529C128.811 358.202 128.762 357.876 128.648 357.57C128.534 357.263 128.358 356.984 128.13 356.75V356.75C127.743 356.353 127.228 356.104 126.676 356.048C126.124 355.991 125.57 356.13 125.11 356.44V356.44Z" fill="#2F3F5C" stroke="#2F3F5C" stroke-linecap="round" stroke-linejoin="round"/>
<path d="M195.18 331.47H114.75C110.68 331.47 107.38 334.769 107.38 338.84V339.5C107.38 343.57 110.68 346.87 114.75 346.87H195.18C199.25 346.87 202.55 343.57 202.55 339.5V338.84C202.55 334.769 199.25 331.47 195.18 331.47Z" fill="#F77021" stroke="#2F3F5C" stroke-linecap="round" stroke-linejoin="round"/>
<path d="M202.49 338.23C202.212 336.321 201.245 334.579 199.771 333.334C198.298 332.088 196.419 331.425 194.49 331.47H153.19C151.262 331.428 149.384 332.091 147.911 333.336C146.438 334.581 145.47 336.321 145.19 338.23C145.059 339.311 145.158 340.408 145.482 341.448C145.806 342.489 146.346 343.448 147.068 344.264C147.791 345.08 148.677 345.733 149.671 346.18C150.664 346.628 151.741 346.859 152.83 346.86H194.83C195.921 346.862 197 346.633 197.996 346.186C198.992 345.74 199.881 345.087 200.605 344.271C201.33 343.455 201.872 342.495 202.197 341.453C202.522 340.412 202.622 339.313 202.49 338.23Z" fill="#F77021" stroke="#2F3F5C" stroke-linecap="round" stroke-linejoin="round"/>
<path d="M116.769 408.75H185.379C186.44 408.75 187.458 409.171 188.208 409.922C188.958 410.672 189.379 411.689 189.379 412.75V412.95H112.779V412.75C112.779 411.691 113.199 410.675 113.947 409.925C114.695 409.175 115.71 408.753 116.769 408.75V408.75Z" fill="#2F3F5C" stroke="#2F3F5C" stroke-linecap="round" stroke-linejoin="round"/>
<path d="M150.8 408.75H171.73C172.791 408.75 173.808 409.171 174.558 409.922C175.308 410.672 175.73 411.689 175.73 412.75V412.95H150.8V408.76V408.75Z" fill="#2F3F5C" stroke="#2F3F5C" stroke-linecap="round" stroke-linejoin="round"/>
<path d="M212.71 297.859H149.229V300.419H212.71V297.859Z" fill="white" stroke="#2F3F5C" stroke-linecap="round" stroke-linejoin="round"/>
<path d="M230.61 297.859H167.13V300.419H230.61V297.859Z" fill="white" stroke="#2F3F5C" stroke-linecap="round" stroke-linejoin="round"/>
<path d="M223.54 252.89H170.6V293.3H223.54V252.89Z" fill="white" stroke="#2F3F5C" stroke-linecap="round" stroke-linejoin="round"/>
<path d="M225.73 252.89H172.79V293.3H225.73V252.89Z" fill="#2F3F5C" stroke="#2F3F5C" stroke-linecap="round" stroke-linejoin="round"/>
<path d="M209.51 274.52H195.85V300.42H209.51V274.52Z" fill="white" stroke="#2F3F5C" stroke-linecap="round" stroke-linejoin="round"/>
<path d="M124.32 298.34C124.686 298.34 125.038 298.196 125.299 297.94C125.561 297.684 125.712 297.336 125.72 296.97L126.04 282.25L133.04 264.08L149.73 270.58C150.066 270.669 150.424 270.63 150.734 270.472C151.044 270.313 151.284 270.045 151.409 269.719C151.533 269.394 151.532 269.034 151.407 268.709C151.281 268.384 151.04 268.117 150.73 267.96L132.73 260.96C132.383 260.819 131.996 260.819 131.65 260.96C131.481 261.033 131.328 261.141 131.201 261.275C131.074 261.409 130.975 261.567 130.91 261.74L123.35 281.45C123.29 281.599 123.26 281.759 123.26 281.92L122.94 296.92C122.936 297.103 122.968 297.286 123.035 297.458C123.101 297.629 123.201 297.786 123.329 297.918C123.456 298.051 123.608 298.158 123.776 298.232C123.945 298.306 124.126 298.346 124.31 298.35L124.32 298.34Z" fill="#2F3F5C"/>
<path d="M115.14 299.6H133.51V294.29H115.14V299.6Z" fill="#2F3F5C" stroke="#2F3F5C" stroke-linecap="round" stroke-linejoin="round"/>
<path d="M128.93 262.259C128.93 261.613 129.121 260.98 129.481 260.443C129.84 259.905 130.351 259.486 130.948 259.238C131.546 258.991 132.203 258.926 132.838 259.052C133.472 259.178 134.055 259.49 134.512 259.947C134.969 260.404 135.281 260.987 135.407 261.621C135.533 262.256 135.468 262.913 135.221 263.511C134.973 264.108 134.554 264.619 134.016 264.978C133.479 265.337 132.846 265.529 132.2 265.529C131.332 265.529 130.501 265.185 129.887 264.571C129.274 263.958 128.93 263.127 128.93 262.259V262.259Z" fill="#2F3F5C"/>
<path d="M121.5 282.74C121.5 282.093 121.692 281.461 122.051 280.923C122.41 280.385 122.921 279.966 123.519 279.719C124.116 279.471 124.774 279.406 125.408 279.533C126.042 279.659 126.625 279.97 127.082 280.427C127.54 280.885 127.851 281.467 127.977 282.102C128.103 282.736 128.039 283.394 127.791 283.991C127.544 284.589 127.124 285.099 126.587 285.459C126.049 285.818 125.417 286.01 124.77 286.01C124.34 286.011 123.914 285.927 123.517 285.763C123.12 285.6 122.759 285.359 122.455 285.055C122.151 284.751 121.91 284.39 121.746 283.993C121.582 283.595 121.499 283.17 121.5 282.74V282.74Z" fill="#2F3F5C"/>
<path d="M151.269 266.23L163.589 265.46L155.889 282.38L148.369 272.58L151.269 266.23Z" fill="#2F3F5C"/>
<path d="M105.42 315.149L108.16 418.789C108.178 419.448 108.453 420.074 108.925 420.533C109.398 420.993 110.031 421.25 110.69 421.249V421.249C111.357 421.25 111.997 420.987 112.472 420.52C112.947 420.052 113.219 419.416 113.23 418.749L114.58 315.149H105.42Z" fill="white" stroke="#2F3F5C" stroke-linecap="round" stroke-linejoin="round"/>
<path d="M138.899 315.149L141.639 418.789C141.658 419.448 141.932 420.074 142.405 420.533C142.877 420.993 143.51 421.25 144.169 421.249C144.836 421.25 145.476 420.987 145.951 420.52C146.427 420.052 146.699 419.416 146.709 418.749L148.059 315.149H138.899Z" fill="white" stroke="#2F3F5C" stroke-linecap="round" stroke-linejoin="round"/>
<path d="M277 315.149L279.75 418.789C279.768 419.448 280.043 420.074 280.515 420.533C280.988 420.993 281.621 421.25 282.28 421.249C282.946 421.249 283.585 420.987 284.058 420.519C284.532 420.051 284.802 419.415 284.81 418.749L286.17 315.149H277Z" fill="white" stroke="#2F3F5C" stroke-linecap="round" stroke-linejoin="round"/>
<path d="M310.489 315.149L313.239 418.789C313.257 419.448 313.532 420.074 314.005 420.533C314.477 420.993 315.11 421.25 315.769 421.249C316.435 421.249 317.074 420.987 317.548 420.519C318.021 420.051 318.291 419.415 318.299 418.749L319.659 315.149H310.489Z" fill="white" stroke="#2F3F5C" stroke-linecap="round" stroke-linejoin="round"/>
<path d="M322.719 303.83H102.159V316.23H322.719V303.83Z" fill="white" stroke="#2F3F5C" stroke-linecap="round" stroke-linejoin="round"/>
<path d="M148.309 303.83H102.159V316.23H148.309V303.83Z" fill="white" stroke="#2F3F5C" stroke-linecap="round" stroke-linejoin="round"/>
<path d="M322.719 303.83H102.159V310.03H322.719V303.83Z" fill="#2F3F5C" stroke="#2F3F5C" stroke-linecap="round" stroke-linejoin="round"/>
<path d="M325.28 299.56H99.5996V306.39H325.28V299.56Z" fill="white" stroke="#2F3F5C" stroke-linecap="round" stroke-linejoin="round"/>
<path d="M325.269 299.56H151.369V306.39H325.269V299.56Z" fill="white" stroke="#2F3F5C" stroke-linecap="round" stroke-linejoin="round"/>
<path d="M166.97 190.394C172.648 176.534 166.016 160.695 152.157 155.016C138.297 149.338 122.458 155.97 116.779 169.83C111.101 183.689 117.733 199.528 131.592 205.207C145.452 210.886 161.291 204.253 166.97 190.394Z" stroke="#2F3F5C" stroke-linecap="round" stroke-linejoin="round"/>
<path d="M145.451 202.311C157.702 200.337 166.035 188.805 164.061 176.553C162.088 164.301 150.556 155.969 138.304 157.942C126.052 159.916 117.72 171.448 119.693 183.7C121.667 195.952 133.199 204.284 145.451 202.311Z" stroke="#2F3F5C" stroke-linecap="round" stroke-linejoin="round"/>
<path d="M127.551 180.12H141.881V200.8" stroke="#2F3F5C" stroke-linecap="round" stroke-linejoin="round"/>
<path d="M51.7002 421.08H453.7" stroke="#2F3F5C" stroke-linecap="round" stroke-linejoin="round"/>
</svg>
