<svg xmlns="http://www.w3.org/2000/svg" xmlns:xlink="http://www.w3.org/1999/xlink" xmlns:svgjs="http://svgjs.com/svgjs" width="512" height="512" x="0" y="0" viewBox="0 0 511.998 511.998" style="enable-background:new 0 0 512 512" xml:space="preserve" class=""><g>
<g xmlns="http://www.w3.org/2000/svg">
	<g>
		<path d="M511.847,7.539c-0.109-4.035-3.357-7.284-7.391-7.392c-64.367-1.743-128.525,12.156-186.041,40.261    c-3.825,1.869-5.365,6.522-3.421,10.309l0.001,0.002c1.888,3.678,6.368,5.169,10.084,3.354    c10.511-5.134,21.255-9.771,32.184-13.91c14.068,22.427,31.192,43.793,50.981,63.583c19.805,19.805,41.174,36.928,63.594,50.981    c-0.388,1.022-0.756,2.048-1.152,3.067c-19.286,49.541-48.286,93.882-86.193,131.789    c-50.012,50.012-112.464,85.072-180.841,101.57l-82.807-82.808c16.497-68.378,51.558-130.83,101.57-180.841    c21.481-21.481,45.339-40.309,71.003-56.039c3.53-2.164,4.685-6.747,2.591-10.319c-2.152-3.671-6.904-4.869-10.531-2.645    c-26.683,16.356-51.486,35.927-73.812,58.254c-13.691,13.691-26.294,28.285-37.761,43.646    C128.02,137.457,71.899,146.278,35.24,182.938c-45.259,45.26-47.161,117.907-4.326,165.39c1.465,1.626,3.528,2.51,5.645,2.51    c1.196,0,2.409-0.283,3.541-0.874c2.287-1.193,3.75-3.542,4.037-6.105c1.217-10.879,7.938-21.152,17.578-26.843    c11.837-6.988,27.208-7.163,44.616-0.561c-20.576,14.515-43.51,37.889-51.824,72.959c-0.498,2.098-0.169,4.353,1.038,6.138    c1.918,2.839,5.388,4.002,8.53,3.045l10.774-3.273c-7.319,13.558-16.549,33.411-20.414,53.203    c-0.334,1.713-0.149,3.516,0.656,5.064c1.614,3.105,4.982,4.631,8.226,4.002c19.8-3.851,39.752-13.127,53.364-20.468l-3.209,10.56    c-0.647,2.129-0.467,4.47,0.689,6.372c1.43,2.353,3.924,3.676,6.512,3.676c0.58,0,1.163-0.066,1.742-0.203    c35.164-8.279,58.59-31.254,73.127-51.862c6.603,17.408,6.427,32.779-0.56,44.615c-5.698,9.651-15.988,16.377-26.882,17.582    c-2.345,0.259-4.52,1.507-5.768,3.509c-2.013,3.231-1.349,7.286,1.338,9.709c22.904,20.661,51.659,30.913,80.375,30.913    c30.817,0,61.588-11.811,85.015-35.239c2.887-2.886,5.633-5.925,8.212-9.084c2.795-3.423,2.14-8.491-1.466-11.047h-0.001    c-3.279-2.324-7.772-1.672-10.314,1.44c-2.254,2.761-4.655,5.416-7.18,7.94c-36.086,36.086-92.106,40.616-133.139,12.682    c9.407-4.322,17.483-11.503,22.901-20.678c6.269-10.618,11.497-28.124,3.318-53.125c45.805-11.577,88.972-31.191,127.683-57.821    c12.442,26.37,13.347,56.759,2.444,83.87c-1.497,3.722,0.112,7.967,3.724,9.713l0.004,0.002c3.935,1.901,8.698,0.116,10.333-3.938    c12.876-31.925,11.444-67.835-3.967-98.631c15.357-11.464,29.947-24.064,43.634-37.751    c39.405-39.405,69.554-85.506,89.609-137.022C504.221,113.554,513.304,61.145,511.847,7.539z M53.982,303.924    c-9.177,5.418-16.357,13.494-20.679,22.901C5.369,285.791,9.9,229.772,45.986,193.686c31.445-31.446,79.28-39.458,118.943-20.763    c-26.631,38.711-46.245,81.878-57.822,127.684C82.107,292.428,64.6,297.656,53.982,303.924z M132.109,438.629l4.786-15.749    c0.932-3.07-0.163-6.395-2.738-8.309c-2.576-1.914-6.075-2.005-8.746-0.228c-0.291,0.194-25.763,17.017-53.095,25.33    c8.304-27.345,25.138-52.791,25.33-53.08c1.783-2.67,1.695-6.173-0.218-8.751c-1.913-2.579-5.243-3.674-8.313-2.743l-15.748,4.786    c9.751-24.936,28.295-42.04,44.561-52.961l67.142,67.143C174.15,410.333,157.047,428.876,132.109,438.629z M477.091,140.057    c-20.425-13.104-39.935-28.9-58.097-47.061c-18.143-18.142-33.934-37.64-47.048-58.063    c40.057-13.332,82.328-20.049,124.835-19.719C497.154,57.939,490.54,99.82,477.091,140.057z" fill="#a5b7d233" data-original="#000000" style=""></path>
	</g>
</g>
<g xmlns="http://www.w3.org/2000/svg">
	<g>
		<path d="M387.585,124.409c-15.226-15.227-35.472-23.612-57.005-23.612s-41.779,8.385-57.006,23.612    c-31.432,31.433-31.432,82.578,0,114.011c15.227,15.227,35.473,23.612,57.006,23.612c21.534,0,41.779-8.385,57.005-23.612    C419.018,206.986,419.018,155.842,387.585,124.409z M376.836,227.671c-12.354,12.355-28.782,19.16-46.256,19.16    s-33.901-6.804-46.257-19.16c-25.505-25.506-25.505-67.007,0-92.512c12.355-12.355,28.782-19.16,46.257-19.16    c17.473,0,33.901,6.804,46.256,19.16C402.342,160.664,402.342,202.165,376.836,227.671z" fill="#a5b7d233" data-original="#000000" style=""></path>
	</g>
</g>
<g xmlns="http://www.w3.org/2000/svg">
	<g>
		<path d="M370.721,141.272c-22.136-22.135-58.148-22.135-80.284,0c-22.132,22.135-22.132,58.15,0.001,80.283    c11.068,11.067,25.605,16.6,40.142,16.6s29.074-5.533,40.142-16.6C392.854,199.422,392.854,163.407,370.721,141.272z     M359.972,210.807c-16.205,16.207-42.579,16.207-58.784,0c-16.207-16.207-16.207-42.578,0-58.785    c8.104-8.104,18.746-12.155,29.392-12.155c10.643,0,21.289,4.053,29.392,12.155C376.179,168.229,376.179,194.6,359.972,210.807z" fill="#a5b7d233" data-original="#000000" style=""></path>
	</g>
</g>
<g xmlns="http://www.w3.org/2000/svg">
</g>
<g xmlns="http://www.w3.org/2000/svg">
</g>
<g xmlns="http://www.w3.org/2000/svg">
</g>
<g xmlns="http://www.w3.org/2000/svg">
</g>
<g xmlns="http://www.w3.org/2000/svg">
</g>
<g xmlns="http://www.w3.org/2000/svg">
</g>
<g xmlns="http://www.w3.org/2000/svg">
</g>
<g xmlns="http://www.w3.org/2000/svg">
</g>
<g xmlns="http://www.w3.org/2000/svg">
</g>
<g xmlns="http://www.w3.org/2000/svg">
</g>
<g xmlns="http://www.w3.org/2000/svg">
</g>
<g xmlns="http://www.w3.org/2000/svg">
</g>
<g xmlns="http://www.w3.org/2000/svg">
</g>
<g xmlns="http://www.w3.org/2000/svg">
</g>
<g xmlns="http://www.w3.org/2000/svg">
</g>
</g></svg>