<svg xmlns="http://www.w3.org/2000/svg" width="128" height="128" viewBox="0 0 128 128" fill="none"><path d="M109.011 91.4229H18.9824V106.463H109.011V91.4229Z" fill="#3D5276"></path><path d="M112.036 101.712H15.9676C12.9132 101.712 10.4531 98.8955 10.4531 95.4343V26.2579C10.4531 22.781 12.927 19.9648 15.9676 19.9648H112.036C115.09 19.9648 117.55 22.781 117.55 26.2579V95.4185C117.564 98.8955 115.09 101.712 112.036 101.712Z" fill="#3D5276"></path><path d="M112.618 25.3926H15.375V95.45H112.618V25.3926Z" fill="#FEFEFE"></path><path d="M0.00585938 123.532V125.766C0.00585938 127.009 1.19445 128 2.64563 128H125.36C126.825 128 128 126.993 128 125.766V123.532H0.00585938Z" fill="#3D5276"></path><path d="M63.9957 106.29H11.463C11.2833 106.51 3.03233 114.927 0.503133 121.173C-0.574887 123.848 0.129972 125.248 2.13398 125.248H63.9957H125.858C127.862 125.248 128.566 123.848 127.488 121.173C124.959 114.927 116.708 106.51 116.528 106.29H63.9957Z" fill="#3D5276"></path><path d="M121.352 122.053H9.41797L17.1714 108.979H113.599L121.352 122.053Z" fill="#9C9EB9"></path><path d="M119.983 119.756L119.735 119.347H112.271L110.875 116.169H117.855L117.606 115.76H110.696L109.3 112.582H115.727L115.478 112.173H109.12L107.71 108.964H107.061L108.443 112.173H100.441L99.3213 108.964H98.6717L99.7774 112.173H91.7752L90.9459 108.964H90.2963L91.1118 112.173H83.1095L82.5567 108.964H81.9071L82.4323 112.173H74.4301L74.1675 108.964H73.5179L73.7529 112.173H66.1653V108.964H65.5157V112.173H57.6379L57.8728 108.964H57.2232L56.9606 112.173H48.9584L49.4836 108.964H48.834L48.2812 112.173H40.279L41.0944 108.964H40.4448L39.6156 112.173H31.6548L32.7605 108.964H32.1109L30.9914 112.173H22.9892L24.3713 108.964H23.7217L22.312 112.173H15.2634L15.0146 112.582H22.1323L20.7364 115.76H13.135L12.8862 116.169H20.5567L19.1608 119.347H11.0066L10.7578 119.756H18.9812L17.9723 122.053H18.7048L19.6998 119.756H28.324L27.5224 122.053H28.2549L29.0427 119.756H37.6668L37.0726 122.053H37.8051L38.3855 119.756H47.0097L46.6227 122.053H47.3552L47.7284 119.756H56.3525L56.159 122.053H56.8915L57.0574 119.756H65.4881V122.053H66.1929V119.756H74.3472L74.513 122.053H75.2455L75.052 119.756H83.6762L84.0493 122.053H84.7818L84.3949 119.756H93.019L93.5995 122.053H94.332L93.7377 119.756H102.362L103.15 122.053H103.882L103.081 119.756H111.705L112.7 122.053H113.432L112.423 119.756H119.983ZM31.5166 112.598H39.5465L38.7172 115.776H30.4248L31.5166 112.598ZM22.8095 112.598H30.8394L29.7337 115.776H21.4413L22.8095 112.598ZM28.476 119.347H19.8933L21.2616 116.169H29.5817L28.476 119.347ZM37.7912 119.347H29.2085L30.3004 116.169H38.6205L37.7912 119.347ZM47.0926 119.347H38.5099L39.3115 116.169H47.6316L47.0926 119.347ZM47.7007 115.776H39.4083L40.2099 112.598H48.2397L47.7007 115.776ZM56.394 119.347H47.8113L48.3365 116.169H56.6566L56.394 119.347ZM56.6842 115.776H48.3918L48.9169 112.598H56.9468L56.6842 115.776ZM65.5157 119.347H57.1127L57.3476 116.169H65.5157V119.347V119.347ZM65.5157 115.776H57.3753L57.6102 112.598H65.5019V115.776H65.5157ZM66.2206 112.598H73.8358L74.0707 115.776H66.2067V112.598H66.2206ZM66.2206 119.347V116.169H74.1122L74.3472 119.347H66.2206ZM108.65 112.598L110.019 115.776H101.726L100.62 112.598H108.65ZM99.9432 112.598L101.035 115.776H92.7426L91.9134 112.598H99.9432ZM74.513 112.598H82.5429L83.0681 115.776H74.7756L74.513 112.598ZM75.0658 119.347L74.8032 116.169H83.1234L83.6485 119.347H75.0658ZM83.2201 112.598H91.25L92.0516 115.776H83.7591L83.2201 112.598ZM84.3672 119.347L83.8282 116.169H92.1483L92.9499 119.347H84.3672ZM93.6686 119.347L92.8393 116.169H101.159L102.251 119.347H93.6686ZM102.97 119.347L101.864 116.169H110.184L111.553 119.347H102.97Z" fill="#D0D1DE"></path><path d="M63.9961 125.249H58.5646C58.5646 125.265 58.5507 125.8 58.841 126.099C58.9515 126.209 59.1036 126.272 59.2556 126.272H64.0099H68.7643C68.9163 126.272 69.0683 126.209 69.1789 126.099C69.4691 125.784 69.4415 125.265 69.4553 125.249H63.9961Z" fill="#3D5276"></path><path d="M112.618 25.3926H15.375V95.45H112.618V25.3926Z" fill="#FEFEFE"></path><path d="M65.807 61.1212L57.0308 65.5736L45.9327 52.9403L15.375 79.434V95.4498H112.618V13.1367L71.9987 69.0977L65.807 61.1212Z" fill="#14C3BF"></path><path d="M37.6665 74.0684H34.5566V76.7429H37.6665V74.0684Z" fill="#FEFEFE"></path><path d="M42.0356 74.0684H38.9258V76.7429H42.0356V74.0684Z" fill="#FEFEFE"></path><path d="M46.4165 74.0684H43.3066V76.7429H46.4165V74.0684Z" fill="#F77021"></path><path d="M50.7973 74.0684H47.6875V76.7429H50.7973V74.0684Z" fill="#FEFEFE"></path><path d="M55.1645 74.0684H52.0547V76.7429H55.1645V74.0684Z" fill="#FEFEFE"></path><path d="M59.5454 74.0684H56.4355V76.7429H59.5454V74.0684Z" fill="#F77021"></path><path d="M37.6665 78.6309H34.5566V81.3054H37.6665V78.6309Z" fill="#FEFEFE"></path><path d="M42.0356 78.6309H38.9258V81.3054H42.0356V78.6309Z" fill="#FEFEFE"></path><path d="M46.4165 78.6309H43.3066V81.3054H46.4165V78.6309Z" fill="#FEFEFE"></path><path d="M50.7973 78.6309H47.6875V81.3054H50.7973V78.6309Z" fill="#FEFEFE"></path><path d="M55.1645 78.6309H52.0547V81.3054H55.1645V78.6309Z" fill="#F77021"></path><path d="M59.5454 78.6309H56.4355V81.3054H59.5454V78.6309Z" fill="#FEFEFE"></path><path d="M37.6665 83.209H34.5566V85.8835H37.6665V83.209Z" fill="#FEFEFE"></path><path d="M42.0356 83.209H38.9258V85.8835H42.0356V83.209Z" fill="#F77021"></path><path d="M46.4165 83.209H43.3066V85.8835H46.4165V83.209Z" fill="#FEFEFE"></path><path d="M50.7973 83.209H47.6875V85.8835H50.7973V83.209Z" fill="#FEFEFE"></path><path d="M55.1645 83.209H52.0547V85.8835H55.1645V83.209Z" fill="#FEFEFE"></path><path d="M59.5454 83.209H56.4355V85.8835H59.5454V83.209Z" fill="#FEFEFE"></path><path d="M37.6665 87.7881H34.5566V90.4626H37.6665V87.7881Z" fill="#FEFEFE"></path><path d="M42.0356 87.7881H38.9258V90.4626H42.0356V87.7881Z" fill="#FEFEFE"></path><path d="M46.4165 87.7881H43.3066V90.4626H46.4165V87.7881Z" fill="#F77021"></path><path d="M50.7973 87.7881H47.6875V90.4626H50.7973V87.7881Z" fill="#FEFEFE"></path><path d="M66.856 66.485L66.5381 66.1388L66.1511 66.3276L65.9023 65.6354L66.6763 65.2578L67.2845 65.95L66.856 66.485Z" fill="white"></path><path d="M59.78 69.3639L59.5312 68.6716L60.5955 68.1682L60.8443 68.8604L59.78 69.3639ZM61.9085 68.357L61.6597 67.649L62.724 67.1456L62.9728 67.8378L61.9085 68.357ZM64.037 67.3344L63.7882 66.6421L64.8525 66.1387L65.1013 66.8309L64.037 67.3344Z" fill="white"></path><path d="M57.9424 70.2466L57.3066 69.6173L57.7075 69.0352L58.053 69.3813L58.4676 69.1767L58.7164 69.8847L57.9424 70.2466Z" fill="white"></path><path d="M56.3667 68.6728L55.4269 67.7446L55.8415 67.1782L56.7813 68.1064L56.3667 68.6728ZM54.4732 66.8006L53.5334 65.8724L53.948 65.306L54.8878 66.2342L54.4732 66.8006ZM52.5936 64.9284L51.6538 64.0002L52.0684 63.4338L53.0082 64.362L52.5936 64.9284ZM50.714 63.0562L49.7742 62.128L50.1888 61.5616L51.1286 62.4899L50.714 63.0562ZM48.8343 61.1841L47.8945 60.2558L48.3092 59.6895L49.249 60.6177L48.8343 61.1841Z" fill="white"></path><path d="M46.9404 59.3112L46.6364 59.0123L46.3185 59.2798L45.9453 58.6505L46.6778 58.0684L47.3551 58.7449L46.9404 59.3112Z" fill="white"></path><path d="M17.5724 82.2649L17.1992 81.6356L18.3325 80.7388L18.7057 81.3681L17.5724 82.2649ZM19.8252 80.4556L19.452 79.8263L20.5853 78.9296L20.9585 79.5589L19.8252 80.4556ZM22.078 78.6621L21.7048 78.0328L22.8243 77.1361L23.1974 77.7654L22.078 78.6621ZM24.3169 76.8529L23.9438 76.2236L25.0632 75.3268L25.4364 75.9561L24.3169 76.8529ZM26.5559 75.0751L26.1827 74.4458L27.3022 73.549L27.6754 74.1783L26.5559 75.0751ZM28.781 73.2973L28.4079 72.668L29.5135 71.787L29.8867 72.4163L28.781 73.2973ZM31.0062 71.5195L30.633 70.8902L31.7387 70.0092L32.1118 70.6385L31.0062 71.5195ZM33.2175 69.7575L32.8443 69.1282L33.95 68.2471L34.3232 68.8764L33.2175 69.7575ZM35.415 67.9954L35.0418 67.3661L36.1337 66.4851L36.5068 67.1144L35.415 67.9954ZM37.6125 66.2333L37.2393 65.604L38.3312 64.723L38.7043 65.3523L37.6125 66.2333ZM39.7962 64.487L39.423 63.8577L40.5149 62.9924L40.888 63.6217L39.7962 64.487ZM41.9799 62.7407L41.6067 62.1114L42.6985 61.2461L43.0717 61.8597L41.9799 62.7407ZM44.1497 61.0101L43.7766 60.3965L44.8546 59.5312L45.2277 60.1448L44.1497 61.0101Z" fill="white"></path><path d="M74.4037 71.3631L73.9199 70.8596L74.7492 69.7584L75.2329 70.2618L74.4037 71.3631ZM76.076 69.1605L75.6061 68.6571L76.4353 67.5558L76.9052 68.0592L76.076 69.1605ZM77.7345 66.958L77.2646 66.4545L78.0938 65.3532L78.5637 65.8567L77.7345 66.958ZM79.3791 64.7554L78.9092 64.2519L79.7385 63.1664L80.2084 63.6698L79.3791 64.7554ZM81.0376 62.5843L80.5677 62.0808L81.397 60.9953L81.8669 61.4987L81.0376 62.5843ZM82.6685 60.3974L82.1986 59.894L83.014 58.8085L83.4839 59.3119L82.6685 60.3974ZM84.3131 58.2263L83.8432 57.7229L84.6587 56.6373L85.1286 57.1408L84.3131 58.2263ZM85.944 56.071L85.4741 55.5675L86.2895 54.482L86.7594 54.9854L85.944 56.071ZM87.5748 53.9156L87.1049 53.4122L87.9204 52.3423L88.3903 52.8458L87.5748 53.9156ZM89.1919 51.7602L88.722 51.2568L89.5236 50.187L89.9935 50.6904L89.1919 51.7602ZM90.7951 49.6206L90.3252 49.1329L91.1268 48.0631L91.5967 48.5508L90.7951 49.6206ZM92.4121 47.481L91.9422 46.9932L92.7438 45.9234L93.2137 46.4111L92.4121 47.481ZM94.0153 45.3571L93.5454 44.8693L94.347 43.8153L94.8169 44.303L94.0153 45.3571ZM95.6047 43.2489L95.1348 42.7612L95.9364 41.7071L96.4063 42.1948L95.6047 43.2489ZM97.2079 41.125L96.738 40.6373L97.5258 39.5832L97.9957 40.0709L97.2079 41.125ZM98.7835 39.0325L98.3136 38.5448L99.1014 37.4907L99.5713 37.9784L98.7835 39.0325ZM100.373 36.9244L99.903 36.4366L100.691 35.3983L101.161 35.886L100.373 36.9244ZM101.948 34.8477L101.479 34.3599L102.266 33.3216L102.722 33.8093L101.948 34.8477ZM103.51 32.7552L103.054 32.2675L103.842 31.2291L104.298 31.7169L103.51 32.7552ZM105.086 30.6785L104.63 30.1908L105.417 29.1524L105.874 29.6402L105.086 30.6785ZM106.648 28.6175L106.191 28.1298L106.965 27.0915L107.421 27.5792L106.648 28.6175ZM108.195 26.5566L107.739 26.0688L108.513 25.0462L108.969 25.5339L108.195 26.5566ZM109.647 24.6057L109.191 24.118L109.964 23.0954L110.421 23.5831L109.647 24.6057ZM111.084 22.6549L110.628 22.1672L111.402 21.1445L111.858 21.6322L111.084 22.6549Z" fill="white"></path><path d="M72.9373 73.3138L72.2324 72.5272L72.6609 71.9766L72.882 72.244L73.0893 71.9766L73.5731 72.48L72.9373 73.3138Z" fill="white"></path><path d="M71.1561 71.3156L70.078 70.1042L70.5065 69.5693L71.5845 70.7807L71.1561 71.3156ZM68.9999 68.8928L67.9219 67.6814L68.3503 67.1465L69.4284 68.3579L68.9999 68.8928Z" fill="white"></path><path d="M110.033 4.95508L72.1231 59.6574L65.9867 51.2248L57.0032 56.0704L45.6148 42.2257L15.375 70.1983V73.5651L45.5043 45.6869L56.7406 59.327L65.6688 54.5129L72.1645 63.4333L111.498 6.66993C110.973 6.11929 110.476 5.55292 110.033 4.95508Z" fill="#F77021"></path><path d="M115.907 0L106.965 3.44545L112.88 10.179L115.907 0Z" fill="#F77021"></path><path d="M27.08 34.3124C29.0978 34.4855 30.9498 35.4609 30.9636 37.7736L27.5913 37.7894C27.5637 36.9241 26.7897 36.7353 26.2922 36.7353C25.9881 36.7353 24.9792 36.751 24.9792 37.4432C24.993 39.0165 31.1847 37.3331 31.2124 41.8012C31.2262 44.4757 29.388 45.4826 27.1352 45.6871L27.3011 48.519L25.2418 48.5347L25.3524 45.6714C23.2516 45.4354 21.3029 44.3341 21.2891 41.927L24.6613 41.9113V41.99C24.689 43.0441 25.7255 43.2486 26.2507 43.2486C26.7621 43.2486 27.7572 43.2014 27.7572 42.4305C27.7434 40.7943 21.5517 42.3204 21.524 38.0096C21.5102 35.5239 23.1963 34.5642 25.2971 34.3439L25.1589 31.4806L27.2044 31.4648L27.08 34.3124Z" fill="#F77021"></path><path d="M78.4522 111.387C78.4522 111.387 78.5904 114.502 78.1896 114.974C77.7888 115.431 72.3708 116.107 71.8594 115.588C71.348 115.069 71.5553 114.078 72.7025 113.606C73.9326 113.102 74.5684 113.432 75.3286 112.992C76.0887 112.551 75.7847 111.167 75.7847 111.167L78.4522 111.387Z" fill="#3D5276"></path><path d="M96.2262 111.387C96.2262 111.387 96.0879 114.502 96.4888 114.974C96.8896 115.431 102.308 116.107 102.819 115.588C103.33 115.069 103.123 114.078 101.976 113.606C100.746 113.102 100.11 113.432 99.3498 112.992C98.5896 112.551 98.8937 111.167 98.8937 111.167L96.2262 111.387Z" fill="#3D5276"></path><path d="M96.5302 93.3576C95.9359 89.9593 92.7572 80.6928 91.5824 77.4834C91.1125 77.2946 90.5873 77.1215 90.0621 76.9485C90.2003 76.2248 90.2971 75.5955 90.3938 75.0605C89.4678 75.3437 88.4866 75.4696 87.5053 75.8314C87.3671 75.8786 87.215 75.9258 87.063 75.9888C86.911 75.9416 86.759 75.8786 86.6207 75.8314C85.6257 75.4696 84.6444 75.3437 83.7322 75.0605C83.829 75.6112 83.9257 76.2248 84.0639 76.9485C83.5387 77.1215 83.0135 77.2946 82.5436 77.4834C81.3689 80.6928 78.1901 89.9593 77.5958 93.3576C76.7804 98.0617 75.4121 111.985 75.4121 111.985L78.8949 112.504C78.8949 112.504 82.4054 93.7981 82.903 92.7598C83.8013 90.9033 84.7411 89.2514 85.5842 87.804C86.289 86.5926 87.837 86.5926 88.5418 87.804C89.3849 89.2671 90.3247 90.9033 91.2231 92.7598C91.7206 93.7981 95.2311 112.504 95.2311 112.504L98.7139 111.985C98.7139 111.985 97.3457 98.0617 96.5302 93.3576Z" fill="#F77021"></path><path d="M97.4837 35.4777C97.2763 33.873 97.069 33.6213 96.5853 33.3066C96.3641 33.165 96.143 33.0234 95.9909 32.7874C95.8389 32.5514 95.5763 32.3312 95.3552 32.1267C95.1478 31.9379 94.8852 31.7333 94.7885 31.403C94.6779 31.0096 95.1202 31.1198 95.4104 31.2456C95.7283 31.3715 96.3088 32.3626 96.6406 32.221C96.9723 32.0795 96.1983 30.9467 96.0324 30.7107C95.6592 30.1758 95.2169 30.2545 94.7194 30.0027C94.4291 29.8612 94.3324 29.6881 94.6503 29.4836C94.8852 29.3262 95.1755 29.4521 95.4243 29.5465C95.908 29.7353 96.4194 30.0499 96.7649 30.4905C96.53 30.1129 95.9633 29.6724 95.5901 29.4521C95.3413 29.3105 94.1665 28.9015 94.3324 28.4295C94.6641 27.4855 96.9308 29.2633 97.1796 29.7668C96.8893 29.2948 96.4747 28.9801 96.0601 28.6497C95.8251 28.4609 95.2308 28.0204 95.7283 27.8002C96.4471 27.4698 97.3316 28.9959 97.8292 29.6094C97.6219 29.0903 97.3178 28.7756 96.9861 28.3194C96.5853 27.7687 97.0828 27.6271 97.5804 28.1148C97.7877 28.3194 98.1471 28.8071 98.2162 28.9172C99.004 30.0499 99.0317 30.8208 99.1837 32.2053C99.239 32.7088 99.239 33.5111 99.391 34.9585C99.4739 35.7609 98.0918 35.3361 97.4837 35.4777Z" fill="#ECB7AE"></path><path d="M63.5392 58.0057C62.1986 57.4393 62.0327 56.8258 61.8669 56.2279C61.7839 55.9448 61.7286 55.6773 61.549 55.457C61.3693 55.2368 61.2449 54.8907 61.1205 54.6075C60.9961 54.34 60.8855 53.9939 60.6229 53.8208C60.3189 53.6163 60.305 54.1355 60.3465 54.4816C60.388 54.8592 61.1067 55.7245 60.9132 56.0549C60.7197 56.401 59.9181 55.284 59.7522 55.0637C59.379 54.5288 59.5311 54.0568 59.4343 53.459C59.379 53.1129 59.2546 52.9713 59.0058 53.2702C58.8262 53.4905 58.8676 53.8523 58.8953 54.1355C58.9506 54.7176 59.1164 55.3469 59.4205 55.8346C59.1441 55.4885 58.8953 54.7648 58.7847 54.3086C58.7156 53.9939 58.6188 52.6094 58.1766 52.7038C57.292 52.8769 58.3424 55.7717 58.7156 56.165C58.3701 55.7402 58.1904 55.2053 57.9969 54.6861C57.8863 54.3715 57.6375 53.632 57.3335 54.1355C56.8912 54.8749 58.0245 56.1807 58.4392 56.8572C58.0383 56.5111 57.831 56.1178 57.5131 55.6458C57.1261 55.0795 56.8912 55.5986 57.2091 56.2594C57.3335 56.5426 57.679 57.0303 57.7619 57.1404C58.5636 58.2574 59.2132 58.462 60.3742 58.9182C60.7888 59.0755 61.2311 59.1227 62.5994 59.8779C63.249 60.1926 63.2905 58.6508 63.5392 58.0057Z" fill="#ECB7AE"></path><path d="M88.7765 54.9848C88.0164 55.1579 87.2147 55.1736 86.496 55.1107C86.2334 55.0792 85.957 55.0163 85.6944 54.9219C85.722 56.0074 85.722 58.5089 85.0586 59.5473C85.0586 59.5473 85.2936 60.7587 87.2424 60.7901C89.1912 60.8216 89.4261 59.5473 89.4261 59.5473C89.4261 59.5473 88.7074 57.7223 88.7765 54.9848Z" fill="#ECB7AE"></path><path d="M96.2533 61.0899C95.7281 60.319 93.2127 58.6199 91.5128 58.3209C88.7486 57.8175 85.9292 57.8175 83.165 58.3209C81.4651 58.6199 79.779 59.1233 79.2399 59.8942C78.5765 60.8539 80.5667 66.2659 80.8846 71.2217C81.161 75.3279 81.6448 78.5059 81.6448 78.5059C82.7366 80.7871 91.2502 80.8501 92.342 78.5688C92.342 78.5688 92.5493 75.0605 93.1436 71.2217C93.9314 66.2345 96.9305 62.081 96.2533 61.0899Z" fill="#E5E6ED"></path><path d="M82.5707 70.0891C82.626 68.7518 83.013 66.3604 82.5846 65.1333C81.9626 63.387 80.5666 62.7262 79.2812 61.9238C79.6682 64.1579 80.6772 67.7764 80.8984 71.2218C81.1748 75.328 81.6585 78.506 81.6585 78.506C81.8659 78.9308 82.3358 79.2612 82.9439 79.5286C81.7415 76.9013 82.4602 72.6849 82.5707 70.0891Z" fill="#D2D3D8"></path><path d="M91.4019 48.9601C91.4019 48.9601 87.3801 46.2699 86.7719 46.9306C86.1638 47.5914 85.2102 49.8412 84.7403 50.1873C84.2704 50.5334 83.5517 50.8638 83.6208 51.2571C83.6899 51.6662 83.9249 51.6819 83.8972 52.0909C83.8834 52.5 83.068 54.4508 83.5102 55.0329C83.9525 55.615 86.8825 56.8737 88.6377 55.5521C90.3792 54.2306 93.3783 50.1716 91.4019 48.9601Z" fill="#ECB7AE"></path><path d="M92.2877 49.951L88.9015 50.014C88.9015 50.014 88.2657 51.9176 86.8145 53.1447C86.8145 53.1447 86.8974 53.7111 87.2567 53.601C87.6161 53.4909 87.8372 53.4437 88.086 53.0032C88.3348 52.5626 89.0673 51.4456 89.5649 52.4368C90.0625 53.4279 88.9982 53.7583 88.5559 53.7583C88.5559 53.7583 87.008 55.8822 88.2104 56.2913C88.2104 56.2913 89.5511 56.071 91.5967 53.601C93.6146 51.1152 93.1999 49.7622 92.2877 49.951Z" fill="#3D5276"></path><path d="M85.8738 45.4355C85.8738 45.4355 84.2291 46.5683 86.1364 48.8495C88.0437 51.1308 92.5354 49.9351 92.5354 49.9351C92.5354 49.9351 93.0192 48.4405 91.3883 46.8829C90.1721 45.7187 88.8453 45.1209 87.7811 45.6873C85.9567 46.647 85.8738 45.4355 85.8738 45.4355Z" fill="#3D5276"></path><path d="M63.0975 57.2676L61.6602 59.8792C61.6602 59.8792 65.3641 63.9382 69.6347 67.1477C72.1225 69.0199 80.6222 66.0307 81.9352 65.5744C83.8148 64.9294 85.2246 60.4141 82.0872 58.7307C80.2491 57.7396 72.8964 64.1113 71.0997 63.0257C68.8331 61.6884 63.0975 57.2676 63.0975 57.2676Z" fill="#E5E6ED"></path><path d="M96.8616 34.785L99.7225 34.2344C99.7225 34.2344 101.616 43.6425 101.505 47.025C101.395 50.4075 96.6681 62.7262 95.5763 63.6859C94.2771 64.8501 90.6837 61.499 93.2959 57.8963C95.908 54.2935 97.5941 46.8677 97.6632 46.5688C97.7323 46.2698 96.8616 34.785 96.8616 34.785Z" fill="#E5E6ED"></path><path d="M60.776 29.4199H37.6953V31.7798H60.776V29.4199Z" fill="#D0D1DE"></path><path d="M60.776 33.1641H37.6953V35.524H60.776V33.1641Z" fill="#D0D1DE"></path><path d="M55.1648 36.8926H37.6953V39.2525H55.1648V36.8926Z" fill="#D0D1DE"></path></svg>