<svg xmlns="http://www.w3.org/2000/svg" width="160" height="118" viewBox="0 0 160 118" fill="none"><path d="M33.731 87.709H29.208V112.718H33.731V87.709Z" fill="#3D5276"></path><path d="M119.365 87.709H114.842V112.718H119.365V87.709Z" fill="#3D5276"></path><path d="M148.589 0H0V89.9906H148.589V0Z" fill="#D0D1DE"></path><path d="M141.484 6.0332H7.10254V83.9709H141.484V6.0332Z" fill="white"></path><path d="M100.696 76.6514H15.9482C15.9482 76.6514 16.3679 45.1792 26.7671 40.6613C37.1663 36.1434 44.1302 58.9014 49.0266 59.2077C53.9231 59.514 53.4879 40.5694 60.6227 37.7668C78.9806 30.5381 77.1153 59.0546 80.4729 58.7636C83.846 58.4573 86.8616 32.4219 91.4938 32.4219C102.841 32.4066 100.696 76.6514 100.696 76.6514Z" fill="#E4E5EC"></path><path d="M100.696 76.6514H15.9482C15.9482 76.6514 18.0934 49.8196 28.4925 45.3017C38.8917 40.7838 43.4928 62.4851 48.3893 62.7914C53.2858 63.0977 57.8714 47.7215 65.5192 47.1089C73.167 46.5116 78.3744 64.8895 81.732 64.5985C85.1051 64.2922 86.8927 35.3623 91.5249 35.3623C100.696 35.347 100.696 76.6514 100.696 76.6514Z" fill="#14C3BF"></path><path d="M100.696 76.6506H15.9482C15.9482 76.6506 18.6996 63.3878 29.0988 58.8699C39.4979 54.352 45.0162 66.8643 49.9127 67.1553C54.8091 67.4616 56.7988 49.2981 64.4466 48.6855C72.0945 48.0882 67.8509 70.6165 79.9755 70.6165C88.7736 70.6165 87.4368 52.0701 92.069 52.0701C101.24 52.0701 100.696 76.6506 100.696 76.6506Z" fill="#F77021"></path><path d="M135.702 30.9971H110.566V35.3312H135.702V30.9971Z" fill="#E4E5EC"></path><path d="M135.702 40.6611H110.566V44.9953H135.702V40.6611Z" fill="#E4E5EC"></path><path d="M135.702 50.3096H110.566V54.6437H135.702V50.3096Z" fill="#14C3BF"></path><path d="M135.702 59.9736H110.566V64.3078H135.702V59.9736Z" fill="#E4E5EC"></path><path d="M135.702 69.6211H110.566V73.9552H135.702V69.6211Z" fill="#F77021"></path><path d="M18.2483 10.7051H13.6631V15.223H18.2483V10.7051Z" fill="#14C3BF"></path><path d="M43.477 10.7051H22.6631V15.223H43.477V10.7051Z" fill="#E4E5EC"></path><path d="M18.2483 18.3008H13.6631V22.8187H18.2483V18.3008Z" fill="#14C3BF"></path><path d="M43.477 18.3008H22.6631V22.8187H43.477V18.3008Z" fill="#E4E5EC"></path><path d="M18.2483 25.8818H13.6631V30.3997H18.2483V25.8818Z" fill="#14C3BF"></path><path d="M43.477 25.8818H22.6631V30.3997H43.477V25.8818Z" fill="#E4E5EC"></path><path d="M135.702 10.7051H70.3535V16.9995H135.702V10.7051Z" fill="#E4E5EC"></path><path d="M85.3075 24.1055H52.5244V29.4351H85.3075V24.1055Z" fill="#E4E5EC"></path><path d="M37.4932 109.548H25.4619V113.974H37.4932V109.548Z" fill="#D0D1DE"></path><path d="M123.126 109.548H111.095V113.974H123.126V109.548Z" fill="#D0D1DE"></path><path d="M57.4053 11.9148C59.0375 12.0373 60.5453 12.7265 60.5453 14.3345L57.825 14.3498C57.8095 13.7372 57.1722 13.6147 56.768 13.6147C56.5193 13.6147 55.711 13.6147 55.711 14.1201C55.711 15.2228 60.7474 14.0435 60.7629 17.1831C60.7785 19.0668 59.2862 19.7713 57.452 19.9092L57.5763 21.9001L55.9131 21.9154L56.0063 19.9092C54.312 19.7407 52.7265 18.975 52.7109 17.275L55.4467 17.2597V17.3209C55.4623 18.0561 56.3017 18.2092 56.7369 18.1939C57.1566 18.1939 57.9649 18.1633 57.9649 17.6119C57.9649 16.4633 52.9286 17.5354 52.913 14.5183C52.8975 12.7724 54.2654 12.0832 55.9597 11.9301L55.8509 9.92383H57.5141L57.4053 11.9148Z" fill="#14C3BF"></path><path d="M68.068 14.5339L65.5032 9.60254L62.9229 14.5339H64.6949V21.9004H66.3271V14.5339H68.068Z" fill="#F77021"></path><path d="M139.309 41.0448C139.309 41.0448 136.9 42.4844 134.879 46.4663C132.858 50.4329 131.599 52.577 131.351 52.3779C130.278 51.5356 127.433 49.1311 123.283 42.7141C122.77 41.9331 123.299 41.4277 123.314 40.8151C123.33 40.2025 124.169 38.7935 123.983 38.3953C123.796 37.9971 123.299 38.089 122.817 39.0539C122.335 40.0187 122.49 40.616 122.102 40.3403C121.713 40.0647 120.749 38.8854 120.438 38.38C120.128 37.8899 119.148 36.9098 118.884 37.0629C118.635 37.2161 118.573 37.4764 120.05 39.5593C119.521 38.8242 118.2 37.0936 117.749 37.5071C117.407 37.8134 118.713 39.3602 119.288 40.034C118.791 39.4674 117.64 38.2422 117.236 38.6557C116.739 39.1458 119.179 40.9682 119.179 40.9682C119.179 40.9682 117.361 39.544 117.112 39.9575C116.863 40.371 117.92 41.3052 118.977 41.8718C120.019 42.4538 120.205 42.6529 120.625 42.8673C120.889 43.0051 121.324 43.6637 121.573 44.0772C121.589 44.1078 129.205 60.1885 131.941 58.703C134.677 57.2174 138.314 51.9491 138.314 51.9491C138.314 51.9491 139.325 50.295 139.729 47.7375C140.071 45.5168 139.853 42.4232 139.309 41.0448Z" fill="#ECB7AE"></path><path d="M133.371 47.9364C133.931 46.6653 137.117 40.2943 139.387 39.3447L142.433 40.524C143.786 42.178 142.06 46.0986 141.501 46.5427C141.034 46.9103 138.765 51.5048 138.299 51.9795C135.361 49.912 133.371 47.9364 133.371 47.9364Z" fill="#F77021"></path><path d="M144.89 30.1553L149.273 30.8291C149.273 30.8291 148.045 34.6579 149.926 37.9353C149.926 37.9353 146.771 41.2892 144.579 40.401C142.232 39.4514 143.102 37.1236 143.102 37.1236C143.102 37.1236 145.512 35.2551 144.89 30.1553Z" fill="#D9A69D"></path><path d="M153.671 110.788C153.671 110.788 154.853 115.413 154.184 116.164C153.516 116.914 143.692 118.568 142.743 117.802C141.795 117.037 142.091 115.505 144.096 114.663C146.241 113.775 147.407 114.219 148.728 113.468C150.049 112.718 149.396 110.604 149.396 110.604L153.671 110.788Z" fill="#3D5276"></path><path d="M141.455 109.993C141.455 109.993 141.688 115.782 140.911 116.425C140.134 117.068 130.17 117.221 129.346 116.318C128.522 115.414 129.004 114.128 131.025 113.684C132.843 113.285 134.196 113.638 135.595 113.056C136.823 112.535 137.444 109.824 137.444 109.824L141.455 109.993Z" fill="#3D5276"></path><path d="M137.241 61.7038L150.049 59.4678C150.049 59.4678 145.2 85.4419 144.562 88.4436C143.925 91.4454 142.013 111.186 142.013 111.186L136.433 110.543C136.433 110.543 136.495 88.9644 136.775 87.0347C137.054 85.105 137.241 61.7038 137.241 61.7038Z" fill="#14C3BF"></path><path d="M141.982 72.0416C141.345 67.9678 141.78 64.7976 140.863 62.822C140.505 62.0409 139.324 62.24 139.044 61.4283C139.199 61.2445 139.339 61.0301 139.448 60.8004L150.08 59.2383C150.08 59.2383 145.262 81.6287 144.003 87.1268C144.003 87.1268 142.479 75.2883 141.982 72.0416Z" fill="#19A9AB"></path><path d="M142.558 60.4482L152.848 63.0212C152.848 63.0212 154.169 66.7427 153.47 71.4291C152.63 77.0649 152.537 85.9017 152.428 87.1116C152.335 88.3061 154.356 107.358 154.511 111.906L148.962 112.136C148.962 112.136 144.718 88.2755 144.47 87.7548C144.221 87.2341 142.558 60.4482 142.558 60.4482Z" fill="#14C3BF"></path><path d="M137.801 51.5658C138.019 47.2929 136.853 40.8606 139.387 39.3444C141.516 38.0733 143.273 37.0472 143.273 37.0472C143.273 37.0472 143.91 38.5787 145.433 38.7778C146.957 38.9769 149.366 36.7256 149.366 36.7256C149.366 36.7256 152.149 38.3337 154.651 39.4363C154.045 41.412 155.289 43.1885 155.289 45.1641C155.289 46.3281 155.444 47.3695 155.724 48.3803C154.713 50.5243 153.719 52.6225 153.501 54.1387C152.941 58.0287 154.729 64.0015 154.729 64.0015C154.729 64.0015 150.687 64.9663 145.2 65.4258C142.247 65.6708 138.812 65.0735 135.796 64.3231C135.811 64.3078 137.584 55.8386 137.801 51.5658Z" fill="#F77021"></path><path d="M155.724 48.365C155.646 48.074 155.599 47.7677 155.537 47.4767C155.49 47.2623 155.428 47.0479 155.397 46.8182C155.32 46.2822 155.288 45.7308 155.288 45.1642C155.288 44.1994 155.226 43.1579 155.211 42.1318C154.698 42.4994 154.06 43.403 153.423 43.0354C150.47 41.3355 150.066 49.1155 150.066 53.0361C150.066 56.9414 149.972 61.5359 148.387 65.0889C152.164 64.6142 154.713 64.0016 154.713 64.0016C154.713 64.0016 154.465 63.1592 154.185 61.9034C154.045 61.2755 153.889 60.5404 153.765 59.7593C153.718 59.499 153.672 59.2386 153.641 58.963C153.532 58.1513 153.439 57.3089 153.408 56.4819C153.376 55.6549 153.392 54.8586 153.501 54.1234C153.718 52.6073 154.698 50.5091 155.724 48.365Z" fill="#DB6723"></path><path d="M149.194 23.0347C149.194 23.0347 142.93 22.1005 142.199 22.7897C141.484 23.4788 141.36 25.9599 141.391 28.058C141.422 30.1562 140.521 34.184 143.008 34.9344C145.495 35.6848 150.251 33.3876 151.93 29.2219C154.075 23.9077 149.614 23.096 149.194 23.0347Z" fill="#ECB7AE"></path><path d="M150.252 22.5285C150.252 22.5285 147.283 22.6204 146.77 27.0311C146.537 29.022 146.024 30.5382 146.646 30.6454C147.268 30.7373 147.905 30.3238 147.905 29.7572C147.905 29.1905 148.092 27.3221 149.273 27.8428C150.454 28.3635 150.05 30.6148 148.558 31.258C148.558 31.258 148.247 32.5292 149.444 33.2337C149.444 33.2337 152.569 31.2887 153.019 27.8428C153.47 24.3816 152.149 22.4366 150.252 22.5285Z" fill="#3D5276"></path><path d="M151.432 22.9274C151.432 22.9274 150.733 20.1707 147.422 19.941C144.111 19.7265 141.468 21.6715 139.883 24.2904C139.883 24.2904 140.784 25.8525 144.189 26.0516C145.603 26.1282 148.121 25.7453 149.38 25.1021C151.168 24.1985 151.432 22.9274 151.432 22.9274Z" fill="#3D5276"></path><path d="M159.936 58.6566C159.734 57.6611 158.786 51.8108 158.444 49.6514C156.516 50.2793 154.744 50.9225 152.77 51.4432C153.361 52.8216 154.729 58.044 154.884 59.4529C155.102 61.4286 154.185 70.1581 153.92 73.1904C153.905 73.4355 153.874 73.6346 153.858 73.803C153.765 74.3391 153.547 75.0895 153.143 75.5949C152.692 76.1462 151.185 77.9534 151.449 78.7498C151.698 79.5461 152.957 78.0912 153.407 77.6011C153.858 77.1111 153.951 78.7498 153.827 79.638C153.718 80.5263 151.9 81.9965 152.102 82.6091C152.242 83.0379 152.786 82.7316 153.485 81.9506C153.159 82.4407 152.91 82.9001 153.097 83.0379C153.345 83.2064 153.796 82.9001 154.278 82.3794C154.014 82.7776 153.843 83.1451 154.014 83.2217C154.278 83.3596 154.791 82.9307 155.257 82.4253C155.008 82.7929 154.853 83.1451 155.024 83.2523C155.35 83.4514 156.407 82.5019 156.812 81.2461C157.138 80.2353 156.361 77.3714 156.081 75.9012C156.003 75.457 156.034 75.0282 156.174 74.5994C157.045 72.0571 160.511 61.4286 159.936 58.6566Z" fill="#ECB7AE"></path><path d="M152.786 53.3581C154.76 53.0671 157.434 52.2401 159.703 51.3059C159.175 47.6303 157.853 42.5764 155.926 40.5548C155.382 39.9881 154.434 38.9774 153.563 39.2683C152.428 39.6512 150.952 41.198 150.843 44.1844C150.812 44.9196 151.465 49.2843 151.993 50.6933C152.226 51.3059 152.459 52.4545 152.786 53.3581Z" fill="#F77021"></path></svg>