<svg xmlns="http://www.w3.org/2000/svg" width="162" height="129" viewBox="0 0 162 129" fill="none"><path d="M131.791 108.685C128.348 104.469 118.196 98.7299 120.865 92.1473C123.13 86.5538 134.028 87.2347 132.716 80.4901C131.941 76.5017 130.942 73.0969 133.297 68.5572C135.876 63.6122 143.583 66.3036 146.266 61.7153C148.562 57.7755 145.581 51.6793 150.321 49.0528C154.54 46.7181 159.623 51.2902 160.383 55.3273C161.337 60.3858 156.731 62.7691 156.135 67.1791C155.762 69.984 158.103 70.9568 159.459 72.9186C160.741 74.7993 161.904 77.5069 161.993 79.8253C162.247 86.8294 155.196 87.7374 151.856 92.1798C148.756 96.2979 154.465 98.9569 153.616 103.432C152.691 108.263 146.356 110.906 141.913 110.841C138.813 110.809 133.923 111.295 131.791 108.685Z" fill="#14C3BF"></path><path d="M136.293 110.983C136.263 110.983 136.234 110.966 136.219 110.95C136.07 110.869 136.025 110.707 136.114 110.561C136.174 110.464 142.465 100.168 142.837 87.2141C143.076 78.5888 146.37 73.0601 149.083 68.5366C150.723 65.7966 152.139 63.4133 152.363 61.0299C152.378 60.8354 152.542 60.6895 152.736 60.6895C152.93 60.6895 153.064 60.8678 153.034 61.0624C152.795 63.624 151.334 66.0722 149.65 68.8771C146.982 73.3357 143.732 78.7509 143.493 87.2141C143.106 100.314 136.725 110.723 136.651 110.82C136.547 110.966 136.412 111.015 136.293 110.983Z" fill="white"></path><path d="M143.358 87.277C143.209 87.2445 143.105 87.0986 143.12 86.9527C143.134 86.7744 143.298 86.6446 143.477 86.6609C146.146 86.8392 149.709 85.1368 150.782 82.3157C150.916 81.9753 151.035 81.6024 151.184 81.197C151.84 79.3001 152.66 76.9168 154.374 76.0575C155.209 75.6359 156.178 75.6359 157.252 76.0413C157.416 76.1061 157.49 76.2845 157.416 76.4628C157.341 76.6411 157.162 76.706 156.983 76.6574C156.074 76.3169 155.314 76.3169 154.628 76.6411C153.182 77.3707 152.407 79.5919 151.796 81.3754C151.661 81.7807 151.527 82.1536 151.393 82.5103C150.171 85.7205 146.31 87.4715 143.418 87.2932C143.388 87.277 143.373 87.277 143.358 87.277Z" fill="white"></path><path d="M141.466 86.9538C140.229 86.6457 139.29 86.0621 138.664 85.1865C137.68 83.8084 137.516 81.7169 138.231 79.139C138.306 78.8796 138.395 78.5878 138.485 78.2635C139.036 76.4152 139.886 73.6104 139.051 72.0539C138.768 71.5351 138.336 71.1946 137.695 71.0325C137.516 70.9838 137.411 70.7893 137.471 70.6109C137.516 70.4326 137.709 70.3191 137.888 70.3677C138.693 70.5947 139.275 71.0487 139.632 71.7134C140.601 73.5131 139.692 76.4963 139.111 78.4419C139.021 78.7661 138.932 79.0418 138.857 79.3012C138.201 81.6845 138.321 83.5814 139.2 84.8136C139.946 85.8675 141.257 86.435 143.076 86.5484C143.255 86.5647 143.374 86.7106 143.359 86.8889C143.344 87.0673 143.18 87.197 143.016 87.1808C142.45 87.1321 141.943 87.0673 141.466 86.9538Z" fill="white"></path><path d="M139.945 106.917C139.572 106.836 139.229 106.707 138.916 106.512C138.782 106.415 138.752 106.237 138.857 106.107C138.961 105.977 139.14 105.945 139.289 106.026C140.884 107.08 144.134 105.718 145.52 104.648C146.102 104.21 146.608 103.432 147.16 102.621C148.144 101.162 149.158 99.6378 150.782 99.5891C150.961 99.5729 151.081 99.7188 151.081 99.881C151.081 100.043 150.931 100.189 150.767 100.189C149.5 100.221 148.576 101.6 147.682 102.913C147.1 103.772 146.564 104.583 145.893 105.085C144.641 106.042 141.928 107.307 139.945 106.917Z" fill="white"></path><path d="M137.337 106.284C136.964 106.203 136.592 106.073 136.234 105.862C134.221 104.695 133.029 101.728 132.716 99.9929C132.552 99.0687 132.805 97.8365 133.074 96.5233C133.506 94.4318 133.968 92.243 132.716 91.254C132.582 91.1405 132.567 90.946 132.671 90.8163C132.79 90.6865 132.984 90.6703 133.118 90.7676C134.654 91.9998 134.147 94.4642 133.685 96.6368C133.416 97.8852 133.178 99.0687 133.327 99.8956C133.61 101.468 134.728 104.322 136.562 105.392C137.277 105.797 138.023 105.894 138.798 105.684C138.962 105.635 139.126 105.716 139.171 105.878C139.215 106.024 139.111 106.186 138.947 106.235C138.41 106.365 137.859 106.381 137.337 106.284Z" fill="white"></path><path d="M29.4988 108.535C24.3558 112.313 20.2116 115.102 14.6811 109.459C11.8934 106.606 10.8797 103.412 11.4462 98.9695C11.8934 95.3864 12.3257 93.7651 10.3282 90.7981C7.16786 86.1449 2.26341 84.3291 0.459643 78.4275C-1.52301 71.9584 4.35041 67.6295 2.75534 61.4685C1.33916 56.0371 -1.70189 50.9786 1.90564 45.7256C4.9616 41.2508 10.6263 43.245 12.4301 47.9306C13.4438 50.622 13.3692 53.67 14.7556 56.1831C16.0972 58.5988 18.1991 59.1339 20.4501 59.9445C25.5335 61.7442 29.9609 64.9706 29.3795 71.9747C29.0366 76.1739 28.9323 79.5948 32.7038 81.4269C36.7436 83.3887 38.9946 84.6533 38.7114 90.8305C38.4878 95.4675 36.4157 97.9319 34.1498 101.32C32.033 104.482 29.9311 109.378 26.4726 110.821L29.4988 108.535Z" fill="#C2C3D4"></path><path d="M30.155 106.283C29.2457 106.186 28.4258 105.926 27.6954 105.472C24.6245 103.559 23.7897 98.6629 23.0443 94.2853C22.6717 92.0966 22.3139 90.0051 21.7325 88.627C20.1524 84.8979 18.2144 82.3687 14.592 79.353C10.4031 75.851 9.56829 73.2407 9.28505 67.485C9.04654 62.6859 8.58442 57.7409 6.79556 54.855C6.6614 54.628 6.72102 54.3038 6.94463 54.1092C7.16824 53.9146 7.46638 53.9471 7.60055 54.174C9.50866 57.2545 9.98569 62.3617 10.2242 67.3229C10.4776 72.884 11.2379 75.2511 15.233 78.591C18.3188 81.1527 20.7635 83.7954 22.6269 88.2216C23.253 89.697 23.6108 91.8372 23.9984 94.0908C24.7139 98.3224 25.5189 103.04 28.2618 104.759C29.3352 105.424 30.647 105.618 32.2719 105.326C32.5402 105.278 32.7936 105.44 32.8383 105.667C32.8831 105.91 32.6893 106.137 32.4209 106.186C31.6159 106.315 30.8557 106.364 30.155 106.283Z" fill="white"></path><path d="M18.5419 82.8881C18.4375 82.8881 18.3481 82.8556 18.2586 82.7746C18.0648 82.6125 18.0648 82.3044 18.2586 82.1098C19.8984 80.3264 19.3916 77.3756 18.84 74.214C18.363 71.4416 17.871 68.5394 18.8698 66.1237C18.9891 65.8481 19.2872 65.6859 19.5257 65.767C19.7792 65.8481 19.8984 66.1399 19.7792 66.4155C18.8996 68.5394 19.3618 71.2957 19.809 73.9384C20.3605 77.2135 20.927 80.5534 18.9294 82.7259C18.84 82.8232 18.6909 82.8881 18.5419 82.8881Z" fill="white"></path><path d="M22.5222 89.4197C22.4626 89.4197 22.403 89.4035 22.3433 89.371C21.7023 89.0792 21.2104 88.7387 20.7483 88.4145C19.988 87.8956 19.347 87.4417 18.1992 87.312C17.6029 87.2471 17.0215 87.2633 16.4699 87.2795C15.3072 87.312 14.1146 87.3444 12.8028 86.5824C10.9394 85.5123 9.06108 83.5991 7.21259 80.8916C6.95917 80.5187 6.64612 79.935 6.31816 79.3027C5.84113 78.4109 4.96161 76.741 4.57403 76.6275C4.35042 76.5626 4.21626 76.3194 4.27588 76.0763C4.35042 75.8331 4.57403 75.6709 4.79764 75.7196C5.48336 75.8493 6.12437 76.9842 7.10824 78.8163C7.4362 79.4162 7.73434 79.9836 7.95795 80.3241C9.18033 82.1238 11.1034 84.5233 13.2947 85.7879C14.3978 86.4202 15.3668 86.3878 16.4997 86.3554C17.0811 86.3392 17.6923 86.323 18.3631 86.3878C19.7346 86.5337 20.5396 87.1012 21.3297 87.6362C21.7769 87.9443 22.2241 88.2523 22.8055 88.5117C23.044 88.609 23.1334 88.9008 22.9993 89.1278C22.9098 89.3224 22.716 89.4359 22.5222 89.4197Z" fill="white"></path><path d="M57.7329 15.86C58.2696 16.768 58.8063 18.5028 59.7156 19.0864C60.8634 19.816 62.6374 19.7674 63.8896 19.7187C63.1293 17.9191 62.9355 13.8172 64.5902 12.2283C63.502 11.4987 63.4573 13.8496 62.6374 12.8768C62.3392 12.5201 60.0435 8.66139 59.8199 8.22363C59.1789 9.0505 59.4473 11.8554 58.8212 14.1414C58.5081 15.325 57.7329 15.86 57.7031 15.8276C57.718 15.8276 57.718 15.8438 57.7329 15.86Z" fill="#D9A69D"></path><path d="M63.0851 2.50195C63.0851 2.50195 68.884 3.21533 69.1822 4.95014C69.4803 6.68494 68.4815 8.80886 68.4517 9.92757C68.4219 11.0463 69.3014 12.6514 69.2865 13.1053C69.2716 13.5593 67.9896 13.8349 67.7362 14.0781C67.4827 14.3213 65.7386 17.2559 64.5609 17.5477C63.3982 17.8396 59.1049 13.7052 58.8664 10.6896C58.8217 10.1059 58.0912 8.98721 58.2254 8.30626C58.7919 5.45274 61.7137 2.64787 63.0851 2.50195Z" fill="#ECB7AE"></path><path d="M61.9066 0.42355C59.5065 0.00200872 60.9674 1.44498 58.2991 2.61232C56.3611 3.47162 56.7636 5.69282 57.3599 6.69803C57.5984 7.10336 57.4792 7.50869 57.1214 8.18964C56.9127 9.63261 59.1935 12.8266 59.8941 11.8376C60.0581 11.6106 59.4171 10.119 59.4618 9.48669C59.3127 8.43284 60.1774 7.37898 60.9973 8.30313C61.2656 8.61118 61.5488 9.03272 61.5339 9.45426C61.5041 10.6865 61.8619 11.0269 62.3538 10.6054C63.0992 9.9893 62.2495 7.50869 62.8159 6.97366C64.0979 5.77388 64.4855 4.33092 64.4855 4.33092C65.5439 3.09872 64.3066 0.828878 61.9066 0.42355Z" fill="#3D5276"></path><path d="M133.924 46.2598H26.9648V120.629H133.924V46.2598Z" fill="#E5E6ED"></path><path d="M38.1891 60.1064H33.0908V106.768H38.1891V60.1064Z" fill="#3D5276"></path><path d="M42.603 60.1064H40.0986V106.768H42.603V60.1064Z" fill="#3D5276"></path><path d="M52.5761 60.1064H47.4033V106.768H52.5761V60.1064Z" fill="#3D5276"></path><path d="M57.3754 60.1064H55.4375V106.768H57.3754V60.1064Z" fill="#3D5276"></path><path d="M65.4694 60.1064H63.7998V106.768H65.4694V60.1064Z" fill="#3D5276"></path><path d="M45.8512 60.1064H44.1816V106.768H45.8512V60.1064Z" fill="#3D5276"></path><path d="M62.0418 60.1064H59.5225V106.768H62.0418V60.1064Z" fill="#3D5276"></path><path d="M72.5798 60.1064H68.5996V106.768H72.5798V60.1064Z" fill="#3D5276"></path><path d="M76.9194 60.1064H74.415V106.768H76.9194V60.1064Z" fill="#3D5276"></path><path d="M80.4368 60.1064H79.1846V106.768H80.4368V60.1064Z" fill="#3D5276"></path><path d="M90.0072 60.1064H89.1426V106.768H90.0072V60.1064Z" fill="#3D5276"></path><path d="M84.8043 60.1064H82.6875V106.768H84.8043V60.1064Z" fill="#3D5276"></path><path d="M96.0301 60.1064H94.9717V106.768H96.0301V60.1064Z" fill="#3D5276"></path><path d="M108.79 60.1064H107.329V106.768H108.79V60.1064Z" fill="#3D5276"></path><path d="M122.981 60.1064H121.521V106.768H122.981V60.1064Z" fill="#3D5276"></path><path d="M97.8189 60.1064H96.999V106.768H97.8189V60.1064Z" fill="#3D5276"></path><path d="M106.033 60.1064H105.392V106.768H106.033V60.1064Z" fill="#3D5276"></path><path d="M120.15 60.1064H119.196V106.768H120.15V60.1064Z" fill="#3D5276"></path><path d="M87.7858 60.1064H85.6689V106.768H87.7858V60.1064Z" fill="#3D5276"></path><path d="M93.9129 60.1064H91.6172V106.768H93.9129V60.1064Z" fill="#3D5276"></path><path d="M104.885 60.1064H103.096V106.768H104.885V60.1064Z" fill="#3D5276"></path><path d="M102.022 60.1064H99.2197V106.768H102.022V60.1064Z" fill="#3D5276"></path><path d="M113.919 60.1064H109.983V106.768H113.919V60.1064Z" fill="#3D5276"></path><path d="M118.092 60.1064H115.752V106.768H118.092V60.1064Z" fill="#3D5276"></path><path d="M128.049 60.1064H124.934V106.768H128.049V60.1064Z" fill="#3D5276"></path><path d="M69.0923 23.0078C69.0923 23.0078 69.5246 23.4131 69.942 25.4074C71.388 32.1034 72.7892 41.3124 73.4153 43.258C74.1756 45.6089 79.5422 57.7201 79.5422 57.7201L75.1595 61.06C75.1595 61.06 68.7941 47.7653 67.9742 45.5116C67.1544 43.258 63.0996 31.8926 63.0996 31.8926L69.0923 23.0078Z" fill="#14C3BF"></path><path d="M70.9263 45.596C68.8095 41.3968 67.1399 34.1657 66.3796 29.3018L63.1299 31.8796C63.1299 31.8796 67.1846 43.2451 68.0045 45.4987C68.8244 47.7523 75.1898 61.0471 75.1898 61.0471L76.2929 60.2202C74.4742 54.9023 73.4307 50.5572 70.9263 45.596Z" fill="#19A9AB"></path><path d="M48.5804 30.2436C47.0897 34.0699 44.63 44.576 43.7803 46.2784H64.8441C66.0217 41.4955 67.4379 35.6588 67.9597 32.9674C69.1522 26.774 69.0777 22.9477 69.0777 22.9477C69.0777 22.9477 65.9323 19.9807 63.5024 18.181C63.5024 18.181 60.8639 20.8886 57.8377 15.668C57.8377 15.668 50.8761 17.727 49.3704 18.3107C48.7593 18.5701 50.2351 25.9795 48.5804 30.2436Z" fill="#14C3BF"></path><path d="M51.4575 24.2588C50.3991 26.3179 49.1021 28.5715 48.2077 30.436C46.7766 34.392 44.8387 44.6063 44.0039 46.2762H53.0973C53.0525 45.498 52.7395 44.2009 52.7395 43.3254C52.7395 40.8448 52.8886 38.4777 53.7979 36.1592C54.6327 34.0677 53.5743 27.0961 53.2016 26.6259C52.5755 25.8477 52.009 25.0532 51.4575 24.2588Z" fill="#19A9AB"></path><path d="M128.049 43.8906C113.753 51.3162 117.137 50.1003 114.812 50.765C112.486 51.4297 98.8015 52.3701 98.8015 52.3701L97.2959 58.7581C97.2959 58.7581 113.962 57.7691 116.243 57.2016C118.509 56.6342 128.079 52.6781 128.079 52.6781L128.049 43.8906Z" fill="#F77021"></path><path d="M105.017 52.7785C105.435 53.5567 106.18 54.1404 107.253 54.0917C109.549 54.0107 111.815 53.9458 114.006 53.5891C115.288 53.4756 116.57 53.2162 117.837 52.7947C120.059 52.0651 122.31 51.2382 124.412 50.1519C125.53 49.5683 126.841 49.3251 128.034 48.8711L128.049 52.6812C128.049 52.6812 118.478 56.6372 116.213 57.2046C113.947 57.7721 97.2656 58.7611 97.2656 58.7611L98.7563 52.438C100.828 52.665 102.93 52.7785 105.017 52.7785Z" fill="#DB6723"></path><path d="M130.002 119.157C130.002 119.157 130.614 121.087 130.614 122.562C130.614 124.054 130.524 125.626 130.107 125.999C129.272 126.745 118.658 126.842 117.793 125.772C116.929 124.702 117.51 122.984 119.746 122.384C122.161 121.751 122.489 122.011 124.01 121.395C125.53 120.762 125.158 118.914 125.158 118.914L130.002 119.157Z" fill="#3D5276"></path><path d="M153.288 116.997C153.288 116.997 154.481 118.554 154.973 119.948C155.464 121.342 155.897 122.85 155.628 123.369C155.092 124.39 145.208 128.589 144.046 127.941C142.883 127.276 142.868 125.444 144.761 124.017C146.803 122.493 147.206 122.607 148.413 121.439C149.621 120.272 148.682 118.683 148.682 118.683L153.288 116.997Z" fill="#3D5276"></path><path d="M130.076 70.1143L144.372 71.8491C144.372 71.8491 131.582 94.0773 130.613 97.6442C129.644 101.211 130.971 120.618 130.971 120.618H124.501C124.501 120.618 123.115 97.6928 123.428 95.9742C123.756 94.2556 130.076 70.1143 130.076 70.1143Z" fill="#3D5276"></path><path d="M130.629 71.2598H146.952C146.952 71.2598 148.86 76.7074 147.981 80.8417C147.101 84.9923 146.52 93.796 146.609 95.3525C146.684 96.909 154.659 117.646 154.659 117.646L148.711 120.045C148.711 120.045 140.512 100.281 139.722 98.0277C138.917 95.8065 130.629 71.2598 130.629 71.2598Z" fill="#3D5276"></path><path d="M131.314 34.5419C132.641 34.6392 134.012 34.4933 135.25 34.2014C135.697 34.0879 136.159 33.9258 136.591 33.6826C136.725 35.4661 137.188 39.6328 138.544 41.1893C138.544 41.1893 138.365 43.297 134.966 43.8158C131.582 44.3346 130.882 41.5946 130.882 41.5946C130.882 41.5946 131.538 37.1847 131.314 34.5419Z" fill="#ECB7AE"></path><path d="M138.543 41.2678C138.543 41.3003 138.528 41.3489 138.513 41.4137V41.43C138.499 41.4948 138.469 41.5759 138.439 41.6569C138.439 41.6569 138.439 41.6569 138.439 41.6732C138.409 41.7542 138.349 41.8515 138.29 41.965C138.275 41.9812 138.275 41.9974 138.26 42.0136C138.141 42.2244 137.962 42.4514 137.708 42.6784C137.694 42.6946 137.679 42.7108 137.664 42.7108C137.545 42.8243 137.395 42.9378 137.231 43.0351C137.217 43.0513 137.187 43.0675 137.172 43.0675C137.008 43.181 136.814 43.2783 136.605 43.3755C136.397 42.4514 135.964 41.5759 135.308 40.8949C134.146 39.6627 132.73 39.0466 131.209 38.998C131.343 37.5712 131.448 35.8364 131.328 34.5556C132.655 34.6529 134.026 34.5069 135.264 34.2151C135.711 34.1016 136.173 33.9395 136.605 33.6963C136.74 35.4797 137.202 39.6465 138.558 41.203C138.558 41.203 138.558 41.2192 138.558 41.2516C138.543 41.2516 138.543 41.2678 138.543 41.2678Z" fill="#D9A69D"></path><path d="M136.816 23.9352C136.816 23.9352 131.136 22.4111 130.301 23.9352C129.466 25.4592 129.735 27.8263 129.407 28.8964C129.079 29.9664 127.737 31.1338 127.603 31.5715C127.469 31.9931 128.587 32.7551 128.751 33.0632C128.915 33.3874 129.63 36.8084 130.629 37.5218C131.628 38.2351 136.771 35.9491 137.948 33.2091C139.126 30.4691 138.351 24.7458 136.816 23.9352Z" fill="#ECB7AE"></path><path d="M130.882 40.9963C130.882 40.9963 134.862 43.1527 138.097 40.5586C138.097 40.5586 144.254 41.7259 145.014 42.0664C145.64 42.342 144 51.8754 144.716 56.6744C145.431 61.4735 148.293 73.0821 148.293 73.0821C148.293 73.0821 140.75 79.389 127.796 75.4168C127.796 75.4168 127.379 59.1226 127.513 54.5992C127.722 47.9842 127.751 44.0606 127.751 44.0606C127.751 44.0606 129.242 42.4069 130.882 40.9963Z" fill="#F77021"></path><path d="M140.318 67.3525C140.885 64.8394 141.272 62.375 140.87 59.7647C140.423 56.9436 142.286 53.2308 142.644 50.3611C143.016 47.2968 143.3 45.2053 145.163 43.5029C145.044 46.4051 144.179 52.939 144.731 56.668C145.446 61.4671 148.308 73.0757 148.308 73.0757C148.308 73.0757 143.523 77.0479 135.041 76.675C138.365 74.4862 139.379 71.5354 140.318 67.3525Z" fill="#DB6723"></path><path d="M134.369 24.8122C134.369 24.8122 134.265 26.32 135.085 27.9251C135.457 28.6385 133.862 30.6652 134.369 31.5083C134.697 32.0757 135.144 31.9136 135.517 30.73C135.636 30.3247 136.024 30.0329 136.382 29.8383C137.723 29.1249 138.141 31.3785 136.933 32.1244C136.098 32.6432 136.71 34.9779 136.71 34.9779C137.664 35.7075 140.675 34.6212 140.243 32.2054C139.959 30.6652 139.84 30.0815 140.332 29.6924C141.197 28.9628 142.3 27.0172 140.749 25.4932C138.618 23.3855 140.451 22.591 138.066 22.0722C135.666 21.5696 133.788 23.2233 134.369 24.8122Z" fill="#3D5276"></path><path d="M138.5 23.3014C138.351 22.7502 137.382 22.0692 136.905 21.7288C136.174 21.1937 135.324 20.8695 134.445 20.6587C133.565 20.4641 132.626 20.4641 131.747 20.6911C130.986 20.8857 130.36 21.291 129.585 21.4207C128.87 21.5504 128.139 21.5504 127.617 21.1127C127.483 21.6477 127.528 22.6853 127.602 23.042C127.766 23.7878 128.258 24.4526 128.706 25.1173C129.913 26.9008 133.058 27.7763 135.19 26.69C136.219 26.1712 137.158 25.7172 137.62 24.6958C137.873 24.0959 138.097 23.804 138.5 23.3014Z" fill="#3D5276"></path><path d="M48.2663 81.5054C47.8041 81.4081 47.3271 81.2298 46.865 80.9866C46.6712 80.8893 46.4774 80.792 46.2836 80.6948C45.4786 80.3056 44.7184 79.9327 44.0773 79.1383C42.8699 77.6791 42.6314 76.1875 43.2276 73.9825C43.7643 72.0369 45.0761 70.4481 46.9395 69.4915C47.7892 69.0537 48.5197 68.9564 49.3545 68.843L49.6079 68.8105C50.711 68.6484 51.6204 67.8377 52.485 67.0433L52.634 66.9136C52.9918 66.5893 53.3198 66.2489 53.6626 65.8922C53.9012 65.649 54.1397 65.4058 54.3782 65.1626C57.7174 61.8875 62.5026 62.4874 65.9163 63.5737L65.7225 64.3033C62.4728 63.2818 57.941 62.682 54.8403 65.73C54.6018 65.9732 54.3633 66.2164 54.1397 66.4434C53.7968 66.8001 53.4539 67.1568 53.0813 67.4973L52.9322 67.627C52.0378 68.4538 51.0092 69.3942 49.6973 69.5725L49.4439 69.605C48.624 69.7185 47.983 69.7995 47.2377 70.1886C45.5681 71.0479 44.3755 72.4747 43.8985 74.2095C43.3618 76.1713 43.5556 77.3711 44.5991 78.6357C45.1507 79.3004 45.8066 79.6247 46.5668 79.9976C46.7606 80.0949 46.9544 80.1921 47.1631 80.2894C48.4899 80.9866 49.8017 80.938 51.1881 80.8731C51.993 80.8407 52.8278 80.792 53.6925 80.9055C55.5558 81.1487 57.2254 80.5813 58.9696 79.1221L59.0888 79.0248C61.3398 77.1279 63.1138 75.6363 65.9461 74.7607L66.3635 74.631C68.4356 73.9987 69.822 73.561 71.0146 71.5668C72.1773 69.6212 72.5053 67.2054 71.8344 65.6814C71.3872 64.6437 70.5077 64.0601 69.2406 63.9142L69.3151 63.1684C71.2083 63.3791 72.073 64.4816 72.4605 65.3571C73.355 67.4 72.6394 70.2373 71.5959 71.9883C70.2543 74.2257 68.6294 74.7283 66.5573 75.3769L66.1399 75.5066C63.4417 76.3496 61.7125 77.7926 59.5211 79.6409L59.4019 79.7544C57.5087 81.3433 55.6602 81.9594 53.603 81.6838C52.798 81.5703 51.993 81.6189 51.2179 81.6513C50.2489 81.6838 49.265 81.7324 48.2663 81.5054Z" fill="white"></path><path d="M131.194 60.3531L80.048 48.8094C78.5572 48.4689 76.992 48.6472 75.5907 49.312L66.3632 53.6733C64.1569 54.7109 62.5619 56.8673 62.0699 59.4128L61.414 62.8499C60.9221 65.4116 61.6078 68.0706 63.2476 69.9837L70.1198 77.9768C71.1633 79.1928 72.5348 80.0197 74.0255 80.3601L125.172 91.9039C129.167 92.8118 133.088 90.0069 133.922 85.6618L136.934 69.854C137.768 65.5089 135.204 61.2448 131.194 60.3531ZM75.8143 68.3138C70.8353 70.3728 67.1235 64.2443 70.8502 60.0937C71.1037 59.8019 71.4316 59.5749 71.7745 59.429C76.7535 57.3699 80.4654 63.4985 76.7386 67.649C76.4851 67.9409 76.1572 68.1679 75.8143 68.3138Z" fill="#14C3BF"></path><path d="M83.6416 72.9445L87.4131 60.0713L90.4691 60.7522C90.9163 60.8495 91.3039 60.9792 91.6467 61.1089C91.9896 61.2386 92.2877 61.4332 92.571 61.644C92.8542 61.8709 93.0629 62.1304 93.1971 62.4222C93.3312 62.714 93.4058 63.0707 93.4207 63.4923C93.4207 63.7355 93.3909 64.0111 93.3462 64.2867C93.3014 64.4813 93.2567 64.692 93.1971 64.9028C92.7201 66.4431 91.8703 67.1889 90.648 67.124C91.8405 67.6266 92.3027 68.648 92.0045 70.1883C91.9747 70.3666 91.9151 70.5612 91.8703 70.7557C91.5126 72.0204 90.9312 72.8959 90.1411 73.3823C89.351 73.8687 88.397 73.9984 87.2491 73.739L83.6416 72.9445ZM86.5932 71.6799L87.2939 71.842C87.92 71.9879 88.397 71.9231 88.7398 71.6637C89.0678 71.4043 89.3361 70.9179 89.5448 70.2207C89.6045 70.0424 89.6492 69.864 89.679 69.7019C89.7684 69.1993 89.7535 68.794 89.6343 68.5021C89.4703 68.113 89.0678 67.8536 88.4268 67.7077L87.8007 67.5618L86.5932 71.6799ZM88.3075 65.8107L88.9187 65.9404C89.5299 66.0864 90.007 66.0377 90.3051 65.7945C90.6181 65.5513 90.8716 65.1136 91.0505 64.465C91.0803 64.3516 91.1101 64.2543 91.125 64.157C91.2144 63.703 91.1548 63.3463 90.9759 63.1194C90.7523 62.8275 90.32 62.6005 89.6641 62.4546L89.3063 62.3736L88.3075 65.8107Z" fill="white"></path><path d="M92.168 74.8605L95.9395 61.9873L98.9507 62.6683C99.4576 62.7818 99.9048 62.9115 100.277 63.0736C100.65 63.2195 100.978 63.4141 101.261 63.6573C101.545 63.8842 101.753 64.1599 101.902 64.4679C102.051 64.776 102.126 65.1327 102.126 65.5542C102.126 65.8136 102.096 66.0892 102.036 66.3649C101.992 66.5594 101.947 66.754 101.887 66.9647C101.649 67.7754 101.336 68.4077 100.933 68.8779C100.531 69.3481 100.024 69.6399 99.3979 69.7858L99.3383 76.4818L96.9383 75.9468L97.147 69.7858L96.2674 69.5913L94.5531 75.4118L92.168 74.8605ZM96.7445 68.0186L97.3407 68.1483C97.937 68.278 98.4141 68.2294 98.7569 68.0024C99.0998 67.7592 99.3681 67.3052 99.5619 66.6405C99.6066 66.4783 99.6513 66.3324 99.6663 66.1865C99.7557 65.765 99.7408 65.4245 99.6364 65.1651C99.5023 64.8246 99.1445 64.5814 98.5631 64.4517L97.8327 64.2896L96.7445 68.0186Z" fill="white"></path><path d="M100.055 76.6458L106.211 64.3076L108.85 64.9075L107.449 78.3158L105.213 77.8132L105.6 74.8462L103.647 74.4084L102.35 77.1808L100.055 76.6458ZM104.348 72.8357L105.824 73.1762L106.599 67.8583L104.348 72.8357Z" fill="white"></path><path d="M108.64 78.5764L112.411 65.7031L114.096 66.076L114.841 73.4854L116.839 66.6921L118.851 67.1461L115.08 80.0193L113.47 79.6626L112.814 71.8317L110.697 79.0465L108.64 78.5764Z" fill="white"></path><path d="M116.869 80.4377L120.641 67.5645L123.562 68.2292C124.323 68.4075 124.934 68.6183 125.396 68.8939C125.858 69.1533 126.186 69.4938 126.395 69.8991C126.604 70.3045 126.693 70.7747 126.678 71.2773C126.663 71.5529 126.633 71.8447 126.574 72.169C126.514 72.477 126.44 72.8013 126.335 73.158L124.964 77.7949C124.666 78.7839 124.323 79.5622 123.92 80.0972C123.518 80.6322 122.981 81.0051 122.325 81.1835C121.669 81.3618 120.849 81.3456 119.865 81.1186L116.869 80.4377ZM119.821 79.1893L120.343 79.3028C120.536 79.3514 120.715 79.3676 120.879 79.3676C121.043 79.3676 121.177 79.3514 121.297 79.3352C121.416 79.3028 121.52 79.2541 121.625 79.1568C121.729 79.0596 121.803 78.9785 121.878 78.8812C121.952 78.8002 122.012 78.6542 122.087 78.4759C122.161 78.2976 122.221 78.1354 122.266 78.0057C122.31 77.8598 122.37 77.6652 122.444 77.4058L123.935 72.3311C124.025 72.0393 124.084 71.7961 124.129 71.5691C124.159 71.4232 124.174 71.2773 124.189 71.1638C124.218 70.8557 124.144 70.6287 123.965 70.4504C123.786 70.2721 123.488 70.1423 123.041 70.0288L122.534 69.9154L119.821 79.1893Z" fill="white"></path><path d="M72.803 66.7031C72.5943 66.8328 72.3856 66.9463 72.1471 67.0274C72.2663 68.4379 71.8638 70.1403 71.0141 71.5833C70.5371 72.3777 69.6129 73.2046 68.7035 73.7558C68.0923 74.1125 67.4811 74.2747 67.0488 74.453C67.1979 74.6638 67.3321 74.8746 67.4811 75.0853C67.8687 74.907 68.4352 74.7611 68.9868 74.4368C70.0004 73.8369 71.0738 72.9128 71.6104 72.0048C72.4303 70.5943 73.0415 68.519 72.803 66.7031Z" fill="white"></path><path d="M94.6716 51.61C95.4915 50.4589 97.2207 50.5075 98.2791 50.9939C99.1437 51.383 99.1885 52.4045 99.3077 53.8961C99.3972 54.9013 99.427 55.8579 99.1885 56.1497C98.0853 57.0252 98.0555 53.6691 97.8766 52.826C97.8766 52.826 98.294 56.3767 97.7276 56.6847C96.6543 57.2198 96.6841 53.9447 96.5648 53.1178C96.7586 53.8961 96.7884 55.339 96.6393 55.5498C96.6393 56.1821 96.1921 56.0524 96.0729 55.9876C95.5213 55.6309 95.5213 52.9395 95.5213 52.9395C95.5213 53.4097 95.8642 55.1769 95.1486 54.8202C94.6865 54.5932 94.6567 53.8312 94.5673 53.4259C94.4331 52.6315 94.4927 51.8694 94.6716 51.61Z" fill="#ECB7AE"></path><path d="M141.66 67.21C140.542 67.1613 139.17 67.3883 138.023 67.3883C137.501 67.3883 136.949 67.3072 136.428 67.2748C136.1 67.2586 135.429 67.1289 135.235 67.5342C135.026 67.972 135.682 68.1341 135.95 68.199C136.323 68.2962 137.113 68.2314 137.173 68.7826C137.277 69.5771 135.906 69.7878 135.369 70.0473C134.877 70.2905 133.55 70.7931 134.415 71.3119C134.996 71.6686 136.219 70.8579 136.711 70.6309C136.055 70.8255 135.488 71.0849 134.907 71.4416C134.564 71.6524 133.908 71.9442 133.908 72.3495C133.908 72.9494 135.131 72.5927 135.444 72.4468C136.174 72.1063 136.308 72.009 136.815 71.6199C136.293 71.9118 134.4 72.7873 135.026 73.5006C135.399 73.9384 136.89 72.7062 137.471 72.4468C137.143 72.7711 136.174 72.9494 136.249 73.6304C136.293 73.9708 136.845 73.6952 137.098 73.5493C137.471 73.3223 137.799 73.0143 138.172 72.8197C138.47 72.6738 138.664 72.4792 138.977 72.236C139.647 71.7172 140.259 71.5875 140.84 70.9228C141.377 70.2905 141.884 69.6581 142.45 69.1231C141.392 68.7178 142.48 67.8423 141.66 67.21Z" fill="#ECB7AE"></path><path d="M140.02 66.8807L141.615 70.8691C141.615 70.8691 158.012 65.081 157.252 60.3954C156.581 56.2773 147.026 42.5123 144.954 42.0097C142.166 41.345 141.033 48.5923 142.643 50.3433C146.027 54.0399 150.857 59.2605 150.455 60.0874C150.052 60.9467 140.02 66.8807 140.02 66.8807Z" fill="#F77021"></path><path d="M52.9917 66.0236C53.1259 66.51 54.0203 67.3207 53.6178 67.8881C53.4091 68.18 52.619 67.418 52.4551 67.1261C52.2165 66.7208 50.6662 63.3485 50.4724 62.4081C50.3084 61.6623 50.1594 60.9489 49.9805 60.268C50.696 59.9113 51.3817 59.4249 52.0078 58.8574C52.9172 59.4411 53.8563 60.2193 54.7508 60.7868C55.2278 61.0786 55.7644 61.3218 56.2564 61.5812C56.5694 61.7434 57.2402 62.019 57.2253 62.4892C57.2104 63.008 56.5247 62.781 56.2564 62.6837C55.8688 62.554 55.1831 62.0514 54.8551 62.5216C54.3781 63.1863 55.5259 64.1591 55.8837 64.6942C56.2266 65.1968 57.4937 66.737 56.4502 66.737C56.2266 66.737 54.9147 65.1968 54.706 65.0022C54.7508 65.0671 55.5856 66.1695 55.6303 66.2344C55.839 66.6235 56.4651 67.4342 56.2116 67.7746C55.6899 68.5042 54.3483 66.2668 54.1396 65.9588L54.6464 66.8343C55.0787 67.499 55.347 68.0665 54.8998 68.2124C54.3483 68.4232 53.4091 66.6073 52.9917 66.0236Z" fill="#ECB7AE"></path><path d="M53.2764 59.0392L49.4899 61.5846C49.4899 61.5846 41.1419 45.8255 40.9929 41.2858C40.8736 37.6216 41.5743 33.0819 44.8389 25.0402C46.9259 19.9007 49.1918 17.8416 50.131 18.2469C50.8018 18.5388 54.5882 20.3708 52.7248 26.6778C52.0689 28.8827 47.8203 38.2539 47.7458 39.1619C47.6862 40.0536 53.2764 59.0392 53.2764 59.0392Z" fill="#14C3BF"></path><path d="M73.4001 60.9703C74.22 62.1377 75.9492 62.0728 77.0076 61.5864C77.8723 61.1973 77.917 60.1759 78.0362 58.6843C78.1257 57.6791 78.1555 56.7225 77.917 56.4307C76.8139 55.5552 76.784 58.9113 76.6052 59.7544C76.6052 59.7544 77.0375 56.2037 76.4561 55.8956C75.3828 55.3606 75.4126 58.6357 75.2933 59.4625C75.4871 58.6843 75.5169 57.2413 75.3679 57.0306C75.3679 56.3982 74.9206 56.528 74.8014 56.5928C74.2498 56.9495 74.2498 59.6409 74.2498 59.6409C74.2498 59.1707 74.5927 57.4035 73.8771 57.7601C73.415 57.9871 73.3852 58.7491 73.2958 59.1545C73.1616 59.9489 73.2212 60.7109 73.4001 60.9703Z" fill="#ECB7AE"></path><path d="M71.6256 2.16136C71.6256 2.16136 73.2505 4.70682 69.4641 6.42541C65.6777 8.12779 60.2217 3.63675 60.2217 3.63675C60.2217 3.63675 60.3558 1.39934 63.382 0.442766C65.6479 -0.270612 67.7647 -0.173333 68.9125 1.25342C70.8803 3.66918 71.6256 2.16136 71.6256 2.16136Z" fill="#3D5276"></path></svg>