<svg xmlns="http://www.w3.org/2000/svg" width="128" height="128" viewBox="0 0 128 128" fill="none"><path d="M46.5033 68.8782L46.08 122.839C46.0543 125.643 45.4129 127.265 42.1546 127.785C38.101 128.431 36.8695 127.549 36.2666 126.178C35.1378 123.611 24.0673 72.044 22.2457 68.5317C20.4113 65.0193 46.5033 68.8782 46.5033 68.8782Z" fill="#F77021"></path><path d="M46.4134 80.5016L46.5032 68.8781C46.5032 68.8781 20.4112 65.0194 22.2327 68.5316C22.6689 69.3664 24.3622 76.0129 25.645 81.1474L46.4134 80.5016Z" fill="#DB6723"></path><path d="M5.40278 50.3078C3.09375 50.292 1.06694 52.2136 0.553824 54.9857C0.258782 56.608 0.0278795 58.6713 0.00222362 61.2543C-0.0234322 64.3257 0.168987 66.326 0.784727 68.0113C1.52875 70.0588 3.22203 71.3189 5.0436 71.3976C13.959 71.7914 46.093 73.3349 52.7891 75.2722C60.5885 77.5245 86.7062 91.7629 86.7062 91.7629L81.7289 19.626C81.7289 19.626 57.7407 43.5036 42.5011 47.2207C30.6481 50.103 12.766 50.3393 5.40278 50.3078Z" fill="#D0D1DE"></path><path d="M21.7455 72.2485C25.068 72.4375 28.5316 72.658 31.9183 72.8942C29.7888 64.4363 30.6226 54.7813 31.713 49.0166C28.3136 49.4104 24.85 49.6781 21.5146 49.8671C19.9368 58.1046 20.219 65.8223 21.7455 72.2485Z" fill="#3D5276"></path><path d="M112.196 53.285C112.363 79.3677 102.254 100.599 89.6061 100.725C76.9577 100.851 66.5799 79.8087 66.4132 53.726C66.2464 27.6433 76.3548 6.41172 89.0031 6.28572C101.639 6.15972 112.029 27.2023 112.196 53.285Z" fill="#E5E6ED"></path><path d="M110.489 53.3003C110.63 75.4769 102.023 93.5584 91.2731 93.6529C80.5233 93.7631 71.6848 75.8549 71.5437 53.6783C71.4026 31.4859 79.9973 13.4202 90.7599 13.3257C101.51 13.2154 110.348 31.1079 110.489 53.3003Z" fill="#3D5276"></path><path d="M86.8982 57.3805C87.36 49.4738 83.1524 42.6696 77.4825 42.1656C75.5455 41.9923 73.7111 42.6381 72.0948 43.7879C71.7228 46.9537 71.5175 50.2455 71.5432 53.6634C71.5816 59.5225 72.2359 65.0824 73.3647 70.0911C74.1472 70.4376 74.9554 70.7053 75.8149 70.7841C81.472 71.2881 86.4364 65.2872 86.8982 57.3805Z" fill="#F77021"></path><path d="M52.9046 28.5253C52.8276 27.6905 52.7763 26.9188 53.1483 26.1155C52.8148 26.1785 52.3273 26.2415 52.353 26.0053C52.3915 25.6903 52.4428 25.2178 52.2504 25.265C52.0708 25.3123 51.9168 25.4383 51.7501 25.5643C51.4037 25.8478 51.0189 25.8793 50.6084 25.9108C50.4801 26.462 50.0952 27.3125 50.339 27.911C50.4672 28.2103 51.1343 28.0685 51.4294 28.2103C51.9425 28.4308 52.4941 28.4938 52.9046 28.5253Z" fill="#F77021"></path><path d="M43.5016 3.05673C43.5016 3.05673 40.6666 2.86773 36.8438 5.08848L38.6269 14.633C38.6269 14.633 40.4613 13.2785 42.9756 13.4517L43.5016 3.05673Z" fill="#4B6590"></path><path d="M41.6287 8.06514C41.6415 6.47439 41.7313 4.88364 41.757 3.29289C42.8474 3.05664 43.5016 3.05664 43.5016 3.05664L42.9756 13.4516C42.2444 12.0814 41.8981 12.3964 41.757 12.2231C41.7698 10.8529 41.6159 9.43539 41.6287 8.06514Z" fill="#3D5276"></path><path d="M58.9591 3.56093C58.9591 3.56093 48.825 -1.3217 42.193 0.347849L41.7568 12.2394C41.7568 12.2394 47.6449 10.6329 55.7906 15.0272L58.9591 3.56093Z" fill="#4B6590"></path><path d="M58.5128 3.36835L50.5479 31.5352L51.3719 31.8865L59.3369 3.71965L58.5128 3.36835Z" fill="#3D5276"></path><path d="M51.134 28.5879V25.2174C51.134 25.2174 42.9498 25.2961 39.5247 24.0834C36.0997 22.8706 31.4944 17.9251 29.6729 18.7284C27.8385 19.5316 26.6711 21.8154 28.9417 24.0046C31.2122 26.1939 36.6 28.0839 38.9475 28.5249C40.5638 28.8399 49.8512 28.5879 51.134 28.5879Z" fill="#14C3BF"></path><path d="M37.4594 26.4935C34.5732 25.013 31.8408 21.8157 29.519 18.8232C27.7872 19.6895 26.7481 21.8945 28.9545 24.0207C31.2251 26.21 36.6128 28.1 38.9603 28.541C39.7556 28.6827 42.411 28.6985 45.0407 28.6827C42.4239 28.3677 39.8454 27.7062 37.4594 26.4935Z" fill="#19A9AB"></path><path d="M37.3821 67.5859C37.3821 67.5859 35.7785 70.7517 36.0223 71.5077C36.2532 72.2637 41.8078 76.2169 42.5647 75.9019C43.3087 75.5869 43.4626 74.5002 42.462 73.4134C41.5641 72.4369 40.6918 72.1534 40.1017 71.1927C39.5757 70.3579 40.1017 68.2159 40.1017 68.2159L37.3821 67.5859Z" fill="#3D5276"></path><path d="M28.0435 40.7005C28.0435 40.7005 29.1595 41.8188 30.3268 41.6298C31.4942 41.4408 42.9495 42.9056 44.1168 44.0869C45.2842 45.2839 40.4865 69.0513 40.4865 69.0513L36.5099 68.2323C36.5099 68.2323 37.9338 50.8596 37.7029 50.7336C37.4591 50.6076 31.4557 50.639 21.2062 50.639C18.7047 50.639 15.9211 44.1814 19.0767 39.6768L28.0435 40.7005Z" fill="#4B6590"></path><path d="M29.8275 14.2234C29.4298 14.0187 29.0835 13.7194 28.7627 13.3887C28.6088 14.8377 28.1598 17.4994 26.9668 18.8854C26.9668 18.8854 29.4555 20.1454 31.4823 19.5942C31.4823 19.5942 31.2386 16.2079 31.6619 14.5384C31.0333 14.6014 30.4048 14.5384 29.8275 14.2234Z" fill="#ECB7AE"></path><path d="M28.608 18.3499C28.9928 16.8537 30.2243 15.9244 31.4558 15.9087C31.4943 15.4047 31.5584 14.9322 31.6482 14.5542C31.0197 14.6014 30.4039 14.5227 29.8138 14.2234C29.4161 14.0187 29.0698 13.7194 28.7491 13.3887C28.5951 14.8377 28.1461 17.4994 26.9531 18.8854C26.9531 18.8854 27.5561 19.2004 28.4284 19.4367C28.4412 19.0902 28.5182 18.7279 28.608 18.3499Z" fill="#D9A69D"></path><path d="M29.1214 6.00204C29.1214 6.00204 32.0591 4.86804 32.9827 5.57679C33.9063 6.28554 34.6376 8.52204 34.4708 9.82929C34.304 11.1365 35.5355 12.6485 35.5612 13.121C35.5868 13.499 34.6376 13.7668 34.5991 13.9243C34.5734 14.066 34.5093 16.46 33.2265 16.8538C31.4177 17.4208 28.9931 15.641 28.1721 14.2865C27.3383 12.9478 26.3634 6.80529 29.1214 6.00204Z" fill="#ECB7AE"></path><path d="M34.5863 6.14392C34.4324 5.95492 34.0347 5.63992 33.9321 5.40367C33.8551 5.19892 33.8166 4.96267 33.714 4.77367C33.3933 4.19092 33.3163 3.76567 31.9693 3.24592C30.802 2.80492 29.3139 3.30892 28.3903 4.22242C28.0439 4.55317 27.7489 4.96267 27.5436 5.43517C27.4795 5.57692 27.2742 5.95492 27.3255 6.11242C27.3897 6.30142 27.8258 6.42742 27.9541 6.52192C28.1979 6.69517 28.4031 6.96292 28.6084 7.18342C29.9425 8.52217 32.0335 9.93967 33.5087 8.09692C33.7012 7.86067 33.8936 7.59292 34.0603 7.30942C34.3297 8.04967 34.535 8.88442 34.4708 9.70342C34.4708 9.70342 34.9455 9.26242 35.0738 8.55367C35.2662 7.34092 34.9455 6.60067 34.5863 6.14392Z" fill="#3D5276"></path><path d="M28.3772 6.03353C28.018 5.79728 27.3509 5.87603 26.9917 5.97053C26.222 6.17528 25.8115 6.86828 25.6704 7.78178C25.5934 8.33303 25.5293 8.90003 25.5293 9.46703C25.5421 10.4593 25.5806 11.0893 25.8757 12.0185C26.1451 12.9005 26.5299 13.7668 27.0943 14.4125C27.6203 14.9953 28.6337 15.6568 29.1469 15.4048C29.3393 15.3103 29.6343 13.562 29.5702 13.121C29.5189 12.68 29.3393 12.68 29.0699 12.491C28.5952 12.1603 28.0821 11.5303 28.4156 10.8215C28.9031 9.82928 29.8139 10.286 30.1346 11.6563C30.1346 11.6563 30.4938 12.428 30.6862 12.302C30.8787 12.176 31.8023 8.30153 28.3772 6.03353Z" fill="#3D5276"></path><path d="M28.75 10.9792C28.75 10.9792 29.2503 10.7272 29.6223 11.2627C29.9687 11.7667 29.8019 12.5699 29.4556 12.2707C29.1092 11.9714 29.2503 11.7037 29.1862 11.4517C29.1348 11.1997 28.8783 10.9949 28.75 10.9792Z" fill="#D9A69D"></path><path d="M17.666 39.3929C17.666 39.3929 21.8094 43.3463 30.4041 41.5822C30.4041 41.5822 30.3785 38.5581 31.0969 35.5971C31.8152 32.636 32.8928 26.8556 32.9312 23.8158C32.9697 20.3664 31.4304 18.8229 31.4304 18.8229C31.4304 18.8229 29.8141 20.6814 27.4152 18.2559C27.4152 18.2559 22.8613 19.5789 20.7191 25.9421C18.5896 32.2895 17.666 39.3929 17.666 39.3929Z" fill="#14C3BF"></path><path d="M28.0181 23.2176C25.7988 26.1629 27.9411 33.4079 30.7505 37.4399C30.8403 36.8414 30.9558 36.2271 31.1097 35.5971C31.4946 34.0379 31.9692 31.6911 32.3412 29.3916C31.5972 28.8246 30.9558 27.9741 30.5453 26.7614C29.6729 24.1941 29.1213 22.4616 28.0181 23.2176Z" fill="#19A9AB"></path><path d="M45.9901 43.457C46.3108 43.7563 46.6315 44.0555 47.0292 44.1185C47.2216 44.15 47.4012 44.1658 47.5552 44.2918C47.7219 44.4178 47.9528 44.4808 48.1453 44.5595C48.3377 44.6225 48.5686 44.6855 48.7097 44.8903C48.8765 45.1265 48.5558 45.2053 48.3249 45.221C48.0811 45.2368 47.4397 44.717 47.2473 44.9375C47.0549 45.158 47.8631 45.7093 48.0298 45.8195C48.4147 46.0715 48.6969 45.8668 49.0946 45.8825C49.3255 45.8825 49.4281 45.977 49.2742 46.2448C49.1587 46.4338 48.9278 46.4495 48.7354 46.4653C48.3634 46.4968 47.94 46.4338 47.5937 46.229C47.8502 46.418 48.3377 46.544 48.6456 46.5755C48.8508 46.5913 49.7488 46.4968 49.7488 46.8905C49.7616 47.6938 47.7733 47.174 47.491 46.9063C47.7989 47.1425 48.1709 47.237 48.5301 47.3473C48.7354 47.4103 49.2485 47.5205 48.9663 47.8513C48.5558 48.3395 47.5808 47.5363 47.0934 47.2528C47.3628 47.552 47.645 47.678 47.9913 47.9143C48.4018 48.182 48.094 48.4498 47.645 48.2765C47.4525 48.1978 47.0934 47.9615 47.0164 47.9143C46.1954 47.363 45.9003 46.8433 45.4513 45.8825C45.2974 45.536 44.7073 45.1108 44.7715 44.7643C44.8869 44.1028 45.6053 43.7563 45.9901 43.457Z" fill="#F77021"></path><path d="M46.5933 42.9529L44.9257 45.725C44.9257 45.725 34.2785 40.0706 33.3164 38.5743C32.3543 37.078 29.2243 31.5969 28.7369 30.1478C27.5952 26.7615 26.1969 22.7294 28.7369 22.0206C30.1223 21.6426 31.0202 22.0679 31.8797 24.5722C33.047 27.99 35.5485 33.3924 36.5619 35.0305C36.9724 35.6605 46.5933 42.9529 46.5933 42.9529Z" fill="#14C3BF"></path><path d="M54.0973 26.1624C54.2512 26.4617 53.8407 27.7217 53.443 28.2414C53.1351 28.6509 52.7631 28.5407 52.4552 28.3202C52.1217 28.0682 51.724 27.9894 51.6727 27.7532C51.5958 26.8082 52.3141 27.5169 52.622 27.6587C52.622 27.6587 51.7625 27.1389 51.7754 26.6822C51.8138 25.8317 52.8657 26.8082 53.1608 26.9814C52.8657 26.8869 52.3911 26.4774 52.3398 26.3199C52.1345 26.1309 52.2628 25.8789 52.3141 25.8317C52.545 25.5639 53.443 26.3672 53.443 26.3672C53.2763 26.2254 52.622 25.9419 52.8914 25.5639C53.071 25.3119 53.3276 25.5167 53.4943 25.5797C53.7894 25.6899 54.0459 25.9577 54.0973 26.1624Z" fill="#F77021"></path><path d="M52.0705 26.1315C52.1731 26.0842 52.2629 26.0527 52.3656 26.0212L52.3527 26.0055C52.3912 25.6905 53.3918 25.596 53.6099 25.4542C54.277 25.029 54.0076 24.5092 53.6997 24.6195C53.4944 24.6982 53.0198 24.8715 52.8402 24.966C52.6478 25.0762 52.3399 25.0132 52.1475 25.0605C51.9679 25.1077 51.4548 25.659 51.288 25.785C50.9545 26.0842 51.7113 26.3047 52.0705 26.1315Z" fill="#F77021"></path><path d="M126.525 35.7547C126.743 36.495 124.754 38.07 122.086 39.267C119.418 40.4797 117.07 40.8577 116.852 40.1175C116.634 39.3772 118.623 37.8022 121.291 36.6052C123.959 35.4082 126.307 35.0145 126.525 35.7547Z" fill="#D0D1DE"></path><path d="M121.663 20.9963C121.92 21.7208 120.008 23.4218 117.391 24.8078C114.774 26.1938 112.452 26.7451 112.209 26.0206C111.952 25.2961 113.863 23.5951 116.48 22.2091C119.085 20.8073 121.406 20.2718 121.663 20.9963Z" fill="#D0D1DE"></path><path d="M125.268 75.1779C125.075 75.9339 122.715 75.6976 120.008 74.6581C117.289 73.6186 115.236 72.1696 115.429 71.4294C115.621 70.6734 117.981 70.9096 120.688 71.9491C123.395 72.9886 125.447 74.4376 125.268 75.1779Z" fill="#D0D1DE"></path><path d="M120.316 91.1652C120.072 91.8897 117.737 91.4329 115.108 90.1257C112.465 88.8184 110.515 87.1804 110.759 86.4402C111.003 85.7157 113.337 86.1724 115.967 87.4797C118.61 88.7869 120.56 90.4249 120.316 91.1652Z" fill="#D0D1DE"></path><path d="M128 55.6473C127.961 56.4348 125.639 56.923 122.791 56.734C119.944 56.545 117.673 55.7733 117.711 54.9858C117.75 54.1983 120.072 53.71 122.92 53.899C125.755 54.088 128.038 54.8755 128 55.6473Z" fill="#D0D1DE"></path></svg>