<svg xmlns="http://www.w3.org/2000/svg" width="750" height="500" viewBox="0 0 750 500" fill="none"><path d="M610.08 121.78C634.08 190.33 613.34 270.28 565.24 324.71C517.14 379.14 445 409.07 372.5 414C320.77 417.52 252.09 408.33 208.96 379.55C165.83 350.77 135.85 308.48 146.25 254C149.92 234.76 162.34 209 177.16 196.24C200.81 175.78 236.16 179.53 267.07 184.49C297.98 189.45 333.29 193.29 357.07 172.95C375.31 157.31 380.98 131.95 392.27 110.74C411.47 74.6697 449.79 49.5297 490.52 46.2797C496.176 45.8322 501.858 45.7954 507.52 46.1697C551.47 49.0897 589.93 76.8697 607.99 117.05L610.08 121.78Z" fill="#C1EEE6"></path><path d="M196.45 218.269L196.45 453.269C196.45 459.648 201.621 464.819 208 464.819H555.3C561.679 464.819 566.85 459.648 566.85 453.269V218.269C566.85 211.89 561.679 206.719 555.3 206.719H208C201.621 206.719 196.45 211.89 196.45 218.269Z" fill="#4B6590"></path><path d="M221.79 214.859L221.79 456.689H531.12V214.859L221.79 214.859Z" fill="white"></path><path d="M557.906 338.071C559.158 332.748 555.857 327.419 550.535 326.168C545.212 324.917 539.883 328.217 538.632 333.54C537.381 338.862 540.681 344.191 546.003 345.442C551.326 346.694 556.655 343.393 557.906 338.071Z" fill="#2F3F5C"></path><path d="M207.11 298.12V373.42C207.11 374.093 207.657 374.64 208.33 374.64H209.98C210.654 374.64 211.2 374.093 211.2 373.42V298.12C211.2 297.446 210.654 296.9 209.98 296.9H208.33C207.657 296.9 207.11 297.446 207.11 298.12Z" fill="#2F3F5C"></path><path d="M309.538 356.749C317.125 345.22 313.93 329.724 302.401 322.136C290.872 314.549 275.376 317.744 267.788 329.273C260.201 340.801 263.396 356.298 274.925 363.886C286.454 371.473 301.95 368.278 309.538 356.749Z" fill="#F77021"></path><path opacity="0.3" d="M309.538 356.749C317.125 345.22 313.93 329.724 302.401 322.136C290.872 314.549 275.376 317.744 267.788 329.273C260.201 340.801 263.396 356.298 274.925 363.886C286.454 371.473 301.95 368.278 309.538 356.749Z" fill="white"></path><path d="M280 336.74C280.94 336.66 281.8 337.74 281.92 339.08C282.04 340.42 281.35 341.61 280.4 341.69C279.45 341.77 278.6 340.69 278.49 339.36C278.38 338.03 279.09 336.82 280 336.74Z" fill="#263238"></path><path d="M295.92 336.41C294.98 336.41 294.16 337.41 294.1 338.83C294.04 340.25 294.77 341.34 295.72 341.38C296.67 341.42 297.49 340.38 297.54 338.97C297.59 337.56 296.87 336.45 295.92 336.41Z" fill="#263238"></path><path d="M298.65 348C298.65 348.29 293.99 348.53 288.25 348.53C282.51 348.53 277.84 348.29 277.84 348C277.84 347.71 282.5 347.46 288.25 347.46C294 347.46 298.65 347.69 298.65 348Z" fill="#263238"></path><path d="M282 333.87C281.94 334.17 280.75 334.16 279.36 334.38C277.97 334.6 276.84 334.96 276.69 334.7C276.54 334.44 277.59 333.58 279.2 333.33C280.81 333.08 282 333.59 282 333.87Z" fill="#263238"></path><path d="M300.431 335.08C300.251 335.32 299.171 334.76 297.781 334.34C296.391 333.92 295.191 333.77 295.161 333.46C295.131 333.15 296.491 332.82 298.091 333.32C299.691 333.82 300.621 334.87 300.431 335.08Z" fill="#263238"></path><path d="M495.165 345.053C497.415 330.927 487.787 317.651 473.661 315.401C459.535 313.151 446.26 322.779 444.01 336.905C441.76 351.031 451.387 364.306 465.513 366.556C479.639 368.806 492.915 359.179 495.165 345.053Z" fill="#F77021"></path><path opacity="0.3" d="M495.165 345.053C497.415 330.927 487.787 317.651 473.661 315.401C459.535 313.151 446.26 322.779 444.01 336.905C441.76 351.031 451.387 364.306 465.513 366.556C479.639 368.806 492.915 359.179 495.165 345.053Z" fill="black"></path><path d="M460.63 334.44C461.63 334.36 462.51 335.44 462.63 336.86C462.75 338.28 462.05 339.49 461.07 339.57C460.09 339.65 459.19 338.57 459.07 337.15C458.95 335.73 459.65 334.52 460.63 334.44Z" fill="#263238"></path><path d="M477.1 334.1C476.1 334.1 475.27 335.18 475.21 336.6C475.15 338.02 475.91 339.2 476.89 339.24C477.87 339.28 478.72 338.16 478.78 336.74C478.84 335.32 478.09 334.14 477.1 334.1Z" fill="#263238"></path><path d="M479.93 346.1C479.82 346.24 478.74 345.47 476.93 344.52C474.55 343.277 471.905 342.625 469.22 342.62C466.532 342.739 463.899 343.42 461.49 344.62C459.61 345.54 458.49 346.24 458.4 346.1C458.31 345.96 459.29 345.1 461.14 343.96C463.579 342.486 466.353 341.656 469.2 341.55C472.064 341.542 474.872 342.343 477.3 343.86C479.09 345 480 346 479.93 346.1Z" fill="#263238"></path><path d="M462.61 331.459C462.7 331.569 462.53 331.899 462.1 332.269C461.536 332.778 460.845 333.123 460.1 333.269C459.342 333.414 458.558 333.327 457.85 333.019C457.32 332.779 457.08 332.499 457.14 332.369C457.2 332.239 458.49 332.499 459.91 332.219C461.33 331.939 462.42 331.219 462.61 331.459Z" fill="#263238"></path><path d="M481.781 332.719C481.781 332.849 481.541 333.099 480.961 333.279C480.198 333.495 479.387 333.467 478.641 333.199C477.908 332.941 477.252 332.505 476.731 331.929C476.351 331.489 476.211 331.139 476.311 331.039C476.411 330.939 477.581 331.699 478.981 332.189C480.381 332.679 481.681 332.419 481.781 332.719Z" fill="#263238"></path><path d="M419.93 412.86L425.93 409.89L431.79 413.15L430.81 406.52L435.72 401.96L429.11 400.84L426.29 394.76L423.19 400.7L416.54 401.5L421.22 406.29L419.93 412.86Z" fill="#E0E0E0"></path><path d="M395.451 412.86L401.451 409.89L407.311 413.15L406.331 406.52L411.241 401.96L404.631 400.84L401.811 394.76L398.711 400.7L392.061 401.5L396.741 406.29L395.451 412.86Z" fill="#F77021"></path><path d="M370.97 412.86L376.97 409.89L382.82 413.15L381.85 406.52L386.76 401.96L380.15 400.84L377.33 394.76L374.23 400.7L367.58 401.5L372.26 406.29L370.97 412.86Z" fill="#F77021"></path><path d="M346.491 412.86L352.491 409.89L358.341 413.15L357.371 406.52L362.281 401.96L355.671 400.84L352.851 394.76L349.751 400.7L343.101 401.5L347.781 406.29L346.491 412.86Z" fill="#F77021"></path><path d="M322.01 412.86L328.01 409.89L333.86 413.15L332.89 406.52L337.8 401.96L331.19 400.84L328.37 394.76L325.27 400.7L318.62 401.5L323.3 406.29L322.01 412.86Z" fill="#F77021"></path><path d="M436 265.51C436 265.66 409.14 265.78 376 265.78C342.86 265.78 316 265.66 316 265.51C316 265.36 342.85 265.25 376 265.25C409.15 265.25 436 265.37 436 265.51Z" fill="#263238"></path><path d="M406.5 258.31C406.5 258.46 393.24 258.58 376.88 258.58C360.52 258.58 347.25 258.46 347.25 258.31C347.25 258.16 360.51 258.04 376.88 258.04C393.25 258.04 406.5 258.16 406.5 258.31Z" fill="#263238"></path><path d="M413.632 345.493C419.411 327.557 409.556 308.332 391.62 302.553C373.684 296.774 354.459 306.628 348.68 324.564C342.901 342.5 352.756 361.725 370.692 367.504C388.627 373.284 407.852 363.429 413.632 345.493Z" fill="#F77021"></path><path d="M369.36 326.4C370.65 326.3 371.82 327.72 371.98 329.59C372.14 331.46 371.21 333.05 369.92 333.16C368.63 333.27 367.45 331.84 367.3 329.98C367.15 328.12 368.07 326.51 369.36 326.4Z" fill="#263238"></path><path d="M391.05 326C389.76 325.94 388.64 327.42 388.57 329.29C388.5 331.16 389.48 332.72 390.77 332.77C392.06 332.82 393.18 331.35 393.26 329.48C393.34 327.61 392.35 326 391.05 326Z" fill="#263238"></path><path d="M394.77 337.149C394.83 337.209 394.55 337.559 394 338.149C393.217 338.994 392.36 339.767 391.44 340.459C390.061 341.492 388.543 342.323 386.93 342.929C384.932 343.679 382.803 344.019 380.67 343.929C378.553 343.817 376.472 343.336 374.52 342.509C372.937 341.869 371.419 341.075 369.99 340.139C367.57 338.519 366.29 337.259 366.36 337.139C366.43 337.019 367.92 338.039 370.36 339.459C371.799 340.279 373.301 340.984 374.85 341.569C376.721 342.297 378.696 342.726 380.7 342.839C382.696 342.924 384.69 342.636 386.58 341.989C388.132 341.45 389.613 340.725 390.99 339.829C392.15 339.029 393.09 338.359 393.7 337.829C394.31 337.299 394.72 337.099 394.77 337.149Z" fill="#263238"></path><path d="M370.9 318.729C370.84 319.029 369.21 318.919 367.27 319.229C365.33 319.539 363.81 320.129 363.66 319.859C363.51 319.589 364.95 318.509 367.11 318.179C369.27 317.849 371 318.449 370.9 318.729Z" fill="#263238"></path><path d="M398.37 320.32C398.18 320.56 396.74 319.7 394.8 319.12C392.86 318.54 391.19 318.42 391.18 318.12C391.17 317.82 392.97 317.44 395.12 318.12C397.27 318.8 398.56 320.11 398.37 320.32Z" fill="#263238"></path><path d="M366.92 334.699C367.05 334.699 367.27 335.029 367.3 335.699C367.316 336.545 367.056 337.374 366.56 338.059C366.075 338.76 365.371 339.28 364.56 339.539C363.94 339.719 363.56 339.629 363.51 339.539C363.51 339.239 364.77 338.799 365.67 337.479C366.57 336.159 366.62 334.749 366.92 334.699Z" fill="#263238"></path><path d="M397.66 337.839C397.66 337.969 397.4 338.179 396.87 338.219C396.173 338.251 395.487 338.039 394.93 337.619C394.361 337.208 393.954 336.61 393.78 335.929C393.67 335.409 393.78 335.079 393.92 335.069C394.22 335.069 394.56 336.069 395.56 336.759C396.56 337.449 397.59 337.539 397.66 337.839Z" fill="#263238"></path><path d="M422.85 334.7C422.85 334.7 422.85 334.47 422.79 334.01L422.66 332.01C422.66 331.57 422.61 331.07 422.58 330.53C422.55 329.99 422.4 329.4 422.31 328.76C422.22 328.12 422.1 327.43 421.98 326.7C421.836 325.918 421.653 325.143 421.43 324.38C420.44 320.417 418.855 316.628 416.73 313.14C413.957 308.488 410.314 304.414 406 301.14L404.17 299.79C403.53 299.37 402.86 298.98 402.17 298.57C401.48 298.16 400.84 297.71 400.11 297.38L397.92 296.33L396.81 295.8L395.64 295.38L393.26 294.51C392.46 294.24 391.61 294.07 390.78 293.85C389.944 293.6 389.092 293.406 388.23 293.27C386.47 292.941 384.689 292.734 382.9 292.65C381.99 292.65 381.07 292.53 380.15 292.55L377.36 292.69C376.89 292.69 376.42 292.69 375.95 292.78L374.54 293C373.61 293.15 372.65 293.26 371.71 293.46C369.801 293.881 367.923 294.432 366.09 295.11C364.204 295.788 362.367 296.593 360.59 297.52C359.7 298.01 358.85 298.57 357.97 299.09C357.54 299.37 357.08 299.6 356.67 299.91L355.43 300.84C353.75 302.088 352.153 303.444 350.65 304.9L348.51 307.26L347.97 307.86L347.48 308.5L346.48 309.79L345.48 311.08L344.63 312.47L343.78 313.87L343.36 314.57L343 315.3L341.57 318.3L340.43 321.42C337.53 330.046 337.53 339.384 340.43 348.01C340.82 349.01 341.2 350.09 341.58 351.13C341.96 352.17 342.53 353.13 343.01 354.13L343.37 354.87L343.79 355.57L344.64 356.96L345.49 358.35L346.49 359.65L347.49 360.94L347.97 361.58L348.51 362.17L350.65 364.53C352.153 365.989 353.75 367.349 355.43 368.6L356.68 369.52C357.09 369.84 357.55 370.07 357.98 370.35C358.86 370.87 359.71 371.43 360.6 371.92C364.119 373.741 367.856 375.105 371.72 375.98C372.66 376.18 373.62 376.29 374.56 376.44L375.96 376.66C376.43 376.72 376.9 376.72 377.37 376.75L380.16 376.89C381.08 376.89 382 376.82 382.91 376.79C384.699 376.706 386.48 376.499 388.24 376.17C389.101 376.029 389.953 375.835 390.79 375.59C391.63 375.37 392.47 375.19 393.28 374.93L395.65 374.06L396.82 373.64L397.93 373.11L400.12 372.06C400.827 371.699 401.514 371.302 402.18 370.87C402.85 370.46 403.53 370.07 404.18 369.65L406 368.29C410.318 365.017 413.964 360.943 416.74 356.29C418.864 352.785 420.445 348.978 421.43 345C421.653 344.24 421.836 343.469 421.98 342.69C422.1 341.96 422.21 341.27 422.31 340.63C422.41 339.99 422.52 339.4 422.58 338.86C422.64 338.32 422.64 337.86 422.66 337.38C422.72 336.51 422.76 335.84 422.79 335.38C422.82 334.92 422.85 334.69 422.85 334.69C422.85 334.69 422.85 334.92 422.85 335.38C422.85 335.84 422.8 336.52 422.77 337.38C422.77 337.83 422.77 338.38 422.71 338.87C422.65 339.36 422.55 340.01 422.47 340.65C422.39 341.29 422.27 341.99 422.16 342.73C422.022 343.512 421.845 344.286 421.63 345.05C420.679 349.055 419.117 352.89 417 356.42C414.229 361.116 410.575 365.232 406.24 368.54L404.4 369.92C403.76 370.35 403.08 370.74 402.4 371.16C401.72 371.58 401.06 372.03 400.32 372.36L398.12 373.43L397 374L395.82 374.43L393.43 375.31C392.61 375.59 391.76 375.76 390.92 375.99C390.073 376.242 389.211 376.442 388.34 376.59C386.56 376.923 384.759 377.134 382.95 377.22C382.04 377.22 381.11 377.35 380.18 377.34L377.36 377.2C376.88 377.2 376.36 377.2 375.93 377.11L374.51 376.89C373.56 376.74 372.59 376.63 371.64 376.43C369.71 376 367.809 375.445 365.95 374.77C364.044 374.085 362.187 373.273 360.39 372.34C359.48 371.85 358.62 371.28 357.73 370.75C357.275 370.498 356.834 370.221 356.41 369.92L355.15 368.98C353.448 367.722 351.831 366.352 350.31 364.88L348.14 362.49L347.59 361.89L347.1 361.24L346.1 359.94L345.1 358.62L344.24 357.22L343.38 355.81L342.95 355.1L342.59 354.35L341.14 351.35C340.75 350.3 340.37 349.24 339.98 348.19C337.047 339.456 337.047 330.004 339.98 321.27L341.14 318.11L342.59 315.11L342.96 314.36L343.39 313.65L344.25 312.24L345.11 310.84L346.11 309.53L347.11 308.22L347.6 307.57L348.14 306.97C348.87 306.18 349.59 305.38 350.31 304.59C351.833 303.117 353.45 301.744 355.15 300.48L356.41 299.54C356.83 299.23 357.29 298.99 357.73 298.71C358.62 298.19 359.49 297.62 360.39 297.13C362.187 296.196 364.044 295.385 365.95 294.7C367.809 294.025 369.71 293.47 371.64 293.04C372.59 292.84 373.56 292.73 374.51 292.58L375.93 292.36C376.4 292.3 376.88 292.3 377.35 292.27L380.17 292.13C381.11 292.13 382.03 292.21 382.95 292.25C384.759 292.336 386.56 292.547 388.34 292.88C389.21 293.03 390.071 293.227 390.92 293.47C391.76 293.71 392.61 293.88 393.42 294.15L395.82 295.03L397 295.47L398.12 296.01L400.33 297.07C401.07 297.41 401.72 297.89 402.4 298.28C403.08 298.67 403.76 299.09 404.4 299.52L406.24 300.9C410.573 304.202 414.227 308.311 417 313C419.117 316.521 420.682 320.345 421.64 324.34C421.82 325.17 422.09 325.93 422.17 326.67C422.25 327.41 422.38 328.1 422.48 328.75C422.58 329.4 422.67 329.98 422.72 330.53C422.77 331.08 422.72 331.53 422.78 332.01C422.78 332.89 422.84 333.56 422.86 334.01C422.88 334.46 422.85 334.7 422.85 334.7Z" fill="#F77021"></path><path d="M531.12 214.859H221.79V230.289H531.12V214.859Z" fill="#E0E0E0"></path><path d="M231.77 222.15C231.77 222.563 231.647 222.967 231.418 223.311C231.188 223.654 230.862 223.922 230.48 224.08C230.098 224.239 229.678 224.28 229.272 224.199C228.867 224.119 228.494 223.92 228.202 223.627C227.91 223.335 227.711 222.963 227.63 222.557C227.549 222.152 227.591 221.732 227.749 221.35C227.907 220.968 228.175 220.641 228.519 220.412C228.862 220.182 229.266 220.06 229.68 220.06C230.234 220.06 230.766 220.28 231.158 220.672C231.55 221.064 231.77 221.595 231.77 222.15V222.15Z" fill="white"></path><path d="M238.71 222.15C238.71 222.563 238.588 222.967 238.358 223.311C238.128 223.654 237.802 223.922 237.42 224.08C237.038 224.239 236.618 224.28 236.213 224.199C235.807 224.119 235.435 223.92 235.142 223.627C234.85 223.335 234.651 222.963 234.57 222.557C234.49 222.152 234.531 221.732 234.689 221.35C234.848 220.968 235.115 220.641 235.459 220.412C235.803 220.182 236.207 220.06 236.62 220.06C237.175 220.06 237.706 220.28 238.098 220.672C238.49 221.064 238.71 221.595 238.71 222.15Z" fill="white"></path><path d="M245.66 222.15C245.66 222.563 245.538 222.967 245.308 223.311C245.079 223.654 244.752 223.922 244.37 224.08C243.988 224.239 243.568 224.28 243.163 224.199C242.757 224.119 242.385 223.92 242.093 223.627C241.8 223.335 241.601 222.963 241.521 222.557C241.44 222.152 241.481 221.732 241.64 221.35C241.798 220.968 242.066 220.641 242.409 220.412C242.753 220.182 243.157 220.06 243.57 220.06C244.124 220.062 244.654 220.283 245.045 220.675C245.437 221.066 245.658 221.596 245.66 222.15V222.15Z" fill="white"></path><path d="M497 277.68C497 277.83 443.33 277.95 377.13 277.95C310.93 277.95 257.25 277.83 257.25 277.68C257.25 277.53 310.92 277.42 377.13 277.42C443.34 277.42 497 277.54 497 277.68Z" fill="#E0E0E0"></path><path d="M497 283.629C497 283.769 443.33 283.889 377.13 283.889C310.93 283.889 257.25 283.769 257.25 283.629C257.25 283.489 310.92 283.359 377.13 283.359C443.34 283.359 497 283.479 497 283.629Z" fill="#E0E0E0"></path><path d="M339.7 208.35C339.7 208.35 337.59 203.56 337.19 202.51C336.12 199.64 329.19 180.41 330.86 177.51C338.53 164.04 344.48 154.51 359.61 154.51L386.34 154.33C386.34 154.33 411.66 149.17 429.51 206.77L339.7 208.35Z" fill="#6B7DA3"></path><path d="M283.321 213.169L318.321 205.629L359.461 183.999L359.611 154.469C353.441 152.769 341.611 157.049 320.361 167.879L288.771 184.189C286.241 185.493 284.042 187.357 282.342 189.639C280.642 191.921 279.485 194.561 278.959 197.358C278.434 200.154 278.553 203.034 279.309 205.778C280.065 208.521 281.437 211.056 283.321 213.189V213.169Z" fill="#6B7DA3"></path><path d="M362.08 270.33C361.57 268.67 361.92 267.6 364.34 268.42C369.68 270.21 374.45 269.62 375.61 268.59C376.77 267.56 375.71 265.59 373.97 265.74C372.07 265.734 370.18 265.472 368.35 264.96C366.865 264.606 365.449 264.008 364.16 263.19C363.04 262.48 362.08 261.81 361.23 261.19C361.23 261.19 356.3 257.63 354.76 254.77L337.87 262L340.59 270.46C340.913 271.943 341.606 273.32 342.604 274.464C343.603 275.607 344.874 276.479 346.3 277C351.13 278.57 358.81 278 358.81 278C360.22 277.08 365.65 284.94 367.3 287.71C368.95 290.48 370.9 290.83 371.54 289.14C371.97 287.98 367.14 279.37 365.46 276.66C364.104 274.673 362.971 272.544 362.08 270.31" fill="#FFC1B7"></path><path d="M350.64 278C350.64 278.06 350.22 278 349.64 277.76C348.89 277.378 348.273 276.779 347.87 276.04C347.456 275.307 347.265 274.47 347.32 273.63C347.38 272.99 347.58 272.63 347.64 272.63C347.565 273.716 347.809 274.799 348.342 275.748C348.875 276.697 349.673 277.469 350.64 277.97V278Z" fill="#995037"></path><path d="M356 278.25C356 278.31 355.6 278.25 355.06 277.98C354.359 277.587 353.787 277 353.41 276.29C353.023 275.584 352.843 274.784 352.89 273.98C352.95 273.37 353.12 272.98 353.19 273.05C353.221 274.086 353.455 275.105 353.88 276.05C354.441 276.911 355.161 277.658 356 278.25Z" fill="#995037"></path><path d="M282.32 212C282.32 212 335.94 273.62 335.87 272.6C335.8 271.58 359.87 253.6 359.87 253.6L307.34 191L282.32 212Z" fill="#6B7DA3"></path><path d="M314.84 199.92C314.84 199.92 314.98 200.03 315.22 200.28L316.22 201.4L319.82 205.56C322.82 209.08 326.99 213.98 331.55 219.41C336.11 224.84 340.22 229.78 343.17 233.41L346.64 237.68L347.57 238.86C347.77 239.13 347.88 239.28 347.86 239.29C347.722 239.186 347.598 239.065 347.49 238.93L346.49 237.81C345.58 236.81 344.37 235.36 342.89 233.65C339.89 230.13 335.71 225.23 331.15 219.8C326.59 214.37 322.49 209.43 319.53 205.8L316.06 201.53C315.69 201.06 315.38 200.67 315.14 200.35C315.023 200.219 314.923 200.075 314.84 199.92V199.92Z" fill="#263238"></path><path d="M409.69 207C410.052 205.695 410.267 204.353 410.33 203C410.363 201.397 410.07 199.805 409.469 198.32C408.867 196.834 407.969 195.487 406.83 194.36C405.53 192.99 404.13 191.81 403 190.57C401.965 189.49 401.15 188.22 400.6 186.83C400.223 185.877 400.072 184.85 400.16 183.83C400.18 183.458 400.275 183.094 400.44 182.76C400.261 184.082 400.437 185.428 400.95 186.66C401.535 187.977 402.351 189.18 403.36 190.21C404.48 191.4 405.88 192.56 407.21 193.96C408.508 195.263 409.496 196.842 410.1 198.58C410.579 199.995 410.786 201.488 410.71 202.98C410.664 203.982 410.472 204.973 410.14 205.92C410.051 206.302 409.899 206.667 409.69 207Z" fill="#263238"></path><path d="M337.37 159.599C337.37 159.599 337.64 159.459 338.15 159.229C338.66 158.999 339.45 158.709 340.47 158.389C341.721 158.004 343.008 157.743 344.31 157.609C346.051 157.42 347.813 157.584 349.49 158.089C351.523 158.735 353.348 159.909 354.78 161.489C356.407 163.338 357.518 165.584 358 167.999C358.604 170.621 358.777 173.323 358.51 175.999C358.191 178.874 357.16 181.624 355.51 183.999C353.767 186.298 351.589 188.231 349.1 189.689C346.75 191.169 344.39 192.369 342.15 193.549L330.24 199.809L322.24 203.979L320.04 205.089C319.789 205.233 319.524 205.35 319.25 205.439C319.486 205.273 319.734 205.123 319.99 204.989L322.14 203.789L330.14 199.469L341.98 193.119C344.21 191.929 346.58 190.709 348.89 189.239C351.316 187.812 353.443 185.927 355.15 183.689C356.746 181.374 357.736 178.696 358.03 175.899C358.29 173.291 358.132 170.658 357.56 168.099C357.122 165.778 356.089 163.61 354.56 161.809C353.193 160.265 351.44 159.112 349.48 158.469C347.865 157.962 346.167 157.776 344.48 157.919C343.191 158.029 341.916 158.26 340.67 158.609C339.67 158.899 338.86 159.159 338.33 159.349C338.021 159.471 337.699 159.555 337.37 159.599V159.599Z" fill="#263238"></path><path d="M320.74 205.57C320.56 205.62 320.12 202.03 317.74 198.42C315.36 194.81 312.32 192.91 312.44 192.77C313.172 193.059 313.848 193.471 314.44 193.99C317.407 196.338 319.517 199.6 320.44 203.27C320.672 204.013 320.773 204.791 320.74 205.57V205.57Z" fill="#263238"></path><path d="M399.541 198.87C399.171 199.008 398.789 199.112 398.401 199.18C397.287 199.395 396.148 199.445 395.021 199.33C393.227 199.145 391.494 198.575 389.941 197.66C387.872 196.428 386.234 194.588 385.251 192.39C384.036 189.719 383.806 186.705 384.601 183.88C385.048 182.279 386.052 180.889 387.431 179.96C388.184 179.46 389.101 179.271 389.991 179.43C390.886 179.637 391.675 180.163 392.211 180.91C393.199 182.484 393.82 184.261 394.027 186.108C394.235 187.955 394.024 189.826 393.411 191.58C392.813 193.458 391.786 195.17 390.411 196.58C388.969 198.022 387.171 199.057 385.201 199.58C383.259 200.116 381.214 200.151 379.255 199.682C377.297 199.214 375.489 198.257 374.001 196.9C372.674 195.595 371.678 193.993 371.095 192.226C370.512 190.459 370.36 188.578 370.651 186.74C370.905 185.028 371.593 183.41 372.651 182.04C373.179 181.371 373.866 180.845 374.651 180.51C375.438 180.185 376.323 180.185 377.111 180.51C377.821 180.843 378.434 181.352 378.891 181.989C379.348 182.627 379.634 183.371 379.721 184.15C379.831 185.559 379.551 186.971 378.911 188.23C377.849 190.368 376.405 192.293 374.651 193.91C373.337 195.13 371.868 196.169 370.281 197C369.282 197.529 368.238 197.968 367.161 198.31C366.801 198.43 366.511 198.49 366.321 198.54C366.224 198.573 366.123 198.593 366.021 198.6C366.108 198.55 366.202 198.512 366.301 198.49C366.491 198.42 366.771 198.34 367.131 198.2C368.182 197.822 369.202 197.361 370.181 196.82C371.732 195.964 373.167 194.912 374.451 193.69C376.151 192.084 377.547 190.183 378.571 188.08C379.164 186.878 379.42 185.537 379.311 184.2C379.225 183.497 378.963 182.828 378.549 182.254C378.134 181.681 377.581 181.221 376.941 180.92C376.262 180.64 375.499 180.64 374.821 180.92C374.112 181.228 373.493 181.709 373.021 182.32C372.003 183.625 371.341 185.172 371.101 186.81C370.828 188.566 370.978 190.362 371.538 192.049C372.098 193.736 373.052 195.265 374.321 196.51C375.747 197.79 377.474 198.69 379.341 199.125C381.208 199.56 383.155 199.517 385.001 199C386.887 198.529 388.613 197.562 390.001 196.2C391.326 194.864 392.323 193.238 392.911 191.45C393.481 189.721 393.682 187.892 393.501 186.08C393.424 185.204 393.24 184.341 392.951 183.51C392.71 182.695 392.331 181.927 391.831 181.24C391.363 180.584 390.674 180.118 389.891 179.93C389.122 179.79 388.329 179.955 387.681 180.39C386.386 181.236 385.435 182.516 385.001 184C384.215 186.724 384.413 189.638 385.561 192.23C386.495 194.377 388.07 196.183 390.071 197.4C391.578 198.321 393.266 198.908 395.021 199.12C396.531 199.289 398.058 199.204 399.541 198.87V198.87Z" fill="#FAFAFA"></path><path d="M403.58 138.87C402.442 137.483 401.625 135.86 401.19 134.12C401.01 133.56 400.99 132.961 401.13 132.39C401.202 132.102 401.368 131.848 401.602 131.666C401.836 131.485 402.124 131.388 402.42 131.39C403.02 131.39 403.42 132 403.75 132.51C404.728 133.981 405.552 135.55 406.21 137.19C406.404 137.638 406.502 138.121 406.5 138.61C406.498 138.853 406.433 139.093 406.312 139.304C406.191 139.516 406.019 139.694 405.81 139.82C405.564 139.926 405.293 139.964 405.027 139.929C404.761 139.894 404.51 139.787 404.3 139.62C403.898 139.278 403.559 138.869 403.3 138.41" fill="#F77021"></path><path d="M406.15 137.76L403.51 132.22C403.211 131.69 403.024 131.105 402.96 130.5C402.935 130.196 403.002 129.891 403.154 129.627C403.306 129.363 403.535 129.151 403.81 129.02C404.065 128.946 404.336 128.943 404.592 129.01C404.849 129.076 405.083 129.211 405.27 129.4C405.647 129.773 405.949 130.214 406.16 130.7L407.41 133.13C407.781 133.774 408.057 134.467 408.23 135.19C408.315 135.554 408.323 135.931 408.252 136.298C408.182 136.665 408.035 137.013 407.82 137.32C407.592 137.616 407.268 137.824 406.904 137.909C406.54 137.995 406.157 137.953 405.82 137.79" fill="#995037"></path><path d="M394.401 154.89C394.401 154.89 390.721 150.12 390.401 147.61C390.081 145.1 393.151 140.61 399.761 139.61C402.173 139.357 404.497 138.564 406.561 137.29C406.966 137.014 407.265 136.607 407.405 136.137C407.545 135.667 407.519 135.163 407.331 134.71C406.461 132.6 404.901 128.71 405.021 128.16C405.331 126.81 406.211 126.84 408.491 130.16C410.771 133.48 413.421 136.9 412.911 138.44C412.401 139.98 404.341 144.75 404.341 144.75L406.541 148.3L394.401 154.89Z" fill="#FFC1B7"></path><path d="M416.261 203.929L390.891 154.219L407.231 145.069L441.551 199.469C441.551 199.469 443.361 202.949 445.891 207.019H417.121" fill="#6B7DA3"></path><path d="M407 145.069C407 145.069 406.91 145.149 406.72 145.269L405.86 145.789L402.58 147.699L390.78 154.419L390.87 154.119C393.34 159.119 396.55 164.969 399.78 171.299C404.59 180.649 408.78 189.219 411.68 195.459C413.14 198.579 414.3 201.119 415.09 202.869C415.46 203.719 415.76 204.389 415.98 204.869C416.098 205.099 416.192 205.34 416.26 205.589C416.11 205.376 415.983 205.148 415.88 204.909C415.64 204.409 415.31 203.749 414.88 202.909L411.32 195.569C408.32 189.379 404.1 180.839 399.32 171.489C396.09 165.169 392.9 159.339 390.47 154.279L390.38 154.079L390.57 153.969L402.46 147.419L405.81 145.609L406.7 145.149C406.796 145.109 406.897 145.083 407 145.069V145.069Z" fill="#263238"></path><path d="M339.7 208.35C337.509 204.785 336.07 200.811 335.47 196.67C335.63 196.67 336.32 199.33 337.47 202.54C338.62 205.75 339.84 208.28 339.7 208.35Z" fill="#263238"></path><path d="M395.58 135.07C397.596 135.887 399.823 136.025 401.925 135.463C404.026 134.9 405.886 133.668 407.224 131.952C408.562 130.237 409.304 128.132 409.337 125.957C409.371 123.782 408.694 121.656 407.41 119.9C413.14 118.45 416.71 111.84 415.55 106.04C414.39 100.24 409.22 95.7197 403.44 94.4697C401.23 93.9398 398.92 93.9984 396.74 94.6397C395.657 94.9724 394.653 95.5251 393.793 96.2633C392.933 97.0014 392.234 97.9092 391.74 98.9297" fill="#263238"></path><path d="M394.77 122.109C394.77 122.169 394.03 122.309 392.82 122.939C391.118 123.845 389.769 125.296 388.99 127.059C388.417 128.35 388.176 129.763 388.287 131.171C388.399 132.578 388.861 133.935 389.63 135.119C390.069 135.803 390.608 136.417 391.23 136.939C391.868 137.494 392.59 137.943 393.37 138.269C395.01 138.98 396.834 139.149 398.577 138.751C400.319 138.354 401.89 137.411 403.06 136.059C403.618 135.424 404.073 134.705 404.41 133.929C404.739 133.189 404.958 132.404 405.06 131.599C405.205 130.424 405.104 129.232 404.764 128.097C404.424 126.963 403.853 125.911 403.086 125.009C402.319 124.107 401.373 123.373 400.309 122.855C399.244 122.337 398.083 122.046 396.9 121.999C395.53 121.949 394.78 122.169 394.77 122.099C394.942 122.025 395.124 121.975 395.31 121.949C395.832 121.838 396.365 121.784 396.9 121.789C398.595 121.793 400.253 122.288 401.673 123.215C403.093 124.141 404.214 125.459 404.9 127.009C405.545 128.465 405.783 130.069 405.59 131.649C405.502 132.504 405.276 133.338 404.92 134.119C404.574 134.949 404.094 135.715 403.5 136.389C402.262 137.83 400.594 138.836 398.742 139.259C396.89 139.682 394.951 139.5 393.21 138.739C392.386 138.385 391.623 137.902 390.95 137.309C390.293 136.757 389.726 136.106 389.27 135.379C388.419 134.035 387.939 132.489 387.88 130.899C387.824 129.214 388.256 127.549 389.123 126.104C389.991 124.658 391.257 123.493 392.77 122.749C393.25 122.507 393.757 122.323 394.28 122.199C394.439 122.151 394.604 122.121 394.77 122.109Z" fill="#F77021"></path><path d="M399.11 106.35C401.196 106.231 403.191 105.451 404.804 104.121C406.417 102.792 407.564 100.983 408.079 98.9578C408.594 96.9323 408.45 94.7953 407.668 92.8571C406.886 90.919 405.506 89.2805 403.73 88.1797C404.59 85.7669 404.67 83.1445 403.958 80.6837C403.246 78.223 401.778 76.0485 399.762 74.4681C397.746 72.8878 395.284 71.9815 392.724 71.8777C390.165 71.7739 387.637 72.4778 385.5 73.8897C383.874 71.0078 381.406 68.6926 378.426 67.2555C375.445 65.8184 372.097 65.3282 368.83 65.8509C365.562 66.3737 362.534 67.8842 360.151 70.1794C357.768 72.4747 356.145 75.4445 355.5 78.6897C352.571 77.4787 349.343 77.1852 346.243 77.8478C343.144 78.5104 340.318 80.0979 338.14 82.4006C335.962 84.7033 334.534 87.6127 334.045 90.7443C333.555 93.8759 334.028 97.0823 335.4 99.9397C332.193 100.213 329.227 101.749 327.152 104.209C325.078 106.67 324.067 109.853 324.34 113.06C324.613 116.266 326.149 119.233 328.609 121.307C331.07 123.381 334.253 124.393 337.46 124.12C336.812 126.235 336.836 128.5 337.528 130.602C338.221 132.703 339.548 134.539 341.327 135.855C343.106 137.171 345.249 137.903 347.461 137.95C349.673 137.998 351.846 137.358 353.68 136.12C354.851 138.008 356.535 139.524 358.535 140.491C360.535 141.459 362.769 141.838 364.977 141.584C367.184 141.331 369.274 140.455 371.002 139.059C372.731 137.663 374.027 135.804 374.74 133.7" fill="#263238"></path><path d="M387.07 153.269C387.28 148.399 387.54 143.989 387.54 143.989C387.54 143.989 398.43 142.619 398.9 131.509C399.37 120.399 398.26 94.8192 398.26 94.8192L378.26 85.1992L356.7 102.559L360.08 153.559C360.317 157.093 361.929 160.393 364.57 162.752C367.212 165.111 370.672 166.341 374.21 166.179V166.179C377.577 166.018 380.763 164.605 383.142 162.216C385.521 159.828 386.922 156.637 387.07 153.269V153.269Z" fill="#FFC1B7"></path><path d="M397.73 113.84C397.55 114.03 396.51 113.16 395.02 113.1C393.53 113.04 392.42 113.8 392.27 113.6C392.12 113.4 392.37 113.17 392.85 112.81C393.495 112.359 394.274 112.137 395.06 112.18C395.849 112.212 396.604 112.504 397.21 113.01C397.66 113.41 397.81 113.76 397.73 113.84Z" fill="#263238"></path><path d="M381.21 113.84C381.03 114.03 380 113.16 378.5 113.1C377 113.04 375.91 113.8 375.75 113.6C375.59 113.4 375.85 113.17 376.33 112.81C376.976 112.359 377.754 112.137 378.54 112.18C379.329 112.212 380.085 112.504 380.69 113.01C381.14 113.41 381.29 113.76 381.21 113.84Z" fill="#263238"></path><path d="M386.81 125.05C387.599 124.815 388.417 124.69 389.24 124.68C389.62 124.68 389.98 124.58 390.05 124.31C390.09 123.889 390.011 123.466 389.82 123.09C389.473 122.09 389.113 121.04 388.74 119.94C387.24 115.45 386.17 111.77 386.34 111.71C386.51 111.65 387.85 115.24 389.34 119.71L390.34 122.88C390.565 123.385 390.625 123.949 390.51 124.49C390.452 124.626 390.365 124.748 390.254 124.847C390.143 124.945 390.012 125.018 389.87 125.06C389.661 125.114 389.446 125.138 389.23 125.13C388.423 125.211 387.61 125.184 386.81 125.05V125.05Z" fill="#263238"></path><path d="M387.54 143.999C382.379 143.864 377.37 142.224 373.13 139.279C373.13 139.279 376.52 147.369 387.35 146.729L387.54 143.999Z" fill="#ECB7AE"></path><path d="M372.08 85.8197C370.346 88.3239 369.433 91.3056 369.469 94.3516C369.505 97.3977 370.487 100.357 372.28 102.82C373.9 104.94 376.34 106.67 379.01 106.57C381.68 106.47 384.26 103.95 383.69 101.34C383.43 102.159 383.365 103.028 383.501 103.876C383.636 104.725 383.967 105.531 384.469 106.229C384.97 106.927 385.627 107.498 386.389 107.897C387.15 108.296 387.994 108.512 388.853 108.528C389.712 108.543 390.563 108.358 391.338 107.986C392.113 107.614 392.791 107.067 393.317 106.387C393.843 105.708 394.203 104.915 394.369 104.071C394.534 103.228 394.5 102.358 394.27 101.53C394.478 102.729 394.902 103.881 395.52 104.93C395.837 105.453 396.29 105.88 396.831 106.165C397.371 106.451 397.98 106.584 398.59 106.55C400.26 106.33 401.23 104.55 401.59 102.88C402.108 100.395 401.99 97.8207 401.247 95.3943C400.504 92.9679 399.16 90.7684 397.34 88.9997C395.492 87.2679 393.303 85.9403 390.914 85.1018C388.524 84.2632 385.985 83.9322 383.46 84.1297C378.381 84.5768 373.59 86.6856 369.83 90.1297" fill="#263238"></path><path d="M373.49 89.7393C374.899 92.8889 375.66 96.2895 375.73 99.7393C375.79 103.208 374.499 106.565 372.13 109.099C370.931 110.333 369.406 111.201 367.734 111.603C366.061 112.005 364.308 111.924 362.68 111.369C363.118 112.858 363.222 114.425 362.983 115.959C362.745 117.492 362.17 118.954 361.3 120.239C359.44 122.709 355.78 123.889 353.07 122.399C350.61 121.059 349.55 118.079 349.21 115.299C348.801 111.925 349.154 108.502 350.243 105.282C351.332 102.063 353.129 99.1279 355.501 96.694C357.874 94.2602 360.762 92.3891 363.952 91.2184C367.143 90.0477 370.556 89.6072 373.94 89.9293" fill="#263238"></path><path d="M359.75 116.21C358.27 115.29 356.25 116.04 355.07 117.33C354.141 118.35 353.567 119.643 353.434 121.016C353.301 122.389 353.616 123.768 354.332 124.948C355.047 126.127 356.125 127.043 357.405 127.559C358.685 128.075 360.097 128.163 361.43 127.81" fill="#FFA398"></path><path d="M359.41 124.48C359.41 124.54 358.92 124.61 358.15 124.4C357.64 124.268 357.168 124.018 356.772 123.671C356.376 123.323 356.067 122.888 355.87 122.4C355.668 121.82 355.689 121.185 355.93 120.62C356.132 120.18 356.45 119.803 356.85 119.53C357.54 119.08 358.06 119.09 358.07 119.15C358.08 119.21 357.62 119.36 357.07 119.83C356.72 120.109 356.465 120.489 356.338 120.918C356.211 121.347 356.219 121.805 356.36 122.23C356.535 122.652 356.794 123.035 357.123 123.353C357.451 123.671 357.842 123.919 358.27 124.08C359 124.33 359.42 124.4 359.41 124.48Z" fill="#995037"></path><path d="M382.131 109.21C381.991 109.64 380.361 109.48 378.431 109.57C376.501 109.66 374.891 109.9 374.721 109.48C374.551 109.06 376.121 108.05 378.371 107.97C380.621 107.89 382.281 108.8 382.131 109.21Z" fill="#263238"></path><path d="M397.69 108.9C397.52 109.05 397.19 108.9 396.8 108.85C396.355 108.743 395.894 108.715 395.44 108.77C394.86 108.77 394.22 108.93 393.73 108.92C393.24 108.91 392.9 108.81 392.84 108.59C392.78 108.37 393 108.11 393.41 107.83C393.98 107.466 394.627 107.24 395.3 107.17C395.693 107.118 396.092 107.16 396.466 107.293C396.839 107.425 397.176 107.643 397.45 107.93C397.82 108.38 397.85 108.76 397.69 108.9Z" fill="#263238"></path><path d="M384.22 127.89C384.631 127.623 385.096 127.449 385.581 127.38C386.066 127.311 386.561 127.349 387.03 127.49C387.494 127.65 387.887 127.968 388.141 128.388C388.395 128.808 388.494 129.304 388.42 129.79C388.284 130.311 387.964 130.765 387.52 131.07C387.196 131.32 386.823 131.5 386.425 131.596C386.027 131.693 385.613 131.704 385.21 131.63C384.806 131.549 384.432 131.361 384.127 131.084C383.823 130.808 383.599 130.454 383.48 130.06C383.381 129.661 383.416 129.241 383.581 128.865C383.745 128.488 384.03 128.177 384.39 127.98" fill="#FFC1B7"></path><path d="M389.681 129.08C389.681 129.08 389.321 129.39 388.611 129.54C387.665 129.736 386.682 129.642 385.791 129.27C384.902 128.894 384.143 128.265 383.611 127.46C383.211 126.85 383.131 126.4 383.191 126.37C383.251 126.34 383.471 126.72 383.911 127.24C384.479 127.904 385.19 128.43 385.991 128.78C386.803 129.105 387.679 129.238 388.551 129.17C389.231 129.12 389.651 129 389.681 129.08Z" fill="#263238"></path><path d="M367.13 134.379C367.06 134.379 367.13 133.599 366.75 132.279C366.247 130.422 365.134 128.788 363.59 127.639C362.538 126.847 361.315 126.313 360.02 126.079C358.535 125.816 357.008 125.947 355.59 126.459C354.825 126.736 354.107 127.127 353.46 127.619C352.776 128.115 352.178 128.72 351.69 129.409C350.631 130.848 350.061 132.588 350.061 134.374C350.061 136.161 350.631 137.9 351.69 139.339C352.178 140.029 352.776 140.634 353.46 141.129C354.107 141.622 354.825 142.013 355.59 142.289C356.702 142.693 357.887 142.86 359.068 142.782C360.248 142.703 361.4 142.38 362.449 141.833C363.499 141.286 364.423 140.526 365.163 139.603C365.903 138.68 366.444 137.613 366.75 136.469C367.1 135.149 367.06 134.369 367.13 134.379C367.145 134.562 367.145 134.746 367.13 134.929C367.129 135.465 367.065 135.999 366.94 136.519C366.491 138.464 365.382 140.193 363.8 141.409C362.71 142.26 361.436 142.843 360.08 143.109C358.516 143.41 356.9 143.286 355.4 142.749C354.589 142.464 353.827 142.056 353.14 141.539C352.411 141.016 351.773 140.378 351.25 139.649C350.114 138.125 349.501 136.275 349.501 134.374C349.501 132.474 350.114 130.624 351.25 129.099C351.773 128.371 352.411 127.733 353.14 127.209C353.827 126.693 354.589 126.284 355.4 125.999C356.799 125.493 358.304 125.35 359.773 125.584C361.242 125.819 362.628 126.423 363.8 127.339C365.382 128.556 366.491 130.285 366.94 132.229C367.065 132.75 367.129 133.284 367.13 133.819C367.145 134.006 367.145 134.193 367.13 134.379V134.379Z" fill="#F77021"></path><path d="M397.68 84.6602C397.777 84.6668 397.872 84.6905 397.96 84.7302C398.221 84.8329 398.459 84.9858 398.66 85.1802C399.038 85.5558 399.317 86.0189 399.472 86.5284C399.627 87.0378 399.654 87.5778 399.55 88.1002C399.338 88.8938 398.897 89.6072 398.281 90.1515C397.666 90.6957 396.904 91.0465 396.09 91.1602C394.033 91.4072 391.954 90.9107 390.23 89.7602L388.17 88.5702L390.43 89.3102C390.819 89.4477 391.167 89.6811 391.441 89.9888C391.715 90.2965 391.908 90.6684 392 91.0702C392.109 91.4698 392.136 91.887 392.081 92.2974C392.026 92.7078 391.89 93.1031 391.68 93.4602C391.222 94.1783 390.507 94.6936 389.68 94.9002C388.847 95.1103 387.973 95.0896 387.15 94.8401C385.309 94.1228 383.77 92.7956 382.79 91.0802L381.27 89.0002L383.11 90.7902C383.587 91.282 383.929 91.8878 384.104 92.5496C384.279 93.2115 384.281 93.9072 384.11 94.5702C383.977 95.176 383.708 95.7436 383.323 96.2303C382.939 96.7171 382.449 97.1102 381.89 97.3801C380.974 97.8155 379.953 97.9817 378.945 97.8596C377.938 97.7375 376.986 97.3319 376.2 96.6902C375.163 95.847 374.398 94.7164 374 93.4402C373.895 93.1133 373.815 92.779 373.76 92.4402C373.749 92.3204 373.749 92.1999 373.76 92.0802C373.81 92.0802 373.87 92.5602 374.19 93.3902C374.633 94.5713 375.39 95.6088 376.38 96.3902C377.124 96.9638 378.013 97.3191 378.947 97.4162C379.882 97.5134 380.824 97.3485 381.67 96.9402C382.164 96.6937 382.595 96.3391 382.933 95.9028C383.271 95.4665 383.506 94.9597 383.62 94.4202C383.766 93.8414 383.763 93.2351 383.611 92.658C383.458 92.0809 383.162 91.5518 382.75 91.1202L383.14 90.7902C384.059 92.3954 385.493 93.6429 387.21 94.3302C387.912 94.5897 388.677 94.6191 389.397 94.4141C390.116 94.2092 390.751 93.7804 391.21 93.1902C391.93 92.0102 391.5 90.1902 390.28 89.7802L390.48 89.3302C392.096 90.4398 394.05 90.946 396 90.7602C396.755 90.6708 397.466 90.3614 398.046 89.8707C398.625 89.3799 399.048 88.7293 399.26 88.0002C399.365 87.5182 399.355 87.0184 399.232 86.5409C399.108 86.0634 398.875 85.6213 398.55 85.2502C398.289 85.0141 397.996 84.8156 397.68 84.6602V84.6602Z" fill="#455A64"></path><path d="M371.001 102.53C371.001 102.53 371.001 102.6 370.871 102.72C370.727 102.898 370.569 103.065 370.401 103.22C369.754 103.808 368.996 104.261 368.171 104.55C366.878 105 365.476 105.021 364.171 104.61C363.306 104.339 362.506 103.896 361.818 103.306C361.13 102.716 360.57 101.993 360.171 101.18L360.591 101.12C360.428 102.133 360.028 103.092 359.422 103.92C358.816 104.747 358.022 105.419 357.106 105.879C356.189 106.339 355.177 106.575 354.151 106.567C353.126 106.559 352.117 106.307 351.208 105.833C350.299 105.358 349.515 104.674 348.923 103.837C348.33 103 347.944 102.035 347.798 101.02C347.652 100.005 347.749 98.9694 348.082 97.9993C348.414 97.0292 348.972 96.152 349.711 95.4401L350.061 95.8101C348.88 96.7909 347.395 97.3316 345.861 97.3401C344.468 97.3671 343.096 96.9922 341.911 96.2601C340.851 95.6023 340.022 94.6306 339.541 93.4801C339.148 92.4997 338.981 91.4438 339.051 90.3901C339.135 88.8929 339.711 87.4656 340.691 86.3301C341.033 85.925 341.446 85.5861 341.911 85.3301C341.911 85.3301 341.461 85.6701 340.831 86.4601C339.936 87.6071 339.425 89.0066 339.371 90.4601C339.329 91.4606 339.51 92.4579 339.901 93.3801C340.368 94.4399 341.15 95.3302 342.141 95.9301C343.255 96.6137 344.543 96.9609 345.851 96.9301C347.268 96.9103 348.636 96.4096 349.731 95.5101L350.071 95.8801C349.22 96.7524 348.646 97.8563 348.42 99.0534C348.194 100.251 348.327 101.488 348.801 102.61C349.381 103.835 350.352 104.833 351.561 105.446C352.77 106.06 354.149 106.255 355.481 106C356.647 105.725 357.709 105.12 358.539 104.256C359.369 103.392 359.932 102.306 360.161 101.13L360.271 100.43L360.581 101.07C360.945 101.834 361.458 102.518 362.09 103.081C362.722 103.644 363.46 104.076 364.261 104.35C365.51 104.766 366.861 104.766 368.111 104.35C368.919 104.101 369.672 103.701 370.331 103.17C370.811 102.75 371.001 102.51 371.001 102.53Z" fill="#455A64"></path><path d="M351.211 120.309C350.959 120.54 350.663 120.717 350.341 120.829C349.465 121.193 348.515 121.341 347.571 121.259C346.109 121.151 344.745 120.485 343.761 119.399C343.14 118.712 342.682 117.894 342.421 117.006C342.16 116.118 342.101 115.183 342.251 114.269L342.711 114.469C341.723 115.777 340.437 116.829 338.961 117.539C337.822 118.08 336.571 118.344 335.311 118.309C334.136 118.276 332.987 117.961 331.961 117.389C331.074 116.933 330.317 116.26 329.759 115.433C329.202 114.606 328.862 113.652 328.771 112.659C328.652 111.33 329.006 110.002 329.771 108.909C329.987 108.624 330.239 108.369 330.521 108.149C330.614 108.063 330.722 107.995 330.841 107.949C330.841 107.949 330.451 108.289 329.941 109.029C329.271 110.103 328.982 111.371 329.121 112.629C329.225 113.558 329.561 114.446 330.1 115.21C330.638 115.973 331.361 116.589 332.201 116.999C333.204 117.53 334.32 117.815 335.455 117.831C336.59 117.846 337.713 117.592 338.731 117.089C340.132 116.421 341.355 115.431 342.301 114.199L342.951 113.359L342.761 114.359C342.619 115.198 342.665 116.059 342.895 116.878C343.125 117.698 343.533 118.456 344.091 119.099C344.993 120.13 346.249 120.787 347.611 120.939C348.51 121.045 349.421 120.952 350.281 120.669C350.881 120.459 351.191 120.279 351.211 120.309Z" fill="#455A64"></path><path d="M407.84 98.6494C408.082 99.2342 408.158 99.8742 408.06 100.499C407.942 102.037 407.294 103.486 406.228 104.6C405.161 105.714 403.742 106.424 402.21 106.609C401.593 106.74 400.951 106.691 400.36 106.469C400.36 106.379 401.07 106.469 402.15 106.239C403.562 105.973 404.854 105.272 405.846 104.233C406.838 103.195 407.479 101.871 407.68 100.449C407.86 99.3594 407.75 98.6594 407.84 98.6494Z" fill="#455A64"></path><path d="M414 109.12C414.136 109.353 414.222 109.612 414.25 109.88C414.37 110.616 414.298 111.37 414.04 112.07C413.857 112.615 413.539 113.106 413.116 113.495C412.693 113.885 412.179 114.162 411.62 114.3C410.95 114.437 410.255 114.375 409.62 114.12C409.264 113.985 408.94 113.779 408.666 113.515C408.393 113.25 408.176 112.932 408.03 112.58L408.53 112.41C408.622 112.735 408.665 113.072 408.66 113.41C408.631 114.183 408.378 114.93 407.932 115.562C407.487 116.194 406.868 116.683 406.15 116.97C405.509 117.205 404.81 117.237 404.15 117.06C403.594 116.901 403.081 116.617 402.65 116.23C402.016 115.692 401.588 114.949 401.44 114.13C401.35 113.56 401.44 113.24 401.44 113.25C401.44 113.26 401.44 113.56 401.61 114.09C401.829 114.82 402.265 115.465 402.86 115.94C403.278 116.298 403.783 116.54 404.324 116.64C404.865 116.74 405.422 116.695 405.94 116.51C406.557 116.249 407.086 115.818 407.467 115.267C407.848 114.717 408.064 114.069 408.09 113.4C408.096 113.123 408.059 112.846 407.98 112.58L408.49 112.41C408.759 112.95 409.2 113.384 409.743 113.645C410.287 113.906 410.901 113.978 411.49 113.85C411.98 113.737 412.435 113.506 412.815 113.176C413.195 112.847 413.489 112.429 413.67 111.96C413.936 111.328 414.055 110.645 414.02 109.96C414 109.4 413.91 109.13 414 109.12Z" fill="#455A64"></path><path d="M383.46 124C383.53 124 383.57 124.23 383.46 124.57C383.324 125.009 383.062 125.398 382.706 125.69C382.351 125.981 381.918 126.162 381.46 126.21C381.11 126.21 380.9 126.15 380.91 126.08C380.92 126.01 381.68 125.86 382.36 125.27C383.04 124.68 383.31 124 383.46 124Z" fill="#263238"></path><path d="M669.18 464.82C669.18 464.97 540.18 465.08 381.06 465.08C221.94 465.08 92.9004 465 92.9004 464.82C92.9004 464.64 221.9 464.56 381.06 464.56C540.22 464.56 669.18 464.68 669.18 464.82Z" fill="#263238"></path><path d="M621.81 410.79C619.31 414.35 614.46 413.17 612.21 411C609.96 408.83 609.01 405.67 608.14 402.66C606.14 395.79 604.14 388.58 605.64 381.58C605.995 379.458 606.93 377.475 608.34 375.85C609.049 375.047 609.958 374.445 610.975 374.106C611.992 373.767 613.08 373.703 614.13 373.92C616.58 374.56 618.13 376.92 619.2 379.24C622.446 385.967 624.154 393.331 624.2 400.8C624.2 404.28 623.8 407.92 621.84 410.8" fill="#F77021"></path><g opacity="0.2"><path opacity="0.2" d="M621.81 410.79C619.31 414.35 614.46 413.17 612.21 411C609.96 408.83 609.01 405.67 608.14 402.66C606.14 395.79 604.14 388.58 605.64 381.58C605.995 379.458 606.93 377.475 608.34 375.85C609.049 375.047 609.958 374.445 610.975 374.106C611.992 373.767 613.08 373.703 614.13 373.92C616.58 374.56 618.13 376.92 619.2 379.24C622.446 385.967 624.154 393.331 624.2 400.8C624.2 404.28 623.8 407.92 621.84 410.8" fill="black"></path></g><path d="M612.46 428.85C608.265 426.875 603.547 426.3 599 427.21C596.57 427.62 594 428.35 592.37 430.21C590.74 432.07 590.37 435.26 592.3 436.83C593.527 437.662 595.006 438.037 596.48 437.89C600.03 437.89 603.97 437.23 606.8 439.36C608.42 440.58 609.5 442.61 611.43 443.21C612.394 443.424 613.4 443.321 614.301 442.918C615.202 442.514 615.948 441.831 616.43 440.97C617.352 439.19 617.556 437.125 617 435.2C616.784 433.863 616.261 432.595 615.474 431.493C614.686 430.392 613.655 429.487 612.46 428.85Z" fill="#F77021"></path><path d="M628.67 415.9C625.95 412.69 625.44 408 626.67 403.97C628.038 399.965 630.484 396.415 633.74 393.71C637.433 390.42 641.734 387.883 646.4 386.24C648.204 385.493 650.149 385.152 652.1 385.24C653.069 385.3 654.01 385.594 654.841 386.097C655.672 386.601 656.368 387.298 656.87 388.13C658.21 390.67 656.93 393.75 655.55 396.27C653.109 400.726 650.32 404.983 647.21 409C644.72 412.22 641.86 415.39 638.06 416.84C634.26 418.29 630.32 418.12 628.3 415.49" fill="#F77021"></path><path d="M622 464.571C621.866 464.04 621.789 463.497 621.77 462.951C621.66 461.781 621.51 460.291 621.34 458.531C621.118 456.355 620.784 454.192 620.34 452.051C619.759 449.438 618.97 446.877 617.98 444.391C617.013 441.91 615.696 439.58 614.07 437.471C612.75 435.75 611.062 434.346 609.13 433.361C607.821 432.71 606.417 432.271 604.97 432.061C604.427 432.04 603.888 431.963 603.36 431.831C603.905 431.765 604.456 431.765 605 431.831C606.503 431.947 607.972 432.33 609.34 432.961C611.372 433.926 613.155 435.346 614.55 437.111C616.241 439.252 617.605 441.631 618.6 444.171C619.603 446.692 620.386 449.295 620.94 451.951C621.362 454.121 621.649 456.315 621.8 458.521C621.94 460.401 622 461.921 622.02 462.971C622.07 463.503 622.063 464.039 622 464.571V464.571Z" fill="#263238"></path><path d="M621.67 461.17C621.646 460.921 621.646 460.67 621.67 460.42C621.67 459.86 621.67 459.14 621.67 458.27C621.67 456.41 621.67 453.71 621.57 450.37C621.41 443.7 620.83 434.5 619.72 424.37C618.61 414.24 617.12 405.15 615.78 398.62C615.46 396.98 615.14 395.51 614.78 394.22C614.42 392.93 614.25 391.81 614.01 390.91C613.77 390.01 613.64 389.37 613.51 388.82C613.43 388.578 613.386 388.325 613.38 388.07C613.491 388.298 613.578 388.535 613.64 388.78L614.26 390.84C614.54 391.73 614.82 392.84 615.15 394.13C615.48 395.42 615.84 396.88 616.15 398.52C617.992 407.034 619.377 415.639 620.3 424.3C621.41 434.44 621.91 443.67 621.95 450.35C621.95 453.69 621.95 456.4 621.84 458.27C621.78 459.14 621.74 459.85 621.7 460.42C621.729 460.67 621.719 460.923 621.67 461.17V461.17Z" fill="#263238"></path><path d="M621.63 443.37C621.569 442.622 621.569 441.869 621.63 441.12C621.72 439.68 621.92 437.59 622.32 435.04C622.821 432.049 623.489 429.087 624.32 426.17C625.299 422.592 626.529 419.086 628 415.68C630.572 409.419 634.258 403.676 638.88 398.73C639.686 397.884 640.545 397.09 641.45 396.35C641.84 396.02 642.19 395.69 642.54 395.43L643.54 394.74C644.138 394.289 644.77 393.884 645.43 393.53C643.259 395.25 641.192 397.096 639.24 399.06C634.761 404.059 631.172 409.789 628.63 416C627.159 419.378 625.913 422.849 624.9 426.39C623.9 429.65 623.29 432.65 622.8 435.17C622.31 437.69 622.07 439.76 621.9 441.17C621.869 441.91 621.778 442.645 621.63 443.37V443.37Z" fill="#263238"></path><path d="M270.4 41.6205C270.169 41.6629 269.935 41.6929 269.7 41.7105L267.7 41.8805C266.597 41.9551 265.5 42.1122 264.42 42.3505C263.77 42.4905 263.06 42.5505 262.34 42.7705C261.62 42.9905 260.84 43.2105 260.03 43.4405C256.086 44.7066 252.371 46.601 249.03 49.0505C244.639 52.3296 240.984 56.4924 238.3 61.2705C234.186 68.684 232.411 77.1694 233.21 85.6105C233.27 86.5305 233.47 87.4405 233.6 88.3705C233.724 89.3054 233.912 90.2308 234.16 91.1405C235.042 94.9552 236.492 98.616 238.46 102C242.65 109.324 249.123 115.074 256.89 118.37C260.983 120.079 265.357 121.012 269.79 121.12C274.356 121.301 278.913 120.581 283.2 119L284.51 118.5L284.68 118.44L284.84 118.51L303.84 127.89L303.29 128.38L297.23 110.29L297.16 110.06L297.32 109.89C301.857 105.224 305.196 99.5286 307.05 93.2905C308.718 87.5904 309.141 81.5983 308.29 75.7205C306.933 65.9236 302.03 56.9647 294.51 50.5405C291.662 48.2055 288.518 46.2554 285.16 44.7405C282.624 43.6827 279.988 42.8853 277.29 42.3605L274.35 41.9005L272.18 41.7705L270.85 41.6805C270.699 41.6791 270.548 41.6624 270.4 41.6305C270.55 41.6128 270.701 41.6128 270.85 41.6305H272.18L274.37 41.6905L277.37 42.1005C280.11 42.5815 282.791 43.3491 285.37 44.3905C288.787 45.8787 291.986 47.8231 294.88 50.1705C298.392 53.1189 301.378 56.6423 303.71 60.5905C306.434 65.1983 308.231 70.2937 309 75.5905C309.89 81.5641 309.481 87.6594 307.8 93.4605C305.933 99.8242 302.546 105.638 297.93 110.4L298 110C300 115.8 302 121.85 304.08 128.08L304.39 128.99L303.53 128.57L284.53 119.2H284.86L283.52 119.71C279.136 121.319 274.476 122.043 269.81 121.84C265.281 121.731 260.811 120.778 256.63 119.03C248.712 115.653 242.119 109.773 237.86 102.29C235.863 98.8622 234.391 95.1545 233.49 91.2905C233.238 90.3653 233.054 89.4227 232.94 88.4705C232.81 87.5305 232.6 86.6105 232.55 85.6705C232.379 83.8357 232.333 81.9915 232.41 80.1505C232.514 76.6615 233.048 73.1986 234 69.8405C234.915 66.7578 236.183 63.7914 237.78 61.0005C240.539 56.1678 244.287 51.9728 248.78 48.6905C252.168 46.2452 255.935 44.3736 259.93 43.1505L262.28 42.5105C262.97 42.3482 263.668 42.2214 264.37 42.1305C265.461 41.907 266.568 41.7732 267.68 41.7305L269.73 41.6305L270.4 41.6205Z" fill="#263238"></path><path d="M279.341 76.5008H276.571L270.431 68.1508L270.371 62.6208C270.371 62.6208 266.091 62.4108 266.671 69.6208C267.251 76.8308 266.671 75.0108 266.671 75.0108C266.671 75.0108 257.591 75.1508 256.841 75.9508C256.301 76.5308 256.151 85.5608 256.121 90.4508C256.066 91.6501 256.42 92.8326 257.125 93.8046C257.83 94.7765 258.844 95.4803 260.001 95.8008C260.328 95.881 260.664 95.9213 261.001 95.9208C263.271 95.9208 274.821 93.9208 274.821 93.9208L279.611 93.8608L279.341 76.5008Z" fill="#F77021"></path><path d="M287.251 74.8906L285.761 93.8406L281.021 93.9006L280.811 75.3506L287.251 74.8906Z" fill="#F77021"></path></svg>